{
	"asset":{
		"generator":"Khronos glTF Blender I/O v5.2.39",
		"version":"2.0"
	},
	"scene":0,
	"scenes":[
		{
			"name":"Scene",
			"nodes":[
				0
			]
		}
	],
	"nodes":[
		{
			"mesh":0,
			"name":"tripo_node_ca344ee5-1185-4a02-953b-566093fbe065",
			"scale":[
				2.7867305278778076,
				2.7867305278778076,
				2.7867305278778076
			],
			"translation":[
				0,
				1.3779380321502686,
				0
			]
		}
	],
	"materials":[
		{
			"name":"tripo_material_ca344ee5-1185-4a02-953b-566093fbe065",
			"normalTexture":{
				"index":0
			},
			"pbrMetallicRoughness":{
				"baseColorTexture":{
					"index":1
				},
				"metallicRoughnessTexture":{
					"index":2
				}
			}
		}
	],
	"meshes":[
		{
			"name":"tripo_mesh_ca344ee5-1185-4a02-953b-566093fbe065",
			"primitives":[
				{
					"attributes":{
						"POSITION":0,
						"NORMAL":1,
						"TEXCOORD_0":2
					},
					"indices":3,
					"material":0
				}
			]
		}
	],
	"textures":[
		{
			"sampler":0,
			"source":0
		},
		{
			"sampler":0,
			"source":1
		},
		{
			"sampler":0,
			"source":2
		}
	],
	"images":[
		{
			"mimeType":"image/jpeg",
			"name":"NormalGL_ca344ee5-1185-4a02-953b-566093fbe065",
			"uri":"NormalGL_ca344ee5-1185-4a02-953b-566093fbe065.jpg"
		},
		{
			"mimeType":"image/jpeg",
			"name":"Color_ca344ee5-1185-4a02-953b-566093fbe065",
			"uri":"Color_ca344ee5-1185-4a02-953b-566093fbe065.jpg"
		},
		{
			"mimeType":"image/jpeg",
			"name":"ORM_ca344ee5-1185-4a02-953b-566093fbe065",
			"uri":"ORM_ca344ee5-1185-4a02-953b-566093fbe065.jpg"
		}
	],
	"accessors":[
		{
			"bufferView":0,
			"componentType":5126,
			"count":6231,
			"max":[
				0.1470358520746231,
				0.5,
				0.3092678487300873
			],
			"min":[
				-0.1470358520746231,
				-0.5,
				-0.3092678487300873
			],
			"type":"VEC3"
		},
		{
			"bufferView":1,
			"componentType":5126,
			"count":6231,
			"type":"VEC3"
		},
		{
			"bufferView":2,
			"componentType":5126,
			"count":6231,
			"type":"VEC2"
		},
		{
			"bufferView":3,
			"componentType":5123,
			"count":28320,
			"type":"SCALAR"
		}
	],
	"bufferViews":[
		{
			"buffer":0,
			"byteLength":74772,
			"byteOffset":0,
			"target":34962
		},
		{
			"buffer":0,
			"byteLength":74772,
			"byteOffset":74772,
			"target":34962
		},
		{
			"buffer":0,
			"byteLength":49848,
			"byteOffset":149544,
			"target":34962
		},
		{
			"buffer":0,
			"byteLength":56640,
			"byteOffset":199392,
			"target":34963
		}
	],
	"samplers":[
		{
			"magFilter":9729,
			"minFilter":9987
		}
	],
	"buffers":[
		{
			"byteLength":256032,
			"uri":"black.bin"
		}
	]
}
