{
	"asset":{
		"generator":"Khronos glTF Blender I/O v5.2.39",
		"version":"2.0"
	},
	"scene":0,
	"scenes":[
		{
			"name":"Scene",
			"nodes":[
				0
			]
		}
	],
	"nodes":[
		{
			"mesh":0,
			"name":"tripo_node_b9fc1fd9-9016-4367-8d60-b3f7556ca273",
			"scale":[
				2.6072731018066406,
				2.6072731018066406,
				2.6072731018066406
			],
			"translation":[
				0,
				1.2355124950408936,
				0
			]
		}
	],
	"materials":[
		{
			"name":"tripo_material_b9fc1fd9-9016-4367-8d60-b3f7556ca273",
			"normalTexture":{
				"index":0
			},
			"pbrMetallicRoughness":{
				"baseColorTexture":{
					"index":1
				},
				"metallicRoughnessTexture":{
					"index":2
				}
			}
		}
	],
	"meshes":[
		{
			"name":"tripo_mesh_b9fc1fd9-9016-4367-8d60-b3f7556ca273",
			"primitives":[
				{
					"attributes":{
						"POSITION":0,
						"NORMAL":1,
						"TEXCOORD_0":2
					},
					"indices":3,
					"material":0
				}
			]
		}
	],
	"textures":[
		{
			"sampler":0,
			"source":0
		},
		{
			"sampler":0,
			"source":1
		},
		{
			"sampler":0,
			"source":2
		}
	],
	"images":[
		{
			"mimeType":"image/jpeg",
			"name":"NormalGL_b9fc1fd9-9016-4367-8d60-b3f7556ca273",
			"uri":"NormalGL_b9fc1fd9-9016-4367-8d60-b3f7556ca273.jpg"
		},
		{
			"mimeType":"image/jpeg",
			"name":"Color_b9fc1fd9-9016-4367-8d60-b3f7556ca273",
			"uri":"Color_b9fc1fd9-9016-4367-8d60-b3f7556ca273.jpg"
		},
		{
			"mimeType":"image/jpeg",
			"name":"ORM_b9fc1fd9-9016-4367-8d60-b3f7556ca273",
			"uri":"ORM_b9fc1fd9-9016-4367-8d60-b3f7556ca273.jpg"
		}
	],
	"accessors":[
		{
			"bufferView":0,
			"componentType":5126,
			"count":7256,
			"max":[
				0.1915910691022873,
				0.5,
				0.21249130368232727
			],
			"min":[
				-0.1915910691022873,
				-0.5,
				-0.21249130368232727
			],
			"type":"VEC3"
		},
		{
			"bufferView":1,
			"componentType":5126,
			"count":7256,
			"type":"VEC3"
		},
		{
			"bufferView":2,
			"componentType":5126,
			"count":7256,
			"type":"VEC2"
		},
		{
			"bufferView":3,
			"componentType":5123,
			"count":29340,
			"type":"SCALAR"
		}
	],
	"bufferViews":[
		{
			"buffer":0,
			"byteLength":87072,
			"byteOffset":0,
			"target":34962
		},
		{
			"buffer":0,
			"byteLength":87072,
			"byteOffset":87072,
			"target":34962
		},
		{
			"buffer":0,
			"byteLength":58048,
			"byteOffset":174144,
			"target":34962
		},
		{
			"buffer":0,
			"byteLength":58680,
			"byteOffset":232192,
			"target":34963
		}
	],
	"samplers":[
		{
			"magFilter":9729,
			"minFilter":9987
		}
	],
	"buffers":[
		{
			"byteLength":290872,
			"uri":"trade.bin"
		}
	]
}
