{
	"asset":{
		"generator":"Khronos glTF Blender I/O v5.2.39",
		"version":"2.0"
	},
	"extensionsUsed":[
		"KHR_materials_unlit",
		"KHR_texture_transform"
	],
	"extensionsRequired":[
		"KHR_texture_transform"
	],
	"scene":0,
	"scenes":[
		{
			"name":"Scene",
			"nodes":[
				0,
				1,
				2,
				3,
				4,
				5,
				6,
				7,
				8,
				9,
				10,
				11,
				12,
				13,
				14,
				15,
				16,
				17,
				18,
				19,
				20,
				21,
				22,
				23,
				24,
				25,
				26,
				27,
				28,
				29,
				30,
				31,
				32,
				33,
				34,
				35,
				36,
				37,
				38,
				39,
				40,
				41,
				42,
				43,
				44,
				45,
				46,
				47,
				48,
				49,
				50,
				51,
				52
			]
		}
	],
	"nodes":[
		{
			"mesh":0,
			"name":"Circle",
			"scale":[
				150.23036193847656,
				150.23036193847656,
				150.23036193847656
			],
			"translation":[
				-1.619511365890503,
				-0.542212724685669,
				-139.9384765625
			]
		},
		{
			"mesh":1,
			"name":"tripo_node_5d4f4407-aa18-48fd-8403-00b2663a227b",
			"rotation":[
				0,
				-0.7054416537284851,
				0,
				0.7087680101394653
			],
			"scale":[
				2.1369824409484863,
				2.1369822025299072,
				2.1369824409484863
			],
			"translation":[
				18.21653938293457,
				0.45268514752388,
				-10.616592407226562
			]
		},
		{
			"mesh":2,
			"name":"tripo_node_5d4f4407-aa18-48fd-8403-00b2663a227b.001",
			"rotation":[
				0,
				-0.7054416537284851,
				0,
				0.7087680101394653
			],
			"scale":[
				2.1369824409484863,
				2.1369822025299072,
				2.1369824409484863
			],
			"translation":[
				33.241432189941406,
				0.45268514752388,
				-50.311988830566406
			]
		},
		{
			"mesh":3,
			"name":"tripo_node_5d4f4407-aa18-48fd-8403-00b2663a227b.002",
			"rotation":[
				0,
				-0.7054416537284851,
				0,
				0.7087680101394653
			],
			"scale":[
				2.1369824409484863,
				2.1369822025299072,
				2.1369824409484863
			],
			"translation":[
				-52.270606994628906,
				0.45268514752388,
				-56.989715576171875
			]
		},
		{
			"mesh":4,
			"name":"tripo_node_5d4f4407-aa18-48fd-8403-00b2663a227b.003",
			"rotation":[
				0,
				-0.997112512588501,
				0,
				0.07593966275453568
			],
			"scale":[
				2.1369824409484863,
				2.1369822025299072,
				2.1369824409484863
			],
			"translation":[
				13.43824291229248,
				0.45268514752388,
				-112.81553649902344
			]
		},
		{
			"mesh":5,
			"name":"tripo_node_5d4f4407-aa18-48fd-8403-00b2663a227b.004",
			"rotation":[
				0,
				-0.997112512588501,
				0,
				0.07593966275453568
			],
			"scale":[
				2.1369824409484863,
				2.1369822025299072,
				2.1369824409484863
			],
			"translation":[
				100.24871826171875,
				0.45268514752388,
				-139.5264434814453
			]
		},
		{
			"mesh":6,
			"name":"tripo_node_5d4f4407-aa18-48fd-8403-00b2663a227b.005",
			"rotation":[
				0,
				-0.997112512588501,
				0,
				0.07593966275453568
			],
			"scale":[
				2.1369824409484863,
				2.1369822025299072,
				2.1369824409484863
			],
			"translation":[
				100.24871826171875,
				0.45268514752388,
				-192.4140625
			]
		},
		{
			"mesh":7,
			"name":"tripo_node_5d4f4407-aa18-48fd-8403-00b2663a227b.006",
			"rotation":[
				0,
				-0.997112512588501,
				0,
				0.07593966275453568
			],
			"scale":[
				2.1369824409484863,
				2.1369822025299072,
				2.1369824409484863
			],
			"translation":[
				-120.84076690673828,
				0.45268514752388,
				-192.4140625
			]
		},
		{
			"mesh":8,
			"name":"tripo_node_5d4f4407-aa18-48fd-8403-00b2663a227b.007",
			"rotation":[
				0,
				0.8810153603553772,
				0,
				0.47308778762817383
			],
			"scale":[
				2.1369822025299072,
				2.1369822025299072,
				2.1369822025299072
			],
			"translation":[
				-120.84076690673828,
				0.45268514752388,
				-136.5647430419922
			]
		},
		{
			"mesh":9,
			"name":"tripo_node_5d4f4407-aa18-48fd-8403-00b2663a227b.008",
			"rotation":[
				0,
				0.8810153603553772,
				0,
				0.47308778762817383
			],
			"scale":[
				2.1369822025299072,
				2.1369822025299072,
				2.1369822025299072
			],
			"translation":[
				35.1680908203125,
				0.45268514752388,
				-193.79876708984375
			]
		},
		{
			"mesh":10,
			"name":"tripo_node_5d4f4407-aa18-48fd-8403-00b2663a227b.009",
			"rotation":[
				0,
				0.8810153603553772,
				0,
				0.47308778762817383
			],
			"scale":[
				2.1369822025299072,
				2.1369822025299072,
				2.1369822025299072
			],
			"translation":[
				35.1680908203125,
				0.45268514752388,
				-240.8783721923828
			]
		},
		{
			"mesh":11,
			"name":"tripo_node_5d4f4407-aa18-48fd-8403-00b2663a227b.010",
			"rotation":[
				0,
				0.3833867013454437,
				0,
				0.9235879778862
			],
			"scale":[
				2.1369822025299072,
				2.1369822025299072,
				2.1369822025299072
			],
			"translation":[
				-76.16130828857422,
				0.45268514752388,
				-240.8783721923828
			]
		},
		{
			"mesh":12,
			"name":"tripo_node_74eaf3f9-b2a1-43f9-8f31-962a9845412e",
			"scale":[
				5.520654201507568,
				5.520654201507568,
				5.520654201507568
			],
			"translation":[
				-25.762222290039062,
				1.4120104312896729,
				-37.269447326660156
			]
		},
		{
			"mesh":13,
			"name":"tripo_node_74eaf3f9-b2a1-43f9-8f31-962a9845412e.001",
			"scale":[
				5.520654201507568,
				5.520654201507568,
				5.520654201507568
			],
			"translation":[
				-64.7314453125,
				1.4120104312896729,
				-131.51144409179688
			]
		},
		{
			"mesh":14,
			"name":"tripo_node_74eaf3f9-b2a1-43f9-8f31-962a9845412e.002",
			"scale":[
				5.520654201507568,
				5.520654201507568,
				5.520654201507568
			],
			"translation":[
				48.77998352050781,
				1.4120104312896729,
				-105.91967010498047
			]
		},
		{
			"mesh":15,
			"name":"tripo_node_74eaf3f9-b2a1-43f9-8f31-962a9845412e.003",
			"scale":[
				5.520654201507568,
				5.520654201507568,
				5.520654201507568
			],
			"translation":[
				130.60096740722656,
				1.4120104312896729,
				-132.5967254638672
			]
		},
		{
			"mesh":16,
			"name":"tripo_node_74eaf3f9-b2a1-43f9-8f31-962a9845412e.004",
			"scale":[
				5.520654201507568,
				5.520654201507568,
				5.520654201507568
			],
			"translation":[
				-11.528554916381836,
				1.4120104312896729,
				-215.878173828125
			]
		},
		{
			"mesh":17,
			"name":"tripo_node_81bcfc4c-d0e1-4471-87ef-86b16438f660",
			"rotation":[
				0.21305517852306366,
				-0.03146413341164589,
				-0.0029754445422440767,
				0.9765288829803467
			],
			"scale":[
				12.442376136779785,
				12.442377090454102,
				12.442377090454102
			],
			"translation":[
				0,
				1.3524539470672607,
				-272.1419677734375
			]
		},
		{
			"mesh":18,
			"name":"tripo_node_95a5b99c-2e7c-44e2-8d41-98f418410477",
			"scale":[
				5.070910930633545,
				5.070910930633545,
				5.070910930633545
			],
			"translation":[
				-8.62241268157959,
				2.0597212314605713,
				-15.461250305175781
			]
		},
		{
			"mesh":19,
			"name":"tripo_node_95a5b99c-2e7c-44e2-8d41-98f418410477.001",
			"scale":[
				5.070910930633545,
				5.070910930633545,
				5.070910930633545
			],
			"translation":[
				19.512928009033203,
				2.0597212314605713,
				-28.652755737304688
			]
		},
		{
			"mesh":20,
			"name":"tripo_node_95a5b99c-2e7c-44e2-8d41-98f418410477.002",
			"scale":[
				5.070910930633545,
				5.070910930633545,
				5.070910930633545
			],
			"translation":[
				60.53704071044922,
				2.0597212314605713,
				-37.360267639160156
			]
		},
		{
			"mesh":21,
			"name":"tripo_node_95a5b99c-2e7c-44e2-8d41-98f418410477.003",
			"scale":[
				5.070910930633545,
				5.070910930633545,
				5.070910930633545
			],
			"translation":[
				44.76141357421875,
				2.0597212314605713,
				-15.299530029296875
			]
		},
		{
			"mesh":22,
			"name":"tripo_node_95a5b99c-2e7c-44e2-8d41-98f418410477.004",
			"scale":[
				5.070910930633545,
				5.070910930633545,
				5.070910930633545
			],
			"translation":[
				44.76141357421875,
				2.0597212314605713,
				-15.299530029296875
			]
		},
		{
			"mesh":23,
			"name":"tripo_node_95a5b99c-2e7c-44e2-8d41-98f418410477.005",
			"scale":[
				5.070910930633545,
				5.070910930633545,
				5.070910930633545
			],
			"translation":[
				26.794118881225586,
				2.0597212314605713,
				-73.52440643310547
			]
		},
		{
			"mesh":24,
			"name":"tripo_node_95a5b99c-2e7c-44e2-8d41-98f418410477.006",
			"scale":[
				5.070910930633545,
				5.070910930633545,
				5.070910930633545
			],
			"translation":[
				-6.282233715057373,
				2.0597212314605713,
				-64.34758758544922
			]
		},
		{
			"mesh":25,
			"name":"tripo_node_95a5b99c-2e7c-44e2-8d41-98f418410477.007",
			"scale":[
				5.070910930633545,
				5.070910930633545,
				5.070910930633545
			],
			"translation":[
				78.06358337402344,
				2.0597212314605713,
				-64.34758758544922
			]
		},
		{
			"mesh":26,
			"name":"tripo_node_95a5b99c-2e7c-44e2-8d41-98f418410477.008",
			"scale":[
				5.070910930633545,
				5.070910930633545,
				5.070910930633545
			],
			"translation":[
				-49.68474578857422,
				2.0597212314605713,
				-73.52440643310547
			]
		},
		{
			"mesh":27,
			"name":"tripo_node_95a5b99c-2e7c-44e2-8d41-98f418410477.009",
			"scale":[
				5.070910930633545,
				5.070910930633545,
				5.070910930633545
			],
			"translation":[
				-55.88330078125,
				2.0597212314605713,
				-43.6171875
			]
		},
		{
			"mesh":28,
			"name":"tripo_node_95a5b99c-2e7c-44e2-8d41-98f418410477.010",
			"scale":[
				5.070910930633545,
				5.070910930633545,
				5.070910930633545
			],
			"translation":[
				-101.8626937866211,
				2.0597212314605713,
				-122.59622192382812
			]
		},
		{
			"mesh":29,
			"name":"tripo_node_95a5b99c-2e7c-44e2-8d41-98f418410477.011",
			"scale":[
				5.070910930633545,
				5.070910930633545,
				5.070910930633545
			],
			"translation":[
				-117.37056732177734,
				2.0597212314605713,
				-68.23017120361328
			]
		},
		{
			"mesh":30,
			"name":"tripo_node_95a5b99c-2e7c-44e2-8d41-98f418410477.012",
			"scale":[
				5.070910930633545,
				5.070910930633545,
				5.070910930633545
			],
			"translation":[
				-82.87351989746094,
				2.0597212314605713,
				-172.03750610351562
			]
		},
		{
			"mesh":31,
			"name":"tripo_node_95a5b99c-2e7c-44e2-8d41-98f418410477.013",
			"scale":[
				5.070910930633545,
				5.070910930633545,
				5.070910930633545
			],
			"translation":[
				-36.286338806152344,
				2.0597212314605713,
				-125.28407287597656
			]
		},
		{
			"mesh":32,
			"name":"tripo_node_95a5b99c-2e7c-44e2-8d41-98f418410477.014",
			"scale":[
				5.070910930633545,
				5.070910930633545,
				5.070910930633545
			],
			"translation":[
				-10.739089012145996,
				2.0597212314605713,
				-169.69627380371094
			]
		},
		{
			"mesh":33,
			"name":"tripo_node_95a5b99c-2e7c-44e2-8d41-98f418410477.015",
			"scale":[
				5.070910930633545,
				5.070910930633545,
				5.070910930633545
			],
			"translation":[
				28.9083251953125,
				2.0597212314605713,
				-144.30145263671875
			]
		},
		{
			"mesh":34,
			"name":"tripo_node_95a5b99c-2e7c-44e2-8d41-98f418410477.016",
			"scale":[
				5.070910930633545,
				5.070910930633545,
				5.070910930633545
			],
			"translation":[
				72.24122619628906,
				2.0597212314605713,
				-111.14256286621094
			]
		},
		{
			"mesh":35,
			"name":"tripo_node_95a5b99c-2e7c-44e2-8d41-98f418410477.017",
			"scale":[
				5.070910930633545,
				5.070910930633545,
				5.070910930633545
			],
			"translation":[
				116.46871185302734,
				2.0597212314605713,
				-111.14256286621094
			]
		},
		{
			"mesh":36,
			"name":"tripo_node_95a5b99c-2e7c-44e2-8d41-98f418410477.018",
			"scale":[
				5.070910930633545,
				5.070910930633545,
				5.070910930633545
			],
			"translation":[
				126.51881408691406,
				2.0597212314605713,
				-166.3721160888672
			]
		},
		{
			"mesh":37,
			"name":"tripo_node_95a5b99c-2e7c-44e2-8d41-98f418410477.019",
			"scale":[
				5.070910930633545,
				5.070910930633545,
				5.070910930633545
			],
			"translation":[
				73.67839813232422,
				2.0597212314605713,
				-185.94296264648438
			]
		},
		{
			"mesh":38,
			"name":"tripo_node_95a5b99c-2e7c-44e2-8d41-98f418410477.020",
			"scale":[
				5.070910930633545,
				5.070910930633545,
				5.070910930633545
			],
			"translation":[
				92.2406234741211,
				2.0597212314605713,
				-214.0030059814453
			]
		},
		{
			"mesh":39,
			"name":"tripo_node_95a5b99c-2e7c-44e2-8d41-98f418410477.021",
			"scale":[
				5.070910930633545,
				5.070910930633545,
				5.070910930633545
			],
			"translation":[
				10.209410667419434,
				2.0597212314605713,
				-214.0030059814453
			]
		},
		{
			"mesh":40,
			"name":"tripo_node_95a5b99c-2e7c-44e2-8d41-98f418410477.022",
			"scale":[
				5.070910930633545,
				5.070910930633545,
				5.070910930633545
			],
			"translation":[
				-43.58179473876953,
				2.0597212314605713,
				-203.43380737304688
			]
		},
		{
			"mesh":41,
			"name":"tripo_node_95a5b99c-2e7c-44e2-8d41-98f418410477.023",
			"scale":[
				5.070910930633545,
				5.070910930633545,
				5.070910930633545
			],
			"translation":[
				-101.9331283569336,
				2.0597212314605713,
				-223.8544921875
			]
		},
		{
			"mesh":42,
			"name":"tripo_node_95a5b99c-2e7c-44e2-8d41-98f418410477.024",
			"scale":[
				5.070910930633545,
				5.070910930633545,
				5.070910930633545
			],
			"translation":[
				-31.630096435546875,
				2.0597212314605713,
				-255.2602081298828
			]
		},
		{
			"mesh":43,
			"name":"tripo_node_95a5b99c-2e7c-44e2-8d41-98f418410477.025",
			"scale":[
				5.070910930633545,
				5.070910930633545,
				5.070910930633545
			],
			"translation":[
				70.67476654052734,
				2.0597212314605713,
				-255.2602081298828
			]
		},
		{
			"mesh":44,
			"name":"tripo_node_db6ac3cd-5df1-422f-a8eb-dd5cbf5aea9b",
			"rotation":[
				0.2003011554479599,
				0.20465566217899323,
				0.6847392916679382,
				0.6701698899269104
			],
			"scale":[
				2.2213590145111084,
				2.2213590145111084,
				2.2213590145111084
			],
			"translation":[
				-1.619511365890503,
				0.48304060101509094,
				-33.34070587158203
			]
		},
		{
			"mesh":45,
			"name":"tripo_node_db6ac3cd-5df1-422f-a8eb-dd5cbf5aea9b.001",
			"rotation":[
				0.2003011554479599,
				0.20465566217899323,
				0.6847392916679382,
				0.6701698899269104
			],
			"scale":[
				2.2213590145111084,
				2.2213590145111084,
				2.2213590145111084
			],
			"translation":[
				-47.5615234375,
				0.48304060101509094,
				-18.693252563476562
			]
		},
		{
			"mesh":46,
			"name":"tripo_node_db6ac3cd-5df1-422f-a8eb-dd5cbf5aea9b.002",
			"rotation":[
				0.2003011554479599,
				0.20465566217899323,
				0.6847392916679382,
				0.6701698899269104
			],
			"scale":[
				2.2213590145111084,
				2.2213590145111084,
				2.2213590145111084
			],
			"translation":[
				-77.89434051513672,
				0.48304060101509094,
				-98.89064025878906
			]
		},
		{
			"mesh":47,
			"name":"tripo_node_db6ac3cd-5df1-422f-a8eb-dd5cbf5aea9b.003",
			"rotation":[
				0.2003011554479599,
				0.20465566217899323,
				0.6847392916679382,
				0.6701698899269104
			],
			"scale":[
				2.2213590145111084,
				2.2213590145111084,
				2.2213590145111084
			],
			"translation":[
				-89.1232681274414,
				0.48304060101509094,
				-50.088775634765625
			]
		},
		{
			"mesh":48,
			"name":"tripo_node_db6ac3cd-5df1-422f-a8eb-dd5cbf5aea9b.004",
			"rotation":[
				0.2003011554479599,
				0.20465566217899323,
				0.6847392916679382,
				0.6701698899269104
			],
			"scale":[
				2.2213590145111084,
				2.2213590145111084,
				2.2213590145111084
			],
			"translation":[
				-127.08712768554688,
				0.48304060101509094,
				-165.73843383789062
			]
		},
		{
			"mesh":49,
			"name":"tripo_node_db6ac3cd-5df1-422f-a8eb-dd5cbf5aea9b.005",
			"rotation":[
				0.2003011554479599,
				0.20465566217899323,
				0.6847392916679382,
				0.6701698899269104
			],
			"scale":[
				2.2213590145111084,
				2.2213590145111084,
				2.2213590145111084
			],
			"translation":[
				68.41266632080078,
				0.48304060101509094,
				-143.76364135742188
			]
		},
		{
			"mesh":50,
			"name":"tripo_node_db6ac3cd-5df1-422f-a8eb-dd5cbf5aea9b.006",
			"rotation":[
				0.2003011554479599,
				0.20465566217899323,
				0.6847392916679382,
				0.6701698899269104
			],
			"scale":[
				2.2213590145111084,
				2.2213590145111084,
				2.2213590145111084
			],
			"translation":[
				101.27674102783203,
				0.48304060101509094,
				-72.14973449707031
			]
		},
		{
			"mesh":51,
			"name":"tripo_node_db6ac3cd-5df1-422f-a8eb-dd5cbf5aea9b.007",
			"rotation":[
				0.2003011554479599,
				0.20465566217899323,
				0.6847392916679382,
				0.6701698899269104
			],
			"scale":[
				2.2213590145111084,
				2.2213590145111084,
				2.2213590145111084
			],
			"translation":[
				71.31622314453125,
				0.48304060101509094,
				-227.67689514160156
			]
		},
		{
			"mesh":52,
			"name":"tripo_node_db6ac3cd-5df1-422f-a8eb-dd5cbf5aea9b.008",
			"rotation":[
				0.2003011554479599,
				0.20465566217899323,
				0.6847392916679382,
				0.6701698899269104
			],
			"scale":[
				2.2213590145111084,
				2.2213590145111084,
				2.2213590145111084
			],
			"translation":[
				-83.62773132324219,
				0.48304060101509094,
				-207.84642028808594
			]
		}
	],
	"materials":[
		{
			"doubleSided":true,
			"extensions":{
				"KHR_materials_unlit":{}
			},
			"name":"Material.001",
			"pbrMetallicRoughness":{
				"baseColorTexture":{
					"extensions":{
						"KHR_texture_transform":{
							"offset":[
								0,
								-99
							],
							"scale":[
								100,
								100
							]
						}
					},
					"index":0
				},
				"metallicFactor":0,
				"roughnessFactor":0.9
			}
		},
		{
			"name":"tripo_material_5d4f4407-aa18-48fd-8403-00b2663a227b",
			"normalTexture":{
				"index":1
			},
			"pbrMetallicRoughness":{
				"baseColorTexture":{
					"index":2
				},
				"metallicRoughnessTexture":{
					"index":3
				}
			}
		},
		{
			"name":"tripo_material_5d4f4407-aa18-48fd-8403-00b2663a227b.001",
			"normalTexture":{
				"index":4
			},
			"pbrMetallicRoughness":{
				"baseColorTexture":{
					"index":5
				},
				"metallicRoughnessTexture":{
					"index":6
				}
			}
		},
		{
			"name":"tripo_material_5d4f4407-aa18-48fd-8403-00b2663a227b.002",
			"normalTexture":{
				"index":7
			},
			"pbrMetallicRoughness":{
				"baseColorTexture":{
					"index":8
				},
				"metallicRoughnessTexture":{
					"index":9
				}
			}
		},
		{
			"name":"tripo_material_5d4f4407-aa18-48fd-8403-00b2663a227b.003",
			"normalTexture":{
				"index":10
			},
			"pbrMetallicRoughness":{
				"baseColorTexture":{
					"index":11
				},
				"metallicRoughnessTexture":{
					"index":12
				}
			}
		},
		{
			"name":"tripo_material_5d4f4407-aa18-48fd-8403-00b2663a227b.004",
			"normalTexture":{
				"index":13
			},
			"pbrMetallicRoughness":{
				"baseColorTexture":{
					"index":14
				},
				"metallicRoughnessTexture":{
					"index":15
				}
			}
		},
		{
			"name":"tripo_material_5d4f4407-aa18-48fd-8403-00b2663a227b.005",
			"normalTexture":{
				"index":16
			},
			"pbrMetallicRoughness":{
				"baseColorTexture":{
					"index":17
				},
				"metallicRoughnessTexture":{
					"index":18
				}
			}
		},
		{
			"name":"tripo_material_5d4f4407-aa18-48fd-8403-00b2663a227b.006",
			"normalTexture":{
				"index":19
			},
			"pbrMetallicRoughness":{
				"baseColorTexture":{
					"index":20
				},
				"metallicRoughnessTexture":{
					"index":21
				}
			}
		},
		{
			"name":"tripo_material_5d4f4407-aa18-48fd-8403-00b2663a227b.007",
			"normalTexture":{
				"index":22
			},
			"pbrMetallicRoughness":{
				"baseColorTexture":{
					"index":23
				},
				"metallicRoughnessTexture":{
					"index":24
				}
			}
		},
		{
			"name":"tripo_material_5d4f4407-aa18-48fd-8403-00b2663a227b.008",
			"normalTexture":{
				"index":25
			},
			"pbrMetallicRoughness":{
				"baseColorTexture":{
					"index":26
				},
				"metallicRoughnessTexture":{
					"index":27
				}
			}
		},
		{
			"name":"tripo_material_5d4f4407-aa18-48fd-8403-00b2663a227b.009",
			"normalTexture":{
				"index":28
			},
			"pbrMetallicRoughness":{
				"baseColorTexture":{
					"index":29
				},
				"metallicRoughnessTexture":{
					"index":30
				}
			}
		},
		{
			"name":"tripo_material_5d4f4407-aa18-48fd-8403-00b2663a227b.010",
			"normalTexture":{
				"index":31
			},
			"pbrMetallicRoughness":{
				"baseColorTexture":{
					"index":32
				},
				"metallicRoughnessTexture":{
					"index":33
				}
			}
		},
		{
			"name":"tripo_material_74eaf3f9-b2a1-43f9-8f31-962a9845412e",
			"normalTexture":{
				"index":34
			},
			"pbrMetallicRoughness":{
				"baseColorTexture":{
					"index":35
				},
				"metallicRoughnessTexture":{
					"index":36
				}
			}
		},
		{
			"name":"tripo_material_74eaf3f9-b2a1-43f9-8f31-962a9845412e.001",
			"normalTexture":{
				"index":37
			},
			"pbrMetallicRoughness":{
				"baseColorTexture":{
					"index":38
				},
				"metallicRoughnessTexture":{
					"index":39
				}
			}
		},
		{
			"name":"tripo_material_74eaf3f9-b2a1-43f9-8f31-962a9845412e.002",
			"normalTexture":{
				"index":40
			},
			"pbrMetallicRoughness":{
				"baseColorTexture":{
					"index":41
				},
				"metallicRoughnessTexture":{
					"index":42
				}
			}
		},
		{
			"name":"tripo_material_74eaf3f9-b2a1-43f9-8f31-962a9845412e.003",
			"normalTexture":{
				"index":43
			},
			"pbrMetallicRoughness":{
				"baseColorTexture":{
					"index":44
				},
				"metallicRoughnessTexture":{
					"index":45
				}
			}
		},
		{
			"name":"tripo_material_74eaf3f9-b2a1-43f9-8f31-962a9845412e.004",
			"normalTexture":{
				"index":46
			},
			"pbrMetallicRoughness":{
				"baseColorTexture":{
					"index":47
				},
				"metallicRoughnessTexture":{
					"index":48
				}
			}
		},
		{
			"name":"tripo_material_81bcfc4c-d0e1-4471-87ef-86b16438f660",
			"normalTexture":{
				"index":49
			},
			"pbrMetallicRoughness":{
				"baseColorTexture":{
					"index":50
				},
				"metallicRoughnessTexture":{
					"index":51
				}
			}
		},
		{
			"name":"tripo_material_95a5b99c-2e7c-44e2-8d41-98f418410477",
			"normalTexture":{
				"index":52
			},
			"pbrMetallicRoughness":{
				"baseColorTexture":{
					"index":53
				},
				"metallicRoughnessTexture":{
					"index":54
				}
			}
		},
		{
			"name":"tripo_material_95a5b99c-2e7c-44e2-8d41-98f418410477.001",
			"normalTexture":{
				"index":55
			},
			"pbrMetallicRoughness":{
				"baseColorTexture":{
					"index":56
				},
				"metallicRoughnessTexture":{
					"index":57
				}
			}
		},
		{
			"name":"tripo_material_95a5b99c-2e7c-44e2-8d41-98f418410477.002",
			"normalTexture":{
				"index":58
			},
			"pbrMetallicRoughness":{
				"baseColorTexture":{
					"index":59
				},
				"metallicRoughnessTexture":{
					"index":60
				}
			}
		},
		{
			"name":"tripo_material_95a5b99c-2e7c-44e2-8d41-98f418410477.003",
			"normalTexture":{
				"index":61
			},
			"pbrMetallicRoughness":{
				"baseColorTexture":{
					"index":62
				},
				"metallicRoughnessTexture":{
					"index":63
				}
			}
		},
		{
			"name":"tripo_material_95a5b99c-2e7c-44e2-8d41-98f418410477.004",
			"normalTexture":{
				"index":64
			},
			"pbrMetallicRoughness":{
				"baseColorTexture":{
					"index":65
				},
				"metallicRoughnessTexture":{
					"index":66
				}
			}
		},
		{
			"name":"tripo_material_95a5b99c-2e7c-44e2-8d41-98f418410477.005",
			"normalTexture":{
				"index":67
			},
			"pbrMetallicRoughness":{
				"baseColorTexture":{
					"index":68
				},
				"metallicRoughnessTexture":{
					"index":69
				}
			}
		},
		{
			"name":"tripo_material_95a5b99c-2e7c-44e2-8d41-98f418410477.006",
			"normalTexture":{
				"index":70
			},
			"pbrMetallicRoughness":{
				"baseColorTexture":{
					"index":71
				},
				"metallicRoughnessTexture":{
					"index":72
				}
			}
		},
		{
			"name":"tripo_material_95a5b99c-2e7c-44e2-8d41-98f418410477.007",
			"normalTexture":{
				"index":73
			},
			"pbrMetallicRoughness":{
				"baseColorTexture":{
					"index":74
				},
				"metallicRoughnessTexture":{
					"index":75
				}
			}
		},
		{
			"name":"tripo_material_95a5b99c-2e7c-44e2-8d41-98f418410477.008",
			"normalTexture":{
				"index":76
			},
			"pbrMetallicRoughness":{
				"baseColorTexture":{
					"index":77
				},
				"metallicRoughnessTexture":{
					"index":78
				}
			}
		},
		{
			"name":"tripo_material_95a5b99c-2e7c-44e2-8d41-98f418410477.009",
			"normalTexture":{
				"index":79
			},
			"pbrMetallicRoughness":{
				"baseColorTexture":{
					"index":80
				},
				"metallicRoughnessTexture":{
					"index":81
				}
			}
		},
		{
			"name":"tripo_material_95a5b99c-2e7c-44e2-8d41-98f418410477.010",
			"normalTexture":{
				"index":82
			},
			"pbrMetallicRoughness":{
				"baseColorTexture":{
					"index":83
				},
				"metallicRoughnessTexture":{
					"index":84
				}
			}
		},
		{
			"name":"tripo_material_95a5b99c-2e7c-44e2-8d41-98f418410477.011",
			"normalTexture":{
				"index":85
			},
			"pbrMetallicRoughness":{
				"baseColorTexture":{
					"index":86
				},
				"metallicRoughnessTexture":{
					"index":87
				}
			}
		},
		{
			"name":"tripo_material_95a5b99c-2e7c-44e2-8d41-98f418410477.012",
			"normalTexture":{
				"index":88
			},
			"pbrMetallicRoughness":{
				"baseColorTexture":{
					"index":89
				},
				"metallicRoughnessTexture":{
					"index":90
				}
			}
		},
		{
			"name":"tripo_material_95a5b99c-2e7c-44e2-8d41-98f418410477.013",
			"normalTexture":{
				"index":91
			},
			"pbrMetallicRoughness":{
				"baseColorTexture":{
					"index":92
				},
				"metallicRoughnessTexture":{
					"index":93
				}
			}
		},
		{
			"name":"tripo_material_95a5b99c-2e7c-44e2-8d41-98f418410477.014",
			"normalTexture":{
				"index":94
			},
			"pbrMetallicRoughness":{
				"baseColorTexture":{
					"index":95
				},
				"metallicRoughnessTexture":{
					"index":96
				}
			}
		},
		{
			"name":"tripo_material_95a5b99c-2e7c-44e2-8d41-98f418410477.015",
			"normalTexture":{
				"index":97
			},
			"pbrMetallicRoughness":{
				"baseColorTexture":{
					"index":98
				},
				"metallicRoughnessTexture":{
					"index":99
				}
			}
		},
		{
			"name":"tripo_material_95a5b99c-2e7c-44e2-8d41-98f418410477.016",
			"normalTexture":{
				"index":100
			},
			"pbrMetallicRoughness":{
				"baseColorTexture":{
					"index":101
				},
				"metallicRoughnessTexture":{
					"index":102
				}
			}
		},
		{
			"name":"tripo_material_95a5b99c-2e7c-44e2-8d41-98f418410477.017",
			"normalTexture":{
				"index":103
			},
			"pbrMetallicRoughness":{
				"baseColorTexture":{
					"index":104
				},
				"metallicRoughnessTexture":{
					"index":105
				}
			}
		},
		{
			"name":"tripo_material_95a5b99c-2e7c-44e2-8d41-98f418410477.018",
			"normalTexture":{
				"index":106
			},
			"pbrMetallicRoughness":{
				"baseColorTexture":{
					"index":107
				},
				"metallicRoughnessTexture":{
					"index":108
				}
			}
		},
		{
			"name":"tripo_material_95a5b99c-2e7c-44e2-8d41-98f418410477.019",
			"normalTexture":{
				"index":109
			},
			"pbrMetallicRoughness":{
				"baseColorTexture":{
					"index":110
				},
				"metallicRoughnessTexture":{
					"index":111
				}
			}
		},
		{
			"name":"tripo_material_95a5b99c-2e7c-44e2-8d41-98f418410477.020",
			"normalTexture":{
				"index":112
			},
			"pbrMetallicRoughness":{
				"baseColorTexture":{
					"index":113
				},
				"metallicRoughnessTexture":{
					"index":114
				}
			}
		},
		{
			"name":"tripo_material_95a5b99c-2e7c-44e2-8d41-98f418410477.021",
			"normalTexture":{
				"index":115
			},
			"pbrMetallicRoughness":{
				"baseColorTexture":{
					"index":116
				},
				"metallicRoughnessTexture":{
					"index":117
				}
			}
		},
		{
			"name":"tripo_material_95a5b99c-2e7c-44e2-8d41-98f418410477.022",
			"normalTexture":{
				"index":118
			},
			"pbrMetallicRoughness":{
				"baseColorTexture":{
					"index":119
				},
				"metallicRoughnessTexture":{
					"index":120
				}
			}
		},
		{
			"name":"tripo_material_95a5b99c-2e7c-44e2-8d41-98f418410477.023",
			"normalTexture":{
				"index":121
			},
			"pbrMetallicRoughness":{
				"baseColorTexture":{
					"index":122
				},
				"metallicRoughnessTexture":{
					"index":123
				}
			}
		},
		{
			"name":"tripo_material_95a5b99c-2e7c-44e2-8d41-98f418410477.024",
			"normalTexture":{
				"index":124
			},
			"pbrMetallicRoughness":{
				"baseColorTexture":{
					"index":125
				},
				"metallicRoughnessTexture":{
					"index":126
				}
			}
		},
		{
			"name":"tripo_material_95a5b99c-2e7c-44e2-8d41-98f418410477.025",
			"normalTexture":{
				"index":127
			},
			"pbrMetallicRoughness":{
				"baseColorTexture":{
					"index":128
				},
				"metallicRoughnessTexture":{
					"index":129
				}
			}
		},
		{
			"name":"tripo_material_db6ac3cd-5df1-422f-a8eb-dd5cbf5aea9b",
			"normalTexture":{
				"index":130
			},
			"pbrMetallicRoughness":{
				"baseColorTexture":{
					"index":131
				},
				"metallicRoughnessTexture":{
					"index":132
				}
			}
		},
		{
			"name":"tripo_material_db6ac3cd-5df1-422f-a8eb-dd5cbf5aea9b.001",
			"normalTexture":{
				"index":133
			},
			"pbrMetallicRoughness":{
				"baseColorTexture":{
					"index":134
				},
				"metallicRoughnessTexture":{
					"index":135
				}
			}
		},
		{
			"name":"tripo_material_db6ac3cd-5df1-422f-a8eb-dd5cbf5aea9b.002",
			"normalTexture":{
				"index":136
			},
			"pbrMetallicRoughness":{
				"baseColorTexture":{
					"index":137
				},
				"metallicRoughnessTexture":{
					"index":138
				}
			}
		},
		{
			"name":"tripo_material_db6ac3cd-5df1-422f-a8eb-dd5cbf5aea9b.003",
			"normalTexture":{
				"index":139
			},
			"pbrMetallicRoughness":{
				"baseColorTexture":{
					"index":140
				},
				"metallicRoughnessTexture":{
					"index":141
				}
			}
		},
		{
			"name":"tripo_material_db6ac3cd-5df1-422f-a8eb-dd5cbf5aea9b.004",
			"normalTexture":{
				"index":142
			},
			"pbrMetallicRoughness":{
				"baseColorTexture":{
					"index":143
				},
				"metallicRoughnessTexture":{
					"index":144
				}
			}
		},
		{
			"name":"tripo_material_db6ac3cd-5df1-422f-a8eb-dd5cbf5aea9b.005",
			"normalTexture":{
				"index":145
			},
			"pbrMetallicRoughness":{
				"baseColorTexture":{
					"index":146
				},
				"metallicRoughnessTexture":{
					"index":147
				}
			}
		},
		{
			"name":"tripo_material_db6ac3cd-5df1-422f-a8eb-dd5cbf5aea9b.006",
			"normalTexture":{
				"index":148
			},
			"pbrMetallicRoughness":{
				"baseColorTexture":{
					"index":149
				},
				"metallicRoughnessTexture":{
					"index":150
				}
			}
		},
		{
			"name":"tripo_material_db6ac3cd-5df1-422f-a8eb-dd5cbf5aea9b.007",
			"normalTexture":{
				"index":151
			},
			"pbrMetallicRoughness":{
				"baseColorTexture":{
					"index":152
				},
				"metallicRoughnessTexture":{
					"index":153
				}
			}
		},
		{
			"name":"tripo_material_db6ac3cd-5df1-422f-a8eb-dd5cbf5aea9b.008",
			"normalTexture":{
				"index":154
			},
			"pbrMetallicRoughness":{
				"baseColorTexture":{
					"index":155
				},
				"metallicRoughnessTexture":{
					"index":156
				}
			}
		}
	],
	"meshes":[
		{
			"name":"Circle",
			"primitives":[
				{
					"attributes":{
						"POSITION":0,
						"NORMAL":1,
						"TEXCOORD_0":2
					},
					"indices":3,
					"material":0
				}
			]
		},
		{
			"name":"tripo_mesh_5d4f4407-aa18-48fd-8403-00b2663a227b",
			"primitives":[
				{
					"attributes":{
						"POSITION":4,
						"NORMAL":5,
						"TEXCOORD_0":6
					},
					"indices":7,
					"material":1
				}
			]
		},
		{
			"name":"tripo_mesh_5d4f4407-aa18-48fd-8403-00b2663a227b.001",
			"primitives":[
				{
					"attributes":{
						"POSITION":8,
						"NORMAL":9,
						"TEXCOORD_0":10
					},
					"indices":7,
					"material":2
				}
			]
		},
		{
			"name":"tripo_mesh_5d4f4407-aa18-48fd-8403-00b2663a227b.002",
			"primitives":[
				{
					"attributes":{
						"POSITION":11,
						"NORMAL":12,
						"TEXCOORD_0":13
					},
					"indices":7,
					"material":3
				}
			]
		},
		{
			"name":"tripo_mesh_5d4f4407-aa18-48fd-8403-00b2663a227b.003",
			"primitives":[
				{
					"attributes":{
						"POSITION":14,
						"NORMAL":15,
						"TEXCOORD_0":16
					},
					"indices":7,
					"material":4
				}
			]
		},
		{
			"name":"tripo_mesh_5d4f4407-aa18-48fd-8403-00b2663a227b.004",
			"primitives":[
				{
					"attributes":{
						"POSITION":17,
						"NORMAL":18,
						"TEXCOORD_0":19
					},
					"indices":7,
					"material":5
				}
			]
		},
		{
			"name":"tripo_mesh_5d4f4407-aa18-48fd-8403-00b2663a227b.005",
			"primitives":[
				{
					"attributes":{
						"POSITION":20,
						"NORMAL":21,
						"TEXCOORD_0":22
					},
					"indices":7,
					"material":6
				}
			]
		},
		{
			"name":"tripo_mesh_5d4f4407-aa18-48fd-8403-00b2663a227b.006",
			"primitives":[
				{
					"attributes":{
						"POSITION":23,
						"NORMAL":24,
						"TEXCOORD_0":25
					},
					"indices":7,
					"material":7
				}
			]
		},
		{
			"name":"tripo_mesh_5d4f4407-aa18-48fd-8403-00b2663a227b.007",
			"primitives":[
				{
					"attributes":{
						"POSITION":26,
						"NORMAL":27,
						"TEXCOORD_0":28
					},
					"indices":7,
					"material":8
				}
			]
		},
		{
			"name":"tripo_mesh_5d4f4407-aa18-48fd-8403-00b2663a227b.008",
			"primitives":[
				{
					"attributes":{
						"POSITION":29,
						"NORMAL":30,
						"TEXCOORD_0":31
					},
					"indices":7,
					"material":9
				}
			]
		},
		{
			"name":"tripo_mesh_5d4f4407-aa18-48fd-8403-00b2663a227b.009",
			"primitives":[
				{
					"attributes":{
						"POSITION":32,
						"NORMAL":33,
						"TEXCOORD_0":34
					},
					"indices":7,
					"material":10
				}
			]
		},
		{
			"name":"tripo_mesh_5d4f4407-aa18-48fd-8403-00b2663a227b.010",
			"primitives":[
				{
					"attributes":{
						"POSITION":35,
						"NORMAL":36,
						"TEXCOORD_0":37
					},
					"indices":7,
					"material":11
				}
			]
		},
		{
			"name":"tripo_mesh_74eaf3f9-b2a1-43f9-8f31-962a9845412e",
			"primitives":[
				{
					"attributes":{
						"POSITION":38,
						"NORMAL":39,
						"TEXCOORD_0":40
					},
					"indices":41,
					"material":12
				}
			]
		},
		{
			"name":"tripo_mesh_74eaf3f9-b2a1-43f9-8f31-962a9845412e.001",
			"primitives":[
				{
					"attributes":{
						"POSITION":42,
						"NORMAL":43,
						"TEXCOORD_0":44
					},
					"indices":41,
					"material":13
				}
			]
		},
		{
			"name":"tripo_mesh_74eaf3f9-b2a1-43f9-8f31-962a9845412e.002",
			"primitives":[
				{
					"attributes":{
						"POSITION":45,
						"NORMAL":46,
						"TEXCOORD_0":47
					},
					"indices":41,
					"material":14
				}
			]
		},
		{
			"name":"tripo_mesh_74eaf3f9-b2a1-43f9-8f31-962a9845412e.003",
			"primitives":[
				{
					"attributes":{
						"POSITION":48,
						"NORMAL":49,
						"TEXCOORD_0":50
					},
					"indices":41,
					"material":15
				}
			]
		},
		{
			"name":"tripo_mesh_74eaf3f9-b2a1-43f9-8f31-962a9845412e.004",
			"primitives":[
				{
					"attributes":{
						"POSITION":51,
						"NORMAL":52,
						"TEXCOORD_0":53
					},
					"indices":41,
					"material":16
				}
			]
		},
		{
			"name":"tripo_mesh_81bcfc4c-d0e1-4471-87ef-86b16438f660",
			"primitives":[
				{
					"attributes":{
						"POSITION":54,
						"NORMAL":55,
						"TEXCOORD_0":56
					},
					"indices":57,
					"material":17
				}
			]
		},
		{
			"name":"tripo_mesh_95a5b99c-2e7c-44e2-8d41-98f418410477",
			"primitives":[
				{
					"attributes":{
						"POSITION":58,
						"NORMAL":59,
						"TEXCOORD_0":60
					},
					"indices":61,
					"material":18
				}
			]
		},
		{
			"name":"tripo_mesh_95a5b99c-2e7c-44e2-8d41-98f418410477.001",
			"primitives":[
				{
					"attributes":{
						"POSITION":62,
						"NORMAL":63,
						"TEXCOORD_0":64
					},
					"indices":61,
					"material":19
				}
			]
		},
		{
			"name":"tripo_mesh_95a5b99c-2e7c-44e2-8d41-98f418410477.002",
			"primitives":[
				{
					"attributes":{
						"POSITION":65,
						"NORMAL":66,
						"TEXCOORD_0":67
					},
					"indices":61,
					"material":20
				}
			]
		},
		{
			"name":"tripo_mesh_95a5b99c-2e7c-44e2-8d41-98f418410477.003",
			"primitives":[
				{
					"attributes":{
						"POSITION":68,
						"NORMAL":69,
						"TEXCOORD_0":70
					},
					"indices":61,
					"material":21
				}
			]
		},
		{
			"name":"tripo_mesh_95a5b99c-2e7c-44e2-8d41-98f418410477.004",
			"primitives":[
				{
					"attributes":{
						"POSITION":71,
						"NORMAL":72,
						"TEXCOORD_0":73
					},
					"indices":61,
					"material":22
				}
			]
		},
		{
			"name":"tripo_mesh_95a5b99c-2e7c-44e2-8d41-98f418410477.005",
			"primitives":[
				{
					"attributes":{
						"POSITION":74,
						"NORMAL":75,
						"TEXCOORD_0":76
					},
					"indices":61,
					"material":23
				}
			]
		},
		{
			"name":"tripo_mesh_95a5b99c-2e7c-44e2-8d41-98f418410477.006",
			"primitives":[
				{
					"attributes":{
						"POSITION":77,
						"NORMAL":78,
						"TEXCOORD_0":79
					},
					"indices":61,
					"material":24
				}
			]
		},
		{
			"name":"tripo_mesh_95a5b99c-2e7c-44e2-8d41-98f418410477.007",
			"primitives":[
				{
					"attributes":{
						"POSITION":80,
						"NORMAL":81,
						"TEXCOORD_0":82
					},
					"indices":61,
					"material":25
				}
			]
		},
		{
			"name":"tripo_mesh_95a5b99c-2e7c-44e2-8d41-98f418410477.008",
			"primitives":[
				{
					"attributes":{
						"POSITION":83,
						"NORMAL":84,
						"TEXCOORD_0":85
					},
					"indices":61,
					"material":26
				}
			]
		},
		{
			"name":"tripo_mesh_95a5b99c-2e7c-44e2-8d41-98f418410477.009",
			"primitives":[
				{
					"attributes":{
						"POSITION":86,
						"NORMAL":87,
						"TEXCOORD_0":88
					},
					"indices":61,
					"material":27
				}
			]
		},
		{
			"name":"tripo_mesh_95a5b99c-2e7c-44e2-8d41-98f418410477.010",
			"primitives":[
				{
					"attributes":{
						"POSITION":89,
						"NORMAL":90,
						"TEXCOORD_0":91
					},
					"indices":61,
					"material":28
				}
			]
		},
		{
			"name":"tripo_mesh_95a5b99c-2e7c-44e2-8d41-98f418410477.011",
			"primitives":[
				{
					"attributes":{
						"POSITION":92,
						"NORMAL":93,
						"TEXCOORD_0":94
					},
					"indices":61,
					"material":29
				}
			]
		},
		{
			"name":"tripo_mesh_95a5b99c-2e7c-44e2-8d41-98f418410477.012",
			"primitives":[
				{
					"attributes":{
						"POSITION":95,
						"NORMAL":96,
						"TEXCOORD_0":97
					},
					"indices":61,
					"material":30
				}
			]
		},
		{
			"name":"tripo_mesh_95a5b99c-2e7c-44e2-8d41-98f418410477.013",
			"primitives":[
				{
					"attributes":{
						"POSITION":98,
						"NORMAL":99,
						"TEXCOORD_0":100
					},
					"indices":61,
					"material":31
				}
			]
		},
		{
			"name":"tripo_mesh_95a5b99c-2e7c-44e2-8d41-98f418410477.014",
			"primitives":[
				{
					"attributes":{
						"POSITION":101,
						"NORMAL":102,
						"TEXCOORD_0":103
					},
					"indices":61,
					"material":32
				}
			]
		},
		{
			"name":"tripo_mesh_95a5b99c-2e7c-44e2-8d41-98f418410477.015",
			"primitives":[
				{
					"attributes":{
						"POSITION":104,
						"NORMAL":105,
						"TEXCOORD_0":106
					},
					"indices":61,
					"material":33
				}
			]
		},
		{
			"name":"tripo_mesh_95a5b99c-2e7c-44e2-8d41-98f418410477.016",
			"primitives":[
				{
					"attributes":{
						"POSITION":107,
						"NORMAL":108,
						"TEXCOORD_0":109
					},
					"indices":61,
					"material":34
				}
			]
		},
		{
			"name":"tripo_mesh_95a5b99c-2e7c-44e2-8d41-98f418410477.017",
			"primitives":[
				{
					"attributes":{
						"POSITION":110,
						"NORMAL":111,
						"TEXCOORD_0":112
					},
					"indices":61,
					"material":35
				}
			]
		},
		{
			"name":"tripo_mesh_95a5b99c-2e7c-44e2-8d41-98f418410477.018",
			"primitives":[
				{
					"attributes":{
						"POSITION":113,
						"NORMAL":114,
						"TEXCOORD_0":115
					},
					"indices":61,
					"material":36
				}
			]
		},
		{
			"name":"tripo_mesh_95a5b99c-2e7c-44e2-8d41-98f418410477.019",
			"primitives":[
				{
					"attributes":{
						"POSITION":116,
						"NORMAL":117,
						"TEXCOORD_0":118
					},
					"indices":61,
					"material":37
				}
			]
		},
		{
			"name":"tripo_mesh_95a5b99c-2e7c-44e2-8d41-98f418410477.020",
			"primitives":[
				{
					"attributes":{
						"POSITION":119,
						"NORMAL":120,
						"TEXCOORD_0":121
					},
					"indices":61,
					"material":38
				}
			]
		},
		{
			"name":"tripo_mesh_95a5b99c-2e7c-44e2-8d41-98f418410477.021",
			"primitives":[
				{
					"attributes":{
						"POSITION":122,
						"NORMAL":123,
						"TEXCOORD_0":124
					},
					"indices":61,
					"material":39
				}
			]
		},
		{
			"name":"tripo_mesh_95a5b99c-2e7c-44e2-8d41-98f418410477.022",
			"primitives":[
				{
					"attributes":{
						"POSITION":125,
						"NORMAL":126,
						"TEXCOORD_0":127
					},
					"indices":61,
					"material":40
				}
			]
		},
		{
			"name":"tripo_mesh_95a5b99c-2e7c-44e2-8d41-98f418410477.023",
			"primitives":[
				{
					"attributes":{
						"POSITION":128,
						"NORMAL":129,
						"TEXCOORD_0":130
					},
					"indices":61,
					"material":41
				}
			]
		},
		{
			"name":"tripo_mesh_95a5b99c-2e7c-44e2-8d41-98f418410477.024",
			"primitives":[
				{
					"attributes":{
						"POSITION":131,
						"NORMAL":132,
						"TEXCOORD_0":133
					},
					"indices":61,
					"material":42
				}
			]
		},
		{
			"name":"tripo_mesh_95a5b99c-2e7c-44e2-8d41-98f418410477.025",
			"primitives":[
				{
					"attributes":{
						"POSITION":134,
						"NORMAL":135,
						"TEXCOORD_0":136
					},
					"indices":61,
					"material":43
				}
			]
		},
		{
			"name":"tripo_mesh_db6ac3cd-5df1-422f-a8eb-dd5cbf5aea9b",
			"primitives":[
				{
					"attributes":{
						"POSITION":137,
						"NORMAL":138,
						"TEXCOORD_0":139
					},
					"indices":140,
					"material":44
				}
			]
		},
		{
			"name":"tripo_mesh_db6ac3cd-5df1-422f-a8eb-dd5cbf5aea9b.001",
			"primitives":[
				{
					"attributes":{
						"POSITION":141,
						"NORMAL":142,
						"TEXCOORD_0":143
					},
					"indices":140,
					"material":45
				}
			]
		},
		{
			"name":"tripo_mesh_db6ac3cd-5df1-422f-a8eb-dd5cbf5aea9b.002",
			"primitives":[
				{
					"attributes":{
						"POSITION":144,
						"NORMAL":145,
						"TEXCOORD_0":146
					},
					"indices":140,
					"material":46
				}
			]
		},
		{
			"name":"tripo_mesh_db6ac3cd-5df1-422f-a8eb-dd5cbf5aea9b.003",
			"primitives":[
				{
					"attributes":{
						"POSITION":147,
						"NORMAL":148,
						"TEXCOORD_0":149
					},
					"indices":140,
					"material":47
				}
			]
		},
		{
			"name":"tripo_mesh_db6ac3cd-5df1-422f-a8eb-dd5cbf5aea9b.004",
			"primitives":[
				{
					"attributes":{
						"POSITION":150,
						"NORMAL":151,
						"TEXCOORD_0":152
					},
					"indices":140,
					"material":48
				}
			]
		},
		{
			"name":"tripo_mesh_db6ac3cd-5df1-422f-a8eb-dd5cbf5aea9b.005",
			"primitives":[
				{
					"attributes":{
						"POSITION":153,
						"NORMAL":154,
						"TEXCOORD_0":155
					},
					"indices":140,
					"material":49
				}
			]
		},
		{
			"name":"tripo_mesh_db6ac3cd-5df1-422f-a8eb-dd5cbf5aea9b.006",
			"primitives":[
				{
					"attributes":{
						"POSITION":156,
						"NORMAL":157,
						"TEXCOORD_0":158
					},
					"indices":140,
					"material":50
				}
			]
		},
		{
			"name":"tripo_mesh_db6ac3cd-5df1-422f-a8eb-dd5cbf5aea9b.007",
			"primitives":[
				{
					"attributes":{
						"POSITION":159,
						"NORMAL":160,
						"TEXCOORD_0":161
					},
					"indices":140,
					"material":51
				}
			]
		},
		{
			"name":"tripo_mesh_db6ac3cd-5df1-422f-a8eb-dd5cbf5aea9b.008",
			"primitives":[
				{
					"attributes":{
						"POSITION":162,
						"NORMAL":163,
						"TEXCOORD_0":164
					},
					"indices":140,
					"material":52
				}
			]
		}
	],
	"textures":[
		{
			"sampler":0,
			"source":0
		},
		{
			"sampler":0,
			"source":1
		},
		{
			"sampler":0,
			"source":2
		},
		{
			"sampler":0,
			"source":3
		},
		{
			"sampler":0,
			"source":1
		},
		{
			"sampler":0,
			"source":2
		},
		{
			"sampler":0,
			"source":3
		},
		{
			"sampler":0,
			"source":1
		},
		{
			"sampler":0,
			"source":2
		},
		{
			"sampler":0,
			"source":3
		},
		{
			"sampler":0,
			"source":1
		},
		{
			"sampler":0,
			"source":2
		},
		{
			"sampler":0,
			"source":3
		},
		{
			"sampler":0,
			"source":1
		},
		{
			"sampler":0,
			"source":2
		},
		{
			"sampler":0,
			"source":3
		},
		{
			"sampler":0,
			"source":1
		},
		{
			"sampler":0,
			"source":2
		},
		{
			"sampler":0,
			"source":3
		},
		{
			"sampler":0,
			"source":1
		},
		{
			"sampler":0,
			"source":2
		},
		{
			"sampler":0,
			"source":3
		},
		{
			"sampler":0,
			"source":1
		},
		{
			"sampler":0,
			"source":2
		},
		{
			"sampler":0,
			"source":3
		},
		{
			"sampler":0,
			"source":1
		},
		{
			"sampler":0,
			"source":2
		},
		{
			"sampler":0,
			"source":3
		},
		{
			"sampler":0,
			"source":1
		},
		{
			"sampler":0,
			"source":2
		},
		{
			"sampler":0,
			"source":3
		},
		{
			"sampler":0,
			"source":1
		},
		{
			"sampler":0,
			"source":2
		},
		{
			"sampler":0,
			"source":3
		},
		{
			"sampler":0,
			"source":4
		},
		{
			"sampler":0,
			"source":5
		},
		{
			"sampler":0,
			"source":6
		},
		{
			"sampler":0,
			"source":4
		},
		{
			"sampler":0,
			"source":5
		},
		{
			"sampler":0,
			"source":6
		},
		{
			"sampler":0,
			"source":4
		},
		{
			"sampler":0,
			"source":5
		},
		{
			"sampler":0,
			"source":6
		},
		{
			"sampler":0,
			"source":4
		},
		{
			"sampler":0,
			"source":5
		},
		{
			"sampler":0,
			"source":6
		},
		{
			"sampler":0,
			"source":4
		},
		{
			"sampler":0,
			"source":5
		},
		{
			"sampler":0,
			"source":6
		},
		{
			"sampler":0,
			"source":7
		},
		{
			"sampler":0,
			"source":8
		},
		{
			"sampler":0,
			"source":9
		},
		{
			"sampler":0,
			"source":10
		},
		{
			"sampler":0,
			"source":11
		},
		{
			"sampler":0,
			"source":12
		},
		{
			"sampler":0,
			"source":10
		},
		{
			"sampler":0,
			"source":11
		},
		{
			"sampler":0,
			"source":12
		},
		{
			"sampler":0,
			"source":10
		},
		{
			"sampler":0,
			"source":11
		},
		{
			"sampler":0,
			"source":12
		},
		{
			"sampler":0,
			"source":10
		},
		{
			"sampler":0,
			"source":11
		},
		{
			"sampler":0,
			"source":12
		},
		{
			"sampler":0,
			"source":10
		},
		{
			"sampler":0,
			"source":11
		},
		{
			"sampler":0,
			"source":12
		},
		{
			"sampler":0,
			"source":10
		},
		{
			"sampler":0,
			"source":11
		},
		{
			"sampler":0,
			"source":12
		},
		{
			"sampler":0,
			"source":10
		},
		{
			"sampler":0,
			"source":11
		},
		{
			"sampler":0,
			"source":12
		},
		{
			"sampler":0,
			"source":10
		},
		{
			"sampler":0,
			"source":11
		},
		{
			"sampler":0,
			"source":12
		},
		{
			"sampler":0,
			"source":10
		},
		{
			"sampler":0,
			"source":11
		},
		{
			"sampler":0,
			"source":12
		},
		{
			"sampler":0,
			"source":10
		},
		{
			"sampler":0,
			"source":11
		},
		{
			"sampler":0,
			"source":12
		},
		{
			"sampler":0,
			"source":10
		},
		{
			"sampler":0,
			"source":11
		},
		{
			"sampler":0,
			"source":12
		},
		{
			"sampler":0,
			"source":10
		},
		{
			"sampler":0,
			"source":11
		},
		{
			"sampler":0,
			"source":12
		},
		{
			"sampler":0,
			"source":10
		},
		{
			"sampler":0,
			"source":11
		},
		{
			"sampler":0,
			"source":12
		},
		{
			"sampler":0,
			"source":10
		},
		{
			"sampler":0,
			"source":11
		},
		{
			"sampler":0,
			"source":12
		},
		{
			"sampler":0,
			"source":10
		},
		{
			"sampler":0,
			"source":11
		},
		{
			"sampler":0,
			"source":12
		},
		{
			"sampler":0,
			"source":10
		},
		{
			"sampler":0,
			"source":11
		},
		{
			"sampler":0,
			"source":12
		},
		{
			"sampler":0,
			"source":10
		},
		{
			"sampler":0,
			"source":11
		},
		{
			"sampler":0,
			"source":12
		},
		{
			"sampler":0,
			"source":10
		},
		{
			"sampler":0,
			"source":11
		},
		{
			"sampler":0,
			"source":12
		},
		{
			"sampler":0,
			"source":10
		},
		{
			"sampler":0,
			"source":11
		},
		{
			"sampler":0,
			"source":12
		},
		{
			"sampler":0,
			"source":10
		},
		{
			"sampler":0,
			"source":11
		},
		{
			"sampler":0,
			"source":12
		},
		{
			"sampler":0,
			"source":10
		},
		{
			"sampler":0,
			"source":11
		},
		{
			"sampler":0,
			"source":12
		},
		{
			"sampler":0,
			"source":10
		},
		{
			"sampler":0,
			"source":11
		},
		{
			"sampler":0,
			"source":12
		},
		{
			"sampler":0,
			"source":10
		},
		{
			"sampler":0,
			"source":11
		},
		{
			"sampler":0,
			"source":12
		},
		{
			"sampler":0,
			"source":10
		},
		{
			"sampler":0,
			"source":11
		},
		{
			"sampler":0,
			"source":12
		},
		{
			"sampler":0,
			"source":10
		},
		{
			"sampler":0,
			"source":11
		},
		{
			"sampler":0,
			"source":12
		},
		{
			"sampler":0,
			"source":10
		},
		{
			"sampler":0,
			"source":11
		},
		{
			"sampler":0,
			"source":12
		},
		{
			"sampler":0,
			"source":13
		},
		{
			"sampler":0,
			"source":14
		},
		{
			"sampler":0,
			"source":15
		},
		{
			"sampler":0,
			"source":13
		},
		{
			"sampler":0,
			"source":14
		},
		{
			"sampler":0,
			"source":15
		},
		{
			"sampler":0,
			"source":13
		},
		{
			"sampler":0,
			"source":14
		},
		{
			"sampler":0,
			"source":15
		},
		{
			"sampler":0,
			"source":13
		},
		{
			"sampler":0,
			"source":14
		},
		{
			"sampler":0,
			"source":15
		},
		{
			"sampler":0,
			"source":13
		},
		{
			"sampler":0,
			"source":14
		},
		{
			"sampler":0,
			"source":15
		},
		{
			"sampler":0,
			"source":13
		},
		{
			"sampler":0,
			"source":14
		},
		{
			"sampler":0,
			"source":15
		},
		{
			"sampler":0,
			"source":13
		},
		{
			"sampler":0,
			"source":14
		},
		{
			"sampler":0,
			"source":15
		},
		{
			"sampler":0,
			"source":13
		},
		{
			"sampler":0,
			"source":14
		},
		{
			"sampler":0,
			"source":15
		},
		{
			"sampler":0,
			"source":13
		},
		{
			"sampler":0,
			"source":14
		},
		{
			"sampler":0,
			"source":15
		}
	],
	"images":[
		{
			"mimeType":"image/png",
			"name":"txture",
			"uri":"txture.png"
		},
		{
			"mimeType":"image/jpeg",
			"name":"NormalGL_5d4f4407-aa18-48fd-8403-00b2663a227b",
			"uri":"NormalGL_5d4f4407-aa18-48fd-8403-00b2663a227b.jpg"
		},
		{
			"mimeType":"image/jpeg",
			"name":"Color_5d4f4407-aa18-48fd-8403-00b2663a227b",
			"uri":"Color_5d4f4407-aa18-48fd-8403-00b2663a227b.jpg"
		},
		{
			"mimeType":"image/jpeg",
			"name":"ORM_5d4f4407-aa18-48fd-8403-00b2663a227b",
			"uri":"ORM_5d4f4407-aa18-48fd-8403-00b2663a227b.jpg"
		},
		{
			"mimeType":"image/jpeg",
			"name":"NormalGL_74eaf3f9-b2a1-43f9-8f31-962a9845412e",
			"uri":"NormalGL_74eaf3f9-b2a1-43f9-8f31-962a9845412e.jpg"
		},
		{
			"mimeType":"image/jpeg",
			"name":"Color_74eaf3f9-b2a1-43f9-8f31-962a9845412e",
			"uri":"Color_74eaf3f9-b2a1-43f9-8f31-962a9845412e.jpg"
		},
		{
			"mimeType":"image/jpeg",
			"name":"ORM_74eaf3f9-b2a1-43f9-8f31-962a9845412e",
			"uri":"ORM_74eaf3f9-b2a1-43f9-8f31-962a9845412e.jpg"
		},
		{
			"mimeType":"image/jpeg",
			"name":"NormalGL_81bcfc4c-d0e1-4471-87ef-86b16438f660",
			"uri":"NormalGL_81bcfc4c-d0e1-4471-87ef-86b16438f660.jpg"
		},
		{
			"mimeType":"image/jpeg",
			"name":"Color_81bcfc4c-d0e1-4471-87ef-86b16438f660",
			"uri":"Color_81bcfc4c-d0e1-4471-87ef-86b16438f660.jpg"
		},
		{
			"mimeType":"image/jpeg",
			"name":"ORM_81bcfc4c-d0e1-4471-87ef-86b16438f660",
			"uri":"ORM_81bcfc4c-d0e1-4471-87ef-86b16438f660.jpg"
		},
		{
			"mimeType":"image/jpeg",
			"name":"NormalGL_95a5b99c-2e7c-44e2-8d41-98f418410477",
			"uri":"NormalGL_95a5b99c-2e7c-44e2-8d41-98f418410477.jpg"
		},
		{
			"mimeType":"image/jpeg",
			"name":"Color_95a5b99c-2e7c-44e2-8d41-98f418410477",
			"uri":"Color_95a5b99c-2e7c-44e2-8d41-98f418410477.jpg"
		},
		{
			"mimeType":"image/jpeg",
			"name":"ORM_95a5b99c-2e7c-44e2-8d41-98f418410477",
			"uri":"ORM_95a5b99c-2e7c-44e2-8d41-98f418410477.jpg"
		},
		{
			"mimeType":"image/jpeg",
			"name":"NormalGL_db6ac3cd-5df1-422f-a8eb-dd5cbf5aea9b",
			"uri":"NormalGL_db6ac3cd-5df1-422f-a8eb-dd5cbf5aea9b.jpg"
		},
		{
			"mimeType":"image/jpeg",
			"name":"Color_db6ac3cd-5df1-422f-a8eb-dd5cbf5aea9b",
			"uri":"Color_db6ac3cd-5df1-422f-a8eb-dd5cbf5aea9b.jpg"
		},
		{
			"mimeType":"image/jpeg",
			"name":"ORM_db6ac3cd-5df1-422f-a8eb-dd5cbf5aea9b",
			"uri":"ORM_db6ac3cd-5df1-422f-a8eb-dd5cbf5aea9b.jpg"
		}
	],
	"accessors":[
		{
			"bufferView":0,
			"componentType":5126,
			"count":160,
			"max":[
				1,
				0.044363416731357574,
				1
			],
			"min":[
				-1,
				0,
				-1
			],
			"type":"VEC3"
		},
		{
			"bufferView":1,
			"componentType":5126,
			"count":160,
			"type":"VEC3"
		},
		{
			"bufferView":2,
			"componentType":5126,
			"count":160,
			"type":"VEC2"
		},
		{
			"bufferView":3,
			"componentType":5123,
			"count":282,
			"type":"SCALAR"
		},
		{
			"bufferView":4,
			"componentType":5126,
			"count":7884,
			"max":[
				0.22462183237075806,
				0.5,
				0.415367990732193
			],
			"min":[
				-0.22462183237075806,
				-0.5,
				-0.415367990732193
			],
			"type":"VEC3"
		},
		{
			"bufferView":5,
			"componentType":5126,
			"count":7884,
			"type":"VEC3"
		},
		{
			"bufferView":6,
			"componentType":5126,
			"count":7884,
			"type":"VEC2"
		},
		{
			"bufferView":7,
			"componentType":5123,
			"count":29250,
			"type":"SCALAR"
		},
		{
			"bufferView":8,
			"componentType":5126,
			"count":7884,
			"max":[
				0.22462183237075806,
				0.5,
				0.415367990732193
			],
			"min":[
				-0.22462183237075806,
				-0.5,
				-0.415367990732193
			],
			"type":"VEC3"
		},
		{
			"bufferView":9,
			"componentType":5126,
			"count":7884,
			"type":"VEC3"
		},
		{
			"bufferView":10,
			"componentType":5126,
			"count":7884,
			"type":"VEC2"
		},
		{
			"bufferView":11,
			"componentType":5126,
			"count":7884,
			"max":[
				0.22462183237075806,
				0.5,
				0.415367990732193
			],
			"min":[
				-0.22462183237075806,
				-0.5,
				-0.415367990732193
			],
			"type":"VEC3"
		},
		{
			"bufferView":12,
			"componentType":5126,
			"count":7884,
			"type":"VEC3"
		},
		{
			"bufferView":13,
			"componentType":5126,
			"count":7884,
			"type":"VEC2"
		},
		{
			"bufferView":14,
			"componentType":5126,
			"count":7884,
			"max":[
				0.22462183237075806,
				0.5,
				0.415367990732193
			],
			"min":[
				-0.22462183237075806,
				-0.5,
				-0.415367990732193
			],
			"type":"VEC3"
		},
		{
			"bufferView":15,
			"componentType":5126,
			"count":7884,
			"type":"VEC3"
		},
		{
			"bufferView":16,
			"componentType":5126,
			"count":7884,
			"type":"VEC2"
		},
		{
			"bufferView":17,
			"componentType":5126,
			"count":7884,
			"max":[
				0.22462183237075806,
				0.5,
				0.415367990732193
			],
			"min":[
				-0.22462183237075806,
				-0.5,
				-0.415367990732193
			],
			"type":"VEC3"
		},
		{
			"bufferView":18,
			"componentType":5126,
			"count":7884,
			"type":"VEC3"
		},
		{
			"bufferView":19,
			"componentType":5126,
			"count":7884,
			"type":"VEC2"
		},
		{
			"bufferView":20,
			"componentType":5126,
			"count":7884,
			"max":[
				0.22462183237075806,
				0.5,
				0.415367990732193
			],
			"min":[
				-0.22462183237075806,
				-0.5,
				-0.415367990732193
			],
			"type":"VEC3"
		},
		{
			"bufferView":21,
			"componentType":5126,
			"count":7884,
			"type":"VEC3"
		},
		{
			"bufferView":22,
			"componentType":5126,
			"count":7884,
			"type":"VEC2"
		},
		{
			"bufferView":23,
			"componentType":5126,
			"count":7884,
			"max":[
				0.22462183237075806,
				0.5,
				0.415367990732193
			],
			"min":[
				-0.22462183237075806,
				-0.5,
				-0.415367990732193
			],
			"type":"VEC3"
		},
		{
			"bufferView":24,
			"componentType":5126,
			"count":7884,
			"type":"VEC3"
		},
		{
			"bufferView":25,
			"componentType":5126,
			"count":7884,
			"type":"VEC2"
		},
		{
			"bufferView":26,
			"componentType":5126,
			"count":7884,
			"max":[
				0.22462183237075806,
				0.5,
				0.415367990732193
			],
			"min":[
				-0.22462183237075806,
				-0.5,
				-0.415367990732193
			],
			"type":"VEC3"
		},
		{
			"bufferView":27,
			"componentType":5126,
			"count":7884,
			"type":"VEC3"
		},
		{
			"bufferView":28,
			"componentType":5126,
			"count":7884,
			"type":"VEC2"
		},
		{
			"bufferView":29,
			"componentType":5126,
			"count":7884,
			"max":[
				0.22462183237075806,
				0.5,
				0.415367990732193
			],
			"min":[
				-0.22462183237075806,
				-0.5,
				-0.415367990732193
			],
			"type":"VEC3"
		},
		{
			"bufferView":30,
			"componentType":5126,
			"count":7884,
			"type":"VEC3"
		},
		{
			"bufferView":31,
			"componentType":5126,
			"count":7884,
			"type":"VEC2"
		},
		{
			"bufferView":32,
			"componentType":5126,
			"count":7884,
			"max":[
				0.22462183237075806,
				0.5,
				0.415367990732193
			],
			"min":[
				-0.22462183237075806,
				-0.5,
				-0.415367990732193
			],
			"type":"VEC3"
		},
		{
			"bufferView":33,
			"componentType":5126,
			"count":7884,
			"type":"VEC3"
		},
		{
			"bufferView":34,
			"componentType":5126,
			"count":7884,
			"type":"VEC2"
		},
		{
			"bufferView":35,
			"componentType":5126,
			"count":7884,
			"max":[
				0.22462183237075806,
				0.5,
				0.415367990732193
			],
			"min":[
				-0.22462183237075806,
				-0.5,
				-0.415367990732193
			],
			"type":"VEC3"
		},
		{
			"bufferView":36,
			"componentType":5126,
			"count":7884,
			"type":"VEC3"
		},
		{
			"bufferView":37,
			"componentType":5126,
			"count":7884,
			"type":"VEC2"
		},
		{
			"bufferView":38,
			"componentType":5126,
			"count":6782,
			"max":[
				0.5,
				0.3504931926727295,
				0.49801114201545715
			],
			"min":[
				-0.5,
				-0.3504931926727295,
				-0.49801114201545715
			],
			"type":"VEC3"
		},
		{
			"bufferView":39,
			"componentType":5126,
			"count":6782,
			"type":"VEC3"
		},
		{
			"bufferView":40,
			"componentType":5126,
			"count":6782,
			"type":"VEC2"
		},
		{
			"bufferView":41,
			"componentType":5123,
			"count":29040,
			"type":"SCALAR"
		},
		{
			"bufferView":42,
			"componentType":5126,
			"count":6782,
			"max":[
				0.5,
				0.3504931926727295,
				0.49801114201545715
			],
			"min":[
				-0.5,
				-0.3504931926727295,
				-0.49801114201545715
			],
			"type":"VEC3"
		},
		{
			"bufferView":43,
			"componentType":5126,
			"count":6782,
			"type":"VEC3"
		},
		{
			"bufferView":44,
			"componentType":5126,
			"count":6782,
			"type":"VEC2"
		},
		{
			"bufferView":45,
			"componentType":5126,
			"count":6782,
			"max":[
				0.5,
				0.3504931926727295,
				0.49801114201545715
			],
			"min":[
				-0.5,
				-0.3504931926727295,
				-0.49801114201545715
			],
			"type":"VEC3"
		},
		{
			"bufferView":46,
			"componentType":5126,
			"count":6782,
			"type":"VEC3"
		},
		{
			"bufferView":47,
			"componentType":5126,
			"count":6782,
			"type":"VEC2"
		},
		{
			"bufferView":48,
			"componentType":5126,
			"count":6782,
			"max":[
				0.5,
				0.3504931926727295,
				0.49801114201545715
			],
			"min":[
				-0.5,
				-0.3504931926727295,
				-0.49801114201545715
			],
			"type":"VEC3"
		},
		{
			"bufferView":49,
			"componentType":5126,
			"count":6782,
			"type":"VEC3"
		},
		{
			"bufferView":50,
			"componentType":5126,
			"count":6782,
			"type":"VEC2"
		},
		{
			"bufferView":51,
			"componentType":5126,
			"count":6782,
			"max":[
				0.5,
				0.3504931926727295,
				0.49801114201545715
			],
			"min":[
				-0.5,
				-0.3504931926727295,
				-0.49801114201545715
			],
			"type":"VEC3"
		},
		{
			"bufferView":52,
			"componentType":5126,
			"count":6782,
			"type":"VEC3"
		},
		{
			"bufferView":53,
			"componentType":5126,
			"count":6782,
			"type":"VEC2"
		},
		{
			"bufferView":54,
			"componentType":5126,
			"count":5974,
			"max":[
				0.4990735650062561,
				0.19448475539684296,
				0.5
			],
			"min":[
				-0.4990735650062561,
				-0.19448475539684296,
				-0.5
			],
			"type":"VEC3"
		},
		{
			"bufferView":55,
			"componentType":5126,
			"count":5974,
			"type":"VEC3"
		},
		{
			"bufferView":56,
			"componentType":5126,
			"count":5974,
			"type":"VEC2"
		},
		{
			"bufferView":57,
			"componentType":5123,
			"count":28848,
			"type":"SCALAR"
		},
		{
			"bufferView":58,
			"componentType":5126,
			"count":11234,
			"max":[
				0.49916940927505493,
				0.5,
				0.4671383500099182
			],
			"min":[
				-0.49916940927505493,
				-0.5,
				-0.4671383500099182
			],
			"type":"VEC3"
		},
		{
			"bufferView":59,
			"componentType":5126,
			"count":11234,
			"type":"VEC3"
		},
		{
			"bufferView":60,
			"componentType":5126,
			"count":11234,
			"type":"VEC2"
		},
		{
			"bufferView":61,
			"componentType":5123,
			"count":26988,
			"type":"SCALAR"
		},
		{
			"bufferView":62,
			"componentType":5126,
			"count":11234,
			"max":[
				0.49916940927505493,
				0.5,
				0.4671383500099182
			],
			"min":[
				-0.49916940927505493,
				-0.5,
				-0.4671383500099182
			],
			"type":"VEC3"
		},
		{
			"bufferView":63,
			"componentType":5126,
			"count":11234,
			"type":"VEC3"
		},
		{
			"bufferView":64,
			"componentType":5126,
			"count":11234,
			"type":"VEC2"
		},
		{
			"bufferView":65,
			"componentType":5126,
			"count":11234,
			"max":[
				0.49916940927505493,
				0.5,
				0.4671383500099182
			],
			"min":[
				-0.49916940927505493,
				-0.5,
				-0.4671383500099182
			],
			"type":"VEC3"
		},
		{
			"bufferView":66,
			"componentType":5126,
			"count":11234,
			"type":"VEC3"
		},
		{
			"bufferView":67,
			"componentType":5126,
			"count":11234,
			"type":"VEC2"
		},
		{
			"bufferView":68,
			"componentType":5126,
			"count":11234,
			"max":[
				0.49916940927505493,
				0.5,
				0.4671383500099182
			],
			"min":[
				-0.49916940927505493,
				-0.5,
				-0.4671383500099182
			],
			"type":"VEC3"
		},
		{
			"bufferView":69,
			"componentType":5126,
			"count":11234,
			"type":"VEC3"
		},
		{
			"bufferView":70,
			"componentType":5126,
			"count":11234,
			"type":"VEC2"
		},
		{
			"bufferView":71,
			"componentType":5126,
			"count":11234,
			"max":[
				0.49916940927505493,
				0.5,
				0.4671383500099182
			],
			"min":[
				-0.49916940927505493,
				-0.5,
				-0.4671383500099182
			],
			"type":"VEC3"
		},
		{
			"bufferView":72,
			"componentType":5126,
			"count":11234,
			"type":"VEC3"
		},
		{
			"bufferView":73,
			"componentType":5126,
			"count":11234,
			"type":"VEC2"
		},
		{
			"bufferView":74,
			"componentType":5126,
			"count":11234,
			"max":[
				0.49916940927505493,
				0.5,
				0.4671383500099182
			],
			"min":[
				-0.49916940927505493,
				-0.5,
				-0.4671383500099182
			],
			"type":"VEC3"
		},
		{
			"bufferView":75,
			"componentType":5126,
			"count":11234,
			"type":"VEC3"
		},
		{
			"bufferView":76,
			"componentType":5126,
			"count":11234,
			"type":"VEC2"
		},
		{
			"bufferView":77,
			"componentType":5126,
			"count":11234,
			"max":[
				0.49916940927505493,
				0.5,
				0.4671383500099182
			],
			"min":[
				-0.49916940927505493,
				-0.5,
				-0.4671383500099182
			],
			"type":"VEC3"
		},
		{
			"bufferView":78,
			"componentType":5126,
			"count":11234,
			"type":"VEC3"
		},
		{
			"bufferView":79,
			"componentType":5126,
			"count":11234,
			"type":"VEC2"
		},
		{
			"bufferView":80,
			"componentType":5126,
			"count":11234,
			"max":[
				0.49916940927505493,
				0.5,
				0.4671383500099182
			],
			"min":[
				-0.49916940927505493,
				-0.5,
				-0.4671383500099182
			],
			"type":"VEC3"
		},
		{
			"bufferView":81,
			"componentType":5126,
			"count":11234,
			"type":"VEC3"
		},
		{
			"bufferView":82,
			"componentType":5126,
			"count":11234,
			"type":"VEC2"
		},
		{
			"bufferView":83,
			"componentType":5126,
			"count":11234,
			"max":[
				0.49916940927505493,
				0.5,
				0.4671383500099182
			],
			"min":[
				-0.49916940927505493,
				-0.5,
				-0.4671383500099182
			],
			"type":"VEC3"
		},
		{
			"bufferView":84,
			"componentType":5126,
			"count":11234,
			"type":"VEC3"
		},
		{
			"bufferView":85,
			"componentType":5126,
			"count":11234,
			"type":"VEC2"
		},
		{
			"bufferView":86,
			"componentType":5126,
			"count":11234,
			"max":[
				0.49916940927505493,
				0.5,
				0.4671383500099182
			],
			"min":[
				-0.49916940927505493,
				-0.5,
				-0.4671383500099182
			],
			"type":"VEC3"
		},
		{
			"bufferView":87,
			"componentType":5126,
			"count":11234,
			"type":"VEC3"
		},
		{
			"bufferView":88,
			"componentType":5126,
			"count":11234,
			"type":"VEC2"
		},
		{
			"bufferView":89,
			"componentType":5126,
			"count":11234,
			"max":[
				0.49916940927505493,
				0.5,
				0.4671383500099182
			],
			"min":[
				-0.49916940927505493,
				-0.5,
				-0.4671383500099182
			],
			"type":"VEC3"
		},
		{
			"bufferView":90,
			"componentType":5126,
			"count":11234,
			"type":"VEC3"
		},
		{
			"bufferView":91,
			"componentType":5126,
			"count":11234,
			"type":"VEC2"
		},
		{
			"bufferView":92,
			"componentType":5126,
			"count":11234,
			"max":[
				0.49916940927505493,
				0.5,
				0.4671383500099182
			],
			"min":[
				-0.49916940927505493,
				-0.5,
				-0.4671383500099182
			],
			"type":"VEC3"
		},
		{
			"bufferView":93,
			"componentType":5126,
			"count":11234,
			"type":"VEC3"
		},
		{
			"bufferView":94,
			"componentType":5126,
			"count":11234,
			"type":"VEC2"
		},
		{
			"bufferView":95,
			"componentType":5126,
			"count":11234,
			"max":[
				0.49916940927505493,
				0.5,
				0.4671383500099182
			],
			"min":[
				-0.49916940927505493,
				-0.5,
				-0.4671383500099182
			],
			"type":"VEC3"
		},
		{
			"bufferView":96,
			"componentType":5126,
			"count":11234,
			"type":"VEC3"
		},
		{
			"bufferView":97,
			"componentType":5126,
			"count":11234,
			"type":"VEC2"
		},
		{
			"bufferView":98,
			"componentType":5126,
			"count":11234,
			"max":[
				0.49916940927505493,
				0.5,
				0.4671383500099182
			],
			"min":[
				-0.49916940927505493,
				-0.5,
				-0.4671383500099182
			],
			"type":"VEC3"
		},
		{
			"bufferView":99,
			"componentType":5126,
			"count":11234,
			"type":"VEC3"
		},
		{
			"bufferView":100,
			"componentType":5126,
			"count":11234,
			"type":"VEC2"
		},
		{
			"bufferView":101,
			"componentType":5126,
			"count":11234,
			"max":[
				0.49916940927505493,
				0.5,
				0.4671383500099182
			],
			"min":[
				-0.49916940927505493,
				-0.5,
				-0.4671383500099182
			],
			"type":"VEC3"
		},
		{
			"bufferView":102,
			"componentType":5126,
			"count":11234,
			"type":"VEC3"
		},
		{
			"bufferView":103,
			"componentType":5126,
			"count":11234,
			"type":"VEC2"
		},
		{
			"bufferView":104,
			"componentType":5126,
			"count":11234,
			"max":[
				0.49916940927505493,
				0.5,
				0.4671383500099182
			],
			"min":[
				-0.49916940927505493,
				-0.5,
				-0.4671383500099182
			],
			"type":"VEC3"
		},
		{
			"bufferView":105,
			"componentType":5126,
			"count":11234,
			"type":"VEC3"
		},
		{
			"bufferView":106,
			"componentType":5126,
			"count":11234,
			"type":"VEC2"
		},
		{
			"bufferView":107,
			"componentType":5126,
			"count":11234,
			"max":[
				0.49916940927505493,
				0.5,
				0.4671383500099182
			],
			"min":[
				-0.49916940927505493,
				-0.5,
				-0.4671383500099182
			],
			"type":"VEC3"
		},
		{
			"bufferView":108,
			"componentType":5126,
			"count":11234,
			"type":"VEC3"
		},
		{
			"bufferView":109,
			"componentType":5126,
			"count":11234,
			"type":"VEC2"
		},
		{
			"bufferView":110,
			"componentType":5126,
			"count":11234,
			"max":[
				0.49916940927505493,
				0.5,
				0.4671383500099182
			],
			"min":[
				-0.49916940927505493,
				-0.5,
				-0.4671383500099182
			],
			"type":"VEC3"
		},
		{
			"bufferView":111,
			"componentType":5126,
			"count":11234,
			"type":"VEC3"
		},
		{
			"bufferView":112,
			"componentType":5126,
			"count":11234,
			"type":"VEC2"
		},
		{
			"bufferView":113,
			"componentType":5126,
			"count":11234,
			"max":[
				0.49916940927505493,
				0.5,
				0.4671383500099182
			],
			"min":[
				-0.49916940927505493,
				-0.5,
				-0.4671383500099182
			],
			"type":"VEC3"
		},
		{
			"bufferView":114,
			"componentType":5126,
			"count":11234,
			"type":"VEC3"
		},
		{
			"bufferView":115,
			"componentType":5126,
			"count":11234,
			"type":"VEC2"
		},
		{
			"bufferView":116,
			"componentType":5126,
			"count":11234,
			"max":[
				0.49916940927505493,
				0.5,
				0.4671383500099182
			],
			"min":[
				-0.49916940927505493,
				-0.5,
				-0.4671383500099182
			],
			"type":"VEC3"
		},
		{
			"bufferView":117,
			"componentType":5126,
			"count":11234,
			"type":"VEC3"
		},
		{
			"bufferView":118,
			"componentType":5126,
			"count":11234,
			"type":"VEC2"
		},
		{
			"bufferView":119,
			"componentType":5126,
			"count":11234,
			"max":[
				0.49916940927505493,
				0.5,
				0.4671383500099182
			],
			"min":[
				-0.49916940927505493,
				-0.5,
				-0.4671383500099182
			],
			"type":"VEC3"
		},
		{
			"bufferView":120,
			"componentType":5126,
			"count":11234,
			"type":"VEC3"
		},
		{
			"bufferView":121,
			"componentType":5126,
			"count":11234,
			"type":"VEC2"
		},
		{
			"bufferView":122,
			"componentType":5126,
			"count":11234,
			"max":[
				0.49916940927505493,
				0.5,
				0.4671383500099182
			],
			"min":[
				-0.49916940927505493,
				-0.5,
				-0.4671383500099182
			],
			"type":"VEC3"
		},
		{
			"bufferView":123,
			"componentType":5126,
			"count":11234,
			"type":"VEC3"
		},
		{
			"bufferView":124,
			"componentType":5126,
			"count":11234,
			"type":"VEC2"
		},
		{
			"bufferView":125,
			"componentType":5126,
			"count":11234,
			"max":[
				0.49916940927505493,
				0.5,
				0.4671383500099182
			],
			"min":[
				-0.49916940927505493,
				-0.5,
				-0.4671383500099182
			],
			"type":"VEC3"
		},
		{
			"bufferView":126,
			"componentType":5126,
			"count":11234,
			"type":"VEC3"
		},
		{
			"bufferView":127,
			"componentType":5126,
			"count":11234,
			"type":"VEC2"
		},
		{
			"bufferView":128,
			"componentType":5126,
			"count":11234,
			"max":[
				0.49916940927505493,
				0.5,
				0.4671383500099182
			],
			"min":[
				-0.49916940927505493,
				-0.5,
				-0.4671383500099182
			],
			"type":"VEC3"
		},
		{
			"bufferView":129,
			"componentType":5126,
			"count":11234,
			"type":"VEC3"
		},
		{
			"bufferView":130,
			"componentType":5126,
			"count":11234,
			"type":"VEC2"
		},
		{
			"bufferView":131,
			"componentType":5126,
			"count":11234,
			"max":[
				0.49916940927505493,
				0.5,
				0.4671383500099182
			],
			"min":[
				-0.49916940927505493,
				-0.5,
				-0.4671383500099182
			],
			"type":"VEC3"
		},
		{
			"bufferView":132,
			"componentType":5126,
			"count":11234,
			"type":"VEC3"
		},
		{
			"bufferView":133,
			"componentType":5126,
			"count":11234,
			"type":"VEC2"
		},
		{
			"bufferView":134,
			"componentType":5126,
			"count":11234,
			"max":[
				0.49916940927505493,
				0.5,
				0.4671383500099182
			],
			"min":[
				-0.49916940927505493,
				-0.5,
				-0.4671383500099182
			],
			"type":"VEC3"
		},
		{
			"bufferView":135,
			"componentType":5126,
			"count":11234,
			"type":"VEC3"
		},
		{
			"bufferView":136,
			"componentType":5126,
			"count":11234,
			"type":"VEC2"
		},
		{
			"bufferView":137,
			"componentType":5126,
			"count":5803,
			"max":[
				0.5,
				0.2585046589374542,
				0.26205775141716003
			],
			"min":[
				-0.5,
				-0.2585046589374542,
				-0.26205775141716003
			],
			"type":"VEC3"
		},
		{
			"bufferView":138,
			"componentType":5126,
			"count":5803,
			"type":"VEC3"
		},
		{
			"bufferView":139,
			"componentType":5126,
			"count":5803,
			"type":"VEC2"
		},
		{
			"bufferView":140,
			"componentType":5123,
			"count":28614,
			"type":"SCALAR"
		},
		{
			"bufferView":141,
			"componentType":5126,
			"count":5803,
			"max":[
				0.5,
				0.2585046589374542,
				0.26205775141716003
			],
			"min":[
				-0.5,
				-0.2585046589374542,
				-0.26205775141716003
			],
			"type":"VEC3"
		},
		{
			"bufferView":142,
			"componentType":5126,
			"count":5803,
			"type":"VEC3"
		},
		{
			"bufferView":143,
			"componentType":5126,
			"count":5803,
			"type":"VEC2"
		},
		{
			"bufferView":144,
			"componentType":5126,
			"count":5803,
			"max":[
				0.5,
				0.2585046589374542,
				0.26205775141716003
			],
			"min":[
				-0.5,
				-0.2585046589374542,
				-0.26205775141716003
			],
			"type":"VEC3"
		},
		{
			"bufferView":145,
			"componentType":5126,
			"count":5803,
			"type":"VEC3"
		},
		{
			"bufferView":146,
			"componentType":5126,
			"count":5803,
			"type":"VEC2"
		},
		{
			"bufferView":147,
			"componentType":5126,
			"count":5803,
			"max":[
				0.5,
				0.2585046589374542,
				0.26205775141716003
			],
			"min":[
				-0.5,
				-0.2585046589374542,
				-0.26205775141716003
			],
			"type":"VEC3"
		},
		{
			"bufferView":148,
			"componentType":5126,
			"count":5803,
			"type":"VEC3"
		},
		{
			"bufferView":149,
			"componentType":5126,
			"count":5803,
			"type":"VEC2"
		},
		{
			"bufferView":150,
			"componentType":5126,
			"count":5803,
			"max":[
				0.5,
				0.2585046589374542,
				0.26205775141716003
			],
			"min":[
				-0.5,
				-0.2585046589374542,
				-0.26205775141716003
			],
			"type":"VEC3"
		},
		{
			"bufferView":151,
			"componentType":5126,
			"count":5803,
			"type":"VEC3"
		},
		{
			"bufferView":152,
			"componentType":5126,
			"count":5803,
			"type":"VEC2"
		},
		{
			"bufferView":153,
			"componentType":5126,
			"count":5803,
			"max":[
				0.5,
				0.2585046589374542,
				0.26205775141716003
			],
			"min":[
				-0.5,
				-0.2585046589374542,
				-0.26205775141716003
			],
			"type":"VEC3"
		},
		{
			"bufferView":154,
			"componentType":5126,
			"count":5803,
			"type":"VEC3"
		},
		{
			"bufferView":155,
			"componentType":5126,
			"count":5803,
			"type":"VEC2"
		},
		{
			"bufferView":156,
			"componentType":5126,
			"count":5803,
			"max":[
				0.5,
				0.2585046589374542,
				0.26205775141716003
			],
			"min":[
				-0.5,
				-0.2585046589374542,
				-0.26205775141716003
			],
			"type":"VEC3"
		},
		{
			"bufferView":157,
			"componentType":5126,
			"count":5803,
			"type":"VEC3"
		},
		{
			"bufferView":158,
			"componentType":5126,
			"count":5803,
			"type":"VEC2"
		},
		{
			"bufferView":159,
			"componentType":5126,
			"count":5803,
			"max":[
				0.5,
				0.2585046589374542,
				0.26205775141716003
			],
			"min":[
				-0.5,
				-0.2585046589374542,
				-0.26205775141716003
			],
			"type":"VEC3"
		},
		{
			"bufferView":160,
			"componentType":5126,
			"count":5803,
			"type":"VEC3"
		},
		{
			"bufferView":161,
			"componentType":5126,
			"count":5803,
			"type":"VEC2"
		},
		{
			"bufferView":162,
			"componentType":5126,
			"count":5803,
			"max":[
				0.5,
				0.2585046589374542,
				0.26205775141716003
			],
			"min":[
				-0.5,
				-0.2585046589374542,
				-0.26205775141716003
			],
			"type":"VEC3"
		},
		{
			"bufferView":163,
			"componentType":5126,
			"count":5803,
			"type":"VEC3"
		},
		{
			"bufferView":164,
			"componentType":5126,
			"count":5803,
			"type":"VEC2"
		}
	],
	"bufferViews":[
		{
			"buffer":0,
			"byteLength":1920,
			"byteOffset":0,
			"target":34962
		},
		{
			"buffer":0,
			"byteLength":1920,
			"byteOffset":1920,
			"target":34962
		},
		{
			"buffer":0,
			"byteLength":1280,
			"byteOffset":3840,
			"target":34962
		},
		{
			"buffer":0,
			"byteLength":564,
			"byteOffset":5120,
			"target":34963
		},
		{
			"buffer":0,
			"byteLength":94608,
			"byteOffset":5684,
			"target":34962
		},
		{
			"buffer":0,
			"byteLength":94608,
			"byteOffset":100292,
			"target":34962
		},
		{
			"buffer":0,
			"byteLength":63072,
			"byteOffset":194900,
			"target":34962
		},
		{
			"buffer":0,
			"byteLength":58500,
			"byteOffset":257972,
			"target":34963
		},
		{
			"buffer":0,
			"byteLength":94608,
			"byteOffset":316472,
			"target":34962
		},
		{
			"buffer":0,
			"byteLength":94608,
			"byteOffset":411080,
			"target":34962
		},
		{
			"buffer":0,
			"byteLength":63072,
			"byteOffset":505688,
			"target":34962
		},
		{
			"buffer":0,
			"byteLength":94608,
			"byteOffset":568760,
			"target":34962
		},
		{
			"buffer":0,
			"byteLength":94608,
			"byteOffset":663368,
			"target":34962
		},
		{
			"buffer":0,
			"byteLength":63072,
			"byteOffset":757976,
			"target":34962
		},
		{
			"buffer":0,
			"byteLength":94608,
			"byteOffset":821048,
			"target":34962
		},
		{
			"buffer":0,
			"byteLength":94608,
			"byteOffset":915656,
			"target":34962
		},
		{
			"buffer":0,
			"byteLength":63072,
			"byteOffset":1010264,
			"target":34962
		},
		{
			"buffer":0,
			"byteLength":94608,
			"byteOffset":1073336,
			"target":34962
		},
		{
			"buffer":0,
			"byteLength":94608,
			"byteOffset":1167944,
			"target":34962
		},
		{
			"buffer":0,
			"byteLength":63072,
			"byteOffset":1262552,
			"target":34962
		},
		{
			"buffer":0,
			"byteLength":94608,
			"byteOffset":1325624,
			"target":34962
		},
		{
			"buffer":0,
			"byteLength":94608,
			"byteOffset":1420232,
			"target":34962
		},
		{
			"buffer":0,
			"byteLength":63072,
			"byteOffset":1514840,
			"target":34962
		},
		{
			"buffer":0,
			"byteLength":94608,
			"byteOffset":1577912,
			"target":34962
		},
		{
			"buffer":0,
			"byteLength":94608,
			"byteOffset":1672520,
			"target":34962
		},
		{
			"buffer":0,
			"byteLength":63072,
			"byteOffset":1767128,
			"target":34962
		},
		{
			"buffer":0,
			"byteLength":94608,
			"byteOffset":1830200,
			"target":34962
		},
		{
			"buffer":0,
			"byteLength":94608,
			"byteOffset":1924808,
			"target":34962
		},
		{
			"buffer":0,
			"byteLength":63072,
			"byteOffset":2019416,
			"target":34962
		},
		{
			"buffer":0,
			"byteLength":94608,
			"byteOffset":2082488,
			"target":34962
		},
		{
			"buffer":0,
			"byteLength":94608,
			"byteOffset":2177096,
			"target":34962
		},
		{
			"buffer":0,
			"byteLength":63072,
			"byteOffset":2271704,
			"target":34962
		},
		{
			"buffer":0,
			"byteLength":94608,
			"byteOffset":2334776,
			"target":34962
		},
		{
			"buffer":0,
			"byteLength":94608,
			"byteOffset":2429384,
			"target":34962
		},
		{
			"buffer":0,
			"byteLength":63072,
			"byteOffset":2523992,
			"target":34962
		},
		{
			"buffer":0,
			"byteLength":94608,
			"byteOffset":2587064,
			"target":34962
		},
		{
			"buffer":0,
			"byteLength":94608,
			"byteOffset":2681672,
			"target":34962
		},
		{
			"buffer":0,
			"byteLength":63072,
			"byteOffset":2776280,
			"target":34962
		},
		{
			"buffer":0,
			"byteLength":81384,
			"byteOffset":2839352,
			"target":34962
		},
		{
			"buffer":0,
			"byteLength":81384,
			"byteOffset":2920736,
			"target":34962
		},
		{
			"buffer":0,
			"byteLength":54256,
			"byteOffset":3002120,
			"target":34962
		},
		{
			"buffer":0,
			"byteLength":58080,
			"byteOffset":3056376,
			"target":34963
		},
		{
			"buffer":0,
			"byteLength":81384,
			"byteOffset":3114456,
			"target":34962
		},
		{
			"buffer":0,
			"byteLength":81384,
			"byteOffset":3195840,
			"target":34962
		},
		{
			"buffer":0,
			"byteLength":54256,
			"byteOffset":3277224,
			"target":34962
		},
		{
			"buffer":0,
			"byteLength":81384,
			"byteOffset":3331480,
			"target":34962
		},
		{
			"buffer":0,
			"byteLength":81384,
			"byteOffset":3412864,
			"target":34962
		},
		{
			"buffer":0,
			"byteLength":54256,
			"byteOffset":3494248,
			"target":34962
		},
		{
			"buffer":0,
			"byteLength":81384,
			"byteOffset":3548504,
			"target":34962
		},
		{
			"buffer":0,
			"byteLength":81384,
			"byteOffset":3629888,
			"target":34962
		},
		{
			"buffer":0,
			"byteLength":54256,
			"byteOffset":3711272,
			"target":34962
		},
		{
			"buffer":0,
			"byteLength":81384,
			"byteOffset":3765528,
			"target":34962
		},
		{
			"buffer":0,
			"byteLength":81384,
			"byteOffset":3846912,
			"target":34962
		},
		{
			"buffer":0,
			"byteLength":54256,
			"byteOffset":3928296,
			"target":34962
		},
		{
			"buffer":0,
			"byteLength":71688,
			"byteOffset":3982552,
			"target":34962
		},
		{
			"buffer":0,
			"byteLength":71688,
			"byteOffset":4054240,
			"target":34962
		},
		{
			"buffer":0,
			"byteLength":47792,
			"byteOffset":4125928,
			"target":34962
		},
		{
			"buffer":0,
			"byteLength":57696,
			"byteOffset":4173720,
			"target":34963
		},
		{
			"buffer":0,
			"byteLength":134808,
			"byteOffset":4231416,
			"target":34962
		},
		{
			"buffer":0,
			"byteLength":134808,
			"byteOffset":4366224,
			"target":34962
		},
		{
			"buffer":0,
			"byteLength":89872,
			"byteOffset":4501032,
			"target":34962
		},
		{
			"buffer":0,
			"byteLength":53976,
			"byteOffset":4590904,
			"target":34963
		},
		{
			"buffer":0,
			"byteLength":134808,
			"byteOffset":4644880,
			"target":34962
		},
		{
			"buffer":0,
			"byteLength":134808,
			"byteOffset":4779688,
			"target":34962
		},
		{
			"buffer":0,
			"byteLength":89872,
			"byteOffset":4914496,
			"target":34962
		},
		{
			"buffer":0,
			"byteLength":134808,
			"byteOffset":5004368,
			"target":34962
		},
		{
			"buffer":0,
			"byteLength":134808,
			"byteOffset":5139176,
			"target":34962
		},
		{
			"buffer":0,
			"byteLength":89872,
			"byteOffset":5273984,
			"target":34962
		},
		{
			"buffer":0,
			"byteLength":134808,
			"byteOffset":5363856,
			"target":34962
		},
		{
			"buffer":0,
			"byteLength":134808,
			"byteOffset":5498664,
			"target":34962
		},
		{
			"buffer":0,
			"byteLength":89872,
			"byteOffset":5633472,
			"target":34962
		},
		{
			"buffer":0,
			"byteLength":134808,
			"byteOffset":5723344,
			"target":34962
		},
		{
			"buffer":0,
			"byteLength":134808,
			"byteOffset":5858152,
			"target":34962
		},
		{
			"buffer":0,
			"byteLength":89872,
			"byteOffset":5992960,
			"target":34962
		},
		{
			"buffer":0,
			"byteLength":134808,
			"byteOffset":6082832,
			"target":34962
		},
		{
			"buffer":0,
			"byteLength":134808,
			"byteOffset":6217640,
			"target":34962
		},
		{
			"buffer":0,
			"byteLength":89872,
			"byteOffset":6352448,
			"target":34962
		},
		{
			"buffer":0,
			"byteLength":134808,
			"byteOffset":6442320,
			"target":34962
		},
		{
			"buffer":0,
			"byteLength":134808,
			"byteOffset":6577128,
			"target":34962
		},
		{
			"buffer":0,
			"byteLength":89872,
			"byteOffset":6711936,
			"target":34962
		},
		{
			"buffer":0,
			"byteLength":134808,
			"byteOffset":6801808,
			"target":34962
		},
		{
			"buffer":0,
			"byteLength":134808,
			"byteOffset":6936616,
			"target":34962
		},
		{
			"buffer":0,
			"byteLength":89872,
			"byteOffset":7071424,
			"target":34962
		},
		{
			"buffer":0,
			"byteLength":134808,
			"byteOffset":7161296,
			"target":34962
		},
		{
			"buffer":0,
			"byteLength":134808,
			"byteOffset":7296104,
			"target":34962
		},
		{
			"buffer":0,
			"byteLength":89872,
			"byteOffset":7430912,
			"target":34962
		},
		{
			"buffer":0,
			"byteLength":134808,
			"byteOffset":7520784,
			"target":34962
		},
		{
			"buffer":0,
			"byteLength":134808,
			"byteOffset":7655592,
			"target":34962
		},
		{
			"buffer":0,
			"byteLength":89872,
			"byteOffset":7790400,
			"target":34962
		},
		{
			"buffer":0,
			"byteLength":134808,
			"byteOffset":7880272,
			"target":34962
		},
		{
			"buffer":0,
			"byteLength":134808,
			"byteOffset":8015080,
			"target":34962
		},
		{
			"buffer":0,
			"byteLength":89872,
			"byteOffset":8149888,
			"target":34962
		},
		{
			"buffer":0,
			"byteLength":134808,
			"byteOffset":8239760,
			"target":34962
		},
		{
			"buffer":0,
			"byteLength":134808,
			"byteOffset":8374568,
			"target":34962
		},
		{
			"buffer":0,
			"byteLength":89872,
			"byteOffset":8509376,
			"target":34962
		},
		{
			"buffer":0,
			"byteLength":134808,
			"byteOffset":8599248,
			"target":34962
		},
		{
			"buffer":0,
			"byteLength":134808,
			"byteOffset":8734056,
			"target":34962
		},
		{
			"buffer":0,
			"byteLength":89872,
			"byteOffset":8868864,
			"target":34962
		},
		{
			"buffer":0,
			"byteLength":134808,
			"byteOffset":8958736,
			"target":34962
		},
		{
			"buffer":0,
			"byteLength":134808,
			"byteOffset":9093544,
			"target":34962
		},
		{
			"buffer":0,
			"byteLength":89872,
			"byteOffset":9228352,
			"target":34962
		},
		{
			"buffer":0,
			"byteLength":134808,
			"byteOffset":9318224,
			"target":34962
		},
		{
			"buffer":0,
			"byteLength":134808,
			"byteOffset":9453032,
			"target":34962
		},
		{
			"buffer":0,
			"byteLength":89872,
			"byteOffset":9587840,
			"target":34962
		},
		{
			"buffer":0,
			"byteLength":134808,
			"byteOffset":9677712,
			"target":34962
		},
		{
			"buffer":0,
			"byteLength":134808,
			"byteOffset":9812520,
			"target":34962
		},
		{
			"buffer":0,
			"byteLength":89872,
			"byteOffset":9947328,
			"target":34962
		},
		{
			"buffer":0,
			"byteLength":134808,
			"byteOffset":10037200,
			"target":34962
		},
		{
			"buffer":0,
			"byteLength":134808,
			"byteOffset":10172008,
			"target":34962
		},
		{
			"buffer":0,
			"byteLength":89872,
			"byteOffset":10306816,
			"target":34962
		},
		{
			"buffer":0,
			"byteLength":134808,
			"byteOffset":10396688,
			"target":34962
		},
		{
			"buffer":0,
			"byteLength":134808,
			"byteOffset":10531496,
			"target":34962
		},
		{
			"buffer":0,
			"byteLength":89872,
			"byteOffset":10666304,
			"target":34962
		},
		{
			"buffer":0,
			"byteLength":134808,
			"byteOffset":10756176,
			"target":34962
		},
		{
			"buffer":0,
			"byteLength":134808,
			"byteOffset":10890984,
			"target":34962
		},
		{
			"buffer":0,
			"byteLength":89872,
			"byteOffset":11025792,
			"target":34962
		},
		{
			"buffer":0,
			"byteLength":134808,
			"byteOffset":11115664,
			"target":34962
		},
		{
			"buffer":0,
			"byteLength":134808,
			"byteOffset":11250472,
			"target":34962
		},
		{
			"buffer":0,
			"byteLength":89872,
			"byteOffset":11385280,
			"target":34962
		},
		{
			"buffer":0,
			"byteLength":134808,
			"byteOffset":11475152,
			"target":34962
		},
		{
			"buffer":0,
			"byteLength":134808,
			"byteOffset":11609960,
			"target":34962
		},
		{
			"buffer":0,
			"byteLength":89872,
			"byteOffset":11744768,
			"target":34962
		},
		{
			"buffer":0,
			"byteLength":134808,
			"byteOffset":11834640,
			"target":34962
		},
		{
			"buffer":0,
			"byteLength":134808,
			"byteOffset":11969448,
			"target":34962
		},
		{
			"buffer":0,
			"byteLength":89872,
			"byteOffset":12104256,
			"target":34962
		},
		{
			"buffer":0,
			"byteLength":134808,
			"byteOffset":12194128,
			"target":34962
		},
		{
			"buffer":0,
			"byteLength":134808,
			"byteOffset":12328936,
			"target":34962
		},
		{
			"buffer":0,
			"byteLength":89872,
			"byteOffset":12463744,
			"target":34962
		},
		{
			"buffer":0,
			"byteLength":134808,
			"byteOffset":12553616,
			"target":34962
		},
		{
			"buffer":0,
			"byteLength":134808,
			"byteOffset":12688424,
			"target":34962
		},
		{
			"buffer":0,
			"byteLength":89872,
			"byteOffset":12823232,
			"target":34962
		},
		{
			"buffer":0,
			"byteLength":134808,
			"byteOffset":12913104,
			"target":34962
		},
		{
			"buffer":0,
			"byteLength":134808,
			"byteOffset":13047912,
			"target":34962
		},
		{
			"buffer":0,
			"byteLength":89872,
			"byteOffset":13182720,
			"target":34962
		},
		{
			"buffer":0,
			"byteLength":134808,
			"byteOffset":13272592,
			"target":34962
		},
		{
			"buffer":0,
			"byteLength":134808,
			"byteOffset":13407400,
			"target":34962
		},
		{
			"buffer":0,
			"byteLength":89872,
			"byteOffset":13542208,
			"target":34962
		},
		{
			"buffer":0,
			"byteLength":69636,
			"byteOffset":13632080,
			"target":34962
		},
		{
			"buffer":0,
			"byteLength":69636,
			"byteOffset":13701716,
			"target":34962
		},
		{
			"buffer":0,
			"byteLength":46424,
			"byteOffset":13771352,
			"target":34962
		},
		{
			"buffer":0,
			"byteLength":57228,
			"byteOffset":13817776,
			"target":34963
		},
		{
			"buffer":0,
			"byteLength":69636,
			"byteOffset":13875004,
			"target":34962
		},
		{
			"buffer":0,
			"byteLength":69636,
			"byteOffset":13944640,
			"target":34962
		},
		{
			"buffer":0,
			"byteLength":46424,
			"byteOffset":14014276,
			"target":34962
		},
		{
			"buffer":0,
			"byteLength":69636,
			"byteOffset":14060700,
			"target":34962
		},
		{
			"buffer":0,
			"byteLength":69636,
			"byteOffset":14130336,
			"target":34962
		},
		{
			"buffer":0,
			"byteLength":46424,
			"byteOffset":14199972,
			"target":34962
		},
		{
			"buffer":0,
			"byteLength":69636,
			"byteOffset":14246396,
			"target":34962
		},
		{
			"buffer":0,
			"byteLength":69636,
			"byteOffset":14316032,
			"target":34962
		},
		{
			"buffer":0,
			"byteLength":46424,
			"byteOffset":14385668,
			"target":34962
		},
		{
			"buffer":0,
			"byteLength":69636,
			"byteOffset":14432092,
			"target":34962
		},
		{
			"buffer":0,
			"byteLength":69636,
			"byteOffset":14501728,
			"target":34962
		},
		{
			"buffer":0,
			"byteLength":46424,
			"byteOffset":14571364,
			"target":34962
		},
		{
			"buffer":0,
			"byteLength":69636,
			"byteOffset":14617788,
			"target":34962
		},
		{
			"buffer":0,
			"byteLength":69636,
			"byteOffset":14687424,
			"target":34962
		},
		{
			"buffer":0,
			"byteLength":46424,
			"byteOffset":14757060,
			"target":34962
		},
		{
			"buffer":0,
			"byteLength":69636,
			"byteOffset":14803484,
			"target":34962
		},
		{
			"buffer":0,
			"byteLength":69636,
			"byteOffset":14873120,
			"target":34962
		},
		{
			"buffer":0,
			"byteLength":46424,
			"byteOffset":14942756,
			"target":34962
		},
		{
			"buffer":0,
			"byteLength":69636,
			"byteOffset":14989180,
			"target":34962
		},
		{
			"buffer":0,
			"byteLength":69636,
			"byteOffset":15058816,
			"target":34962
		},
		{
			"buffer":0,
			"byteLength":46424,
			"byteOffset":15128452,
			"target":34962
		},
		{
			"buffer":0,
			"byteLength":69636,
			"byteOffset":15174876,
			"target":34962
		},
		{
			"buffer":0,
			"byteLength":69636,
			"byteOffset":15244512,
			"target":34962
		},
		{
			"buffer":0,
			"byteLength":46424,
			"byteOffset":15314148,
			"target":34962
		}
	],
	"samplers":[
		{
			"magFilter":9729,
			"minFilter":9987
		}
	],
	"buffers":[
		{
			"byteLength":15360572,
			"uri":"dungeon_3.bin"
		}
	]
}
