{
	"asset":{
		"generator":"Khronos glTF Blender I/O v5.2.39",
		"version":"2.0"
	},
	"extensionsUsed":[
		"KHR_texture_transform"
	],
	"extensionsRequired":[
		"KHR_texture_transform"
	],
	"scene":0,
	"scenes":[
		{
			"name":"Scene",
			"nodes":[
				0,
				1,
				2,
				3,
				4,
				5,
				6,
				7,
				8,
				9,
				10,
				11,
				12,
				13,
				14,
				15,
				16,
				17,
				18,
				19
			]
		}
	],
	"nodes":[
		{
			"name":"Circle",
			"scale":[
				4.046864032745361,
				4.046864032745361,
				4.046864032745361
			],
			"translation":[
				-29.58415985107422,
				-0.9717156887054443,
				-38.21348571777344
			]
		},
		{
			"mesh":0,
			"name":"Circle.001",
			"rotation":[
				0,
				-0.11532370746135712,
				0,
				0.9933279752731323
			],
			"scale":[
				24.896446228027344,
				16.009010314941406,
				24.896446228027344
			],
			"translation":[
				448.475830078125,
				6.983015537261963,
				577.7841186523438
			]
		},
		{
			"mesh":1,
			"name":"tripo_node_4ffa0c8f-ff93-4e71-97f6-2ded503b02be",
			"scale":[
				1.832023024559021,
				1.832023024559021,
				1.832023024559021
			],
			"translation":[
				0,
				0,
				-6.916827201843262
			]
		},
		{
			"mesh":2,
			"name":"tripo_node_4ffa0c8f-ff93-4e71-97f6-2ded503b02be.001",
			"scale":[
				1.832023024559021,
				1.832023024559021,
				1.832023024559021
			],
			"translation":[
				91.18523406982422,
				-0.06202247366309166,
				44.38577651977539
			]
		},
		{
			"mesh":3,
			"name":"tripo_node_4ffa0c8f-ff93-4e71-97f6-2ded503b02be.002",
			"scale":[
				1.832023024559021,
				1.832023024559021,
				1.832023024559021
			],
			"translation":[
				360.8443908691406,
				-2.7314305305480957,
				-1.0868840217590332
			]
		},
		{
			"mesh":4,
			"name":"tripo_node_4ffa0c8f-ff93-4e71-97f6-2ded503b02be.003",
			"scale":[
				1.832023024559021,
				1.832023024559021,
				1.832023024559021
			],
			"translation":[
				537.4075317382812,
				-2.7314305305480957,
				61.7261962890625
			]
		},
		{
			"mesh":5,
			"name":"tripo_node_4ffa0c8f-ff93-4e71-97f6-2ded503b02be.004",
			"scale":[
				1.832023024559021,
				1.832023024559021,
				1.832023024559021
			],
			"translation":[
				1119.89794921875,
				-2.7314305305480957,
				24.315567016601562
			]
		},
		{
			"mesh":6,
			"name":"tripo_node_4ffa0c8f-ff93-4e71-97f6-2ded503b02be.005",
			"rotation":[
				0.3143002390861511,
				-0.4287644922733307,
				-0.1532938927412033,
				0.8329930305480957
			],
			"scale":[
				2.1440255641937256,
				2.1440255641937256,
				2.1440255641937256
			],
			"translation":[
				1119.89794921875,
				6.410554885864258,
				421.6103210449219
			]
		},
		{
			"mesh":7,
			"name":"tripo_node_4ffa0c8f-ff93-4e71-97f6-2ded503b02be.006",
			"rotation":[
				0.32064688205718994,
				-0.8162164092063904,
				-0.0020391102880239487,
				0.4805956482887268
			],
			"scale":[
				2.144026041030884,
				2.1440255641937256,
				2.144026041030884
			],
			"translation":[
				823.836669921875,
				3.803236246109009,
				344.079833984375
			]
		},
		{
			"mesh":8,
			"name":"tripo_node_4ffa0c8f-ff93-4e71-97f6-2ded503b02be.007",
			"rotation":[
				0.28523901104927063,
				-0.5116002559661865,
				-0.1464831382036209,
				0.7971490025520325
			],
			"scale":[
				2.1440253257751465,
				2.1440253257751465,
				2.1440255641937256
			],
			"translation":[
				430.0062255859375,
				-0.08322417736053467,
				173.24754333496094
			]
		},
		{
			"mesh":9,
			"name":"tripo_node_4ffa0c8f-ff93-4e71-97f6-2ded503b02be.008",
			"rotation":[
				0.32064688205718994,
				-0.8162164092063904,
				-0.0020391102880239487,
				0.4805956482887268
			],
			"scale":[
				2.144026041030884,
				2.1440255641937256,
				2.144026041030884
			],
			"translation":[
				251.36532592773438,
				9.650134086608887,
				557.8088989257812
			]
		},
		{
			"mesh":10,
			"name":"tripo_node_e91df703-cffb-45da-ad9b-c49ba00c69f5",
			"scale":[
				1.1485201120376587,
				1.1485201120376587,
				1.1485201120376587
			],
			"translation":[
				33.354270935058594,
				0,
				0
			]
		},
		{
			"mesh":11,
			"name":"tripo_node_e91df703-cffb-45da-ad9b-c49ba00c69f5.001",
			"scale":[
				1.1485201120376587,
				1.1485201120376587,
				1.1485201120376587
			],
			"translation":[
				191.39862060546875,
				-1.5273245573043823,
				83.35147857666016
			]
		},
		{
			"mesh":12,
			"name":"tripo_node_e91df703-cffb-45da-ad9b-c49ba00c69f5.002",
			"scale":[
				1.1485201120376587,
				1.1485201120376587,
				1.1485201120376587
			],
			"translation":[
				298.961181640625,
				-1.5273245573043823,
				23.968002319335938
			]
		},
		{
			"mesh":13,
			"name":"tripo_node_e91df703-cffb-45da-ad9b-c49ba00c69f5.003",
			"scale":[
				1.1485201120376587,
				1.1485201120376587,
				1.1485201120376587
			],
			"translation":[
				524.7434692382812,
				-1.5273245573043823,
				62.37591552734375
			]
		},
		{
			"mesh":14,
			"name":"tripo_node_e91df703-cffb-45da-ad9b-c49ba00c69f5.004",
			"scale":[
				1.1485201120376587,
				1.1485201120376587,
				1.1485201120376587
			],
			"translation":[
				677.8135986328125,
				-1.5273245573043823,
				138.88394165039062
			]
		},
		{
			"mesh":15,
			"name":"tripo_node_e91df703-cffb-45da-ad9b-c49ba00c69f5.005",
			"scale":[
				1.1485201120376587,
				1.1485201120376587,
				1.1485201120376587
			],
			"translation":[
				1046.7296142578125,
				-4.293537139892578,
				0.003544628620147705
			]
		},
		{
			"mesh":16,
			"name":"tripo_node_e91df703-cffb-45da-ad9b-c49ba00c69f5.006",
			"scale":[
				1.1485201120376587,
				1.1485201120376587,
				1.1485201120376587
			],
			"translation":[
				1255.627685546875,
				0.25567626953125,
				247.640869140625
			]
		},
		{
			"mesh":17,
			"name":"tripo_node_e91df703-cffb-45da-ad9b-c49ba00c69f5.007",
			"scale":[
				1.1485201120376587,
				1.1485201120376587,
				1.1485201120376587
			],
			"translation":[
				585.2335205078125,
				0.25567626953125,
				189.4744110107422
			]
		},
		{
			"mesh":18,
			"name":"tripo_node_e91df703-cffb-45da-ad9b-c49ba00c69f5.008",
			"scale":[
				1.1485201120376587,
				1.1485201120376587,
				1.1485201120376587
			],
			"translation":[
				182.74298095703125,
				0.25567626953125,
				273.767578125
			]
		}
	],
	"materials":[
		{
			"doubleSided":true,
			"name":"Material.001",
			"pbrMetallicRoughness":{
				"baseColorTexture":{
					"extensions":{
						"KHR_texture_transform":{
							"offset":[
								0,
								-149
							],
							"scale":[
								150,
								150
							]
						}
					},
					"index":0
				},
				"metallicFactor":0,
				"roughnessFactor":0.5
			}
		},
		{
			"name":"tripo_material_4ffa0c8f-ff93-4e71-97f6-2ded503b02be",
			"normalTexture":{
				"index":1
			},
			"pbrMetallicRoughness":{
				"baseColorTexture":{
					"index":2
				},
				"metallicRoughnessTexture":{
					"index":3
				}
			}
		},
		{
			"name":"tripo_material_4ffa0c8f-ff93-4e71-97f6-2ded503b02be.001",
			"normalTexture":{
				"index":4
			},
			"pbrMetallicRoughness":{
				"baseColorTexture":{
					"index":5
				},
				"metallicRoughnessTexture":{
					"index":6
				}
			}
		},
		{
			"name":"tripo_material_4ffa0c8f-ff93-4e71-97f6-2ded503b02be.002",
			"normalTexture":{
				"index":7
			},
			"pbrMetallicRoughness":{
				"baseColorTexture":{
					"index":8
				},
				"metallicRoughnessTexture":{
					"index":9
				}
			}
		},
		{
			"name":"tripo_material_4ffa0c8f-ff93-4e71-97f6-2ded503b02be.003",
			"normalTexture":{
				"index":10
			},
			"pbrMetallicRoughness":{
				"baseColorTexture":{
					"index":11
				},
				"metallicRoughnessTexture":{
					"index":12
				}
			}
		},
		{
			"name":"tripo_material_4ffa0c8f-ff93-4e71-97f6-2ded503b02be.004",
			"normalTexture":{
				"index":13
			},
			"pbrMetallicRoughness":{
				"baseColorTexture":{
					"index":14
				},
				"metallicRoughnessTexture":{
					"index":15
				}
			}
		},
		{
			"name":"tripo_material_4ffa0c8f-ff93-4e71-97f6-2ded503b02be.005",
			"normalTexture":{
				"index":16
			},
			"pbrMetallicRoughness":{
				"baseColorTexture":{
					"index":17
				},
				"metallicRoughnessTexture":{
					"index":18
				}
			}
		},
		{
			"name":"tripo_material_4ffa0c8f-ff93-4e71-97f6-2ded503b02be.006",
			"normalTexture":{
				"index":19
			},
			"pbrMetallicRoughness":{
				"baseColorTexture":{
					"index":20
				},
				"metallicRoughnessTexture":{
					"index":21
				}
			}
		},
		{
			"name":"tripo_material_4ffa0c8f-ff93-4e71-97f6-2ded503b02be.007",
			"normalTexture":{
				"index":22
			},
			"pbrMetallicRoughness":{
				"baseColorTexture":{
					"index":23
				},
				"metallicRoughnessTexture":{
					"index":24
				}
			}
		},
		{
			"name":"tripo_material_4ffa0c8f-ff93-4e71-97f6-2ded503b02be.008",
			"normalTexture":{
				"index":25
			},
			"pbrMetallicRoughness":{
				"baseColorTexture":{
					"index":26
				},
				"metallicRoughnessTexture":{
					"index":27
				}
			}
		},
		{
			"name":"tripo_material_e91df703-cffb-45da-ad9b-c49ba00c69f5",
			"normalTexture":{
				"index":28
			},
			"pbrMetallicRoughness":{
				"baseColorTexture":{
					"index":29
				},
				"metallicRoughnessTexture":{
					"index":30
				}
			}
		},
		{
			"name":"tripo_material_e91df703-cffb-45da-ad9b-c49ba00c69f5.001",
			"normalTexture":{
				"index":31
			},
			"pbrMetallicRoughness":{
				"baseColorTexture":{
					"index":32
				},
				"metallicRoughnessTexture":{
					"index":33
				}
			}
		},
		{
			"name":"tripo_material_e91df703-cffb-45da-ad9b-c49ba00c69f5.002",
			"normalTexture":{
				"index":34
			},
			"pbrMetallicRoughness":{
				"baseColorTexture":{
					"index":35
				},
				"metallicRoughnessTexture":{
					"index":36
				}
			}
		},
		{
			"name":"tripo_material_e91df703-cffb-45da-ad9b-c49ba00c69f5.003",
			"normalTexture":{
				"index":37
			},
			"pbrMetallicRoughness":{
				"baseColorTexture":{
					"index":38
				},
				"metallicRoughnessTexture":{
					"index":39
				}
			}
		},
		{
			"name":"tripo_material_e91df703-cffb-45da-ad9b-c49ba00c69f5.004",
			"normalTexture":{
				"index":40
			},
			"pbrMetallicRoughness":{
				"baseColorTexture":{
					"index":41
				},
				"metallicRoughnessTexture":{
					"index":42
				}
			}
		},
		{
			"name":"tripo_material_e91df703-cffb-45da-ad9b-c49ba00c69f5.005",
			"normalTexture":{
				"index":43
			},
			"pbrMetallicRoughness":{
				"baseColorTexture":{
					"index":44
				},
				"metallicRoughnessTexture":{
					"index":45
				}
			}
		},
		{
			"name":"tripo_material_e91df703-cffb-45da-ad9b-c49ba00c69f5.006",
			"normalTexture":{
				"index":46
			},
			"pbrMetallicRoughness":{
				"baseColorTexture":{
					"index":47
				},
				"metallicRoughnessTexture":{
					"index":48
				}
			}
		},
		{
			"name":"tripo_material_e91df703-cffb-45da-ad9b-c49ba00c69f5.007",
			"normalTexture":{
				"index":49
			},
			"pbrMetallicRoughness":{
				"baseColorTexture":{
					"index":50
				},
				"metallicRoughnessTexture":{
					"index":51
				}
			}
		},
		{
			"name":"tripo_material_e91df703-cffb-45da-ad9b-c49ba00c69f5.008",
			"normalTexture":{
				"index":52
			},
			"pbrMetallicRoughness":{
				"baseColorTexture":{
					"index":53
				},
				"metallicRoughnessTexture":{
					"index":54
				}
			}
		}
	],
	"meshes":[
		{
			"name":"Circle.001",
			"primitives":[
				{
					"attributes":{
						"POSITION":0,
						"NORMAL":1,
						"TEXCOORD_0":2
					},
					"indices":3,
					"material":0
				}
			]
		},
		{
			"name":"tripo_mesh_4ffa0c8f-ff93-4e71-97f6-2ded503b02be",
			"primitives":[
				{
					"attributes":{
						"POSITION":4,
						"NORMAL":5,
						"TEXCOORD_0":6
					},
					"indices":7,
					"material":1
				}
			]
		},
		{
			"name":"tripo_mesh_4ffa0c8f-ff93-4e71-97f6-2ded503b02be.001",
			"primitives":[
				{
					"attributes":{
						"POSITION":8,
						"NORMAL":9,
						"TEXCOORD_0":10
					},
					"indices":7,
					"material":2
				}
			]
		},
		{
			"name":"tripo_mesh_4ffa0c8f-ff93-4e71-97f6-2ded503b02be.002",
			"primitives":[
				{
					"attributes":{
						"POSITION":11,
						"NORMAL":12,
						"TEXCOORD_0":13
					},
					"indices":7,
					"material":3
				}
			]
		},
		{
			"name":"tripo_mesh_4ffa0c8f-ff93-4e71-97f6-2ded503b02be.003",
			"primitives":[
				{
					"attributes":{
						"POSITION":14,
						"NORMAL":15,
						"TEXCOORD_0":16
					},
					"indices":7,
					"material":4
				}
			]
		},
		{
			"name":"tripo_mesh_4ffa0c8f-ff93-4e71-97f6-2ded503b02be.004",
			"primitives":[
				{
					"attributes":{
						"POSITION":17,
						"NORMAL":18,
						"TEXCOORD_0":19
					},
					"indices":7,
					"material":5
				}
			]
		},
		{
			"name":"tripo_mesh_4ffa0c8f-ff93-4e71-97f6-2ded503b02be.005",
			"primitives":[
				{
					"attributes":{
						"POSITION":20,
						"NORMAL":21,
						"TEXCOORD_0":22
					},
					"indices":7,
					"material":6
				}
			]
		},
		{
			"name":"tripo_mesh_4ffa0c8f-ff93-4e71-97f6-2ded503b02be.006",
			"primitives":[
				{
					"attributes":{
						"POSITION":23,
						"NORMAL":24,
						"TEXCOORD_0":25
					},
					"indices":7,
					"material":7
				}
			]
		},
		{
			"name":"tripo_mesh_4ffa0c8f-ff93-4e71-97f6-2ded503b02be.007",
			"primitives":[
				{
					"attributes":{
						"POSITION":26,
						"NORMAL":27,
						"TEXCOORD_0":28
					},
					"indices":7,
					"material":8
				}
			]
		},
		{
			"name":"tripo_mesh_4ffa0c8f-ff93-4e71-97f6-2ded503b02be.008",
			"primitives":[
				{
					"attributes":{
						"POSITION":29,
						"NORMAL":30,
						"TEXCOORD_0":31
					},
					"indices":7,
					"material":9
				}
			]
		},
		{
			"name":"tripo_mesh_e91df703-cffb-45da-ad9b-c49ba00c69f5",
			"primitives":[
				{
					"attributes":{
						"POSITION":32,
						"NORMAL":33,
						"TEXCOORD_0":34
					},
					"indices":35,
					"material":10
				}
			]
		},
		{
			"name":"tripo_mesh_e91df703-cffb-45da-ad9b-c49ba00c69f5.001",
			"primitives":[
				{
					"attributes":{
						"POSITION":36,
						"NORMAL":37,
						"TEXCOORD_0":38
					},
					"indices":35,
					"material":11
				}
			]
		},
		{
			"name":"tripo_mesh_e91df703-cffb-45da-ad9b-c49ba00c69f5.002",
			"primitives":[
				{
					"attributes":{
						"POSITION":39,
						"NORMAL":40,
						"TEXCOORD_0":41
					},
					"indices":35,
					"material":12
				}
			]
		},
		{
			"name":"tripo_mesh_e91df703-cffb-45da-ad9b-c49ba00c69f5.003",
			"primitives":[
				{
					"attributes":{
						"POSITION":42,
						"NORMAL":43,
						"TEXCOORD_0":44
					},
					"indices":35,
					"material":13
				}
			]
		},
		{
			"name":"tripo_mesh_e91df703-cffb-45da-ad9b-c49ba00c69f5.004",
			"primitives":[
				{
					"attributes":{
						"POSITION":45,
						"NORMAL":46,
						"TEXCOORD_0":47
					},
					"indices":35,
					"material":14
				}
			]
		},
		{
			"name":"tripo_mesh_e91df703-cffb-45da-ad9b-c49ba00c69f5.005",
			"primitives":[
				{
					"attributes":{
						"POSITION":48,
						"NORMAL":49,
						"TEXCOORD_0":50
					},
					"indices":35,
					"material":15
				}
			]
		},
		{
			"name":"tripo_mesh_e91df703-cffb-45da-ad9b-c49ba00c69f5.006",
			"primitives":[
				{
					"attributes":{
						"POSITION":51,
						"NORMAL":52,
						"TEXCOORD_0":53
					},
					"indices":35,
					"material":16
				}
			]
		},
		{
			"name":"tripo_mesh_e91df703-cffb-45da-ad9b-c49ba00c69f5.007",
			"primitives":[
				{
					"attributes":{
						"POSITION":54,
						"NORMAL":55,
						"TEXCOORD_0":56
					},
					"indices":35,
					"material":17
				}
			]
		},
		{
			"name":"tripo_mesh_e91df703-cffb-45da-ad9b-c49ba00c69f5.008",
			"primitives":[
				{
					"attributes":{
						"POSITION":57,
						"NORMAL":58,
						"TEXCOORD_0":59
					},
					"indices":35,
					"material":18
				}
			]
		}
	],
	"textures":[
		{
			"sampler":0,
			"source":0
		},
		{
			"sampler":0,
			"source":1
		},
		{
			"sampler":0,
			"source":2
		},
		{
			"sampler":0,
			"source":3
		},
		{
			"sampler":0,
			"source":1
		},
		{
			"sampler":0,
			"source":2
		},
		{
			"sampler":0,
			"source":3
		},
		{
			"sampler":0,
			"source":1
		},
		{
			"sampler":0,
			"source":2
		},
		{
			"sampler":0,
			"source":3
		},
		{
			"sampler":0,
			"source":1
		},
		{
			"sampler":0,
			"source":2
		},
		{
			"sampler":0,
			"source":3
		},
		{
			"sampler":0,
			"source":1
		},
		{
			"sampler":0,
			"source":2
		},
		{
			"sampler":0,
			"source":3
		},
		{
			"sampler":0,
			"source":1
		},
		{
			"sampler":0,
			"source":2
		},
		{
			"sampler":0,
			"source":3
		},
		{
			"sampler":0,
			"source":1
		},
		{
			"sampler":0,
			"source":2
		},
		{
			"sampler":0,
			"source":3
		},
		{
			"sampler":0,
			"source":1
		},
		{
			"sampler":0,
			"source":2
		},
		{
			"sampler":0,
			"source":3
		},
		{
			"sampler":0,
			"source":1
		},
		{
			"sampler":0,
			"source":2
		},
		{
			"sampler":0,
			"source":3
		},
		{
			"sampler":0,
			"source":4
		},
		{
			"sampler":0,
			"source":5
		},
		{
			"sampler":0,
			"source":6
		},
		{
			"sampler":0,
			"source":4
		},
		{
			"sampler":0,
			"source":5
		},
		{
			"sampler":0,
			"source":6
		},
		{
			"sampler":0,
			"source":4
		},
		{
			"sampler":0,
			"source":5
		},
		{
			"sampler":0,
			"source":6
		},
		{
			"sampler":0,
			"source":4
		},
		{
			"sampler":0,
			"source":5
		},
		{
			"sampler":0,
			"source":6
		},
		{
			"sampler":0,
			"source":4
		},
		{
			"sampler":0,
			"source":5
		},
		{
			"sampler":0,
			"source":6
		},
		{
			"sampler":0,
			"source":4
		},
		{
			"sampler":0,
			"source":5
		},
		{
			"sampler":0,
			"source":6
		},
		{
			"sampler":0,
			"source":4
		},
		{
			"sampler":0,
			"source":5
		},
		{
			"sampler":0,
			"source":6
		},
		{
			"sampler":0,
			"source":4
		},
		{
			"sampler":0,
			"source":5
		},
		{
			"sampler":0,
			"source":6
		},
		{
			"sampler":0,
			"source":4
		},
		{
			"sampler":0,
			"source":5
		},
		{
			"sampler":0,
			"source":6
		}
	],
	"images":[
		{
			"mimeType":"image/png",
			"name":"text",
			"uri":"text.png"
		},
		{
			"mimeType":"image/jpeg",
			"name":"NormalGL_4ffa0c8f-ff93-4e71-97f6-2ded503b02be",
			"uri":"NormalGL_4ffa0c8f-ff93-4e71-97f6-2ded503b02be.jpg"
		},
		{
			"mimeType":"image/jpeg",
			"name":"Color_4ffa0c8f-ff93-4e71-97f6-2ded503b02be",
			"uri":"Color_4ffa0c8f-ff93-4e71-97f6-2ded503b02be.jpg"
		},
		{
			"mimeType":"image/jpeg",
			"name":"ORM_4ffa0c8f-ff93-4e71-97f6-2ded503b02be",
			"uri":"ORM_4ffa0c8f-ff93-4e71-97f6-2ded503b02be.jpg"
		},
		{
			"mimeType":"image/jpeg",
			"name":"NormalGL_e91df703-cffb-45da-ad9b-c49ba00c69f5",
			"uri":"NormalGL_e91df703-cffb-45da-ad9b-c49ba00c69f5.jpg"
		},
		{
			"mimeType":"image/jpeg",
			"name":"Color_e91df703-cffb-45da-ad9b-c49ba00c69f5",
			"uri":"Color_e91df703-cffb-45da-ad9b-c49ba00c69f5.jpg"
		},
		{
			"mimeType":"image/jpeg",
			"name":"ORM_e91df703-cffb-45da-ad9b-c49ba00c69f5",
			"uri":"ORM_e91df703-cffb-45da-ad9b-c49ba00c69f5.jpg"
		}
	],
	"accessors":[
		{
			"bufferView":0,
			"componentType":5126,
			"count":13028,
			"max":[
				29.287437438964844,
				0.30762779712677,
				1.1694011688232422
			],
			"min":[
				-23.04169273376465,
				-0.8255978226661682,
				-28.719223022460938
			],
			"type":"VEC3"
		},
		{
			"bufferView":1,
			"componentType":5126,
			"count":13028,
			"type":"VEC3"
		},
		{
			"bufferView":2,
			"componentType":5126,
			"count":13028,
			"type":"VEC2"
		},
		{
			"bufferView":3,
			"componentType":5123,
			"count":63207,
			"type":"SCALAR"
		},
		{
			"bufferView":4,
			"componentType":5126,
			"count":7870,
			"max":[
				0.30303075909614563,
				0.485107958316803,
				0.5
			],
			"min":[
				-0.30303075909614563,
				-0.485107958316803,
				-0.5
			],
			"type":"VEC3"
		},
		{
			"bufferView":5,
			"componentType":5126,
			"count":7870,
			"type":"VEC3"
		},
		{
			"bufferView":6,
			"componentType":5126,
			"count":7870,
			"type":"VEC2"
		},
		{
			"bufferView":7,
			"componentType":5123,
			"count":25911,
			"type":"SCALAR"
		},
		{
			"bufferView":8,
			"componentType":5126,
			"count":7870,
			"max":[
				0.30303075909614563,
				0.485107958316803,
				0.5
			],
			"min":[
				-0.30303075909614563,
				-0.485107958316803,
				-0.5
			],
			"type":"VEC3"
		},
		{
			"bufferView":9,
			"componentType":5126,
			"count":7870,
			"type":"VEC3"
		},
		{
			"bufferView":10,
			"componentType":5126,
			"count":7870,
			"type":"VEC2"
		},
		{
			"bufferView":11,
			"componentType":5126,
			"count":7870,
			"max":[
				0.30303075909614563,
				0.485107958316803,
				0.5
			],
			"min":[
				-0.30303075909614563,
				-0.485107958316803,
				-0.5
			],
			"type":"VEC3"
		},
		{
			"bufferView":12,
			"componentType":5126,
			"count":7870,
			"type":"VEC3"
		},
		{
			"bufferView":13,
			"componentType":5126,
			"count":7870,
			"type":"VEC2"
		},
		{
			"bufferView":14,
			"componentType":5126,
			"count":7870,
			"max":[
				0.30303075909614563,
				0.485107958316803,
				0.5
			],
			"min":[
				-0.30303075909614563,
				-0.485107958316803,
				-0.5
			],
			"type":"VEC3"
		},
		{
			"bufferView":15,
			"componentType":5126,
			"count":7870,
			"type":"VEC3"
		},
		{
			"bufferView":16,
			"componentType":5126,
			"count":7870,
			"type":"VEC2"
		},
		{
			"bufferView":17,
			"componentType":5126,
			"count":7870,
			"max":[
				0.30303075909614563,
				0.485107958316803,
				0.5
			],
			"min":[
				-0.30303075909614563,
				-0.485107958316803,
				-0.5
			],
			"type":"VEC3"
		},
		{
			"bufferView":18,
			"componentType":5126,
			"count":7870,
			"type":"VEC3"
		},
		{
			"bufferView":19,
			"componentType":5126,
			"count":7870,
			"type":"VEC2"
		},
		{
			"bufferView":20,
			"componentType":5126,
			"count":7870,
			"max":[
				0.30303075909614563,
				0.485107958316803,
				0.5
			],
			"min":[
				-0.30303075909614563,
				-0.485107958316803,
				-0.5
			],
			"type":"VEC3"
		},
		{
			"bufferView":21,
			"componentType":5126,
			"count":7870,
			"type":"VEC3"
		},
		{
			"bufferView":22,
			"componentType":5126,
			"count":7870,
			"type":"VEC2"
		},
		{
			"bufferView":23,
			"componentType":5126,
			"count":7870,
			"max":[
				0.30303075909614563,
				0.485107958316803,
				0.5
			],
			"min":[
				-0.30303075909614563,
				-0.485107958316803,
				-0.5
			],
			"type":"VEC3"
		},
		{
			"bufferView":24,
			"componentType":5126,
			"count":7870,
			"type":"VEC3"
		},
		{
			"bufferView":25,
			"componentType":5126,
			"count":7870,
			"type":"VEC2"
		},
		{
			"bufferView":26,
			"componentType":5126,
			"count":7870,
			"max":[
				0.30303075909614563,
				0.485107958316803,
				0.5
			],
			"min":[
				-0.30303075909614563,
				-0.485107958316803,
				-0.5
			],
			"type":"VEC3"
		},
		{
			"bufferView":27,
			"componentType":5126,
			"count":7870,
			"type":"VEC3"
		},
		{
			"bufferView":28,
			"componentType":5126,
			"count":7870,
			"type":"VEC2"
		},
		{
			"bufferView":29,
			"componentType":5126,
			"count":7870,
			"max":[
				0.30303075909614563,
				0.485107958316803,
				0.5
			],
			"min":[
				-0.30303075909614563,
				-0.485107958316803,
				-0.5
			],
			"type":"VEC3"
		},
		{
			"bufferView":30,
			"componentType":5126,
			"count":7870,
			"type":"VEC3"
		},
		{
			"bufferView":31,
			"componentType":5126,
			"count":7870,
			"type":"VEC2"
		},
		{
			"bufferView":32,
			"componentType":5126,
			"count":5637,
			"max":[
				0.5,
				0.30088749527931213,
				0.49198758602142334
			],
			"min":[
				-0.5,
				-0.30088749527931213,
				-0.49198758602142334
			],
			"type":"VEC3"
		},
		{
			"bufferView":33,
			"componentType":5126,
			"count":5637,
			"type":"VEC3"
		},
		{
			"bufferView":34,
			"componentType":5126,
			"count":5637,
			"type":"VEC2"
		},
		{
			"bufferView":35,
			"componentType":5123,
			"count":28434,
			"type":"SCALAR"
		},
		{
			"bufferView":36,
			"componentType":5126,
			"count":5637,
			"max":[
				0.5,
				0.30088749527931213,
				0.49198758602142334
			],
			"min":[
				-0.5,
				-0.30088749527931213,
				-0.49198758602142334
			],
			"type":"VEC3"
		},
		{
			"bufferView":37,
			"componentType":5126,
			"count":5637,
			"type":"VEC3"
		},
		{
			"bufferView":38,
			"componentType":5126,
			"count":5637,
			"type":"VEC2"
		},
		{
			"bufferView":39,
			"componentType":5126,
			"count":5637,
			"max":[
				0.5,
				0.30088749527931213,
				0.49198758602142334
			],
			"min":[
				-0.5,
				-0.30088749527931213,
				-0.49198758602142334
			],
			"type":"VEC3"
		},
		{
			"bufferView":40,
			"componentType":5126,
			"count":5637,
			"type":"VEC3"
		},
		{
			"bufferView":41,
			"componentType":5126,
			"count":5637,
			"type":"VEC2"
		},
		{
			"bufferView":42,
			"componentType":5126,
			"count":5637,
			"max":[
				0.5,
				0.30088749527931213,
				0.49198758602142334
			],
			"min":[
				-0.5,
				-0.30088749527931213,
				-0.49198758602142334
			],
			"type":"VEC3"
		},
		{
			"bufferView":43,
			"componentType":5126,
			"count":5637,
			"type":"VEC3"
		},
		{
			"bufferView":44,
			"componentType":5126,
			"count":5637,
			"type":"VEC2"
		},
		{
			"bufferView":45,
			"componentType":5126,
			"count":5637,
			"max":[
				0.5,
				0.30088749527931213,
				0.49198758602142334
			],
			"min":[
				-0.5,
				-0.30088749527931213,
				-0.49198758602142334
			],
			"type":"VEC3"
		},
		{
			"bufferView":46,
			"componentType":5126,
			"count":5637,
			"type":"VEC3"
		},
		{
			"bufferView":47,
			"componentType":5126,
			"count":5637,
			"type":"VEC2"
		},
		{
			"bufferView":48,
			"componentType":5126,
			"count":5637,
			"max":[
				0.5,
				0.30088749527931213,
				0.49198758602142334
			],
			"min":[
				-0.5,
				-0.30088749527931213,
				-0.49198758602142334
			],
			"type":"VEC3"
		},
		{
			"bufferView":49,
			"componentType":5126,
			"count":5637,
			"type":"VEC3"
		},
		{
			"bufferView":50,
			"componentType":5126,
			"count":5637,
			"type":"VEC2"
		},
		{
			"bufferView":51,
			"componentType":5126,
			"count":5637,
			"max":[
				0.5,
				0.30088749527931213,
				0.49198758602142334
			],
			"min":[
				-0.5,
				-0.30088749527931213,
				-0.49198758602142334
			],
			"type":"VEC3"
		},
		{
			"bufferView":52,
			"componentType":5126,
			"count":5637,
			"type":"VEC3"
		},
		{
			"bufferView":53,
			"componentType":5126,
			"count":5637,
			"type":"VEC2"
		},
		{
			"bufferView":54,
			"componentType":5126,
			"count":5637,
			"max":[
				0.5,
				0.30088749527931213,
				0.49198758602142334
			],
			"min":[
				-0.5,
				-0.30088749527931213,
				-0.49198758602142334
			],
			"type":"VEC3"
		},
		{
			"bufferView":55,
			"componentType":5126,
			"count":5637,
			"type":"VEC3"
		},
		{
			"bufferView":56,
			"componentType":5126,
			"count":5637,
			"type":"VEC2"
		},
		{
			"bufferView":57,
			"componentType":5126,
			"count":5637,
			"max":[
				0.5,
				0.30088749527931213,
				0.49198758602142334
			],
			"min":[
				-0.5,
				-0.30088749527931213,
				-0.49198758602142334
			],
			"type":"VEC3"
		},
		{
			"bufferView":58,
			"componentType":5126,
			"count":5637,
			"type":"VEC3"
		},
		{
			"bufferView":59,
			"componentType":5126,
			"count":5637,
			"type":"VEC2"
		}
	],
	"bufferViews":[
		{
			"buffer":0,
			"byteLength":156336,
			"byteOffset":0,
			"target":34962
		},
		{
			"buffer":0,
			"byteLength":156336,
			"byteOffset":156336,
			"target":34962
		},
		{
			"buffer":0,
			"byteLength":104224,
			"byteOffset":312672,
			"target":34962
		},
		{
			"buffer":0,
			"byteLength":126414,
			"byteOffset":416896,
			"target":34963
		},
		{
			"buffer":0,
			"byteLength":94440,
			"byteOffset":543312,
			"target":34962
		},
		{
			"buffer":0,
			"byteLength":94440,
			"byteOffset":637752,
			"target":34962
		},
		{
			"buffer":0,
			"byteLength":62960,
			"byteOffset":732192,
			"target":34962
		},
		{
			"buffer":0,
			"byteLength":51822,
			"byteOffset":795152,
			"target":34963
		},
		{
			"buffer":0,
			"byteLength":94440,
			"byteOffset":846976,
			"target":34962
		},
		{
			"buffer":0,
			"byteLength":94440,
			"byteOffset":941416,
			"target":34962
		},
		{
			"buffer":0,
			"byteLength":62960,
			"byteOffset":1035856,
			"target":34962
		},
		{
			"buffer":0,
			"byteLength":94440,
			"byteOffset":1098816,
			"target":34962
		},
		{
			"buffer":0,
			"byteLength":94440,
			"byteOffset":1193256,
			"target":34962
		},
		{
			"buffer":0,
			"byteLength":62960,
			"byteOffset":1287696,
			"target":34962
		},
		{
			"buffer":0,
			"byteLength":94440,
			"byteOffset":1350656,
			"target":34962
		},
		{
			"buffer":0,
			"byteLength":94440,
			"byteOffset":1445096,
			"target":34962
		},
		{
			"buffer":0,
			"byteLength":62960,
			"byteOffset":1539536,
			"target":34962
		},
		{
			"buffer":0,
			"byteLength":94440,
			"byteOffset":1602496,
			"target":34962
		},
		{
			"buffer":0,
			"byteLength":94440,
			"byteOffset":1696936,
			"target":34962
		},
		{
			"buffer":0,
			"byteLength":62960,
			"byteOffset":1791376,
			"target":34962
		},
		{
			"buffer":0,
			"byteLength":94440,
			"byteOffset":1854336,
			"target":34962
		},
		{
			"buffer":0,
			"byteLength":94440,
			"byteOffset":1948776,
			"target":34962
		},
		{
			"buffer":0,
			"byteLength":62960,
			"byteOffset":2043216,
			"target":34962
		},
		{
			"buffer":0,
			"byteLength":94440,
			"byteOffset":2106176,
			"target":34962
		},
		{
			"buffer":0,
			"byteLength":94440,
			"byteOffset":2200616,
			"target":34962
		},
		{
			"buffer":0,
			"byteLength":62960,
			"byteOffset":2295056,
			"target":34962
		},
		{
			"buffer":0,
			"byteLength":94440,
			"byteOffset":2358016,
			"target":34962
		},
		{
			"buffer":0,
			"byteLength":94440,
			"byteOffset":2452456,
			"target":34962
		},
		{
			"buffer":0,
			"byteLength":62960,
			"byteOffset":2546896,
			"target":34962
		},
		{
			"buffer":0,
			"byteLength":94440,
			"byteOffset":2609856,
			"target":34962
		},
		{
			"buffer":0,
			"byteLength":94440,
			"byteOffset":2704296,
			"target":34962
		},
		{
			"buffer":0,
			"byteLength":62960,
			"byteOffset":2798736,
			"target":34962
		},
		{
			"buffer":0,
			"byteLength":67644,
			"byteOffset":2861696,
			"target":34962
		},
		{
			"buffer":0,
			"byteLength":67644,
			"byteOffset":2929340,
			"target":34962
		},
		{
			"buffer":0,
			"byteLength":45096,
			"byteOffset":2996984,
			"target":34962
		},
		{
			"buffer":0,
			"byteLength":56868,
			"byteOffset":3042080,
			"target":34963
		},
		{
			"buffer":0,
			"byteLength":67644,
			"byteOffset":3098948,
			"target":34962
		},
		{
			"buffer":0,
			"byteLength":67644,
			"byteOffset":3166592,
			"target":34962
		},
		{
			"buffer":0,
			"byteLength":45096,
			"byteOffset":3234236,
			"target":34962
		},
		{
			"buffer":0,
			"byteLength":67644,
			"byteOffset":3279332,
			"target":34962
		},
		{
			"buffer":0,
			"byteLength":67644,
			"byteOffset":3346976,
			"target":34962
		},
		{
			"buffer":0,
			"byteLength":45096,
			"byteOffset":3414620,
			"target":34962
		},
		{
			"buffer":0,
			"byteLength":67644,
			"byteOffset":3459716,
			"target":34962
		},
		{
			"buffer":0,
			"byteLength":67644,
			"byteOffset":3527360,
			"target":34962
		},
		{
			"buffer":0,
			"byteLength":45096,
			"byteOffset":3595004,
			"target":34962
		},
		{
			"buffer":0,
			"byteLength":67644,
			"byteOffset":3640100,
			"target":34962
		},
		{
			"buffer":0,
			"byteLength":67644,
			"byteOffset":3707744,
			"target":34962
		},
		{
			"buffer":0,
			"byteLength":45096,
			"byteOffset":3775388,
			"target":34962
		},
		{
			"buffer":0,
			"byteLength":67644,
			"byteOffset":3820484,
			"target":34962
		},
		{
			"buffer":0,
			"byteLength":67644,
			"byteOffset":3888128,
			"target":34962
		},
		{
			"buffer":0,
			"byteLength":45096,
			"byteOffset":3955772,
			"target":34962
		},
		{
			"buffer":0,
			"byteLength":67644,
			"byteOffset":4000868,
			"target":34962
		},
		{
			"buffer":0,
			"byteLength":67644,
			"byteOffset":4068512,
			"target":34962
		},
		{
			"buffer":0,
			"byteLength":45096,
			"byteOffset":4136156,
			"target":34962
		},
		{
			"buffer":0,
			"byteLength":67644,
			"byteOffset":4181252,
			"target":34962
		},
		{
			"buffer":0,
			"byteLength":67644,
			"byteOffset":4248896,
			"target":34962
		},
		{
			"buffer":0,
			"byteLength":45096,
			"byteOffset":4316540,
			"target":34962
		},
		{
			"buffer":0,
			"byteLength":67644,
			"byteOffset":4361636,
			"target":34962
		},
		{
			"buffer":0,
			"byteLength":67644,
			"byteOffset":4429280,
			"target":34962
		},
		{
			"buffer":0,
			"byteLength":45096,
			"byteOffset":4496924,
			"target":34962
		}
	],
	"samplers":[
		{
			"magFilter":9729,
			"minFilter":9987
		}
	],
	"buffers":[
		{
			"byteLength":4542020,
			"uri":"dungeon_2.bin"
		}
	]
}
