{
	"asset":{
		"generator":"Khronos glTF Blender I/O v5.2.39",
		"version":"2.0"
	},
	"scene":0,
	"scenes":[
		{
			"name":"Scene",
			"nodes":[
				0
			]
		}
	],
	"nodes":[
		{
			"mesh":0,
			"name":"tripo_node_ae78e697-d8fd-44d9-bb7f-115f11f4cd8e",
			"scale":[
				242.45245361328125,
				242.45245361328125,
				242.45245361328125
			],
			"translation":[
				-88.57190704345703,
				5.132752418518066,
				-8.404863357543945
			]
		}
	],
	"materials":[
		{
			"name":"tripo_material_ae78e697-d8fd-44d9-bb7f-115f11f4cd8e",
			"normalTexture":{
				"index":0
			},
			"pbrMetallicRoughness":{
				"baseColorTexture":{
					"index":1
				},
				"metallicRoughnessTexture":{
					"index":2
				}
			}
		}
	],
	"meshes":[
		{
			"name":"tripo_mesh_ae78e697-d8fd-44d9-bb7f-115f11f4cd8e",
			"primitives":[
				{
					"attributes":{
						"POSITION":0,
						"NORMAL":1,
						"TEXCOORD_0":2
					},
					"indices":3,
					"material":0
				}
			]
		}
	],
	"textures":[
		{
			"sampler":0,
			"source":0
		},
		{
			"sampler":0,
			"source":1
		},
		{
			"sampler":0,
			"source":2
		}
	],
	"images":[
		{
			"mimeType":"image/jpeg",
			"name":"NormalGL_ae78e697-d8fd-44d9-bb7f-115f11f4cd8e",
			"uri":"NormalGL_ae78e697-d8fd-44d9-bb7f-115f11f4cd8e.jpg"
		},
		{
			"mimeType":"image/jpeg",
			"name":"Color_ae78e697-d8fd-44d9-bb7f-115f11f4cd8e",
			"uri":"Color_ae78e697-d8fd-44d9-bb7f-115f11f4cd8e.jpg"
		},
		{
			"mimeType":"image/jpeg",
			"name":"ORM_ae78e697-d8fd-44d9-bb7f-115f11f4cd8e",
			"uri":"ORM_ae78e697-d8fd-44d9-bb7f-115f11f4cd8e.jpg"
		}
	],
	"accessors":[
		{
			"bufferView":0,
			"componentType":5126,
			"count":5999,
			"max":[
				0.44498446583747864,
				0.038205359131097794,
				0.5
			],
			"min":[
				-0.44498446583747864,
				-0.038205359131097794,
				-0.5
			],
			"type":"VEC3"
		},
		{
			"bufferView":1,
			"componentType":5126,
			"count":5999,
			"type":"VEC3"
		},
		{
			"bufferView":2,
			"componentType":5126,
			"count":5999,
			"type":"VEC2"
		},
		{
			"bufferView":3,
			"componentType":5123,
			"count":27087,
			"type":"SCALAR"
		}
	],
	"bufferViews":[
		{
			"buffer":0,
			"byteLength":71988,
			"byteOffset":0,
			"target":34962
		},
		{
			"buffer":0,
			"byteLength":71988,
			"byteOffset":71988,
			"target":34962
		},
		{
			"buffer":0,
			"byteLength":47992,
			"byteOffset":143976,
			"target":34962
		},
		{
			"buffer":0,
			"byteLength":54174,
			"byteOffset":191968,
			"target":34963
		}
	],
	"samplers":[
		{
			"magFilter":9729,
			"minFilter":9987
		}
	],
	"buffers":[
		{
			"byteLength":246144,
			"uri":"dungeon_1.bin"
		}
	]
}
