{
	"asset":{
		"generator":"Khronos glTF Blender I/O v5.2.39",
		"version":"2.0"
	},
	"scene":0,
	"scenes":[
		{
			"name":"Scene",
			"nodes":[
				20
			]
		}
	],
	"nodes":[
		{
			"name":"Bone.003",
			"rotation":[
				0.071671262383461,
				0.04887758940458298,
				-0.13080590963363647,
				0.9876052141189575
			],
			"scale":[
				1,
				1.0000001192092896,
				1.000000238418579
			],
			"translation":[
				9.313225746154785e-09,
				0.2784574031829834,
				-2.474989742040634e-07
			]
		},
		{
			"children":[
				0
			],
			"name":"Bone.002",
			"rotation":[
				-0.22535596787929535,
				0.0078000775538384914,
				-0.13991282880306244,
				0.9641464352607727
			],
			"scale":[
				1,
				0.9999998807907104,
				0.9999998807907104
			],
			"translation":[
				7.450580596923828e-09,
				0.4705192744731903,
				-9.359791874885559e-08
			]
		},
		{
			"children":[
				1
			],
			"name":"Bone.001",
			"rotation":[
				-0.6594743728637695,
				0.10048213601112366,
				0.05933372676372528,
				0.7426146268844604
			],
			"scale":[
				1,
				0.9999999403953552,
				1
			],
			"translation":[
				3.167049955621337e-13,
				0.7476226091384888,
				-1.8620329722551787e-09
			]
		},
		{
			"name":"Bone.007",
			"rotation":[
				-0.7562533020973206,
				-0.2291606366634369,
				0.03276662901043892,
				0.6119580864906311
			],
			"scale":[
				1,
				1.0000001192092896,
				1
			],
			"translation":[
				6.705522537231445e-08,
				0.5249221324920654,
				1.2014061212539673e-07
			]
		},
		{
			"name":"Bone.008",
			"rotation":[
				0.6483909487724304,
				-0.06471387296915054,
				0.07502670586109161,
				0.7548326849937439
			],
			"scale":[
				0.9999999403953552,
				1.0000001192092896,
				0.9999999403953552
			],
			"translation":[
				6.705522537231445e-08,
				0.5249221324920654,
				1.2014061212539673e-07
			]
		},
		{
			"children":[
				3,
				4
			],
			"name":"Bone.006",
			"rotation":[
				-0.03017081879079342,
				-4.723708713072483e-08,
				-0.16521531343460083,
				0.9857959747314453
			],
			"scale":[
				0.9999998211860657,
				0.9999998211860657,
				0.9999998807907104
			],
			"translation":[
				-7.450580596923828e-09,
				0.35079339146614075,
				-2.9802322387695312e-08
			]
		},
		{
			"children":[
				5
			],
			"name":"Bone.005",
			"rotation":[
				0.16254392266273499,
				2.041424451704188e-08,
				-0.016777174547314644,
				0.9865586757659912
			],
			"scale":[
				1,
				0.9999999403953552,
				0.9999999403953552
			],
			"translation":[
				-7.450580596923828e-09,
				0.4429163634777069,
				1.2014061212539673e-07
			]
		},
		{
			"children":[
				6
			],
			"name":"Bone.004",
			"rotation":[
				0.6899638772010803,
				-0.005836189724504948,
				0.09813274443149567,
				0.7171372175216675
			],
			"scale":[
				1.0000001192092896,
				1,
				1.0000001192092896
			],
			"translation":[
				3.167049955621337e-13,
				0.7476226091384888,
				-1.8620329722551787e-09
			]
		},
		{
			"name":"Bone.009",
			"rotation":[
				0.03408919274806976,
				0.0007956842891871929,
				0.018819617107510567,
				0.999241292476654
			],
			"scale":[
				1,
				1,
				0.9999999403953552
			],
			"translation":[
				3.167049955621337e-13,
				0.7476226091384888,
				-1.8620329722551787e-09
			]
		},
		{
			"children":[
				2,
				7,
				8
			],
			"name":"Bone",
			"rotation":[
				-0.01281447522342205,
				-9.197767880664287e-09,
				0.006635106634348631,
				0.9998959302902222
			],
			"scale":[
				0.9999999403953552,
				1,
				1.0000001192092896
			],
			"translation":[
				0.009920076467096806,
				0.25268876552581787,
				0.01915891095995903
			]
		},
		{
			"name":"Bone.015",
			"rotation":[
				0.07146970182657242,
				0.018576156347990036,
				0.7784048318862915,
				0.6234043836593628
			],
			"scale":[
				0.9999999403953552,
				1.0000001192092896,
				1.0000001192092896
			],
			"translation":[
				2.2351741790771484e-08,
				0.8594973683357239,
				8.940696716308594e-08
			]
		},
		{
			"children":[
				10
			],
			"name":"Bone.014",
			"rotation":[
				0.0466168038547039,
				-0.007870914414525032,
				-0.14896413683891296,
				0.9877118468284607
			],
			"scale":[
				0.9999998211860657,
				1,
				0.9999999403953552
			],
			"translation":[
				1.3969838619232178e-09,
				0.6508923172950745,
				-3.958120942115784e-09
			]
		},
		{
			"children":[
				11
			],
			"name":"Bone.013",
			"rotation":[
				-0.6513875722885132,
				4.827165298593172e-07,
				0.007139111403375864,
				0.758711576461792
			],
			"scale":[
				1,
				1.0000001192092896,
				0.9999999403953552
			],
			"translation":[
				3.0308910936582834e-10,
				0.2877049446105957,
				9.778159437701106e-08
			]
		},
		{
			"children":[
				12
			],
			"name":"Bone.010",
			"rotation":[
				-0.025682460516691208,
				-0.7186904549598694,
				-0.6943472623825073,
				0.02657840959727764
			],
			"scale":[
				1.0000089406967163,
				1,
				1.0000020265579224
			],
			"translation":[
				0.009920076467096806,
				0.25268876552581787,
				0.01915891095995903
			]
		},
		{
			"name":"Bone.017",
			"rotation":[
				-0.1894088238477707,
				-0.07739699631929398,
				-0.7184953093528748,
				0.6647545099258423
			],
			"scale":[
				1,
				1.0000001192092896,
				1.0000001192092896
			],
			"translation":[
				-1.862645149230957e-08,
				0.8441302180290222,
				7.450580596923828e-09
			]
		},
		{
			"children":[
				14
			],
			"name":"Bone.016",
			"rotation":[
				0.026482557877898216,
				-0.00033435405930504203,
				0.08200809359550476,
				0.9962797164916992
			],
			"scale":[
				0.9999999403953552,
				0.9999998211860657,
				0.9999998211860657
			],
			"translation":[
				-8.731149137020111e-10,
				0.6372870802879333,
				-9.778887033462524e-09
			]
		},
		{
			"children":[
				15
			],
			"name":"Bone.012",
			"rotation":[
				-0.6358581781387329,
				-0.005234338343143463,
				0.014671928249299526,
				0.7716487050056458
			],
			"scale":[
				0.9999998807907104,
				1,
				0.9999999403953552
			],
			"translation":[
				-3.6937848335583112e-09,
				0.2677500247955322,
				4.383036866784096e-08
			]
		},
		{
			"children":[
				16
			],
			"name":"Bone.011",
			"rotation":[
				-0.7000787258148193,
				0.025738278403878212,
				0.025266394019126892,
				0.7131542563438416
			],
			"scale":[
				0.9999998807907104,
				0.9999999403953552,
				0.9999999403953552
			],
			"translation":[
				0.009920076467096806,
				0.25268876552581787,
				0.01915891095995903
			]
		},
		{
			"name":"neutral_bone",
			"rotation":[
				-0.7071067690849304,
				0,
				0,
				0.7071067690849304
			]
		},
		{
			"mesh":0,
			"name":"tripo_node_93bbdc2c-409b-4e40-be45-bf9acd1b6dab",
			"skin":0
		},
		{
			"children":[
				19,
				9,
				13,
				17,
				18
			],
			"name":"Armature",
			"scale":[
				0.33820074796676636,
				0.33820074796676636,
				0.33820074796676636
			],
			"translation":[
				0,
				0.4205547571182251,
				0
			]
		}
	],
	"animations":[
		{
			"channels":[
				{
					"sampler":0,
					"target":{
						"node":9,
						"path":"translation"
					}
				},
				{
					"sampler":1,
					"target":{
						"node":9,
						"path":"rotation"
					}
				},
				{
					"sampler":2,
					"target":{
						"node":9,
						"path":"scale"
					}
				},
				{
					"sampler":3,
					"target":{
						"node":2,
						"path":"translation"
					}
				},
				{
					"sampler":4,
					"target":{
						"node":2,
						"path":"rotation"
					}
				},
				{
					"sampler":5,
					"target":{
						"node":2,
						"path":"scale"
					}
				},
				{
					"sampler":6,
					"target":{
						"node":1,
						"path":"translation"
					}
				},
				{
					"sampler":7,
					"target":{
						"node":1,
						"path":"rotation"
					}
				},
				{
					"sampler":8,
					"target":{
						"node":1,
						"path":"scale"
					}
				},
				{
					"sampler":9,
					"target":{
						"node":0,
						"path":"translation"
					}
				},
				{
					"sampler":10,
					"target":{
						"node":0,
						"path":"rotation"
					}
				},
				{
					"sampler":11,
					"target":{
						"node":0,
						"path":"scale"
					}
				},
				{
					"sampler":12,
					"target":{
						"node":7,
						"path":"translation"
					}
				},
				{
					"sampler":13,
					"target":{
						"node":7,
						"path":"rotation"
					}
				},
				{
					"sampler":14,
					"target":{
						"node":7,
						"path":"scale"
					}
				},
				{
					"sampler":15,
					"target":{
						"node":6,
						"path":"translation"
					}
				},
				{
					"sampler":16,
					"target":{
						"node":6,
						"path":"rotation"
					}
				},
				{
					"sampler":17,
					"target":{
						"node":6,
						"path":"scale"
					}
				},
				{
					"sampler":18,
					"target":{
						"node":5,
						"path":"translation"
					}
				},
				{
					"sampler":19,
					"target":{
						"node":5,
						"path":"rotation"
					}
				},
				{
					"sampler":20,
					"target":{
						"node":5,
						"path":"scale"
					}
				},
				{
					"sampler":21,
					"target":{
						"node":3,
						"path":"translation"
					}
				},
				{
					"sampler":22,
					"target":{
						"node":3,
						"path":"rotation"
					}
				},
				{
					"sampler":23,
					"target":{
						"node":3,
						"path":"scale"
					}
				},
				{
					"sampler":24,
					"target":{
						"node":4,
						"path":"translation"
					}
				},
				{
					"sampler":25,
					"target":{
						"node":4,
						"path":"rotation"
					}
				},
				{
					"sampler":26,
					"target":{
						"node":4,
						"path":"scale"
					}
				},
				{
					"sampler":27,
					"target":{
						"node":8,
						"path":"translation"
					}
				},
				{
					"sampler":28,
					"target":{
						"node":8,
						"path":"rotation"
					}
				},
				{
					"sampler":29,
					"target":{
						"node":8,
						"path":"scale"
					}
				},
				{
					"sampler":30,
					"target":{
						"node":13,
						"path":"translation"
					}
				},
				{
					"sampler":31,
					"target":{
						"node":13,
						"path":"rotation"
					}
				},
				{
					"sampler":32,
					"target":{
						"node":13,
						"path":"scale"
					}
				},
				{
					"sampler":33,
					"target":{
						"node":12,
						"path":"translation"
					}
				},
				{
					"sampler":34,
					"target":{
						"node":12,
						"path":"rotation"
					}
				},
				{
					"sampler":35,
					"target":{
						"node":12,
						"path":"scale"
					}
				},
				{
					"sampler":36,
					"target":{
						"node":11,
						"path":"translation"
					}
				},
				{
					"sampler":37,
					"target":{
						"node":11,
						"path":"rotation"
					}
				},
				{
					"sampler":38,
					"target":{
						"node":11,
						"path":"scale"
					}
				},
				{
					"sampler":39,
					"target":{
						"node":10,
						"path":"translation"
					}
				},
				{
					"sampler":40,
					"target":{
						"node":10,
						"path":"rotation"
					}
				},
				{
					"sampler":41,
					"target":{
						"node":10,
						"path":"scale"
					}
				},
				{
					"sampler":42,
					"target":{
						"node":17,
						"path":"translation"
					}
				},
				{
					"sampler":43,
					"target":{
						"node":17,
						"path":"rotation"
					}
				},
				{
					"sampler":44,
					"target":{
						"node":17,
						"path":"scale"
					}
				},
				{
					"sampler":45,
					"target":{
						"node":16,
						"path":"translation"
					}
				},
				{
					"sampler":46,
					"target":{
						"node":16,
						"path":"rotation"
					}
				},
				{
					"sampler":47,
					"target":{
						"node":16,
						"path":"scale"
					}
				},
				{
					"sampler":48,
					"target":{
						"node":15,
						"path":"translation"
					}
				},
				{
					"sampler":49,
					"target":{
						"node":15,
						"path":"rotation"
					}
				},
				{
					"sampler":50,
					"target":{
						"node":15,
						"path":"scale"
					}
				},
				{
					"sampler":51,
					"target":{
						"node":14,
						"path":"translation"
					}
				},
				{
					"sampler":52,
					"target":{
						"node":14,
						"path":"rotation"
					}
				},
				{
					"sampler":53,
					"target":{
						"node":14,
						"path":"scale"
					}
				}
			],
			"name":"Attack",
			"samplers":[
				{
					"input":7,
					"interpolation":"STEP",
					"output":8
				},
				{
					"input":7,
					"interpolation":"STEP",
					"output":9
				},
				{
					"input":7,
					"interpolation":"STEP",
					"output":10
				},
				{
					"input":7,
					"interpolation":"STEP",
					"output":11
				},
				{
					"input":7,
					"interpolation":"STEP",
					"output":12
				},
				{
					"input":7,
					"interpolation":"STEP",
					"output":13
				},
				{
					"input":7,
					"interpolation":"STEP",
					"output":14
				},
				{
					"input":7,
					"interpolation":"STEP",
					"output":15
				},
				{
					"input":7,
					"interpolation":"STEP",
					"output":16
				},
				{
					"input":7,
					"interpolation":"STEP",
					"output":17
				},
				{
					"input":7,
					"interpolation":"STEP",
					"output":18
				},
				{
					"input":7,
					"interpolation":"STEP",
					"output":19
				},
				{
					"input":7,
					"interpolation":"STEP",
					"output":20
				},
				{
					"input":7,
					"interpolation":"STEP",
					"output":21
				},
				{
					"input":7,
					"interpolation":"STEP",
					"output":10
				},
				{
					"input":7,
					"interpolation":"STEP",
					"output":22
				},
				{
					"input":23,
					"interpolation":"LINEAR",
					"output":24
				},
				{
					"input":7,
					"interpolation":"STEP",
					"output":25
				},
				{
					"input":7,
					"interpolation":"LINEAR",
					"output":26
				},
				{
					"input":23,
					"interpolation":"LINEAR",
					"output":27
				},
				{
					"input":7,
					"interpolation":"STEP",
					"output":28
				},
				{
					"input":7,
					"interpolation":"LINEAR",
					"output":29
				},
				{
					"input":23,
					"interpolation":"LINEAR",
					"output":30
				},
				{
					"input":7,
					"interpolation":"STEP",
					"output":31
				},
				{
					"input":7,
					"interpolation":"LINEAR",
					"output":32
				},
				{
					"input":23,
					"interpolation":"LINEAR",
					"output":33
				},
				{
					"input":7,
					"interpolation":"LINEAR",
					"output":34
				},
				{
					"input":7,
					"interpolation":"STEP",
					"output":35
				},
				{
					"input":7,
					"interpolation":"STEP",
					"output":36
				},
				{
					"input":7,
					"interpolation":"STEP",
					"output":37
				},
				{
					"input":7,
					"interpolation":"STEP",
					"output":38
				},
				{
					"input":7,
					"interpolation":"STEP",
					"output":39
				},
				{
					"input":7,
					"interpolation":"STEP",
					"output":40
				},
				{
					"input":7,
					"interpolation":"STEP",
					"output":41
				},
				{
					"input":7,
					"interpolation":"STEP",
					"output":42
				},
				{
					"input":7,
					"interpolation":"STEP",
					"output":43
				},
				{
					"input":7,
					"interpolation":"STEP",
					"output":44
				},
				{
					"input":7,
					"interpolation":"STEP",
					"output":45
				},
				{
					"input":7,
					"interpolation":"STEP",
					"output":46
				},
				{
					"input":7,
					"interpolation":"STEP",
					"output":47
				},
				{
					"input":7,
					"interpolation":"STEP",
					"output":48
				},
				{
					"input":7,
					"interpolation":"STEP",
					"output":19
				},
				{
					"input":7,
					"interpolation":"STEP",
					"output":49
				},
				{
					"input":7,
					"interpolation":"STEP",
					"output":50
				},
				{
					"input":7,
					"interpolation":"STEP",
					"output":51
				},
				{
					"input":7,
					"interpolation":"STEP",
					"output":52
				},
				{
					"input":7,
					"interpolation":"STEP",
					"output":53
				},
				{
					"input":7,
					"interpolation":"STEP",
					"output":54
				},
				{
					"input":7,
					"interpolation":"STEP",
					"output":55
				},
				{
					"input":7,
					"interpolation":"STEP",
					"output":56
				},
				{
					"input":7,
					"interpolation":"STEP",
					"output":16
				},
				{
					"input":7,
					"interpolation":"STEP",
					"output":57
				},
				{
					"input":7,
					"interpolation":"STEP",
					"output":58
				},
				{
					"input":7,
					"interpolation":"STEP",
					"output":59
				}
			]
		},
		{
			"channels":[
				{
					"sampler":0,
					"target":{
						"node":9,
						"path":"translation"
					}
				},
				{
					"sampler":1,
					"target":{
						"node":9,
						"path":"rotation"
					}
				},
				{
					"sampler":2,
					"target":{
						"node":9,
						"path":"scale"
					}
				},
				{
					"sampler":3,
					"target":{
						"node":2,
						"path":"translation"
					}
				},
				{
					"sampler":4,
					"target":{
						"node":2,
						"path":"rotation"
					}
				},
				{
					"sampler":5,
					"target":{
						"node":2,
						"path":"scale"
					}
				},
				{
					"sampler":6,
					"target":{
						"node":1,
						"path":"translation"
					}
				},
				{
					"sampler":7,
					"target":{
						"node":1,
						"path":"rotation"
					}
				},
				{
					"sampler":8,
					"target":{
						"node":1,
						"path":"scale"
					}
				},
				{
					"sampler":9,
					"target":{
						"node":0,
						"path":"translation"
					}
				},
				{
					"sampler":10,
					"target":{
						"node":0,
						"path":"rotation"
					}
				},
				{
					"sampler":11,
					"target":{
						"node":0,
						"path":"scale"
					}
				},
				{
					"sampler":12,
					"target":{
						"node":7,
						"path":"translation"
					}
				},
				{
					"sampler":13,
					"target":{
						"node":7,
						"path":"rotation"
					}
				},
				{
					"sampler":14,
					"target":{
						"node":7,
						"path":"scale"
					}
				},
				{
					"sampler":15,
					"target":{
						"node":6,
						"path":"translation"
					}
				},
				{
					"sampler":16,
					"target":{
						"node":6,
						"path":"rotation"
					}
				},
				{
					"sampler":17,
					"target":{
						"node":6,
						"path":"scale"
					}
				},
				{
					"sampler":18,
					"target":{
						"node":5,
						"path":"translation"
					}
				},
				{
					"sampler":19,
					"target":{
						"node":5,
						"path":"rotation"
					}
				},
				{
					"sampler":20,
					"target":{
						"node":5,
						"path":"scale"
					}
				},
				{
					"sampler":21,
					"target":{
						"node":3,
						"path":"translation"
					}
				},
				{
					"sampler":22,
					"target":{
						"node":3,
						"path":"rotation"
					}
				},
				{
					"sampler":23,
					"target":{
						"node":3,
						"path":"scale"
					}
				},
				{
					"sampler":24,
					"target":{
						"node":4,
						"path":"translation"
					}
				},
				{
					"sampler":25,
					"target":{
						"node":4,
						"path":"rotation"
					}
				},
				{
					"sampler":26,
					"target":{
						"node":4,
						"path":"scale"
					}
				},
				{
					"sampler":27,
					"target":{
						"node":8,
						"path":"translation"
					}
				},
				{
					"sampler":28,
					"target":{
						"node":8,
						"path":"rotation"
					}
				},
				{
					"sampler":29,
					"target":{
						"node":8,
						"path":"scale"
					}
				},
				{
					"sampler":30,
					"target":{
						"node":13,
						"path":"translation"
					}
				},
				{
					"sampler":31,
					"target":{
						"node":13,
						"path":"rotation"
					}
				},
				{
					"sampler":32,
					"target":{
						"node":13,
						"path":"scale"
					}
				},
				{
					"sampler":33,
					"target":{
						"node":12,
						"path":"translation"
					}
				},
				{
					"sampler":34,
					"target":{
						"node":12,
						"path":"rotation"
					}
				},
				{
					"sampler":35,
					"target":{
						"node":12,
						"path":"scale"
					}
				},
				{
					"sampler":36,
					"target":{
						"node":11,
						"path":"translation"
					}
				},
				{
					"sampler":37,
					"target":{
						"node":11,
						"path":"rotation"
					}
				},
				{
					"sampler":38,
					"target":{
						"node":11,
						"path":"scale"
					}
				},
				{
					"sampler":39,
					"target":{
						"node":10,
						"path":"translation"
					}
				},
				{
					"sampler":40,
					"target":{
						"node":10,
						"path":"rotation"
					}
				},
				{
					"sampler":41,
					"target":{
						"node":10,
						"path":"scale"
					}
				},
				{
					"sampler":42,
					"target":{
						"node":17,
						"path":"translation"
					}
				},
				{
					"sampler":43,
					"target":{
						"node":17,
						"path":"rotation"
					}
				},
				{
					"sampler":44,
					"target":{
						"node":17,
						"path":"scale"
					}
				},
				{
					"sampler":45,
					"target":{
						"node":16,
						"path":"translation"
					}
				},
				{
					"sampler":46,
					"target":{
						"node":16,
						"path":"rotation"
					}
				},
				{
					"sampler":47,
					"target":{
						"node":16,
						"path":"scale"
					}
				},
				{
					"sampler":48,
					"target":{
						"node":15,
						"path":"translation"
					}
				},
				{
					"sampler":49,
					"target":{
						"node":15,
						"path":"rotation"
					}
				},
				{
					"sampler":50,
					"target":{
						"node":15,
						"path":"scale"
					}
				},
				{
					"sampler":51,
					"target":{
						"node":14,
						"path":"translation"
					}
				},
				{
					"sampler":52,
					"target":{
						"node":14,
						"path":"rotation"
					}
				},
				{
					"sampler":53,
					"target":{
						"node":14,
						"path":"scale"
					}
				}
			],
			"name":"Die",
			"samplers":[
				{
					"input":60,
					"interpolation":"LINEAR",
					"output":61
				},
				{
					"input":60,
					"interpolation":"LINEAR",
					"output":62
				},
				{
					"input":60,
					"interpolation":"LINEAR",
					"output":63
				},
				{
					"input":60,
					"interpolation":"LINEAR",
					"output":64
				},
				{
					"input":60,
					"interpolation":"LINEAR",
					"output":65
				},
				{
					"input":60,
					"interpolation":"LINEAR",
					"output":66
				},
				{
					"input":60,
					"interpolation":"LINEAR",
					"output":67
				},
				{
					"input":60,
					"interpolation":"LINEAR",
					"output":68
				},
				{
					"input":60,
					"interpolation":"LINEAR",
					"output":69
				},
				{
					"input":60,
					"interpolation":"LINEAR",
					"output":70
				},
				{
					"input":60,
					"interpolation":"LINEAR",
					"output":71
				},
				{
					"input":60,
					"interpolation":"LINEAR",
					"output":72
				},
				{
					"input":60,
					"interpolation":"LINEAR",
					"output":73
				},
				{
					"input":60,
					"interpolation":"LINEAR",
					"output":74
				},
				{
					"input":60,
					"interpolation":"LINEAR",
					"output":63
				},
				{
					"input":60,
					"interpolation":"LINEAR",
					"output":75
				},
				{
					"input":60,
					"interpolation":"LINEAR",
					"output":76
				},
				{
					"input":60,
					"interpolation":"LINEAR",
					"output":77
				},
				{
					"input":60,
					"interpolation":"LINEAR",
					"output":78
				},
				{
					"input":60,
					"interpolation":"LINEAR",
					"output":79
				},
				{
					"input":60,
					"interpolation":"LINEAR",
					"output":80
				},
				{
					"input":60,
					"interpolation":"LINEAR",
					"output":81
				},
				{
					"input":60,
					"interpolation":"LINEAR",
					"output":82
				},
				{
					"input":60,
					"interpolation":"LINEAR",
					"output":83
				},
				{
					"input":60,
					"interpolation":"LINEAR",
					"output":84
				},
				{
					"input":60,
					"interpolation":"LINEAR",
					"output":85
				},
				{
					"input":60,
					"interpolation":"LINEAR",
					"output":86
				},
				{
					"input":60,
					"interpolation":"LINEAR",
					"output":87
				},
				{
					"input":60,
					"interpolation":"LINEAR",
					"output":88
				},
				{
					"input":60,
					"interpolation":"LINEAR",
					"output":89
				},
				{
					"input":60,
					"interpolation":"LINEAR",
					"output":90
				},
				{
					"input":60,
					"interpolation":"LINEAR",
					"output":91
				},
				{
					"input":60,
					"interpolation":"LINEAR",
					"output":92
				},
				{
					"input":60,
					"interpolation":"LINEAR",
					"output":93
				},
				{
					"input":60,
					"interpolation":"LINEAR",
					"output":94
				},
				{
					"input":60,
					"interpolation":"LINEAR",
					"output":95
				},
				{
					"input":60,
					"interpolation":"LINEAR",
					"output":96
				},
				{
					"input":60,
					"interpolation":"LINEAR",
					"output":97
				},
				{
					"input":60,
					"interpolation":"LINEAR",
					"output":98
				},
				{
					"input":60,
					"interpolation":"LINEAR",
					"output":99
				},
				{
					"input":60,
					"interpolation":"LINEAR",
					"output":100
				},
				{
					"input":60,
					"interpolation":"LINEAR",
					"output":72
				},
				{
					"input":60,
					"interpolation":"LINEAR",
					"output":101
				},
				{
					"input":60,
					"interpolation":"LINEAR",
					"output":102
				},
				{
					"input":60,
					"interpolation":"LINEAR",
					"output":103
				},
				{
					"input":60,
					"interpolation":"LINEAR",
					"output":104
				},
				{
					"input":60,
					"interpolation":"LINEAR",
					"output":105
				},
				{
					"input":60,
					"interpolation":"LINEAR",
					"output":106
				},
				{
					"input":60,
					"interpolation":"LINEAR",
					"output":107
				},
				{
					"input":60,
					"interpolation":"LINEAR",
					"output":108
				},
				{
					"input":60,
					"interpolation":"LINEAR",
					"output":69
				},
				{
					"input":60,
					"interpolation":"LINEAR",
					"output":109
				},
				{
					"input":60,
					"interpolation":"LINEAR",
					"output":110
				},
				{
					"input":60,
					"interpolation":"LINEAR",
					"output":111
				}
			]
		},
		{
			"channels":[
				{
					"sampler":0,
					"target":{
						"node":9,
						"path":"translation"
					}
				},
				{
					"sampler":1,
					"target":{
						"node":9,
						"path":"rotation"
					}
				},
				{
					"sampler":2,
					"target":{
						"node":9,
						"path":"scale"
					}
				},
				{
					"sampler":3,
					"target":{
						"node":2,
						"path":"translation"
					}
				},
				{
					"sampler":4,
					"target":{
						"node":2,
						"path":"rotation"
					}
				},
				{
					"sampler":5,
					"target":{
						"node":2,
						"path":"scale"
					}
				},
				{
					"sampler":6,
					"target":{
						"node":1,
						"path":"translation"
					}
				},
				{
					"sampler":7,
					"target":{
						"node":1,
						"path":"rotation"
					}
				},
				{
					"sampler":8,
					"target":{
						"node":1,
						"path":"scale"
					}
				},
				{
					"sampler":9,
					"target":{
						"node":0,
						"path":"translation"
					}
				},
				{
					"sampler":10,
					"target":{
						"node":0,
						"path":"rotation"
					}
				},
				{
					"sampler":11,
					"target":{
						"node":0,
						"path":"scale"
					}
				},
				{
					"sampler":12,
					"target":{
						"node":7,
						"path":"translation"
					}
				},
				{
					"sampler":13,
					"target":{
						"node":7,
						"path":"rotation"
					}
				},
				{
					"sampler":14,
					"target":{
						"node":7,
						"path":"scale"
					}
				},
				{
					"sampler":15,
					"target":{
						"node":6,
						"path":"translation"
					}
				},
				{
					"sampler":16,
					"target":{
						"node":6,
						"path":"rotation"
					}
				},
				{
					"sampler":17,
					"target":{
						"node":6,
						"path":"scale"
					}
				},
				{
					"sampler":18,
					"target":{
						"node":5,
						"path":"translation"
					}
				},
				{
					"sampler":19,
					"target":{
						"node":5,
						"path":"rotation"
					}
				},
				{
					"sampler":20,
					"target":{
						"node":5,
						"path":"scale"
					}
				},
				{
					"sampler":21,
					"target":{
						"node":3,
						"path":"translation"
					}
				},
				{
					"sampler":22,
					"target":{
						"node":3,
						"path":"rotation"
					}
				},
				{
					"sampler":23,
					"target":{
						"node":3,
						"path":"scale"
					}
				},
				{
					"sampler":24,
					"target":{
						"node":4,
						"path":"translation"
					}
				},
				{
					"sampler":25,
					"target":{
						"node":4,
						"path":"rotation"
					}
				},
				{
					"sampler":26,
					"target":{
						"node":4,
						"path":"scale"
					}
				},
				{
					"sampler":27,
					"target":{
						"node":8,
						"path":"translation"
					}
				},
				{
					"sampler":28,
					"target":{
						"node":8,
						"path":"rotation"
					}
				},
				{
					"sampler":29,
					"target":{
						"node":8,
						"path":"scale"
					}
				},
				{
					"sampler":30,
					"target":{
						"node":13,
						"path":"translation"
					}
				},
				{
					"sampler":31,
					"target":{
						"node":13,
						"path":"rotation"
					}
				},
				{
					"sampler":32,
					"target":{
						"node":13,
						"path":"scale"
					}
				},
				{
					"sampler":33,
					"target":{
						"node":12,
						"path":"translation"
					}
				},
				{
					"sampler":34,
					"target":{
						"node":12,
						"path":"rotation"
					}
				},
				{
					"sampler":35,
					"target":{
						"node":12,
						"path":"scale"
					}
				},
				{
					"sampler":36,
					"target":{
						"node":11,
						"path":"translation"
					}
				},
				{
					"sampler":37,
					"target":{
						"node":11,
						"path":"rotation"
					}
				},
				{
					"sampler":38,
					"target":{
						"node":11,
						"path":"scale"
					}
				},
				{
					"sampler":39,
					"target":{
						"node":10,
						"path":"translation"
					}
				},
				{
					"sampler":40,
					"target":{
						"node":10,
						"path":"rotation"
					}
				},
				{
					"sampler":41,
					"target":{
						"node":10,
						"path":"scale"
					}
				},
				{
					"sampler":42,
					"target":{
						"node":17,
						"path":"translation"
					}
				},
				{
					"sampler":43,
					"target":{
						"node":17,
						"path":"rotation"
					}
				},
				{
					"sampler":44,
					"target":{
						"node":17,
						"path":"scale"
					}
				},
				{
					"sampler":45,
					"target":{
						"node":16,
						"path":"translation"
					}
				},
				{
					"sampler":46,
					"target":{
						"node":16,
						"path":"rotation"
					}
				},
				{
					"sampler":47,
					"target":{
						"node":16,
						"path":"scale"
					}
				},
				{
					"sampler":48,
					"target":{
						"node":15,
						"path":"translation"
					}
				},
				{
					"sampler":49,
					"target":{
						"node":15,
						"path":"rotation"
					}
				},
				{
					"sampler":50,
					"target":{
						"node":15,
						"path":"scale"
					}
				},
				{
					"sampler":51,
					"target":{
						"node":14,
						"path":"translation"
					}
				},
				{
					"sampler":52,
					"target":{
						"node":14,
						"path":"rotation"
					}
				},
				{
					"sampler":53,
					"target":{
						"node":14,
						"path":"scale"
					}
				}
			],
			"name":"Idle",
			"samplers":[
				{
					"input":60,
					"interpolation":"LINEAR",
					"output":61
				},
				{
					"input":60,
					"interpolation":"LINEAR",
					"output":62
				},
				{
					"input":60,
					"interpolation":"LINEAR",
					"output":63
				},
				{
					"input":60,
					"interpolation":"LINEAR",
					"output":64
				},
				{
					"input":60,
					"interpolation":"LINEAR",
					"output":65
				},
				{
					"input":60,
					"interpolation":"LINEAR",
					"output":66
				},
				{
					"input":60,
					"interpolation":"LINEAR",
					"output":67
				},
				{
					"input":60,
					"interpolation":"LINEAR",
					"output":68
				},
				{
					"input":60,
					"interpolation":"LINEAR",
					"output":69
				},
				{
					"input":60,
					"interpolation":"LINEAR",
					"output":70
				},
				{
					"input":60,
					"interpolation":"LINEAR",
					"output":71
				},
				{
					"input":60,
					"interpolation":"LINEAR",
					"output":72
				},
				{
					"input":60,
					"interpolation":"LINEAR",
					"output":73
				},
				{
					"input":60,
					"interpolation":"LINEAR",
					"output":74
				},
				{
					"input":60,
					"interpolation":"LINEAR",
					"output":63
				},
				{
					"input":60,
					"interpolation":"LINEAR",
					"output":75
				},
				{
					"input":60,
					"interpolation":"LINEAR",
					"output":76
				},
				{
					"input":60,
					"interpolation":"LINEAR",
					"output":77
				},
				{
					"input":60,
					"interpolation":"LINEAR",
					"output":78
				},
				{
					"input":60,
					"interpolation":"LINEAR",
					"output":79
				},
				{
					"input":60,
					"interpolation":"LINEAR",
					"output":80
				},
				{
					"input":60,
					"interpolation":"LINEAR",
					"output":81
				},
				{
					"input":60,
					"interpolation":"LINEAR",
					"output":82
				},
				{
					"input":60,
					"interpolation":"LINEAR",
					"output":83
				},
				{
					"input":60,
					"interpolation":"LINEAR",
					"output":84
				},
				{
					"input":60,
					"interpolation":"LINEAR",
					"output":85
				},
				{
					"input":60,
					"interpolation":"LINEAR",
					"output":86
				},
				{
					"input":60,
					"interpolation":"LINEAR",
					"output":87
				},
				{
					"input":60,
					"interpolation":"LINEAR",
					"output":88
				},
				{
					"input":60,
					"interpolation":"LINEAR",
					"output":89
				},
				{
					"input":60,
					"interpolation":"LINEAR",
					"output":90
				},
				{
					"input":60,
					"interpolation":"LINEAR",
					"output":91
				},
				{
					"input":60,
					"interpolation":"LINEAR",
					"output":92
				},
				{
					"input":60,
					"interpolation":"LINEAR",
					"output":93
				},
				{
					"input":60,
					"interpolation":"LINEAR",
					"output":94
				},
				{
					"input":60,
					"interpolation":"LINEAR",
					"output":95
				},
				{
					"input":60,
					"interpolation":"LINEAR",
					"output":96
				},
				{
					"input":60,
					"interpolation":"LINEAR",
					"output":97
				},
				{
					"input":60,
					"interpolation":"LINEAR",
					"output":98
				},
				{
					"input":60,
					"interpolation":"LINEAR",
					"output":99
				},
				{
					"input":60,
					"interpolation":"LINEAR",
					"output":100
				},
				{
					"input":60,
					"interpolation":"LINEAR",
					"output":72
				},
				{
					"input":60,
					"interpolation":"LINEAR",
					"output":101
				},
				{
					"input":60,
					"interpolation":"LINEAR",
					"output":102
				},
				{
					"input":60,
					"interpolation":"LINEAR",
					"output":103
				},
				{
					"input":60,
					"interpolation":"LINEAR",
					"output":104
				},
				{
					"input":60,
					"interpolation":"LINEAR",
					"output":105
				},
				{
					"input":60,
					"interpolation":"LINEAR",
					"output":106
				},
				{
					"input":60,
					"interpolation":"LINEAR",
					"output":107
				},
				{
					"input":60,
					"interpolation":"LINEAR",
					"output":108
				},
				{
					"input":60,
					"interpolation":"LINEAR",
					"output":69
				},
				{
					"input":60,
					"interpolation":"LINEAR",
					"output":109
				},
				{
					"input":60,
					"interpolation":"LINEAR",
					"output":110
				},
				{
					"input":60,
					"interpolation":"LINEAR",
					"output":111
				}
			]
		},
		{
			"channels":[
				{
					"sampler":0,
					"target":{
						"node":9,
						"path":"translation"
					}
				},
				{
					"sampler":1,
					"target":{
						"node":9,
						"path":"rotation"
					}
				},
				{
					"sampler":2,
					"target":{
						"node":9,
						"path":"scale"
					}
				},
				{
					"sampler":3,
					"target":{
						"node":2,
						"path":"translation"
					}
				},
				{
					"sampler":4,
					"target":{
						"node":2,
						"path":"rotation"
					}
				},
				{
					"sampler":5,
					"target":{
						"node":2,
						"path":"scale"
					}
				},
				{
					"sampler":6,
					"target":{
						"node":1,
						"path":"translation"
					}
				},
				{
					"sampler":7,
					"target":{
						"node":1,
						"path":"rotation"
					}
				},
				{
					"sampler":8,
					"target":{
						"node":1,
						"path":"scale"
					}
				},
				{
					"sampler":9,
					"target":{
						"node":0,
						"path":"translation"
					}
				},
				{
					"sampler":10,
					"target":{
						"node":0,
						"path":"rotation"
					}
				},
				{
					"sampler":11,
					"target":{
						"node":0,
						"path":"scale"
					}
				},
				{
					"sampler":12,
					"target":{
						"node":7,
						"path":"translation"
					}
				},
				{
					"sampler":13,
					"target":{
						"node":7,
						"path":"rotation"
					}
				},
				{
					"sampler":14,
					"target":{
						"node":7,
						"path":"scale"
					}
				},
				{
					"sampler":15,
					"target":{
						"node":6,
						"path":"translation"
					}
				},
				{
					"sampler":16,
					"target":{
						"node":6,
						"path":"rotation"
					}
				},
				{
					"sampler":17,
					"target":{
						"node":6,
						"path":"scale"
					}
				},
				{
					"sampler":18,
					"target":{
						"node":5,
						"path":"translation"
					}
				},
				{
					"sampler":19,
					"target":{
						"node":5,
						"path":"rotation"
					}
				},
				{
					"sampler":20,
					"target":{
						"node":5,
						"path":"scale"
					}
				},
				{
					"sampler":21,
					"target":{
						"node":3,
						"path":"translation"
					}
				},
				{
					"sampler":22,
					"target":{
						"node":3,
						"path":"rotation"
					}
				},
				{
					"sampler":23,
					"target":{
						"node":3,
						"path":"scale"
					}
				},
				{
					"sampler":24,
					"target":{
						"node":4,
						"path":"translation"
					}
				},
				{
					"sampler":25,
					"target":{
						"node":4,
						"path":"rotation"
					}
				},
				{
					"sampler":26,
					"target":{
						"node":4,
						"path":"scale"
					}
				},
				{
					"sampler":27,
					"target":{
						"node":8,
						"path":"translation"
					}
				},
				{
					"sampler":28,
					"target":{
						"node":8,
						"path":"rotation"
					}
				},
				{
					"sampler":29,
					"target":{
						"node":8,
						"path":"scale"
					}
				},
				{
					"sampler":30,
					"target":{
						"node":13,
						"path":"translation"
					}
				},
				{
					"sampler":31,
					"target":{
						"node":13,
						"path":"rotation"
					}
				},
				{
					"sampler":32,
					"target":{
						"node":13,
						"path":"scale"
					}
				},
				{
					"sampler":33,
					"target":{
						"node":12,
						"path":"translation"
					}
				},
				{
					"sampler":34,
					"target":{
						"node":12,
						"path":"rotation"
					}
				},
				{
					"sampler":35,
					"target":{
						"node":12,
						"path":"scale"
					}
				},
				{
					"sampler":36,
					"target":{
						"node":11,
						"path":"translation"
					}
				},
				{
					"sampler":37,
					"target":{
						"node":11,
						"path":"rotation"
					}
				},
				{
					"sampler":38,
					"target":{
						"node":11,
						"path":"scale"
					}
				},
				{
					"sampler":39,
					"target":{
						"node":10,
						"path":"translation"
					}
				},
				{
					"sampler":40,
					"target":{
						"node":10,
						"path":"rotation"
					}
				},
				{
					"sampler":41,
					"target":{
						"node":10,
						"path":"scale"
					}
				},
				{
					"sampler":42,
					"target":{
						"node":17,
						"path":"translation"
					}
				},
				{
					"sampler":43,
					"target":{
						"node":17,
						"path":"rotation"
					}
				},
				{
					"sampler":44,
					"target":{
						"node":17,
						"path":"scale"
					}
				},
				{
					"sampler":45,
					"target":{
						"node":16,
						"path":"translation"
					}
				},
				{
					"sampler":46,
					"target":{
						"node":16,
						"path":"rotation"
					}
				},
				{
					"sampler":47,
					"target":{
						"node":16,
						"path":"scale"
					}
				},
				{
					"sampler":48,
					"target":{
						"node":15,
						"path":"translation"
					}
				},
				{
					"sampler":49,
					"target":{
						"node":15,
						"path":"rotation"
					}
				},
				{
					"sampler":50,
					"target":{
						"node":15,
						"path":"scale"
					}
				},
				{
					"sampler":51,
					"target":{
						"node":14,
						"path":"translation"
					}
				},
				{
					"sampler":52,
					"target":{
						"node":14,
						"path":"rotation"
					}
				},
				{
					"sampler":53,
					"target":{
						"node":14,
						"path":"scale"
					}
				}
			],
			"name":"Walk",
			"samplers":[
				{
					"input":112,
					"interpolation":"STEP",
					"output":8
				},
				{
					"input":112,
					"interpolation":"STEP",
					"output":9
				},
				{
					"input":112,
					"interpolation":"STEP",
					"output":10
				},
				{
					"input":112,
					"interpolation":"STEP",
					"output":11
				},
				{
					"input":112,
					"interpolation":"STEP",
					"output":12
				},
				{
					"input":112,
					"interpolation":"STEP",
					"output":13
				},
				{
					"input":112,
					"interpolation":"STEP",
					"output":14
				},
				{
					"input":113,
					"interpolation":"LINEAR",
					"output":114
				},
				{
					"input":112,
					"interpolation":"STEP",
					"output":115
				},
				{
					"input":112,
					"interpolation":"STEP",
					"output":116
				},
				{
					"input":112,
					"interpolation":"STEP",
					"output":117
				},
				{
					"input":112,
					"interpolation":"STEP",
					"output":118
				},
				{
					"input":112,
					"interpolation":"STEP",
					"output":20
				},
				{
					"input":112,
					"interpolation":"STEP",
					"output":21
				},
				{
					"input":112,
					"interpolation":"STEP",
					"output":10
				},
				{
					"input":112,
					"interpolation":"STEP",
					"output":22
				},
				{
					"input":113,
					"interpolation":"LINEAR",
					"output":119
				},
				{
					"input":112,
					"interpolation":"STEP",
					"output":120
				},
				{
					"input":112,
					"interpolation":"STEP",
					"output":121
				},
				{
					"input":112,
					"interpolation":"STEP",
					"output":122
				},
				{
					"input":112,
					"interpolation":"STEP",
					"output":123
				},
				{
					"input":112,
					"interpolation":"STEP",
					"output":124
				},
				{
					"input":112,
					"interpolation":"STEP",
					"output":125
				},
				{
					"input":112,
					"interpolation":"STEP",
					"output":126
				},
				{
					"input":112,
					"interpolation":"STEP",
					"output":127
				},
				{
					"input":112,
					"interpolation":"STEP",
					"output":128
				},
				{
					"input":112,
					"interpolation":"STEP",
					"output":129
				},
				{
					"input":112,
					"interpolation":"STEP",
					"output":35
				},
				{
					"input":112,
					"interpolation":"STEP",
					"output":36
				},
				{
					"input":112,
					"interpolation":"STEP",
					"output":37
				},
				{
					"input":112,
					"interpolation":"STEP",
					"output":38
				},
				{
					"input":112,
					"interpolation":"STEP",
					"output":39
				},
				{
					"input":112,
					"interpolation":"STEP",
					"output":40
				},
				{
					"input":112,
					"interpolation":"STEP",
					"output":41
				},
				{
					"input":113,
					"interpolation":"LINEAR",
					"output":130
				},
				{
					"input":112,
					"interpolation":"STEP",
					"output":59
				},
				{
					"input":112,
					"interpolation":"STEP",
					"output":131
				},
				{
					"input":112,
					"interpolation":"STEP",
					"output":132
				},
				{
					"input":112,
					"interpolation":"STEP",
					"output":115
				},
				{
					"input":112,
					"interpolation":"STEP",
					"output":133
				},
				{
					"input":112,
					"interpolation":"STEP",
					"output":134
				},
				{
					"input":112,
					"interpolation":"STEP",
					"output":59
				},
				{
					"input":112,
					"interpolation":"STEP",
					"output":49
				},
				{
					"input":112,
					"interpolation":"STEP",
					"output":50
				},
				{
					"input":112,
					"interpolation":"STEP",
					"output":51
				},
				{
					"input":112,
					"interpolation":"STEP",
					"output":52
				},
				{
					"input":113,
					"interpolation":"LINEAR",
					"output":135
				},
				{
					"input":112,
					"interpolation":"STEP",
					"output":136
				},
				{
					"input":112,
					"interpolation":"STEP",
					"output":137
				},
				{
					"input":112,
					"interpolation":"STEP",
					"output":138
				},
				{
					"input":112,
					"interpolation":"STEP",
					"output":59
				},
				{
					"input":112,
					"interpolation":"STEP",
					"output":139
				},
				{
					"input":112,
					"interpolation":"STEP",
					"output":58
				},
				{
					"input":112,
					"interpolation":"STEP",
					"output":140
				}
			]
		}
	],
	"materials":[
		{
			"name":"tripo_material_93bbdc2c-409b-4e40-be45-bf9acd1b6dab",
			"normalTexture":{
				"index":0
			},
			"pbrMetallicRoughness":{
				"baseColorTexture":{
					"index":1
				},
				"metallicRoughnessTexture":{
					"index":2
				}
			}
		}
	],
	"meshes":[
		{
			"name":"tripo_mesh_93bbdc2c-409b-4e40-be45-bf9acd1b6dab",
			"primitives":[
				{
					"attributes":{
						"POSITION":0,
						"NORMAL":1,
						"TEXCOORD_0":2,
						"JOINTS_0":3,
						"WEIGHTS_0":4
					},
					"indices":5,
					"material":0
				}
			]
		}
	],
	"textures":[
		{
			"sampler":0,
			"source":0
		},
		{
			"sampler":0,
			"source":1
		},
		{
			"sampler":0,
			"source":2
		}
	],
	"images":[
		{
			"mimeType":"image/jpeg",
			"name":"NormalGL_93bbdc2c-409b-4e40-be45-bf9acd1b6dab",
			"uri":"NormalGL_93bbdc2c-409b-4e40-be45-bf9acd1b6dab.jpg"
		},
		{
			"mimeType":"image/jpeg",
			"name":"Color_93bbdc2c-409b-4e40-be45-bf9acd1b6dab",
			"uri":"Color_93bbdc2c-409b-4e40-be45-bf9acd1b6dab.jpg"
		},
		{
			"mimeType":"image/jpeg",
			"name":"ORM_93bbdc2c-409b-4e40-be45-bf9acd1b6dab",
			"uri":"ORM_93bbdc2c-409b-4e40-be45-bf9acd1b6dab.jpg"
		}
	],
	"skins":[
		{
			"inverseBindMatrices":6,
			"joints":[
				9,
				2,
				1,
				0,
				7,
				6,
				5,
				3,
				4,
				8,
				13,
				12,
				11,
				10,
				17,
				16,
				15,
				14,
				18
			],
			"name":"Armature"
		}
	],
	"accessors":[
		{
			"bufferView":0,
			"componentType":5126,
			"count":7250,
			"max":[
				0.12271517515182495,
				1.0027621984481812,
				0.4989597201347351
			],
			"min":[
				-0.12271517515182495,
				0.00276222825050354,
				-0.4989597201347351
			],
			"type":"VEC3"
		},
		{
			"bufferView":1,
			"componentType":5126,
			"count":7250,
			"type":"VEC3"
		},
		{
			"bufferView":2,
			"componentType":5126,
			"count":7250,
			"type":"VEC2"
		},
		{
			"bufferView":3,
			"componentType":5121,
			"count":7250,
			"type":"VEC4"
		},
		{
			"bufferView":4,
			"componentType":5126,
			"count":7250,
			"type":"VEC4"
		},
		{
			"bufferView":5,
			"componentType":5123,
			"count":28995,
			"type":"SCALAR"
		},
		{
			"bufferView":6,
			"componentType":5126,
			"count":19,
			"type":"MAT4"
		},
		{
			"bufferView":7,
			"componentType":5126,
			"count":2,
			"max":[
				0.5
			],
			"min":[
				0
			],
			"type":"SCALAR"
		},
		{
			"bufferView":8,
			"componentType":5126,
			"count":2,
			"type":"VEC3"
		},
		{
			"bufferView":9,
			"componentType":5126,
			"count":2,
			"type":"VEC4"
		},
		{
			"bufferView":10,
			"componentType":5126,
			"count":2,
			"type":"VEC3"
		},
		{
			"bufferView":11,
			"componentType":5126,
			"count":2,
			"type":"VEC3"
		},
		{
			"bufferView":12,
			"componentType":5126,
			"count":2,
			"type":"VEC4"
		},
		{
			"bufferView":13,
			"componentType":5126,
			"count":2,
			"type":"VEC3"
		},
		{
			"bufferView":14,
			"componentType":5126,
			"count":2,
			"type":"VEC3"
		},
		{
			"bufferView":15,
			"componentType":5126,
			"count":2,
			"type":"VEC4"
		},
		{
			"bufferView":16,
			"componentType":5126,
			"count":2,
			"type":"VEC3"
		},
		{
			"bufferView":17,
			"componentType":5126,
			"count":2,
			"type":"VEC3"
		},
		{
			"bufferView":18,
			"componentType":5126,
			"count":2,
			"type":"VEC4"
		},
		{
			"bufferView":19,
			"componentType":5126,
			"count":2,
			"type":"VEC3"
		},
		{
			"bufferView":20,
			"componentType":5126,
			"count":2,
			"type":"VEC3"
		},
		{
			"bufferView":21,
			"componentType":5126,
			"count":2,
			"type":"VEC4"
		},
		{
			"bufferView":22,
			"componentType":5126,
			"count":2,
			"type":"VEC3"
		},
		{
			"bufferView":23,
			"componentType":5126,
			"count":13,
			"max":[
				0.5
			],
			"min":[
				0
			],
			"type":"SCALAR"
		},
		{
			"bufferView":24,
			"componentType":5126,
			"count":13,
			"type":"VEC4"
		},
		{
			"bufferView":25,
			"componentType":5126,
			"count":2,
			"type":"VEC3"
		},
		{
			"bufferView":26,
			"componentType":5126,
			"count":2,
			"type":"VEC3"
		},
		{
			"bufferView":27,
			"componentType":5126,
			"count":13,
			"type":"VEC4"
		},
		{
			"bufferView":28,
			"componentType":5126,
			"count":2,
			"type":"VEC3"
		},
		{
			"bufferView":29,
			"componentType":5126,
			"count":2,
			"type":"VEC3"
		},
		{
			"bufferView":30,
			"componentType":5126,
			"count":13,
			"type":"VEC4"
		},
		{
			"bufferView":31,
			"componentType":5126,
			"count":2,
			"type":"VEC3"
		},
		{
			"bufferView":32,
			"componentType":5126,
			"count":2,
			"type":"VEC3"
		},
		{
			"bufferView":33,
			"componentType":5126,
			"count":13,
			"type":"VEC4"
		},
		{
			"bufferView":34,
			"componentType":5126,
			"count":2,
			"type":"VEC3"
		},
		{
			"bufferView":35,
			"componentType":5126,
			"count":2,
			"type":"VEC3"
		},
		{
			"bufferView":36,
			"componentType":5126,
			"count":2,
			"type":"VEC4"
		},
		{
			"bufferView":37,
			"componentType":5126,
			"count":2,
			"type":"VEC3"
		},
		{
			"bufferView":38,
			"componentType":5126,
			"count":2,
			"type":"VEC3"
		},
		{
			"bufferView":39,
			"componentType":5126,
			"count":2,
			"type":"VEC4"
		},
		{
			"bufferView":40,
			"componentType":5126,
			"count":2,
			"type":"VEC3"
		},
		{
			"bufferView":41,
			"componentType":5126,
			"count":2,
			"type":"VEC3"
		},
		{
			"bufferView":42,
			"componentType":5126,
			"count":2,
			"type":"VEC4"
		},
		{
			"bufferView":43,
			"componentType":5126,
			"count":2,
			"type":"VEC3"
		},
		{
			"bufferView":44,
			"componentType":5126,
			"count":2,
			"type":"VEC3"
		},
		{
			"bufferView":45,
			"componentType":5126,
			"count":2,
			"type":"VEC4"
		},
		{
			"bufferView":46,
			"componentType":5126,
			"count":2,
			"type":"VEC3"
		},
		{
			"bufferView":47,
			"componentType":5126,
			"count":2,
			"type":"VEC3"
		},
		{
			"bufferView":48,
			"componentType":5126,
			"count":2,
			"type":"VEC4"
		},
		{
			"bufferView":49,
			"componentType":5126,
			"count":2,
			"type":"VEC3"
		},
		{
			"bufferView":50,
			"componentType":5126,
			"count":2,
			"type":"VEC4"
		},
		{
			"bufferView":51,
			"componentType":5126,
			"count":2,
			"type":"VEC3"
		},
		{
			"bufferView":52,
			"componentType":5126,
			"count":2,
			"type":"VEC3"
		},
		{
			"bufferView":53,
			"componentType":5126,
			"count":2,
			"type":"VEC4"
		},
		{
			"bufferView":54,
			"componentType":5126,
			"count":2,
			"type":"VEC3"
		},
		{
			"bufferView":55,
			"componentType":5126,
			"count":2,
			"type":"VEC3"
		},
		{
			"bufferView":56,
			"componentType":5126,
			"count":2,
			"type":"VEC4"
		},
		{
			"bufferView":57,
			"componentType":5126,
			"count":2,
			"type":"VEC3"
		},
		{
			"bufferView":58,
			"componentType":5126,
			"count":2,
			"type":"VEC4"
		},
		{
			"bufferView":59,
			"componentType":5126,
			"count":2,
			"type":"VEC3"
		},
		{
			"bufferView":60,
			"componentType":5126,
			"count":1,
			"max":[
				0.041666666666666664
			],
			"min":[
				0.041666666666666664
			],
			"type":"SCALAR"
		},
		{
			"bufferView":61,
			"componentType":5126,
			"count":1,
			"type":"VEC3"
		},
		{
			"bufferView":62,
			"componentType":5126,
			"count":1,
			"type":"VEC4"
		},
		{
			"bufferView":63,
			"componentType":5126,
			"count":1,
			"type":"VEC3"
		},
		{
			"bufferView":64,
			"componentType":5126,
			"count":1,
			"type":"VEC3"
		},
		{
			"bufferView":65,
			"componentType":5126,
			"count":1,
			"type":"VEC4"
		},
		{
			"bufferView":66,
			"componentType":5126,
			"count":1,
			"type":"VEC3"
		},
		{
			"bufferView":67,
			"componentType":5126,
			"count":1,
			"type":"VEC3"
		},
		{
			"bufferView":68,
			"componentType":5126,
			"count":1,
			"type":"VEC4"
		},
		{
			"bufferView":69,
			"componentType":5126,
			"count":1,
			"type":"VEC3"
		},
		{
			"bufferView":70,
			"componentType":5126,
			"count":1,
			"type":"VEC3"
		},
		{
			"bufferView":71,
			"componentType":5126,
			"count":1,
			"type":"VEC4"
		},
		{
			"bufferView":72,
			"componentType":5126,
			"count":1,
			"type":"VEC3"
		},
		{
			"bufferView":73,
			"componentType":5126,
			"count":1,
			"type":"VEC3"
		},
		{
			"bufferView":74,
			"componentType":5126,
			"count":1,
			"type":"VEC4"
		},
		{
			"bufferView":75,
			"componentType":5126,
			"count":1,
			"type":"VEC3"
		},
		{
			"bufferView":76,
			"componentType":5126,
			"count":1,
			"type":"VEC4"
		},
		{
			"bufferView":77,
			"componentType":5126,
			"count":1,
			"type":"VEC3"
		},
		{
			"bufferView":78,
			"componentType":5126,
			"count":1,
			"type":"VEC3"
		},
		{
			"bufferView":79,
			"componentType":5126,
			"count":1,
			"type":"VEC4"
		},
		{
			"bufferView":80,
			"componentType":5126,
			"count":1,
			"type":"VEC3"
		},
		{
			"bufferView":81,
			"componentType":5126,
			"count":1,
			"type":"VEC3"
		},
		{
			"bufferView":82,
			"componentType":5126,
			"count":1,
			"type":"VEC4"
		},
		{
			"bufferView":83,
			"componentType":5126,
			"count":1,
			"type":"VEC3"
		},
		{
			"bufferView":84,
			"componentType":5126,
			"count":1,
			"type":"VEC3"
		},
		{
			"bufferView":85,
			"componentType":5126,
			"count":1,
			"type":"VEC4"
		},
		{
			"bufferView":86,
			"componentType":5126,
			"count":1,
			"type":"VEC3"
		},
		{
			"bufferView":87,
			"componentType":5126,
			"count":1,
			"type":"VEC3"
		},
		{
			"bufferView":88,
			"componentType":5126,
			"count":1,
			"type":"VEC4"
		},
		{
			"bufferView":89,
			"componentType":5126,
			"count":1,
			"type":"VEC3"
		},
		{
			"bufferView":90,
			"componentType":5126,
			"count":1,
			"type":"VEC3"
		},
		{
			"bufferView":91,
			"componentType":5126,
			"count":1,
			"type":"VEC4"
		},
		{
			"bufferView":92,
			"componentType":5126,
			"count":1,
			"type":"VEC3"
		},
		{
			"bufferView":93,
			"componentType":5126,
			"count":1,
			"type":"VEC3"
		},
		{
			"bufferView":94,
			"componentType":5126,
			"count":1,
			"type":"VEC4"
		},
		{
			"bufferView":95,
			"componentType":5126,
			"count":1,
			"type":"VEC3"
		},
		{
			"bufferView":96,
			"componentType":5126,
			"count":1,
			"type":"VEC3"
		},
		{
			"bufferView":97,
			"componentType":5126,
			"count":1,
			"type":"VEC4"
		},
		{
			"bufferView":98,
			"componentType":5126,
			"count":1,
			"type":"VEC3"
		},
		{
			"bufferView":99,
			"componentType":5126,
			"count":1,
			"type":"VEC3"
		},
		{
			"bufferView":100,
			"componentType":5126,
			"count":1,
			"type":"VEC4"
		},
		{
			"bufferView":101,
			"componentType":5126,
			"count":1,
			"type":"VEC3"
		},
		{
			"bufferView":102,
			"componentType":5126,
			"count":1,
			"type":"VEC4"
		},
		{
			"bufferView":103,
			"componentType":5126,
			"count":1,
			"type":"VEC3"
		},
		{
			"bufferView":104,
			"componentType":5126,
			"count":1,
			"type":"VEC3"
		},
		{
			"bufferView":105,
			"componentType":5126,
			"count":1,
			"type":"VEC4"
		},
		{
			"bufferView":106,
			"componentType":5126,
			"count":1,
			"type":"VEC3"
		},
		{
			"bufferView":107,
			"componentType":5126,
			"count":1,
			"type":"VEC3"
		},
		{
			"bufferView":108,
			"componentType":5126,
			"count":1,
			"type":"VEC4"
		},
		{
			"bufferView":109,
			"componentType":5126,
			"count":1,
			"type":"VEC3"
		},
		{
			"bufferView":110,
			"componentType":5126,
			"count":1,
			"type":"VEC4"
		},
		{
			"bufferView":111,
			"componentType":5126,
			"count":1,
			"type":"VEC3"
		},
		{
			"bufferView":112,
			"componentType":5126,
			"count":2,
			"max":[
				0.5833333333333334
			],
			"min":[
				0.041666666666666664
			],
			"type":"SCALAR"
		},
		{
			"bufferView":113,
			"componentType":5126,
			"count":14,
			"max":[
				0.5833333333333334
			],
			"min":[
				0.041666666666666664
			],
			"type":"SCALAR"
		},
		{
			"bufferView":114,
			"componentType":5126,
			"count":14,
			"type":"VEC4"
		},
		{
			"bufferView":115,
			"componentType":5126,
			"count":2,
			"type":"VEC3"
		},
		{
			"bufferView":116,
			"componentType":5126,
			"count":2,
			"type":"VEC3"
		},
		{
			"bufferView":117,
			"componentType":5126,
			"count":2,
			"type":"VEC4"
		},
		{
			"bufferView":118,
			"componentType":5126,
			"count":2,
			"type":"VEC3"
		},
		{
			"bufferView":119,
			"componentType":5126,
			"count":14,
			"type":"VEC4"
		},
		{
			"bufferView":120,
			"componentType":5126,
			"count":2,
			"type":"VEC3"
		},
		{
			"bufferView":121,
			"componentType":5126,
			"count":2,
			"type":"VEC3"
		},
		{
			"bufferView":122,
			"componentType":5126,
			"count":2,
			"type":"VEC4"
		},
		{
			"bufferView":123,
			"componentType":5126,
			"count":2,
			"type":"VEC3"
		},
		{
			"bufferView":124,
			"componentType":5126,
			"count":2,
			"type":"VEC3"
		},
		{
			"bufferView":125,
			"componentType":5126,
			"count":2,
			"type":"VEC4"
		},
		{
			"bufferView":126,
			"componentType":5126,
			"count":2,
			"type":"VEC3"
		},
		{
			"bufferView":127,
			"componentType":5126,
			"count":2,
			"type":"VEC3"
		},
		{
			"bufferView":128,
			"componentType":5126,
			"count":2,
			"type":"VEC4"
		},
		{
			"bufferView":129,
			"componentType":5126,
			"count":2,
			"type":"VEC3"
		},
		{
			"bufferView":130,
			"componentType":5126,
			"count":14,
			"type":"VEC4"
		},
		{
			"bufferView":131,
			"componentType":5126,
			"count":2,
			"type":"VEC3"
		},
		{
			"bufferView":132,
			"componentType":5126,
			"count":2,
			"type":"VEC4"
		},
		{
			"bufferView":133,
			"componentType":5126,
			"count":2,
			"type":"VEC3"
		},
		{
			"bufferView":134,
			"componentType":5126,
			"count":2,
			"type":"VEC4"
		},
		{
			"bufferView":135,
			"componentType":5126,
			"count":14,
			"type":"VEC4"
		},
		{
			"bufferView":136,
			"componentType":5126,
			"count":2,
			"type":"VEC3"
		},
		{
			"bufferView":137,
			"componentType":5126,
			"count":2,
			"type":"VEC3"
		},
		{
			"bufferView":138,
			"componentType":5126,
			"count":2,
			"type":"VEC4"
		},
		{
			"bufferView":139,
			"componentType":5126,
			"count":2,
			"type":"VEC3"
		},
		{
			"bufferView":140,
			"componentType":5126,
			"count":2,
			"type":"VEC3"
		}
	],
	"bufferViews":[
		{
			"buffer":0,
			"byteLength":87000,
			"byteOffset":0,
			"target":34962
		},
		{
			"buffer":0,
			"byteLength":87000,
			"byteOffset":87000,
			"target":34962
		},
		{
			"buffer":0,
			"byteLength":58000,
			"byteOffset":174000,
			"target":34962
		},
		{
			"buffer":0,
			"byteLength":29000,
			"byteOffset":232000,
			"target":34962
		},
		{
			"buffer":0,
			"byteLength":116000,
			"byteOffset":261000,
			"target":34962
		},
		{
			"buffer":0,
			"byteLength":57990,
			"byteOffset":377000,
			"target":34963
		},
		{
			"buffer":0,
			"byteLength":1216,
			"byteOffset":434992
		},
		{
			"buffer":0,
			"byteLength":8,
			"byteOffset":436208
		},
		{
			"buffer":0,
			"byteLength":24,
			"byteOffset":436216
		},
		{
			"buffer":0,
			"byteLength":32,
			"byteOffset":436240
		},
		{
			"buffer":0,
			"byteLength":24,
			"byteOffset":436272
		},
		{
			"buffer":0,
			"byteLength":24,
			"byteOffset":436296
		},
		{
			"buffer":0,
			"byteLength":32,
			"byteOffset":436320
		},
		{
			"buffer":0,
			"byteLength":24,
			"byteOffset":436352
		},
		{
			"buffer":0,
			"byteLength":24,
			"byteOffset":436376
		},
		{
			"buffer":0,
			"byteLength":32,
			"byteOffset":436400
		},
		{
			"buffer":0,
			"byteLength":24,
			"byteOffset":436432
		},
		{
			"buffer":0,
			"byteLength":24,
			"byteOffset":436456
		},
		{
			"buffer":0,
			"byteLength":32,
			"byteOffset":436480
		},
		{
			"buffer":0,
			"byteLength":24,
			"byteOffset":436512
		},
		{
			"buffer":0,
			"byteLength":24,
			"byteOffset":436536
		},
		{
			"buffer":0,
			"byteLength":32,
			"byteOffset":436560
		},
		{
			"buffer":0,
			"byteLength":24,
			"byteOffset":436592
		},
		{
			"buffer":0,
			"byteLength":52,
			"byteOffset":436616
		},
		{
			"buffer":0,
			"byteLength":208,
			"byteOffset":436668
		},
		{
			"buffer":0,
			"byteLength":24,
			"byteOffset":436876
		},
		{
			"buffer":0,
			"byteLength":24,
			"byteOffset":436900
		},
		{
			"buffer":0,
			"byteLength":208,
			"byteOffset":436924
		},
		{
			"buffer":0,
			"byteLength":24,
			"byteOffset":437132
		},
		{
			"buffer":0,
			"byteLength":24,
			"byteOffset":437156
		},
		{
			"buffer":0,
			"byteLength":208,
			"byteOffset":437180
		},
		{
			"buffer":0,
			"byteLength":24,
			"byteOffset":437388
		},
		{
			"buffer":0,
			"byteLength":24,
			"byteOffset":437412
		},
		{
			"buffer":0,
			"byteLength":208,
			"byteOffset":437436
		},
		{
			"buffer":0,
			"byteLength":24,
			"byteOffset":437644
		},
		{
			"buffer":0,
			"byteLength":24,
			"byteOffset":437668
		},
		{
			"buffer":0,
			"byteLength":32,
			"byteOffset":437692
		},
		{
			"buffer":0,
			"byteLength":24,
			"byteOffset":437724
		},
		{
			"buffer":0,
			"byteLength":24,
			"byteOffset":437748
		},
		{
			"buffer":0,
			"byteLength":32,
			"byteOffset":437772
		},
		{
			"buffer":0,
			"byteLength":24,
			"byteOffset":437804
		},
		{
			"buffer":0,
			"byteLength":24,
			"byteOffset":437828
		},
		{
			"buffer":0,
			"byteLength":32,
			"byteOffset":437852
		},
		{
			"buffer":0,
			"byteLength":24,
			"byteOffset":437884
		},
		{
			"buffer":0,
			"byteLength":24,
			"byteOffset":437908
		},
		{
			"buffer":0,
			"byteLength":32,
			"byteOffset":437932
		},
		{
			"buffer":0,
			"byteLength":24,
			"byteOffset":437964
		},
		{
			"buffer":0,
			"byteLength":24,
			"byteOffset":437988
		},
		{
			"buffer":0,
			"byteLength":32,
			"byteOffset":438012
		},
		{
			"buffer":0,
			"byteLength":24,
			"byteOffset":438044
		},
		{
			"buffer":0,
			"byteLength":32,
			"byteOffset":438068
		},
		{
			"buffer":0,
			"byteLength":24,
			"byteOffset":438100
		},
		{
			"buffer":0,
			"byteLength":24,
			"byteOffset":438124
		},
		{
			"buffer":0,
			"byteLength":32,
			"byteOffset":438148
		},
		{
			"buffer":0,
			"byteLength":24,
			"byteOffset":438180
		},
		{
			"buffer":0,
			"byteLength":24,
			"byteOffset":438204
		},
		{
			"buffer":0,
			"byteLength":32,
			"byteOffset":438228
		},
		{
			"buffer":0,
			"byteLength":24,
			"byteOffset":438260
		},
		{
			"buffer":0,
			"byteLength":32,
			"byteOffset":438284
		},
		{
			"buffer":0,
			"byteLength":24,
			"byteOffset":438316
		},
		{
			"buffer":0,
			"byteLength":4,
			"byteOffset":438340
		},
		{
			"buffer":0,
			"byteLength":12,
			"byteOffset":438344
		},
		{
			"buffer":0,
			"byteLength":16,
			"byteOffset":438356
		},
		{
			"buffer":0,
			"byteLength":12,
			"byteOffset":438372
		},
		{
			"buffer":0,
			"byteLength":12,
			"byteOffset":438384
		},
		{
			"buffer":0,
			"byteLength":16,
			"byteOffset":438396
		},
		{
			"buffer":0,
			"byteLength":12,
			"byteOffset":438412
		},
		{
			"buffer":0,
			"byteLength":12,
			"byteOffset":438424
		},
		{
			"buffer":0,
			"byteLength":16,
			"byteOffset":438436
		},
		{
			"buffer":0,
			"byteLength":12,
			"byteOffset":438452
		},
		{
			"buffer":0,
			"byteLength":12,
			"byteOffset":438464
		},
		{
			"buffer":0,
			"byteLength":16,
			"byteOffset":438476
		},
		{
			"buffer":0,
			"byteLength":12,
			"byteOffset":438492
		},
		{
			"buffer":0,
			"byteLength":12,
			"byteOffset":438504
		},
		{
			"buffer":0,
			"byteLength":16,
			"byteOffset":438516
		},
		{
			"buffer":0,
			"byteLength":12,
			"byteOffset":438532
		},
		{
			"buffer":0,
			"byteLength":16,
			"byteOffset":438544
		},
		{
			"buffer":0,
			"byteLength":12,
			"byteOffset":438560
		},
		{
			"buffer":0,
			"byteLength":12,
			"byteOffset":438572
		},
		{
			"buffer":0,
			"byteLength":16,
			"byteOffset":438584
		},
		{
			"buffer":0,
			"byteLength":12,
			"byteOffset":438600
		},
		{
			"buffer":0,
			"byteLength":12,
			"byteOffset":438612
		},
		{
			"buffer":0,
			"byteLength":16,
			"byteOffset":438624
		},
		{
			"buffer":0,
			"byteLength":12,
			"byteOffset":438640
		},
		{
			"buffer":0,
			"byteLength":12,
			"byteOffset":438652
		},
		{
			"buffer":0,
			"byteLength":16,
			"byteOffset":438664
		},
		{
			"buffer":0,
			"byteLength":12,
			"byteOffset":438680
		},
		{
			"buffer":0,
			"byteLength":12,
			"byteOffset":438692
		},
		{
			"buffer":0,
			"byteLength":16,
			"byteOffset":438704
		},
		{
			"buffer":0,
			"byteLength":12,
			"byteOffset":438720
		},
		{
			"buffer":0,
			"byteLength":12,
			"byteOffset":438732
		},
		{
			"buffer":0,
			"byteLength":16,
			"byteOffset":438744
		},
		{
			"buffer":0,
			"byteLength":12,
			"byteOffset":438760
		},
		{
			"buffer":0,
			"byteLength":12,
			"byteOffset":438772
		},
		{
			"buffer":0,
			"byteLength":16,
			"byteOffset":438784
		},
		{
			"buffer":0,
			"byteLength":12,
			"byteOffset":438800
		},
		{
			"buffer":0,
			"byteLength":12,
			"byteOffset":438812
		},
		{
			"buffer":0,
			"byteLength":16,
			"byteOffset":438824
		},
		{
			"buffer":0,
			"byteLength":12,
			"byteOffset":438840
		},
		{
			"buffer":0,
			"byteLength":12,
			"byteOffset":438852
		},
		{
			"buffer":0,
			"byteLength":16,
			"byteOffset":438864
		},
		{
			"buffer":0,
			"byteLength":12,
			"byteOffset":438880
		},
		{
			"buffer":0,
			"byteLength":16,
			"byteOffset":438892
		},
		{
			"buffer":0,
			"byteLength":12,
			"byteOffset":438908
		},
		{
			"buffer":0,
			"byteLength":12,
			"byteOffset":438920
		},
		{
			"buffer":0,
			"byteLength":16,
			"byteOffset":438932
		},
		{
			"buffer":0,
			"byteLength":12,
			"byteOffset":438948
		},
		{
			"buffer":0,
			"byteLength":12,
			"byteOffset":438960
		},
		{
			"buffer":0,
			"byteLength":16,
			"byteOffset":438972
		},
		{
			"buffer":0,
			"byteLength":12,
			"byteOffset":438988
		},
		{
			"buffer":0,
			"byteLength":16,
			"byteOffset":439000
		},
		{
			"buffer":0,
			"byteLength":12,
			"byteOffset":439016
		},
		{
			"buffer":0,
			"byteLength":8,
			"byteOffset":439028
		},
		{
			"buffer":0,
			"byteLength":56,
			"byteOffset":439036
		},
		{
			"buffer":0,
			"byteLength":224,
			"byteOffset":439092
		},
		{
			"buffer":0,
			"byteLength":24,
			"byteOffset":439316
		},
		{
			"buffer":0,
			"byteLength":24,
			"byteOffset":439340
		},
		{
			"buffer":0,
			"byteLength":32,
			"byteOffset":439364
		},
		{
			"buffer":0,
			"byteLength":24,
			"byteOffset":439396
		},
		{
			"buffer":0,
			"byteLength":224,
			"byteOffset":439420
		},
		{
			"buffer":0,
			"byteLength":24,
			"byteOffset":439644
		},
		{
			"buffer":0,
			"byteLength":24,
			"byteOffset":439668
		},
		{
			"buffer":0,
			"byteLength":32,
			"byteOffset":439692
		},
		{
			"buffer":0,
			"byteLength":24,
			"byteOffset":439724
		},
		{
			"buffer":0,
			"byteLength":24,
			"byteOffset":439748
		},
		{
			"buffer":0,
			"byteLength":32,
			"byteOffset":439772
		},
		{
			"buffer":0,
			"byteLength":24,
			"byteOffset":439804
		},
		{
			"buffer":0,
			"byteLength":24,
			"byteOffset":439828
		},
		{
			"buffer":0,
			"byteLength":32,
			"byteOffset":439852
		},
		{
			"buffer":0,
			"byteLength":24,
			"byteOffset":439884
		},
		{
			"buffer":0,
			"byteLength":224,
			"byteOffset":439908
		},
		{
			"buffer":0,
			"byteLength":24,
			"byteOffset":440132
		},
		{
			"buffer":0,
			"byteLength":32,
			"byteOffset":440156
		},
		{
			"buffer":0,
			"byteLength":24,
			"byteOffset":440188
		},
		{
			"buffer":0,
			"byteLength":32,
			"byteOffset":440212
		},
		{
			"buffer":0,
			"byteLength":224,
			"byteOffset":440244
		},
		{
			"buffer":0,
			"byteLength":24,
			"byteOffset":440468
		},
		{
			"buffer":0,
			"byteLength":24,
			"byteOffset":440492
		},
		{
			"buffer":0,
			"byteLength":32,
			"byteOffset":440516
		},
		{
			"buffer":0,
			"byteLength":24,
			"byteOffset":440548
		},
		{
			"buffer":0,
			"byteLength":24,
			"byteOffset":440572
		}
	],
	"samplers":[
		{
			"magFilter":9729,
			"minFilter":9987
		}
	],
	"buffers":[
		{
			"byteLength":440596,
			"uri":"Demon.bin"
		}
	]
}
