{
	"asset":{
		"generator":"Khronos glTF Blender I/O v5.2.39",
		"version":"2.0"
	},
	"scene":0,
	"scenes":[
		{
			"name":"Scene",
			"nodes":[
				19
			]
		}
	],
	"nodes":[
		{
			"name":"Bone.004",
			"rotation":[
				-0.018923960626125336,
				-0.003282457124441862,
				0.04444914683699608,
				0.9988269805908203
			],
			"scale":[
				1.0000001192092896,
				1.0000001192092896,
				1.0000001192092896
			],
			"translation":[
				2.60770320892334e-08,
				0.32196661829948425,
				-2.8870999813079834e-08
			]
		},
		{
			"children":[
				0
			],
			"name":"Bone.003",
			"rotation":[
				-0.03706519305706024,
				-0.0008051634067669511,
				-0.11959277093410492,
				0.9921305775642395
			],
			"translation":[
				1.1175870895385742e-08,
				0.26981523633003235,
				-1.4156103134155273e-07
			]
		},
		{
			"children":[
				1
			],
			"name":"Bone.002",
			"rotation":[
				0.04050615429878235,
				-0.01187996193766594,
				-0.14932765066623688,
				0.9878863096237183
			],
			"scale":[
				1,
				1.0000001192092896,
				1
			],
			"translation":[
				2.2351741790771484e-08,
				0.4256862699985504,
				2.9616057872772217e-07
			]
		},
		{
			"children":[
				2
			],
			"name":"Bone.001",
			"rotation":[
				0.7200053334236145,
				-0.10899995267391205,
				0.07399248331785202,
				0.6813490390777588
			],
			"scale":[
				0.9999998211860657,
				0.9999998211860657,
				0.9999998211860657
			],
			"translation":[
				1.1804786481661722e-08,
				0.6826077103614807,
				-1.862645149230957e-09
			]
		},
		{
			"name":"Bone.008",
			"rotation":[
				-0.03676028177142143,
				-0.00868910737335682,
				0.04994431510567665,
				0.9980374574661255
			],
			"scale":[
				0.9999999403953552,
				1,
				1
			],
			"translation":[
				1.4901161193847656e-08,
				0.3607536554336548,
				-9.313225746154785e-09
			]
		},
		{
			"children":[
				4
			],
			"name":"Bone.007",
			"rotation":[
				0.1963290423154831,
				0.023323364555835724,
				-0.20292843878269196,
				0.9590260982513428
			],
			"scale":[
				1,
				1,
				1.0000001192092896
			],
			"translation":[
				3.725290298461914e-08,
				0.267469197511673,
				5.075708031654358e-08
			]
		},
		{
			"children":[
				5
			],
			"name":"Bone.006",
			"rotation":[
				-0.16732659935951233,
				0.029530784115195274,
				-0.07277031987905502,
				0.9827686548233032
			],
			"scale":[
				1,
				0.9999998807907104,
				0.9999998211860657
			],
			"translation":[
				7.450580596923828e-09,
				0.404099702835083,
				2.7939677238464355e-08
			]
		},
		{
			"children":[
				6
			],
			"name":"Bone.005",
			"rotation":[
				-0.7095111608505249,
				0.07905706763267517,
				0.07898440212011337,
				0.6957768201828003
			],
			"scale":[
				1,
				0.9999997019767761,
				0.9999998807907104
			],
			"translation":[
				1.1804786481661722e-08,
				0.6826077103614807,
				-1.862645149230957e-09
			]
		},
		{
			"name":"Bone.009",
			"rotation":[
				-0.012875883840024471,
				-1.848908581791875e-08,
				0.06213141977787018,
				0.9979849457740784
			],
			"scale":[
				0.9999998807907104,
				0.9999997615814209,
				0.9999998807907104
			],
			"translation":[
				1.1804786481661722e-08,
				0.6826077103614807,
				-1.862645149230957e-09
			]
		},
		{
			"children":[
				3,
				7,
				8
			],
			"name":"Bone",
			"rotation":[
				-0.006073117256164551,
				-3.841811135885109e-08,
				-0.055189404636621475,
				0.9984574317932129
			]
		},
		{
			"name":"Bone.017",
			"rotation":[
				0.24003028869628906,
				0.05445656180381775,
				0.5341018438339233,
				0.8087986707687378
			],
			"scale":[
				0.9999998211860657,
				0.9999998807907104,
				0.9999998807907104
			],
			"translation":[
				3.725290298461914e-09,
				0.6569138169288635,
				9.778887033462524e-09
			]
		},
		{
			"children":[
				10
			],
			"name":"Bone.016",
			"rotation":[
				-0.08841536939144135,
				-0.0157473124563694,
				-0.24657419323921204,
				0.9649538397789001
			],
			"translation":[
				-7.450580596923828e-09,
				0.5495772957801819,
				-1.1175870895385742e-08
			]
		},
		{
			"children":[
				11
			],
			"name":"Bone.012",
			"rotation":[
				-0.5247125029563904,
				-0.043822623789310455,
				0.15859386324882507,
				0.8352271318435669
			],
			"scale":[
				0.9999999403953552,
				0.9999999403953552,
				1
			],
			"translation":[
				5.124405788592412e-09,
				0.20327994227409363,
				1.3765384210273623e-07
			]
		},
		{
			"children":[
				12
			],
			"name":"Bone.010",
			"rotation":[
				-0.04926464334130287,
				-0.5808350443840027,
				-0.8117641806602478,
				0.035250063985586166
			],
			"scale":[
				1,
				1.0000001192092896,
				1.000000238418579
			]
		},
		{
			"name":"Bone.015",
			"rotation":[
				0.04991849511861801,
				0.02637535333633423,
				-0.6102423667907715,
				0.7902004718780518
			],
			"scale":[
				1,
				1,
				0.9999999403953552
			],
			"translation":[
				2.421438694000244e-08,
				0.637904167175293,
				-5.2852556109428406e-08
			]
		},
		{
			"children":[
				14
			],
			"name":"Bone.014",
			"rotation":[
				0.019343610852956772,
				0.02571011520922184,
				0.33242887258529663,
				0.9425793886184692
			],
			"scale":[
				0.9999999403953552,
				0.9999999403953552,
				1
			],
			"translation":[
				3.5390257835388184e-08,
				0.5566219687461853,
				-2.7008354663848877e-08
			]
		},
		{
			"children":[
				15
			],
			"name":"Bone.013",
			"rotation":[
				-0.5236956477165222,
				-0.08209362626075745,
				-0.136297345161438,
				0.8369148969650269
			],
			"scale":[
				0.9999998807907104,
				0.9999998807907104,
				1
			],
			"translation":[
				9.313225746154785e-10,
				0.1958528757095337,
				-1.1688098311424255e-07
			]
		},
		{
			"children":[
				16
			],
			"name":"Bone.011",
			"rotation":[
				-0.8265166878700256,
				0.025432618334889412,
				0.039185699075460434,
				0.5609704852104187
			]
		},
		{
			"mesh":0,
			"name":"tripo_node_8a0280fa-dbec-406c-9cbf-36e1594fd237",
			"skin":0
		},
		{
			"children":[
				18,
				9,
				13,
				17
			],
			"name":"Armature",
			"translation":[
				-0.022535426542162895,
				1.4084644317626953,
				0
			]
		}
	],
	"animations":[
		{
			"channels":[
				{
					"sampler":0,
					"target":{
						"node":9,
						"path":"translation"
					}
				},
				{
					"sampler":1,
					"target":{
						"node":9,
						"path":"rotation"
					}
				},
				{
					"sampler":2,
					"target":{
						"node":9,
						"path":"scale"
					}
				},
				{
					"sampler":3,
					"target":{
						"node":3,
						"path":"translation"
					}
				},
				{
					"sampler":4,
					"target":{
						"node":3,
						"path":"rotation"
					}
				},
				{
					"sampler":5,
					"target":{
						"node":3,
						"path":"scale"
					}
				},
				{
					"sampler":6,
					"target":{
						"node":2,
						"path":"translation"
					}
				},
				{
					"sampler":7,
					"target":{
						"node":2,
						"path":"rotation"
					}
				},
				{
					"sampler":8,
					"target":{
						"node":2,
						"path":"scale"
					}
				},
				{
					"sampler":9,
					"target":{
						"node":1,
						"path":"translation"
					}
				},
				{
					"sampler":10,
					"target":{
						"node":1,
						"path":"rotation"
					}
				},
				{
					"sampler":11,
					"target":{
						"node":1,
						"path":"scale"
					}
				},
				{
					"sampler":12,
					"target":{
						"node":0,
						"path":"translation"
					}
				},
				{
					"sampler":13,
					"target":{
						"node":0,
						"path":"rotation"
					}
				},
				{
					"sampler":14,
					"target":{
						"node":0,
						"path":"scale"
					}
				},
				{
					"sampler":15,
					"target":{
						"node":7,
						"path":"translation"
					}
				},
				{
					"sampler":16,
					"target":{
						"node":7,
						"path":"rotation"
					}
				},
				{
					"sampler":17,
					"target":{
						"node":7,
						"path":"scale"
					}
				},
				{
					"sampler":18,
					"target":{
						"node":6,
						"path":"translation"
					}
				},
				{
					"sampler":19,
					"target":{
						"node":6,
						"path":"rotation"
					}
				},
				{
					"sampler":20,
					"target":{
						"node":6,
						"path":"scale"
					}
				},
				{
					"sampler":21,
					"target":{
						"node":5,
						"path":"translation"
					}
				},
				{
					"sampler":22,
					"target":{
						"node":5,
						"path":"rotation"
					}
				},
				{
					"sampler":23,
					"target":{
						"node":5,
						"path":"scale"
					}
				},
				{
					"sampler":24,
					"target":{
						"node":4,
						"path":"translation"
					}
				},
				{
					"sampler":25,
					"target":{
						"node":4,
						"path":"rotation"
					}
				},
				{
					"sampler":26,
					"target":{
						"node":4,
						"path":"scale"
					}
				},
				{
					"sampler":27,
					"target":{
						"node":8,
						"path":"translation"
					}
				},
				{
					"sampler":28,
					"target":{
						"node":8,
						"path":"rotation"
					}
				},
				{
					"sampler":29,
					"target":{
						"node":8,
						"path":"scale"
					}
				},
				{
					"sampler":30,
					"target":{
						"node":13,
						"path":"translation"
					}
				},
				{
					"sampler":31,
					"target":{
						"node":13,
						"path":"rotation"
					}
				},
				{
					"sampler":32,
					"target":{
						"node":13,
						"path":"scale"
					}
				},
				{
					"sampler":33,
					"target":{
						"node":12,
						"path":"translation"
					}
				},
				{
					"sampler":34,
					"target":{
						"node":12,
						"path":"rotation"
					}
				},
				{
					"sampler":35,
					"target":{
						"node":12,
						"path":"scale"
					}
				},
				{
					"sampler":36,
					"target":{
						"node":11,
						"path":"translation"
					}
				},
				{
					"sampler":37,
					"target":{
						"node":11,
						"path":"rotation"
					}
				},
				{
					"sampler":38,
					"target":{
						"node":11,
						"path":"scale"
					}
				},
				{
					"sampler":39,
					"target":{
						"node":10,
						"path":"translation"
					}
				},
				{
					"sampler":40,
					"target":{
						"node":10,
						"path":"rotation"
					}
				},
				{
					"sampler":41,
					"target":{
						"node":10,
						"path":"scale"
					}
				},
				{
					"sampler":42,
					"target":{
						"node":17,
						"path":"translation"
					}
				},
				{
					"sampler":43,
					"target":{
						"node":17,
						"path":"rotation"
					}
				},
				{
					"sampler":44,
					"target":{
						"node":17,
						"path":"scale"
					}
				},
				{
					"sampler":45,
					"target":{
						"node":16,
						"path":"translation"
					}
				},
				{
					"sampler":46,
					"target":{
						"node":16,
						"path":"rotation"
					}
				},
				{
					"sampler":47,
					"target":{
						"node":16,
						"path":"scale"
					}
				},
				{
					"sampler":48,
					"target":{
						"node":15,
						"path":"translation"
					}
				},
				{
					"sampler":49,
					"target":{
						"node":15,
						"path":"rotation"
					}
				},
				{
					"sampler":50,
					"target":{
						"node":15,
						"path":"scale"
					}
				},
				{
					"sampler":51,
					"target":{
						"node":14,
						"path":"translation"
					}
				},
				{
					"sampler":52,
					"target":{
						"node":14,
						"path":"rotation"
					}
				},
				{
					"sampler":53,
					"target":{
						"node":14,
						"path":"scale"
					}
				}
			],
			"name":"Attack",
			"samplers":[
				{
					"input":7,
					"interpolation":"STEP",
					"output":8
				},
				{
					"input":7,
					"interpolation":"STEP",
					"output":9
				},
				{
					"input":7,
					"interpolation":"STEP",
					"output":10
				},
				{
					"input":7,
					"interpolation":"STEP",
					"output":11
				},
				{
					"input":7,
					"interpolation":"STEP",
					"output":12
				},
				{
					"input":7,
					"interpolation":"STEP",
					"output":13
				},
				{
					"input":7,
					"interpolation":"STEP",
					"output":14
				},
				{
					"input":15,
					"interpolation":"LINEAR",
					"output":16
				},
				{
					"input":7,
					"interpolation":"STEP",
					"output":17
				},
				{
					"input":7,
					"interpolation":"LINEAR",
					"output":18
				},
				{
					"input":15,
					"interpolation":"LINEAR",
					"output":19
				},
				{
					"input":7,
					"interpolation":"LINEAR",
					"output":20
				},
				{
					"input":7,
					"interpolation":"LINEAR",
					"output":21
				},
				{
					"input":15,
					"interpolation":"LINEAR",
					"output":22
				},
				{
					"input":7,
					"interpolation":"LINEAR",
					"output":23
				},
				{
					"input":7,
					"interpolation":"STEP",
					"output":24
				},
				{
					"input":7,
					"interpolation":"STEP",
					"output":25
				},
				{
					"input":7,
					"interpolation":"STEP",
					"output":26
				},
				{
					"input":7,
					"interpolation":"STEP",
					"output":27
				},
				{
					"input":15,
					"interpolation":"LINEAR",
					"output":28
				},
				{
					"input":7,
					"interpolation":"STEP",
					"output":29
				},
				{
					"input":7,
					"interpolation":"LINEAR",
					"output":30
				},
				{
					"input":7,
					"interpolation":"LINEAR",
					"output":31
				},
				{
					"input":7,
					"interpolation":"STEP",
					"output":32
				},
				{
					"input":7,
					"interpolation":"LINEAR",
					"output":33
				},
				{
					"input":7,
					"interpolation":"LINEAR",
					"output":34
				},
				{
					"input":7,
					"interpolation":"STEP",
					"output":35
				},
				{
					"input":7,
					"interpolation":"STEP",
					"output":36
				},
				{
					"input":7,
					"interpolation":"STEP",
					"output":37
				},
				{
					"input":7,
					"interpolation":"STEP",
					"output":38
				},
				{
					"input":7,
					"interpolation":"STEP",
					"output":8
				},
				{
					"input":7,
					"interpolation":"STEP",
					"output":39
				},
				{
					"input":7,
					"interpolation":"STEP",
					"output":40
				},
				{
					"input":7,
					"interpolation":"STEP",
					"output":41
				},
				{
					"input":7,
					"interpolation":"STEP",
					"output":42
				},
				{
					"input":7,
					"interpolation":"STEP",
					"output":43
				},
				{
					"input":7,
					"interpolation":"STEP",
					"output":44
				},
				{
					"input":7,
					"interpolation":"STEP",
					"output":45
				},
				{
					"input":7,
					"interpolation":"STEP",
					"output":46
				},
				{
					"input":7,
					"interpolation":"STEP",
					"output":47
				},
				{
					"input":7,
					"interpolation":"STEP",
					"output":48
				},
				{
					"input":7,
					"interpolation":"STEP",
					"output":49
				},
				{
					"input":7,
					"interpolation":"STEP",
					"output":8
				},
				{
					"input":7,
					"interpolation":"STEP",
					"output":50
				},
				{
					"input":7,
					"interpolation":"STEP",
					"output":51
				},
				{
					"input":7,
					"interpolation":"STEP",
					"output":52
				},
				{
					"input":7,
					"interpolation":"STEP",
					"output":53
				},
				{
					"input":7,
					"interpolation":"STEP",
					"output":54
				},
				{
					"input":7,
					"interpolation":"STEP",
					"output":55
				},
				{
					"input":7,
					"interpolation":"STEP",
					"output":56
				},
				{
					"input":7,
					"interpolation":"STEP",
					"output":57
				},
				{
					"input":7,
					"interpolation":"STEP",
					"output":58
				},
				{
					"input":7,
					"interpolation":"STEP",
					"output":59
				},
				{
					"input":7,
					"interpolation":"STEP",
					"output":60
				}
			]
		},
		{
			"channels":[
				{
					"sampler":0,
					"target":{
						"node":9,
						"path":"translation"
					}
				},
				{
					"sampler":1,
					"target":{
						"node":9,
						"path":"rotation"
					}
				},
				{
					"sampler":2,
					"target":{
						"node":9,
						"path":"scale"
					}
				},
				{
					"sampler":3,
					"target":{
						"node":3,
						"path":"translation"
					}
				},
				{
					"sampler":4,
					"target":{
						"node":3,
						"path":"rotation"
					}
				},
				{
					"sampler":5,
					"target":{
						"node":3,
						"path":"scale"
					}
				},
				{
					"sampler":6,
					"target":{
						"node":2,
						"path":"translation"
					}
				},
				{
					"sampler":7,
					"target":{
						"node":2,
						"path":"rotation"
					}
				},
				{
					"sampler":8,
					"target":{
						"node":2,
						"path":"scale"
					}
				},
				{
					"sampler":9,
					"target":{
						"node":1,
						"path":"translation"
					}
				},
				{
					"sampler":10,
					"target":{
						"node":1,
						"path":"rotation"
					}
				},
				{
					"sampler":11,
					"target":{
						"node":1,
						"path":"scale"
					}
				},
				{
					"sampler":12,
					"target":{
						"node":0,
						"path":"translation"
					}
				},
				{
					"sampler":13,
					"target":{
						"node":0,
						"path":"rotation"
					}
				},
				{
					"sampler":14,
					"target":{
						"node":0,
						"path":"scale"
					}
				},
				{
					"sampler":15,
					"target":{
						"node":7,
						"path":"translation"
					}
				},
				{
					"sampler":16,
					"target":{
						"node":7,
						"path":"rotation"
					}
				},
				{
					"sampler":17,
					"target":{
						"node":7,
						"path":"scale"
					}
				},
				{
					"sampler":18,
					"target":{
						"node":6,
						"path":"translation"
					}
				},
				{
					"sampler":19,
					"target":{
						"node":6,
						"path":"rotation"
					}
				},
				{
					"sampler":20,
					"target":{
						"node":6,
						"path":"scale"
					}
				},
				{
					"sampler":21,
					"target":{
						"node":5,
						"path":"translation"
					}
				},
				{
					"sampler":22,
					"target":{
						"node":5,
						"path":"rotation"
					}
				},
				{
					"sampler":23,
					"target":{
						"node":5,
						"path":"scale"
					}
				},
				{
					"sampler":24,
					"target":{
						"node":4,
						"path":"translation"
					}
				},
				{
					"sampler":25,
					"target":{
						"node":4,
						"path":"rotation"
					}
				},
				{
					"sampler":26,
					"target":{
						"node":4,
						"path":"scale"
					}
				},
				{
					"sampler":27,
					"target":{
						"node":8,
						"path":"translation"
					}
				},
				{
					"sampler":28,
					"target":{
						"node":8,
						"path":"rotation"
					}
				},
				{
					"sampler":29,
					"target":{
						"node":8,
						"path":"scale"
					}
				},
				{
					"sampler":30,
					"target":{
						"node":13,
						"path":"translation"
					}
				},
				{
					"sampler":31,
					"target":{
						"node":13,
						"path":"rotation"
					}
				},
				{
					"sampler":32,
					"target":{
						"node":13,
						"path":"scale"
					}
				},
				{
					"sampler":33,
					"target":{
						"node":12,
						"path":"translation"
					}
				},
				{
					"sampler":34,
					"target":{
						"node":12,
						"path":"rotation"
					}
				},
				{
					"sampler":35,
					"target":{
						"node":12,
						"path":"scale"
					}
				},
				{
					"sampler":36,
					"target":{
						"node":11,
						"path":"translation"
					}
				},
				{
					"sampler":37,
					"target":{
						"node":11,
						"path":"rotation"
					}
				},
				{
					"sampler":38,
					"target":{
						"node":11,
						"path":"scale"
					}
				},
				{
					"sampler":39,
					"target":{
						"node":10,
						"path":"translation"
					}
				},
				{
					"sampler":40,
					"target":{
						"node":10,
						"path":"rotation"
					}
				},
				{
					"sampler":41,
					"target":{
						"node":10,
						"path":"scale"
					}
				},
				{
					"sampler":42,
					"target":{
						"node":17,
						"path":"translation"
					}
				},
				{
					"sampler":43,
					"target":{
						"node":17,
						"path":"rotation"
					}
				},
				{
					"sampler":44,
					"target":{
						"node":17,
						"path":"scale"
					}
				},
				{
					"sampler":45,
					"target":{
						"node":16,
						"path":"translation"
					}
				},
				{
					"sampler":46,
					"target":{
						"node":16,
						"path":"rotation"
					}
				},
				{
					"sampler":47,
					"target":{
						"node":16,
						"path":"scale"
					}
				},
				{
					"sampler":48,
					"target":{
						"node":15,
						"path":"translation"
					}
				},
				{
					"sampler":49,
					"target":{
						"node":15,
						"path":"rotation"
					}
				},
				{
					"sampler":50,
					"target":{
						"node":15,
						"path":"scale"
					}
				},
				{
					"sampler":51,
					"target":{
						"node":14,
						"path":"translation"
					}
				},
				{
					"sampler":52,
					"target":{
						"node":14,
						"path":"rotation"
					}
				},
				{
					"sampler":53,
					"target":{
						"node":14,
						"path":"scale"
					}
				},
				{
					"sampler":0,
					"target":{
						"node":9,
						"path":"translation"
					}
				},
				{
					"sampler":1,
					"target":{
						"node":9,
						"path":"rotation"
					}
				},
				{
					"sampler":2,
					"target":{
						"node":9,
						"path":"scale"
					}
				},
				{
					"sampler":3,
					"target":{
						"node":3,
						"path":"translation"
					}
				},
				{
					"sampler":4,
					"target":{
						"node":3,
						"path":"rotation"
					}
				},
				{
					"sampler":5,
					"target":{
						"node":3,
						"path":"scale"
					}
				},
				{
					"sampler":6,
					"target":{
						"node":2,
						"path":"translation"
					}
				},
				{
					"sampler":7,
					"target":{
						"node":2,
						"path":"rotation"
					}
				},
				{
					"sampler":8,
					"target":{
						"node":2,
						"path":"scale"
					}
				},
				{
					"sampler":9,
					"target":{
						"node":1,
						"path":"translation"
					}
				},
				{
					"sampler":10,
					"target":{
						"node":1,
						"path":"rotation"
					}
				},
				{
					"sampler":11,
					"target":{
						"node":1,
						"path":"scale"
					}
				},
				{
					"sampler":12,
					"target":{
						"node":0,
						"path":"translation"
					}
				},
				{
					"sampler":13,
					"target":{
						"node":0,
						"path":"rotation"
					}
				},
				{
					"sampler":14,
					"target":{
						"node":0,
						"path":"scale"
					}
				},
				{
					"sampler":15,
					"target":{
						"node":7,
						"path":"translation"
					}
				},
				{
					"sampler":16,
					"target":{
						"node":7,
						"path":"rotation"
					}
				},
				{
					"sampler":17,
					"target":{
						"node":7,
						"path":"scale"
					}
				},
				{
					"sampler":18,
					"target":{
						"node":6,
						"path":"translation"
					}
				},
				{
					"sampler":19,
					"target":{
						"node":6,
						"path":"rotation"
					}
				},
				{
					"sampler":20,
					"target":{
						"node":6,
						"path":"scale"
					}
				},
				{
					"sampler":21,
					"target":{
						"node":5,
						"path":"translation"
					}
				},
				{
					"sampler":22,
					"target":{
						"node":5,
						"path":"rotation"
					}
				},
				{
					"sampler":23,
					"target":{
						"node":5,
						"path":"scale"
					}
				},
				{
					"sampler":24,
					"target":{
						"node":4,
						"path":"translation"
					}
				},
				{
					"sampler":25,
					"target":{
						"node":4,
						"path":"rotation"
					}
				},
				{
					"sampler":26,
					"target":{
						"node":4,
						"path":"scale"
					}
				},
				{
					"sampler":27,
					"target":{
						"node":8,
						"path":"translation"
					}
				},
				{
					"sampler":28,
					"target":{
						"node":8,
						"path":"rotation"
					}
				},
				{
					"sampler":29,
					"target":{
						"node":8,
						"path":"scale"
					}
				},
				{
					"sampler":30,
					"target":{
						"node":13,
						"path":"translation"
					}
				},
				{
					"sampler":31,
					"target":{
						"node":13,
						"path":"rotation"
					}
				},
				{
					"sampler":32,
					"target":{
						"node":13,
						"path":"scale"
					}
				},
				{
					"sampler":33,
					"target":{
						"node":12,
						"path":"translation"
					}
				},
				{
					"sampler":34,
					"target":{
						"node":12,
						"path":"rotation"
					}
				},
				{
					"sampler":35,
					"target":{
						"node":12,
						"path":"scale"
					}
				},
				{
					"sampler":36,
					"target":{
						"node":11,
						"path":"translation"
					}
				},
				{
					"sampler":37,
					"target":{
						"node":11,
						"path":"rotation"
					}
				},
				{
					"sampler":38,
					"target":{
						"node":11,
						"path":"scale"
					}
				},
				{
					"sampler":39,
					"target":{
						"node":10,
						"path":"translation"
					}
				},
				{
					"sampler":40,
					"target":{
						"node":10,
						"path":"rotation"
					}
				},
				{
					"sampler":41,
					"target":{
						"node":10,
						"path":"scale"
					}
				},
				{
					"sampler":42,
					"target":{
						"node":17,
						"path":"translation"
					}
				},
				{
					"sampler":43,
					"target":{
						"node":17,
						"path":"rotation"
					}
				},
				{
					"sampler":44,
					"target":{
						"node":17,
						"path":"scale"
					}
				},
				{
					"sampler":45,
					"target":{
						"node":16,
						"path":"translation"
					}
				},
				{
					"sampler":46,
					"target":{
						"node":16,
						"path":"rotation"
					}
				},
				{
					"sampler":47,
					"target":{
						"node":16,
						"path":"scale"
					}
				},
				{
					"sampler":48,
					"target":{
						"node":15,
						"path":"translation"
					}
				},
				{
					"sampler":49,
					"target":{
						"node":15,
						"path":"rotation"
					}
				},
				{
					"sampler":50,
					"target":{
						"node":15,
						"path":"scale"
					}
				},
				{
					"sampler":51,
					"target":{
						"node":14,
						"path":"translation"
					}
				},
				{
					"sampler":52,
					"target":{
						"node":14,
						"path":"rotation"
					}
				},
				{
					"sampler":53,
					"target":{
						"node":14,
						"path":"scale"
					}
				}
			],
			"name":"Die",
			"samplers":[
				{
					"input":61,
					"interpolation":"LINEAR",
					"output":62
				},
				{
					"input":61,
					"interpolation":"LINEAR",
					"output":63
				},
				{
					"input":61,
					"interpolation":"LINEAR",
					"output":64
				},
				{
					"input":61,
					"interpolation":"LINEAR",
					"output":65
				},
				{
					"input":61,
					"interpolation":"LINEAR",
					"output":66
				},
				{
					"input":61,
					"interpolation":"LINEAR",
					"output":67
				},
				{
					"input":61,
					"interpolation":"LINEAR",
					"output":68
				},
				{
					"input":61,
					"interpolation":"LINEAR",
					"output":69
				},
				{
					"input":61,
					"interpolation":"LINEAR",
					"output":70
				},
				{
					"input":61,
					"interpolation":"LINEAR",
					"output":71
				},
				{
					"input":61,
					"interpolation":"LINEAR",
					"output":72
				},
				{
					"input":61,
					"interpolation":"LINEAR",
					"output":73
				},
				{
					"input":61,
					"interpolation":"LINEAR",
					"output":74
				},
				{
					"input":61,
					"interpolation":"LINEAR",
					"output":75
				},
				{
					"input":61,
					"interpolation":"LINEAR",
					"output":76
				},
				{
					"input":61,
					"interpolation":"LINEAR",
					"output":77
				},
				{
					"input":61,
					"interpolation":"LINEAR",
					"output":78
				},
				{
					"input":61,
					"interpolation":"LINEAR",
					"output":79
				},
				{
					"input":61,
					"interpolation":"LINEAR",
					"output":80
				},
				{
					"input":61,
					"interpolation":"LINEAR",
					"output":81
				},
				{
					"input":61,
					"interpolation":"LINEAR",
					"output":82
				},
				{
					"input":61,
					"interpolation":"LINEAR",
					"output":83
				},
				{
					"input":61,
					"interpolation":"LINEAR",
					"output":84
				},
				{
					"input":61,
					"interpolation":"LINEAR",
					"output":85
				},
				{
					"input":61,
					"interpolation":"LINEAR",
					"output":86
				},
				{
					"input":61,
					"interpolation":"LINEAR",
					"output":87
				},
				{
					"input":61,
					"interpolation":"LINEAR",
					"output":88
				},
				{
					"input":61,
					"interpolation":"LINEAR",
					"output":89
				},
				{
					"input":61,
					"interpolation":"LINEAR",
					"output":90
				},
				{
					"input":61,
					"interpolation":"LINEAR",
					"output":91
				},
				{
					"input":61,
					"interpolation":"LINEAR",
					"output":62
				},
				{
					"input":61,
					"interpolation":"LINEAR",
					"output":92
				},
				{
					"input":61,
					"interpolation":"LINEAR",
					"output":93
				},
				{
					"input":61,
					"interpolation":"LINEAR",
					"output":94
				},
				{
					"input":61,
					"interpolation":"LINEAR",
					"output":95
				},
				{
					"input":61,
					"interpolation":"LINEAR",
					"output":96
				},
				{
					"input":61,
					"interpolation":"LINEAR",
					"output":97
				},
				{
					"input":61,
					"interpolation":"LINEAR",
					"output":98
				},
				{
					"input":61,
					"interpolation":"LINEAR",
					"output":99
				},
				{
					"input":61,
					"interpolation":"LINEAR",
					"output":100
				},
				{
					"input":61,
					"interpolation":"LINEAR",
					"output":101
				},
				{
					"input":61,
					"interpolation":"LINEAR",
					"output":102
				},
				{
					"input":61,
					"interpolation":"LINEAR",
					"output":62
				},
				{
					"input":61,
					"interpolation":"LINEAR",
					"output":103
				},
				{
					"input":61,
					"interpolation":"LINEAR",
					"output":104
				},
				{
					"input":61,
					"interpolation":"LINEAR",
					"output":105
				},
				{
					"input":61,
					"interpolation":"LINEAR",
					"output":106
				},
				{
					"input":61,
					"interpolation":"LINEAR",
					"output":107
				},
				{
					"input":61,
					"interpolation":"LINEAR",
					"output":108
				},
				{
					"input":61,
					"interpolation":"LINEAR",
					"output":109
				},
				{
					"input":61,
					"interpolation":"LINEAR",
					"output":110
				},
				{
					"input":61,
					"interpolation":"LINEAR",
					"output":111
				},
				{
					"input":61,
					"interpolation":"LINEAR",
					"output":112
				},
				{
					"input":61,
					"interpolation":"LINEAR",
					"output":73
				}
			]
		},
		{
			"channels":[
				{
					"sampler":0,
					"target":{
						"node":9,
						"path":"translation"
					}
				},
				{
					"sampler":1,
					"target":{
						"node":9,
						"path":"rotation"
					}
				},
				{
					"sampler":2,
					"target":{
						"node":9,
						"path":"scale"
					}
				},
				{
					"sampler":3,
					"target":{
						"node":3,
						"path":"translation"
					}
				},
				{
					"sampler":4,
					"target":{
						"node":3,
						"path":"rotation"
					}
				},
				{
					"sampler":5,
					"target":{
						"node":3,
						"path":"scale"
					}
				},
				{
					"sampler":6,
					"target":{
						"node":2,
						"path":"translation"
					}
				},
				{
					"sampler":7,
					"target":{
						"node":2,
						"path":"rotation"
					}
				},
				{
					"sampler":8,
					"target":{
						"node":2,
						"path":"scale"
					}
				},
				{
					"sampler":9,
					"target":{
						"node":1,
						"path":"translation"
					}
				},
				{
					"sampler":10,
					"target":{
						"node":1,
						"path":"rotation"
					}
				},
				{
					"sampler":11,
					"target":{
						"node":1,
						"path":"scale"
					}
				},
				{
					"sampler":12,
					"target":{
						"node":0,
						"path":"translation"
					}
				},
				{
					"sampler":13,
					"target":{
						"node":0,
						"path":"rotation"
					}
				},
				{
					"sampler":14,
					"target":{
						"node":0,
						"path":"scale"
					}
				},
				{
					"sampler":15,
					"target":{
						"node":7,
						"path":"translation"
					}
				},
				{
					"sampler":16,
					"target":{
						"node":7,
						"path":"rotation"
					}
				},
				{
					"sampler":17,
					"target":{
						"node":7,
						"path":"scale"
					}
				},
				{
					"sampler":18,
					"target":{
						"node":6,
						"path":"translation"
					}
				},
				{
					"sampler":19,
					"target":{
						"node":6,
						"path":"rotation"
					}
				},
				{
					"sampler":20,
					"target":{
						"node":6,
						"path":"scale"
					}
				},
				{
					"sampler":21,
					"target":{
						"node":5,
						"path":"translation"
					}
				},
				{
					"sampler":22,
					"target":{
						"node":5,
						"path":"rotation"
					}
				},
				{
					"sampler":23,
					"target":{
						"node":5,
						"path":"scale"
					}
				},
				{
					"sampler":24,
					"target":{
						"node":4,
						"path":"translation"
					}
				},
				{
					"sampler":25,
					"target":{
						"node":4,
						"path":"rotation"
					}
				},
				{
					"sampler":26,
					"target":{
						"node":4,
						"path":"scale"
					}
				},
				{
					"sampler":27,
					"target":{
						"node":8,
						"path":"translation"
					}
				},
				{
					"sampler":28,
					"target":{
						"node":8,
						"path":"rotation"
					}
				},
				{
					"sampler":29,
					"target":{
						"node":8,
						"path":"scale"
					}
				},
				{
					"sampler":30,
					"target":{
						"node":13,
						"path":"translation"
					}
				},
				{
					"sampler":31,
					"target":{
						"node":13,
						"path":"rotation"
					}
				},
				{
					"sampler":32,
					"target":{
						"node":13,
						"path":"scale"
					}
				},
				{
					"sampler":33,
					"target":{
						"node":12,
						"path":"translation"
					}
				},
				{
					"sampler":34,
					"target":{
						"node":12,
						"path":"rotation"
					}
				},
				{
					"sampler":35,
					"target":{
						"node":12,
						"path":"scale"
					}
				},
				{
					"sampler":36,
					"target":{
						"node":11,
						"path":"translation"
					}
				},
				{
					"sampler":37,
					"target":{
						"node":11,
						"path":"rotation"
					}
				},
				{
					"sampler":38,
					"target":{
						"node":11,
						"path":"scale"
					}
				},
				{
					"sampler":39,
					"target":{
						"node":10,
						"path":"translation"
					}
				},
				{
					"sampler":40,
					"target":{
						"node":10,
						"path":"rotation"
					}
				},
				{
					"sampler":41,
					"target":{
						"node":10,
						"path":"scale"
					}
				},
				{
					"sampler":42,
					"target":{
						"node":17,
						"path":"translation"
					}
				},
				{
					"sampler":43,
					"target":{
						"node":17,
						"path":"rotation"
					}
				},
				{
					"sampler":44,
					"target":{
						"node":17,
						"path":"scale"
					}
				},
				{
					"sampler":45,
					"target":{
						"node":16,
						"path":"translation"
					}
				},
				{
					"sampler":46,
					"target":{
						"node":16,
						"path":"rotation"
					}
				},
				{
					"sampler":47,
					"target":{
						"node":16,
						"path":"scale"
					}
				},
				{
					"sampler":48,
					"target":{
						"node":15,
						"path":"translation"
					}
				},
				{
					"sampler":49,
					"target":{
						"node":15,
						"path":"rotation"
					}
				},
				{
					"sampler":50,
					"target":{
						"node":15,
						"path":"scale"
					}
				},
				{
					"sampler":51,
					"target":{
						"node":14,
						"path":"translation"
					}
				},
				{
					"sampler":52,
					"target":{
						"node":14,
						"path":"rotation"
					}
				},
				{
					"sampler":53,
					"target":{
						"node":14,
						"path":"scale"
					}
				},
				{
					"sampler":0,
					"target":{
						"node":9,
						"path":"translation"
					}
				},
				{
					"sampler":1,
					"target":{
						"node":9,
						"path":"rotation"
					}
				},
				{
					"sampler":2,
					"target":{
						"node":9,
						"path":"scale"
					}
				},
				{
					"sampler":3,
					"target":{
						"node":3,
						"path":"translation"
					}
				},
				{
					"sampler":4,
					"target":{
						"node":3,
						"path":"rotation"
					}
				},
				{
					"sampler":5,
					"target":{
						"node":3,
						"path":"scale"
					}
				},
				{
					"sampler":6,
					"target":{
						"node":2,
						"path":"translation"
					}
				},
				{
					"sampler":7,
					"target":{
						"node":2,
						"path":"rotation"
					}
				},
				{
					"sampler":8,
					"target":{
						"node":2,
						"path":"scale"
					}
				},
				{
					"sampler":9,
					"target":{
						"node":1,
						"path":"translation"
					}
				},
				{
					"sampler":10,
					"target":{
						"node":1,
						"path":"rotation"
					}
				},
				{
					"sampler":11,
					"target":{
						"node":1,
						"path":"scale"
					}
				},
				{
					"sampler":12,
					"target":{
						"node":0,
						"path":"translation"
					}
				},
				{
					"sampler":13,
					"target":{
						"node":0,
						"path":"rotation"
					}
				},
				{
					"sampler":14,
					"target":{
						"node":0,
						"path":"scale"
					}
				},
				{
					"sampler":15,
					"target":{
						"node":7,
						"path":"translation"
					}
				},
				{
					"sampler":16,
					"target":{
						"node":7,
						"path":"rotation"
					}
				},
				{
					"sampler":17,
					"target":{
						"node":7,
						"path":"scale"
					}
				},
				{
					"sampler":18,
					"target":{
						"node":6,
						"path":"translation"
					}
				},
				{
					"sampler":19,
					"target":{
						"node":6,
						"path":"rotation"
					}
				},
				{
					"sampler":20,
					"target":{
						"node":6,
						"path":"scale"
					}
				},
				{
					"sampler":21,
					"target":{
						"node":5,
						"path":"translation"
					}
				},
				{
					"sampler":22,
					"target":{
						"node":5,
						"path":"rotation"
					}
				},
				{
					"sampler":23,
					"target":{
						"node":5,
						"path":"scale"
					}
				},
				{
					"sampler":24,
					"target":{
						"node":4,
						"path":"translation"
					}
				},
				{
					"sampler":25,
					"target":{
						"node":4,
						"path":"rotation"
					}
				},
				{
					"sampler":26,
					"target":{
						"node":4,
						"path":"scale"
					}
				},
				{
					"sampler":27,
					"target":{
						"node":8,
						"path":"translation"
					}
				},
				{
					"sampler":28,
					"target":{
						"node":8,
						"path":"rotation"
					}
				},
				{
					"sampler":29,
					"target":{
						"node":8,
						"path":"scale"
					}
				},
				{
					"sampler":30,
					"target":{
						"node":13,
						"path":"translation"
					}
				},
				{
					"sampler":31,
					"target":{
						"node":13,
						"path":"rotation"
					}
				},
				{
					"sampler":32,
					"target":{
						"node":13,
						"path":"scale"
					}
				},
				{
					"sampler":33,
					"target":{
						"node":12,
						"path":"translation"
					}
				},
				{
					"sampler":34,
					"target":{
						"node":12,
						"path":"rotation"
					}
				},
				{
					"sampler":35,
					"target":{
						"node":12,
						"path":"scale"
					}
				},
				{
					"sampler":36,
					"target":{
						"node":11,
						"path":"translation"
					}
				},
				{
					"sampler":37,
					"target":{
						"node":11,
						"path":"rotation"
					}
				},
				{
					"sampler":38,
					"target":{
						"node":11,
						"path":"scale"
					}
				},
				{
					"sampler":39,
					"target":{
						"node":10,
						"path":"translation"
					}
				},
				{
					"sampler":40,
					"target":{
						"node":10,
						"path":"rotation"
					}
				},
				{
					"sampler":41,
					"target":{
						"node":10,
						"path":"scale"
					}
				},
				{
					"sampler":42,
					"target":{
						"node":17,
						"path":"translation"
					}
				},
				{
					"sampler":43,
					"target":{
						"node":17,
						"path":"rotation"
					}
				},
				{
					"sampler":44,
					"target":{
						"node":17,
						"path":"scale"
					}
				},
				{
					"sampler":45,
					"target":{
						"node":16,
						"path":"translation"
					}
				},
				{
					"sampler":46,
					"target":{
						"node":16,
						"path":"rotation"
					}
				},
				{
					"sampler":47,
					"target":{
						"node":16,
						"path":"scale"
					}
				},
				{
					"sampler":48,
					"target":{
						"node":15,
						"path":"translation"
					}
				},
				{
					"sampler":49,
					"target":{
						"node":15,
						"path":"rotation"
					}
				},
				{
					"sampler":50,
					"target":{
						"node":15,
						"path":"scale"
					}
				},
				{
					"sampler":51,
					"target":{
						"node":14,
						"path":"translation"
					}
				},
				{
					"sampler":52,
					"target":{
						"node":14,
						"path":"rotation"
					}
				},
				{
					"sampler":53,
					"target":{
						"node":14,
						"path":"scale"
					}
				}
			],
			"name":"Idle",
			"samplers":[
				{
					"input":61,
					"interpolation":"LINEAR",
					"output":62
				},
				{
					"input":61,
					"interpolation":"LINEAR",
					"output":63
				},
				{
					"input":61,
					"interpolation":"LINEAR",
					"output":64
				},
				{
					"input":61,
					"interpolation":"LINEAR",
					"output":65
				},
				{
					"input":61,
					"interpolation":"LINEAR",
					"output":66
				},
				{
					"input":61,
					"interpolation":"LINEAR",
					"output":67
				},
				{
					"input":61,
					"interpolation":"LINEAR",
					"output":68
				},
				{
					"input":61,
					"interpolation":"LINEAR",
					"output":69
				},
				{
					"input":61,
					"interpolation":"LINEAR",
					"output":70
				},
				{
					"input":61,
					"interpolation":"LINEAR",
					"output":71
				},
				{
					"input":61,
					"interpolation":"LINEAR",
					"output":72
				},
				{
					"input":61,
					"interpolation":"LINEAR",
					"output":73
				},
				{
					"input":61,
					"interpolation":"LINEAR",
					"output":74
				},
				{
					"input":61,
					"interpolation":"LINEAR",
					"output":75
				},
				{
					"input":61,
					"interpolation":"LINEAR",
					"output":76
				},
				{
					"input":61,
					"interpolation":"LINEAR",
					"output":77
				},
				{
					"input":61,
					"interpolation":"LINEAR",
					"output":78
				},
				{
					"input":61,
					"interpolation":"LINEAR",
					"output":79
				},
				{
					"input":61,
					"interpolation":"LINEAR",
					"output":80
				},
				{
					"input":61,
					"interpolation":"LINEAR",
					"output":81
				},
				{
					"input":61,
					"interpolation":"LINEAR",
					"output":82
				},
				{
					"input":61,
					"interpolation":"LINEAR",
					"output":83
				},
				{
					"input":61,
					"interpolation":"LINEAR",
					"output":84
				},
				{
					"input":61,
					"interpolation":"LINEAR",
					"output":85
				},
				{
					"input":61,
					"interpolation":"LINEAR",
					"output":86
				},
				{
					"input":61,
					"interpolation":"LINEAR",
					"output":87
				},
				{
					"input":61,
					"interpolation":"LINEAR",
					"output":88
				},
				{
					"input":61,
					"interpolation":"LINEAR",
					"output":89
				},
				{
					"input":61,
					"interpolation":"LINEAR",
					"output":90
				},
				{
					"input":61,
					"interpolation":"LINEAR",
					"output":91
				},
				{
					"input":61,
					"interpolation":"LINEAR",
					"output":62
				},
				{
					"input":61,
					"interpolation":"LINEAR",
					"output":92
				},
				{
					"input":61,
					"interpolation":"LINEAR",
					"output":93
				},
				{
					"input":61,
					"interpolation":"LINEAR",
					"output":94
				},
				{
					"input":61,
					"interpolation":"LINEAR",
					"output":95
				},
				{
					"input":61,
					"interpolation":"LINEAR",
					"output":96
				},
				{
					"input":61,
					"interpolation":"LINEAR",
					"output":97
				},
				{
					"input":61,
					"interpolation":"LINEAR",
					"output":98
				},
				{
					"input":61,
					"interpolation":"LINEAR",
					"output":99
				},
				{
					"input":61,
					"interpolation":"LINEAR",
					"output":100
				},
				{
					"input":61,
					"interpolation":"LINEAR",
					"output":101
				},
				{
					"input":61,
					"interpolation":"LINEAR",
					"output":102
				},
				{
					"input":61,
					"interpolation":"LINEAR",
					"output":62
				},
				{
					"input":61,
					"interpolation":"LINEAR",
					"output":103
				},
				{
					"input":61,
					"interpolation":"LINEAR",
					"output":104
				},
				{
					"input":61,
					"interpolation":"LINEAR",
					"output":105
				},
				{
					"input":61,
					"interpolation":"LINEAR",
					"output":106
				},
				{
					"input":61,
					"interpolation":"LINEAR",
					"output":107
				},
				{
					"input":61,
					"interpolation":"LINEAR",
					"output":108
				},
				{
					"input":61,
					"interpolation":"LINEAR",
					"output":109
				},
				{
					"input":61,
					"interpolation":"LINEAR",
					"output":110
				},
				{
					"input":61,
					"interpolation":"LINEAR",
					"output":111
				},
				{
					"input":61,
					"interpolation":"LINEAR",
					"output":112
				},
				{
					"input":61,
					"interpolation":"LINEAR",
					"output":73
				}
			]
		},
		{
			"channels":[
				{
					"sampler":0,
					"target":{
						"node":9,
						"path":"translation"
					}
				},
				{
					"sampler":1,
					"target":{
						"node":9,
						"path":"rotation"
					}
				},
				{
					"sampler":2,
					"target":{
						"node":9,
						"path":"scale"
					}
				},
				{
					"sampler":3,
					"target":{
						"node":3,
						"path":"translation"
					}
				},
				{
					"sampler":4,
					"target":{
						"node":3,
						"path":"rotation"
					}
				},
				{
					"sampler":5,
					"target":{
						"node":3,
						"path":"scale"
					}
				},
				{
					"sampler":6,
					"target":{
						"node":2,
						"path":"translation"
					}
				},
				{
					"sampler":7,
					"target":{
						"node":2,
						"path":"rotation"
					}
				},
				{
					"sampler":8,
					"target":{
						"node":2,
						"path":"scale"
					}
				},
				{
					"sampler":9,
					"target":{
						"node":1,
						"path":"translation"
					}
				},
				{
					"sampler":10,
					"target":{
						"node":1,
						"path":"rotation"
					}
				},
				{
					"sampler":11,
					"target":{
						"node":1,
						"path":"scale"
					}
				},
				{
					"sampler":12,
					"target":{
						"node":0,
						"path":"translation"
					}
				},
				{
					"sampler":13,
					"target":{
						"node":0,
						"path":"rotation"
					}
				},
				{
					"sampler":14,
					"target":{
						"node":0,
						"path":"scale"
					}
				},
				{
					"sampler":15,
					"target":{
						"node":7,
						"path":"translation"
					}
				},
				{
					"sampler":16,
					"target":{
						"node":7,
						"path":"rotation"
					}
				},
				{
					"sampler":17,
					"target":{
						"node":7,
						"path":"scale"
					}
				},
				{
					"sampler":18,
					"target":{
						"node":6,
						"path":"translation"
					}
				},
				{
					"sampler":19,
					"target":{
						"node":6,
						"path":"rotation"
					}
				},
				{
					"sampler":20,
					"target":{
						"node":6,
						"path":"scale"
					}
				},
				{
					"sampler":21,
					"target":{
						"node":5,
						"path":"translation"
					}
				},
				{
					"sampler":22,
					"target":{
						"node":5,
						"path":"rotation"
					}
				},
				{
					"sampler":23,
					"target":{
						"node":5,
						"path":"scale"
					}
				},
				{
					"sampler":24,
					"target":{
						"node":4,
						"path":"translation"
					}
				},
				{
					"sampler":25,
					"target":{
						"node":4,
						"path":"rotation"
					}
				},
				{
					"sampler":26,
					"target":{
						"node":4,
						"path":"scale"
					}
				},
				{
					"sampler":27,
					"target":{
						"node":8,
						"path":"translation"
					}
				},
				{
					"sampler":28,
					"target":{
						"node":8,
						"path":"rotation"
					}
				},
				{
					"sampler":29,
					"target":{
						"node":8,
						"path":"scale"
					}
				},
				{
					"sampler":30,
					"target":{
						"node":13,
						"path":"translation"
					}
				},
				{
					"sampler":31,
					"target":{
						"node":13,
						"path":"rotation"
					}
				},
				{
					"sampler":32,
					"target":{
						"node":13,
						"path":"scale"
					}
				},
				{
					"sampler":33,
					"target":{
						"node":12,
						"path":"translation"
					}
				},
				{
					"sampler":34,
					"target":{
						"node":12,
						"path":"rotation"
					}
				},
				{
					"sampler":35,
					"target":{
						"node":12,
						"path":"scale"
					}
				},
				{
					"sampler":36,
					"target":{
						"node":11,
						"path":"translation"
					}
				},
				{
					"sampler":37,
					"target":{
						"node":11,
						"path":"rotation"
					}
				},
				{
					"sampler":38,
					"target":{
						"node":11,
						"path":"scale"
					}
				},
				{
					"sampler":39,
					"target":{
						"node":10,
						"path":"translation"
					}
				},
				{
					"sampler":40,
					"target":{
						"node":10,
						"path":"rotation"
					}
				},
				{
					"sampler":41,
					"target":{
						"node":10,
						"path":"scale"
					}
				},
				{
					"sampler":42,
					"target":{
						"node":17,
						"path":"translation"
					}
				},
				{
					"sampler":43,
					"target":{
						"node":17,
						"path":"rotation"
					}
				},
				{
					"sampler":44,
					"target":{
						"node":17,
						"path":"scale"
					}
				},
				{
					"sampler":45,
					"target":{
						"node":16,
						"path":"translation"
					}
				},
				{
					"sampler":46,
					"target":{
						"node":16,
						"path":"rotation"
					}
				},
				{
					"sampler":47,
					"target":{
						"node":16,
						"path":"scale"
					}
				},
				{
					"sampler":48,
					"target":{
						"node":15,
						"path":"translation"
					}
				},
				{
					"sampler":49,
					"target":{
						"node":15,
						"path":"rotation"
					}
				},
				{
					"sampler":50,
					"target":{
						"node":15,
						"path":"scale"
					}
				},
				{
					"sampler":51,
					"target":{
						"node":14,
						"path":"translation"
					}
				},
				{
					"sampler":52,
					"target":{
						"node":14,
						"path":"rotation"
					}
				},
				{
					"sampler":53,
					"target":{
						"node":14,
						"path":"scale"
					}
				}
			],
			"name":"Walk",
			"samplers":[
				{
					"input":113,
					"interpolation":"STEP",
					"output":8
				},
				{
					"input":113,
					"interpolation":"STEP",
					"output":9
				},
				{
					"input":113,
					"interpolation":"STEP",
					"output":10
				},
				{
					"input":113,
					"interpolation":"STEP",
					"output":11
				},
				{
					"input":113,
					"interpolation":"STEP",
					"output":12
				},
				{
					"input":113,
					"interpolation":"STEP",
					"output":13
				},
				{
					"input":113,
					"interpolation":"STEP",
					"output":14
				},
				{
					"input":113,
					"interpolation":"STEP",
					"output":114
				},
				{
					"input":113,
					"interpolation":"STEP",
					"output":115
				},
				{
					"input":113,
					"interpolation":"STEP",
					"output":116
				},
				{
					"input":113,
					"interpolation":"STEP",
					"output":117
				},
				{
					"input":113,
					"interpolation":"STEP",
					"output":60
				},
				{
					"input":113,
					"interpolation":"STEP",
					"output":118
				},
				{
					"input":113,
					"interpolation":"STEP",
					"output":119
				},
				{
					"input":113,
					"interpolation":"STEP",
					"output":120
				},
				{
					"input":113,
					"interpolation":"STEP",
					"output":24
				},
				{
					"input":113,
					"interpolation":"STEP",
					"output":25
				},
				{
					"input":113,
					"interpolation":"STEP",
					"output":26
				},
				{
					"input":113,
					"interpolation":"STEP",
					"output":27
				},
				{
					"input":113,
					"interpolation":"STEP",
					"output":121
				},
				{
					"input":113,
					"interpolation":"STEP",
					"output":122
				},
				{
					"input":113,
					"interpolation":"STEP",
					"output":123
				},
				{
					"input":113,
					"interpolation":"STEP",
					"output":124
				},
				{
					"input":113,
					"interpolation":"STEP",
					"output":125
				},
				{
					"input":113,
					"interpolation":"STEP",
					"output":126
				},
				{
					"input":113,
					"interpolation":"STEP",
					"output":127
				},
				{
					"input":113,
					"interpolation":"STEP",
					"output":128
				},
				{
					"input":113,
					"interpolation":"STEP",
					"output":36
				},
				{
					"input":113,
					"interpolation":"STEP",
					"output":37
				},
				{
					"input":113,
					"interpolation":"STEP",
					"output":38
				},
				{
					"input":113,
					"interpolation":"STEP",
					"output":8
				},
				{
					"input":113,
					"interpolation":"STEP",
					"output":39
				},
				{
					"input":113,
					"interpolation":"STEP",
					"output":40
				},
				{
					"input":113,
					"interpolation":"STEP",
					"output":41
				},
				{
					"input":129,
					"interpolation":"LINEAR",
					"output":130
				},
				{
					"input":113,
					"interpolation":"STEP",
					"output":131
				},
				{
					"input":113,
					"interpolation":"STEP",
					"output":132
				},
				{
					"input":113,
					"interpolation":"STEP",
					"output":133
				},
				{
					"input":113,
					"interpolation":"STEP",
					"output":134
				},
				{
					"input":113,
					"interpolation":"STEP",
					"output":135
				},
				{
					"input":113,
					"interpolation":"STEP",
					"output":136
				},
				{
					"input":113,
					"interpolation":"STEP",
					"output":137
				},
				{
					"input":113,
					"interpolation":"STEP",
					"output":8
				},
				{
					"input":113,
					"interpolation":"STEP",
					"output":50
				},
				{
					"input":113,
					"interpolation":"STEP",
					"output":51
				},
				{
					"input":113,
					"interpolation":"STEP",
					"output":52
				},
				{
					"input":129,
					"interpolation":"LINEAR",
					"output":138
				},
				{
					"input":113,
					"interpolation":"STEP",
					"output":139
				},
				{
					"input":113,
					"interpolation":"STEP",
					"output":140
				},
				{
					"input":113,
					"interpolation":"STEP",
					"output":141
				},
				{
					"input":113,
					"interpolation":"STEP",
					"output":142
				},
				{
					"input":113,
					"interpolation":"STEP",
					"output":143
				},
				{
					"input":113,
					"interpolation":"STEP",
					"output":144
				},
				{
					"input":113,
					"interpolation":"STEP",
					"output":145
				}
			]
		}
	],
	"materials":[
		{
			"name":"tripo_material_8a0280fa-dbec-406c-9cbf-36e1594fd237",
			"normalTexture":{
				"index":0
			},
			"pbrMetallicRoughness":{
				"baseColorTexture":{
					"index":1
				},
				"metallicRoughnessTexture":{
					"index":2
				}
			}
		}
	],
	"meshes":[
		{
			"name":"tripo_mesh_8a0280fa-dbec-406c-9cbf-36e1594fd237",
			"primitives":[
				{
					"attributes":{
						"POSITION":0,
						"NORMAL":1,
						"TEXCOORD_0":2,
						"JOINTS_0":3,
						"WEIGHTS_0":4
					},
					"indices":5,
					"material":0
				}
			]
		}
	],
	"textures":[
		{
			"sampler":0,
			"source":0
		},
		{
			"sampler":0,
			"source":1
		},
		{
			"sampler":0,
			"source":2
		}
	],
	"images":[
		{
			"mimeType":"image/jpeg",
			"name":"NormalGL_8a0280fa-dbec-406c-9cbf-36e1594fd237",
			"uri":"NormalGL_8a0280fa-dbec-406c-9cbf-36e1594fd237.jpg"
		},
		{
			"mimeType":"image/jpeg",
			"name":"Color_8a0280fa-dbec-406c-9cbf-36e1594fd237",
			"uri":"Color_8a0280fa-dbec-406c-9cbf-36e1594fd237.jpg"
		},
		{
			"mimeType":"image/jpeg",
			"name":"ORM_8a0280fa-dbec-406c-9cbf-36e1594fd237",
			"uri":"ORM_8a0280fa-dbec-406c-9cbf-36e1594fd237.jpg"
		}
	],
	"skins":[
		{
			"inverseBindMatrices":6,
			"joints":[
				9,
				3,
				2,
				1,
				0,
				7,
				6,
				5,
				4,
				8,
				13,
				12,
				11,
				10,
				17,
				16,
				15,
				14
			],
			"name":"Armature"
		}
	],
	"accessors":[
		{
			"bufferView":0,
			"componentType":5126,
			"count":7093,
			"max":[
				0.3499843180179596,
				2.767157793045044,
				1.3992387056350708
			],
			"min":[
				-0.3499843180179596,
				-0.040956735610961914,
				-1.3992387056350708
			],
			"type":"VEC3"
		},
		{
			"bufferView":1,
			"componentType":5126,
			"count":7093,
			"type":"VEC3"
		},
		{
			"bufferView":2,
			"componentType":5126,
			"count":7093,
			"type":"VEC2"
		},
		{
			"bufferView":3,
			"componentType":5121,
			"count":7093,
			"type":"VEC4"
		},
		{
			"bufferView":4,
			"componentType":5126,
			"count":7093,
			"type":"VEC4"
		},
		{
			"bufferView":5,
			"componentType":5123,
			"count":29946,
			"type":"SCALAR"
		},
		{
			"bufferView":6,
			"componentType":5126,
			"count":18,
			"type":"MAT4"
		},
		{
			"bufferView":7,
			"componentType":5126,
			"count":2,
			"max":[
				0.4166666666666667
			],
			"min":[
				0
			],
			"type":"SCALAR"
		},
		{
			"bufferView":8,
			"componentType":5126,
			"count":2,
			"type":"VEC3"
		},
		{
			"bufferView":9,
			"componentType":5126,
			"count":2,
			"type":"VEC4"
		},
		{
			"bufferView":10,
			"componentType":5126,
			"count":2,
			"type":"VEC3"
		},
		{
			"bufferView":11,
			"componentType":5126,
			"count":2,
			"type":"VEC3"
		},
		{
			"bufferView":12,
			"componentType":5126,
			"count":2,
			"type":"VEC4"
		},
		{
			"bufferView":13,
			"componentType":5126,
			"count":2,
			"type":"VEC3"
		},
		{
			"bufferView":14,
			"componentType":5126,
			"count":2,
			"type":"VEC3"
		},
		{
			"bufferView":15,
			"componentType":5126,
			"count":11,
			"max":[
				0.4166666666666667
			],
			"min":[
				0
			],
			"type":"SCALAR"
		},
		{
			"bufferView":16,
			"componentType":5126,
			"count":11,
			"type":"VEC4"
		},
		{
			"bufferView":17,
			"componentType":5126,
			"count":2,
			"type":"VEC3"
		},
		{
			"bufferView":18,
			"componentType":5126,
			"count":2,
			"type":"VEC3"
		},
		{
			"bufferView":19,
			"componentType":5126,
			"count":11,
			"type":"VEC4"
		},
		{
			"bufferView":20,
			"componentType":5126,
			"count":2,
			"type":"VEC3"
		},
		{
			"bufferView":21,
			"componentType":5126,
			"count":2,
			"type":"VEC3"
		},
		{
			"bufferView":22,
			"componentType":5126,
			"count":11,
			"type":"VEC4"
		},
		{
			"bufferView":23,
			"componentType":5126,
			"count":2,
			"type":"VEC3"
		},
		{
			"bufferView":24,
			"componentType":5126,
			"count":2,
			"type":"VEC3"
		},
		{
			"bufferView":25,
			"componentType":5126,
			"count":2,
			"type":"VEC4"
		},
		{
			"bufferView":26,
			"componentType":5126,
			"count":2,
			"type":"VEC3"
		},
		{
			"bufferView":27,
			"componentType":5126,
			"count":2,
			"type":"VEC3"
		},
		{
			"bufferView":28,
			"componentType":5126,
			"count":11,
			"type":"VEC4"
		},
		{
			"bufferView":29,
			"componentType":5126,
			"count":2,
			"type":"VEC3"
		},
		{
			"bufferView":30,
			"componentType":5126,
			"count":2,
			"type":"VEC3"
		},
		{
			"bufferView":31,
			"componentType":5126,
			"count":2,
			"type":"VEC4"
		},
		{
			"bufferView":32,
			"componentType":5126,
			"count":2,
			"type":"VEC3"
		},
		{
			"bufferView":33,
			"componentType":5126,
			"count":2,
			"type":"VEC3"
		},
		{
			"bufferView":34,
			"componentType":5126,
			"count":2,
			"type":"VEC4"
		},
		{
			"bufferView":35,
			"componentType":5126,
			"count":2,
			"type":"VEC3"
		},
		{
			"bufferView":36,
			"componentType":5126,
			"count":2,
			"type":"VEC3"
		},
		{
			"bufferView":37,
			"componentType":5126,
			"count":2,
			"type":"VEC4"
		},
		{
			"bufferView":38,
			"componentType":5126,
			"count":2,
			"type":"VEC3"
		},
		{
			"bufferView":39,
			"componentType":5126,
			"count":2,
			"type":"VEC4"
		},
		{
			"bufferView":40,
			"componentType":5126,
			"count":2,
			"type":"VEC3"
		},
		{
			"bufferView":41,
			"componentType":5126,
			"count":2,
			"type":"VEC3"
		},
		{
			"bufferView":42,
			"componentType":5126,
			"count":2,
			"type":"VEC4"
		},
		{
			"bufferView":43,
			"componentType":5126,
			"count":2,
			"type":"VEC3"
		},
		{
			"bufferView":44,
			"componentType":5126,
			"count":2,
			"type":"VEC3"
		},
		{
			"bufferView":45,
			"componentType":5126,
			"count":2,
			"type":"VEC4"
		},
		{
			"bufferView":46,
			"componentType":5126,
			"count":2,
			"type":"VEC3"
		},
		{
			"bufferView":47,
			"componentType":5126,
			"count":2,
			"type":"VEC3"
		},
		{
			"bufferView":48,
			"componentType":5126,
			"count":2,
			"type":"VEC4"
		},
		{
			"bufferView":49,
			"componentType":5126,
			"count":2,
			"type":"VEC3"
		},
		{
			"bufferView":50,
			"componentType":5126,
			"count":2,
			"type":"VEC4"
		},
		{
			"bufferView":51,
			"componentType":5126,
			"count":2,
			"type":"VEC3"
		},
		{
			"bufferView":52,
			"componentType":5126,
			"count":2,
			"type":"VEC3"
		},
		{
			"bufferView":53,
			"componentType":5126,
			"count":2,
			"type":"VEC4"
		},
		{
			"bufferView":54,
			"componentType":5126,
			"count":2,
			"type":"VEC3"
		},
		{
			"bufferView":55,
			"componentType":5126,
			"count":2,
			"type":"VEC3"
		},
		{
			"bufferView":56,
			"componentType":5126,
			"count":2,
			"type":"VEC4"
		},
		{
			"bufferView":57,
			"componentType":5126,
			"count":2,
			"type":"VEC3"
		},
		{
			"bufferView":58,
			"componentType":5126,
			"count":2,
			"type":"VEC3"
		},
		{
			"bufferView":59,
			"componentType":5126,
			"count":2,
			"type":"VEC4"
		},
		{
			"bufferView":60,
			"componentType":5126,
			"count":2,
			"type":"VEC3"
		},
		{
			"bufferView":61,
			"componentType":5126,
			"count":1,
			"max":[
				0.041666666666666664
			],
			"min":[
				0.041666666666666664
			],
			"type":"SCALAR"
		},
		{
			"bufferView":62,
			"componentType":5126,
			"count":1,
			"type":"VEC3"
		},
		{
			"bufferView":63,
			"componentType":5126,
			"count":1,
			"type":"VEC4"
		},
		{
			"bufferView":64,
			"componentType":5126,
			"count":1,
			"type":"VEC3"
		},
		{
			"bufferView":65,
			"componentType":5126,
			"count":1,
			"type":"VEC3"
		},
		{
			"bufferView":66,
			"componentType":5126,
			"count":1,
			"type":"VEC4"
		},
		{
			"bufferView":67,
			"componentType":5126,
			"count":1,
			"type":"VEC3"
		},
		{
			"bufferView":68,
			"componentType":5126,
			"count":1,
			"type":"VEC3"
		},
		{
			"bufferView":69,
			"componentType":5126,
			"count":1,
			"type":"VEC4"
		},
		{
			"bufferView":70,
			"componentType":5126,
			"count":1,
			"type":"VEC3"
		},
		{
			"bufferView":71,
			"componentType":5126,
			"count":1,
			"type":"VEC3"
		},
		{
			"bufferView":72,
			"componentType":5126,
			"count":1,
			"type":"VEC4"
		},
		{
			"bufferView":73,
			"componentType":5126,
			"count":1,
			"type":"VEC3"
		},
		{
			"bufferView":74,
			"componentType":5126,
			"count":1,
			"type":"VEC3"
		},
		{
			"bufferView":75,
			"componentType":5126,
			"count":1,
			"type":"VEC4"
		},
		{
			"bufferView":76,
			"componentType":5126,
			"count":1,
			"type":"VEC3"
		},
		{
			"bufferView":77,
			"componentType":5126,
			"count":1,
			"type":"VEC3"
		},
		{
			"bufferView":78,
			"componentType":5126,
			"count":1,
			"type":"VEC4"
		},
		{
			"bufferView":79,
			"componentType":5126,
			"count":1,
			"type":"VEC3"
		},
		{
			"bufferView":80,
			"componentType":5126,
			"count":1,
			"type":"VEC3"
		},
		{
			"bufferView":81,
			"componentType":5126,
			"count":1,
			"type":"VEC4"
		},
		{
			"bufferView":82,
			"componentType":5126,
			"count":1,
			"type":"VEC3"
		},
		{
			"bufferView":83,
			"componentType":5126,
			"count":1,
			"type":"VEC3"
		},
		{
			"bufferView":84,
			"componentType":5126,
			"count":1,
			"type":"VEC4"
		},
		{
			"bufferView":85,
			"componentType":5126,
			"count":1,
			"type":"VEC3"
		},
		{
			"bufferView":86,
			"componentType":5126,
			"count":1,
			"type":"VEC3"
		},
		{
			"bufferView":87,
			"componentType":5126,
			"count":1,
			"type":"VEC4"
		},
		{
			"bufferView":88,
			"componentType":5126,
			"count":1,
			"type":"VEC3"
		},
		{
			"bufferView":89,
			"componentType":5126,
			"count":1,
			"type":"VEC3"
		},
		{
			"bufferView":90,
			"componentType":5126,
			"count":1,
			"type":"VEC4"
		},
		{
			"bufferView":91,
			"componentType":5126,
			"count":1,
			"type":"VEC3"
		},
		{
			"bufferView":92,
			"componentType":5126,
			"count":1,
			"type":"VEC4"
		},
		{
			"bufferView":93,
			"componentType":5126,
			"count":1,
			"type":"VEC3"
		},
		{
			"bufferView":94,
			"componentType":5126,
			"count":1,
			"type":"VEC3"
		},
		{
			"bufferView":95,
			"componentType":5126,
			"count":1,
			"type":"VEC4"
		},
		{
			"bufferView":96,
			"componentType":5126,
			"count":1,
			"type":"VEC3"
		},
		{
			"bufferView":97,
			"componentType":5126,
			"count":1,
			"type":"VEC3"
		},
		{
			"bufferView":98,
			"componentType":5126,
			"count":1,
			"type":"VEC4"
		},
		{
			"bufferView":99,
			"componentType":5126,
			"count":1,
			"type":"VEC3"
		},
		{
			"bufferView":100,
			"componentType":5126,
			"count":1,
			"type":"VEC3"
		},
		{
			"bufferView":101,
			"componentType":5126,
			"count":1,
			"type":"VEC4"
		},
		{
			"bufferView":102,
			"componentType":5126,
			"count":1,
			"type":"VEC3"
		},
		{
			"bufferView":103,
			"componentType":5126,
			"count":1,
			"type":"VEC4"
		},
		{
			"bufferView":104,
			"componentType":5126,
			"count":1,
			"type":"VEC3"
		},
		{
			"bufferView":105,
			"componentType":5126,
			"count":1,
			"type":"VEC3"
		},
		{
			"bufferView":106,
			"componentType":5126,
			"count":1,
			"type":"VEC4"
		},
		{
			"bufferView":107,
			"componentType":5126,
			"count":1,
			"type":"VEC3"
		},
		{
			"bufferView":108,
			"componentType":5126,
			"count":1,
			"type":"VEC3"
		},
		{
			"bufferView":109,
			"componentType":5126,
			"count":1,
			"type":"VEC4"
		},
		{
			"bufferView":110,
			"componentType":5126,
			"count":1,
			"type":"VEC3"
		},
		{
			"bufferView":111,
			"componentType":5126,
			"count":1,
			"type":"VEC3"
		},
		{
			"bufferView":112,
			"componentType":5126,
			"count":1,
			"type":"VEC4"
		},
		{
			"bufferView":113,
			"componentType":5126,
			"count":2,
			"max":[
				0.4166666666666667
			],
			"min":[
				0.041666666666666664
			],
			"type":"SCALAR"
		},
		{
			"bufferView":114,
			"componentType":5126,
			"count":2,
			"type":"VEC4"
		},
		{
			"bufferView":115,
			"componentType":5126,
			"count":2,
			"type":"VEC3"
		},
		{
			"bufferView":116,
			"componentType":5126,
			"count":2,
			"type":"VEC3"
		},
		{
			"bufferView":117,
			"componentType":5126,
			"count":2,
			"type":"VEC4"
		},
		{
			"bufferView":118,
			"componentType":5126,
			"count":2,
			"type":"VEC3"
		},
		{
			"bufferView":119,
			"componentType":5126,
			"count":2,
			"type":"VEC4"
		},
		{
			"bufferView":120,
			"componentType":5126,
			"count":2,
			"type":"VEC3"
		},
		{
			"bufferView":121,
			"componentType":5126,
			"count":2,
			"type":"VEC4"
		},
		{
			"bufferView":122,
			"componentType":5126,
			"count":2,
			"type":"VEC3"
		},
		{
			"bufferView":123,
			"componentType":5126,
			"count":2,
			"type":"VEC3"
		},
		{
			"bufferView":124,
			"componentType":5126,
			"count":2,
			"type":"VEC4"
		},
		{
			"bufferView":125,
			"componentType":5126,
			"count":2,
			"type":"VEC3"
		},
		{
			"bufferView":126,
			"componentType":5126,
			"count":2,
			"type":"VEC3"
		},
		{
			"bufferView":127,
			"componentType":5126,
			"count":2,
			"type":"VEC4"
		},
		{
			"bufferView":128,
			"componentType":5126,
			"count":2,
			"type":"VEC3"
		},
		{
			"bufferView":129,
			"componentType":5126,
			"count":10,
			"max":[
				0.4166666666666667
			],
			"min":[
				0.041666666666666664
			],
			"type":"SCALAR"
		},
		{
			"bufferView":130,
			"componentType":5126,
			"count":10,
			"type":"VEC4"
		},
		{
			"bufferView":131,
			"componentType":5126,
			"count":2,
			"type":"VEC3"
		},
		{
			"bufferView":132,
			"componentType":5126,
			"count":2,
			"type":"VEC3"
		},
		{
			"bufferView":133,
			"componentType":5126,
			"count":2,
			"type":"VEC4"
		},
		{
			"bufferView":134,
			"componentType":5126,
			"count":2,
			"type":"VEC3"
		},
		{
			"bufferView":135,
			"componentType":5126,
			"count":2,
			"type":"VEC3"
		},
		{
			"bufferView":136,
			"componentType":5126,
			"count":2,
			"type":"VEC4"
		},
		{
			"bufferView":137,
			"componentType":5126,
			"count":2,
			"type":"VEC3"
		},
		{
			"bufferView":138,
			"componentType":5126,
			"count":10,
			"type":"VEC4"
		},
		{
			"bufferView":139,
			"componentType":5126,
			"count":2,
			"type":"VEC3"
		},
		{
			"bufferView":140,
			"componentType":5126,
			"count":2,
			"type":"VEC3"
		},
		{
			"bufferView":141,
			"componentType":5126,
			"count":2,
			"type":"VEC4"
		},
		{
			"bufferView":142,
			"componentType":5126,
			"count":2,
			"type":"VEC3"
		},
		{
			"bufferView":143,
			"componentType":5126,
			"count":2,
			"type":"VEC3"
		},
		{
			"bufferView":144,
			"componentType":5126,
			"count":2,
			"type":"VEC4"
		},
		{
			"bufferView":145,
			"componentType":5126,
			"count":2,
			"type":"VEC3"
		}
	],
	"bufferViews":[
		{
			"buffer":0,
			"byteLength":85116,
			"byteOffset":0,
			"target":34962
		},
		{
			"buffer":0,
			"byteLength":85116,
			"byteOffset":85116,
			"target":34962
		},
		{
			"buffer":0,
			"byteLength":56744,
			"byteOffset":170232,
			"target":34962
		},
		{
			"buffer":0,
			"byteLength":28372,
			"byteOffset":226976,
			"target":34962
		},
		{
			"buffer":0,
			"byteLength":113488,
			"byteOffset":255348,
			"target":34962
		},
		{
			"buffer":0,
			"byteLength":59892,
			"byteOffset":368836,
			"target":34963
		},
		{
			"buffer":0,
			"byteLength":1152,
			"byteOffset":428728
		},
		{
			"buffer":0,
			"byteLength":8,
			"byteOffset":429880
		},
		{
			"buffer":0,
			"byteLength":24,
			"byteOffset":429888
		},
		{
			"buffer":0,
			"byteLength":32,
			"byteOffset":429912
		},
		{
			"buffer":0,
			"byteLength":24,
			"byteOffset":429944
		},
		{
			"buffer":0,
			"byteLength":24,
			"byteOffset":429968
		},
		{
			"buffer":0,
			"byteLength":32,
			"byteOffset":429992
		},
		{
			"buffer":0,
			"byteLength":24,
			"byteOffset":430024
		},
		{
			"buffer":0,
			"byteLength":24,
			"byteOffset":430048
		},
		{
			"buffer":0,
			"byteLength":44,
			"byteOffset":430072
		},
		{
			"buffer":0,
			"byteLength":176,
			"byteOffset":430116
		},
		{
			"buffer":0,
			"byteLength":24,
			"byteOffset":430292
		},
		{
			"buffer":0,
			"byteLength":24,
			"byteOffset":430316
		},
		{
			"buffer":0,
			"byteLength":176,
			"byteOffset":430340
		},
		{
			"buffer":0,
			"byteLength":24,
			"byteOffset":430516
		},
		{
			"buffer":0,
			"byteLength":24,
			"byteOffset":430540
		},
		{
			"buffer":0,
			"byteLength":176,
			"byteOffset":430564
		},
		{
			"buffer":0,
			"byteLength":24,
			"byteOffset":430740
		},
		{
			"buffer":0,
			"byteLength":24,
			"byteOffset":430764
		},
		{
			"buffer":0,
			"byteLength":32,
			"byteOffset":430788
		},
		{
			"buffer":0,
			"byteLength":24,
			"byteOffset":430820
		},
		{
			"buffer":0,
			"byteLength":24,
			"byteOffset":430844
		},
		{
			"buffer":0,
			"byteLength":176,
			"byteOffset":430868
		},
		{
			"buffer":0,
			"byteLength":24,
			"byteOffset":431044
		},
		{
			"buffer":0,
			"byteLength":24,
			"byteOffset":431068
		},
		{
			"buffer":0,
			"byteLength":32,
			"byteOffset":431092
		},
		{
			"buffer":0,
			"byteLength":24,
			"byteOffset":431124
		},
		{
			"buffer":0,
			"byteLength":24,
			"byteOffset":431148
		},
		{
			"buffer":0,
			"byteLength":32,
			"byteOffset":431172
		},
		{
			"buffer":0,
			"byteLength":24,
			"byteOffset":431204
		},
		{
			"buffer":0,
			"byteLength":24,
			"byteOffset":431228
		},
		{
			"buffer":0,
			"byteLength":32,
			"byteOffset":431252
		},
		{
			"buffer":0,
			"byteLength":24,
			"byteOffset":431284
		},
		{
			"buffer":0,
			"byteLength":32,
			"byteOffset":431308
		},
		{
			"buffer":0,
			"byteLength":24,
			"byteOffset":431340
		},
		{
			"buffer":0,
			"byteLength":24,
			"byteOffset":431364
		},
		{
			"buffer":0,
			"byteLength":32,
			"byteOffset":431388
		},
		{
			"buffer":0,
			"byteLength":24,
			"byteOffset":431420
		},
		{
			"buffer":0,
			"byteLength":24,
			"byteOffset":431444
		},
		{
			"buffer":0,
			"byteLength":32,
			"byteOffset":431468
		},
		{
			"buffer":0,
			"byteLength":24,
			"byteOffset":431500
		},
		{
			"buffer":0,
			"byteLength":24,
			"byteOffset":431524
		},
		{
			"buffer":0,
			"byteLength":32,
			"byteOffset":431548
		},
		{
			"buffer":0,
			"byteLength":24,
			"byteOffset":431580
		},
		{
			"buffer":0,
			"byteLength":32,
			"byteOffset":431604
		},
		{
			"buffer":0,
			"byteLength":24,
			"byteOffset":431636
		},
		{
			"buffer":0,
			"byteLength":24,
			"byteOffset":431660
		},
		{
			"buffer":0,
			"byteLength":32,
			"byteOffset":431684
		},
		{
			"buffer":0,
			"byteLength":24,
			"byteOffset":431716
		},
		{
			"buffer":0,
			"byteLength":24,
			"byteOffset":431740
		},
		{
			"buffer":0,
			"byteLength":32,
			"byteOffset":431764
		},
		{
			"buffer":0,
			"byteLength":24,
			"byteOffset":431796
		},
		{
			"buffer":0,
			"byteLength":24,
			"byteOffset":431820
		},
		{
			"buffer":0,
			"byteLength":32,
			"byteOffset":431844
		},
		{
			"buffer":0,
			"byteLength":24,
			"byteOffset":431876
		},
		{
			"buffer":0,
			"byteLength":4,
			"byteOffset":431900
		},
		{
			"buffer":0,
			"byteLength":12,
			"byteOffset":431904
		},
		{
			"buffer":0,
			"byteLength":16,
			"byteOffset":431916
		},
		{
			"buffer":0,
			"byteLength":12,
			"byteOffset":431932
		},
		{
			"buffer":0,
			"byteLength":12,
			"byteOffset":431944
		},
		{
			"buffer":0,
			"byteLength":16,
			"byteOffset":431956
		},
		{
			"buffer":0,
			"byteLength":12,
			"byteOffset":431972
		},
		{
			"buffer":0,
			"byteLength":12,
			"byteOffset":431984
		},
		{
			"buffer":0,
			"byteLength":16,
			"byteOffset":431996
		},
		{
			"buffer":0,
			"byteLength":12,
			"byteOffset":432012
		},
		{
			"buffer":0,
			"byteLength":12,
			"byteOffset":432024
		},
		{
			"buffer":0,
			"byteLength":16,
			"byteOffset":432036
		},
		{
			"buffer":0,
			"byteLength":12,
			"byteOffset":432052
		},
		{
			"buffer":0,
			"byteLength":12,
			"byteOffset":432064
		},
		{
			"buffer":0,
			"byteLength":16,
			"byteOffset":432076
		},
		{
			"buffer":0,
			"byteLength":12,
			"byteOffset":432092
		},
		{
			"buffer":0,
			"byteLength":12,
			"byteOffset":432104
		},
		{
			"buffer":0,
			"byteLength":16,
			"byteOffset":432116
		},
		{
			"buffer":0,
			"byteLength":12,
			"byteOffset":432132
		},
		{
			"buffer":0,
			"byteLength":12,
			"byteOffset":432144
		},
		{
			"buffer":0,
			"byteLength":16,
			"byteOffset":432156
		},
		{
			"buffer":0,
			"byteLength":12,
			"byteOffset":432172
		},
		{
			"buffer":0,
			"byteLength":12,
			"byteOffset":432184
		},
		{
			"buffer":0,
			"byteLength":16,
			"byteOffset":432196
		},
		{
			"buffer":0,
			"byteLength":12,
			"byteOffset":432212
		},
		{
			"buffer":0,
			"byteLength":12,
			"byteOffset":432224
		},
		{
			"buffer":0,
			"byteLength":16,
			"byteOffset":432236
		},
		{
			"buffer":0,
			"byteLength":12,
			"byteOffset":432252
		},
		{
			"buffer":0,
			"byteLength":12,
			"byteOffset":432264
		},
		{
			"buffer":0,
			"byteLength":16,
			"byteOffset":432276
		},
		{
			"buffer":0,
			"byteLength":12,
			"byteOffset":432292
		},
		{
			"buffer":0,
			"byteLength":16,
			"byteOffset":432304
		},
		{
			"buffer":0,
			"byteLength":12,
			"byteOffset":432320
		},
		{
			"buffer":0,
			"byteLength":12,
			"byteOffset":432332
		},
		{
			"buffer":0,
			"byteLength":16,
			"byteOffset":432344
		},
		{
			"buffer":0,
			"byteLength":12,
			"byteOffset":432360
		},
		{
			"buffer":0,
			"byteLength":12,
			"byteOffset":432372
		},
		{
			"buffer":0,
			"byteLength":16,
			"byteOffset":432384
		},
		{
			"buffer":0,
			"byteLength":12,
			"byteOffset":432400
		},
		{
			"buffer":0,
			"byteLength":12,
			"byteOffset":432412
		},
		{
			"buffer":0,
			"byteLength":16,
			"byteOffset":432424
		},
		{
			"buffer":0,
			"byteLength":12,
			"byteOffset":432440
		},
		{
			"buffer":0,
			"byteLength":16,
			"byteOffset":432452
		},
		{
			"buffer":0,
			"byteLength":12,
			"byteOffset":432468
		},
		{
			"buffer":0,
			"byteLength":12,
			"byteOffset":432480
		},
		{
			"buffer":0,
			"byteLength":16,
			"byteOffset":432492
		},
		{
			"buffer":0,
			"byteLength":12,
			"byteOffset":432508
		},
		{
			"buffer":0,
			"byteLength":12,
			"byteOffset":432520
		},
		{
			"buffer":0,
			"byteLength":16,
			"byteOffset":432532
		},
		{
			"buffer":0,
			"byteLength":12,
			"byteOffset":432548
		},
		{
			"buffer":0,
			"byteLength":12,
			"byteOffset":432560
		},
		{
			"buffer":0,
			"byteLength":16,
			"byteOffset":432572
		},
		{
			"buffer":0,
			"byteLength":8,
			"byteOffset":432588
		},
		{
			"buffer":0,
			"byteLength":32,
			"byteOffset":432596
		},
		{
			"buffer":0,
			"byteLength":24,
			"byteOffset":432628
		},
		{
			"buffer":0,
			"byteLength":24,
			"byteOffset":432652
		},
		{
			"buffer":0,
			"byteLength":32,
			"byteOffset":432676
		},
		{
			"buffer":0,
			"byteLength":24,
			"byteOffset":432708
		},
		{
			"buffer":0,
			"byteLength":32,
			"byteOffset":432732
		},
		{
			"buffer":0,
			"byteLength":24,
			"byteOffset":432764
		},
		{
			"buffer":0,
			"byteLength":32,
			"byteOffset":432788
		},
		{
			"buffer":0,
			"byteLength":24,
			"byteOffset":432820
		},
		{
			"buffer":0,
			"byteLength":24,
			"byteOffset":432844
		},
		{
			"buffer":0,
			"byteLength":32,
			"byteOffset":432868
		},
		{
			"buffer":0,
			"byteLength":24,
			"byteOffset":432900
		},
		{
			"buffer":0,
			"byteLength":24,
			"byteOffset":432924
		},
		{
			"buffer":0,
			"byteLength":32,
			"byteOffset":432948
		},
		{
			"buffer":0,
			"byteLength":24,
			"byteOffset":432980
		},
		{
			"buffer":0,
			"byteLength":40,
			"byteOffset":433004
		},
		{
			"buffer":0,
			"byteLength":160,
			"byteOffset":433044
		},
		{
			"buffer":0,
			"byteLength":24,
			"byteOffset":433204
		},
		{
			"buffer":0,
			"byteLength":24,
			"byteOffset":433228
		},
		{
			"buffer":0,
			"byteLength":32,
			"byteOffset":433252
		},
		{
			"buffer":0,
			"byteLength":24,
			"byteOffset":433284
		},
		{
			"buffer":0,
			"byteLength":24,
			"byteOffset":433308
		},
		{
			"buffer":0,
			"byteLength":32,
			"byteOffset":433332
		},
		{
			"buffer":0,
			"byteLength":24,
			"byteOffset":433364
		},
		{
			"buffer":0,
			"byteLength":160,
			"byteOffset":433388
		},
		{
			"buffer":0,
			"byteLength":24,
			"byteOffset":433548
		},
		{
			"buffer":0,
			"byteLength":24,
			"byteOffset":433572
		},
		{
			"buffer":0,
			"byteLength":32,
			"byteOffset":433596
		},
		{
			"buffer":0,
			"byteLength":24,
			"byteOffset":433628
		},
		{
			"buffer":0,
			"byteLength":24,
			"byteOffset":433652
		},
		{
			"buffer":0,
			"byteLength":32,
			"byteOffset":433676
		},
		{
			"buffer":0,
			"byteLength":24,
			"byteOffset":433708
		}
	],
	"samplers":[
		{
			"magFilter":9729,
			"minFilter":9987
		}
	],
	"buffers":[
		{
			"byteLength":433732,
			"uri":"finalboss.bin"
		}
	]
}
