{
	"asset":{
		"generator":"Khronos glTF Blender I/O v5.2.39",
		"version":"2.0"
	},
	"scene":0,
	"scenes":[
		{
			"name":"Scene",
			"nodes":[
				7
			]
		}
	],
	"nodes":[
		{
			"name":"Bone.003",
			"rotation":[
				-0.221424862742424,
				0.0404706671833992,
				0.2298612743616104,
				0.9468352198600769
			],
			"scale":[
				0.9999998807907104,
				1,
				0.9999998807907104
			],
			"translation":[
				3.427267074584961e-07,
				0.2829185724258423,
				-3.557652235031128e-07
			]
		},
		{
			"children":[
				0
			],
			"name":"Bone.001",
			"rotation":[
				0.653998613357544,
				-5.696190896742337e-08,
				0.08146809786558151,
				0.7520962953567505
			],
			"translation":[
				5.029141902923584e-08,
				1.1293131113052368,
				-3.725290298461914e-08
			]
		},
		{
			"name":"Bone.004",
			"rotation":[
				0.16554269194602966,
				-0.009488717652857304,
				0.19203242659568787,
				0.9672792553901672
			],
			"translation":[
				6.146728992462158e-08,
				0.32287025451660156,
				3.934837877750397e-08
			]
		},
		{
			"children":[
				2
			],
			"name":"Bone.002",
			"rotation":[
				-0.6474339962005615,
				-4.9946677904699754e-08,
				-0.1566263884305954,
				0.7458534836769104
			],
			"translation":[
				5.029141902923584e-08,
				1.1293131113052368,
				-3.725290298461914e-08
			]
		},
		{
			"children":[
				1,
				3
			],
			"name":"Bone",
			"rotation":[
				-0.16458828747272491,
				0.00961709301918745,
				0.025615079328417778,
				0.9859827756881714
			],
			"scale":[
				0.9999998807907104,
				1.0000001192092896,
				1
			],
			"translation":[
				0.046976085752248764,
				-0.2538658082485199,
				0.059973590075969696
			]
		},
		{
			"name":"neutral_bone",
			"rotation":[
				-0.7071067690849304,
				0,
				0,
				0.7071067690849304
			]
		},
		{
			"mesh":0,
			"name":"tripo_node_c9336970-c444-4e54-a1c1-2c6cb654859c",
			"skin":0
		},
		{
			"children":[
				6,
				4,
				5
			],
			"name":"Armature",
			"rotation":[
				0.11719100922346115,
				0.1528584212064743,
				0.25632619857788086,
				0.947205126285553
			],
			"scale":[
				0.3383842706680298,
				0.3383842706680298,
				0.3383842706680298
			],
			"translation":[
				0.17449522018432617,
				0.6838382482528687,
				0
			]
		}
	],
	"animations":[
		{
			"channels":[
				{
					"sampler":0,
					"target":{
						"node":4,
						"path":"translation"
					}
				},
				{
					"sampler":1,
					"target":{
						"node":4,
						"path":"rotation"
					}
				},
				{
					"sampler":2,
					"target":{
						"node":4,
						"path":"scale"
					}
				},
				{
					"sampler":3,
					"target":{
						"node":1,
						"path":"translation"
					}
				},
				{
					"sampler":4,
					"target":{
						"node":1,
						"path":"rotation"
					}
				},
				{
					"sampler":5,
					"target":{
						"node":1,
						"path":"scale"
					}
				},
				{
					"sampler":6,
					"target":{
						"node":0,
						"path":"translation"
					}
				},
				{
					"sampler":7,
					"target":{
						"node":0,
						"path":"rotation"
					}
				},
				{
					"sampler":8,
					"target":{
						"node":0,
						"path":"scale"
					}
				},
				{
					"sampler":9,
					"target":{
						"node":3,
						"path":"translation"
					}
				},
				{
					"sampler":10,
					"target":{
						"node":3,
						"path":"rotation"
					}
				},
				{
					"sampler":11,
					"target":{
						"node":3,
						"path":"scale"
					}
				},
				{
					"sampler":12,
					"target":{
						"node":2,
						"path":"translation"
					}
				},
				{
					"sampler":13,
					"target":{
						"node":2,
						"path":"rotation"
					}
				},
				{
					"sampler":14,
					"target":{
						"node":2,
						"path":"scale"
					}
				}
			],
			"name":"Attack",
			"samplers":[
				{
					"input":7,
					"interpolation":"LINEAR",
					"output":8
				},
				{
					"input":9,
					"interpolation":"STEP",
					"output":10
				},
				{
					"input":9,
					"interpolation":"STEP",
					"output":11
				},
				{
					"input":9,
					"interpolation":"STEP",
					"output":12
				},
				{
					"input":9,
					"interpolation":"STEP",
					"output":13
				},
				{
					"input":9,
					"interpolation":"STEP",
					"output":14
				},
				{
					"input":9,
					"interpolation":"STEP",
					"output":15
				},
				{
					"input":7,
					"interpolation":"LINEAR",
					"output":16
				},
				{
					"input":9,
					"interpolation":"STEP",
					"output":17
				},
				{
					"input":9,
					"interpolation":"STEP",
					"output":18
				},
				{
					"input":9,
					"interpolation":"STEP",
					"output":19
				},
				{
					"input":9,
					"interpolation":"STEP",
					"output":20
				},
				{
					"input":9,
					"interpolation":"STEP",
					"output":21
				},
				{
					"input":7,
					"interpolation":"LINEAR",
					"output":22
				},
				{
					"input":9,
					"interpolation":"STEP",
					"output":23
				}
			]
		},
		{
			"channels":[
				{
					"sampler":0,
					"target":{
						"node":4,
						"path":"translation"
					}
				},
				{
					"sampler":1,
					"target":{
						"node":4,
						"path":"rotation"
					}
				},
				{
					"sampler":2,
					"target":{
						"node":4,
						"path":"scale"
					}
				},
				{
					"sampler":3,
					"target":{
						"node":1,
						"path":"translation"
					}
				},
				{
					"sampler":4,
					"target":{
						"node":1,
						"path":"rotation"
					}
				},
				{
					"sampler":5,
					"target":{
						"node":1,
						"path":"scale"
					}
				},
				{
					"sampler":6,
					"target":{
						"node":0,
						"path":"translation"
					}
				},
				{
					"sampler":7,
					"target":{
						"node":0,
						"path":"rotation"
					}
				},
				{
					"sampler":8,
					"target":{
						"node":0,
						"path":"scale"
					}
				},
				{
					"sampler":9,
					"target":{
						"node":3,
						"path":"translation"
					}
				},
				{
					"sampler":10,
					"target":{
						"node":3,
						"path":"rotation"
					}
				},
				{
					"sampler":11,
					"target":{
						"node":3,
						"path":"scale"
					}
				},
				{
					"sampler":12,
					"target":{
						"node":2,
						"path":"translation"
					}
				},
				{
					"sampler":13,
					"target":{
						"node":2,
						"path":"rotation"
					}
				},
				{
					"sampler":14,
					"target":{
						"node":2,
						"path":"scale"
					}
				}
			],
			"name":"Die",
			"samplers":[
				{
					"input":24,
					"interpolation":"LINEAR",
					"output":25
				},
				{
					"input":24,
					"interpolation":"LINEAR",
					"output":26
				},
				{
					"input":27,
					"interpolation":"LINEAR",
					"output":28
				},
				{
					"input":27,
					"interpolation":"LINEAR",
					"output":29
				},
				{
					"input":27,
					"interpolation":"LINEAR",
					"output":30
				},
				{
					"input":27,
					"interpolation":"LINEAR",
					"output":31
				},
				{
					"input":27,
					"interpolation":"LINEAR",
					"output":32
				},
				{
					"input":27,
					"interpolation":"LINEAR",
					"output":33
				},
				{
					"input":27,
					"interpolation":"LINEAR",
					"output":34
				},
				{
					"input":27,
					"interpolation":"LINEAR",
					"output":35
				},
				{
					"input":27,
					"interpolation":"LINEAR",
					"output":36
				},
				{
					"input":27,
					"interpolation":"STEP",
					"output":37
				},
				{
					"input":27,
					"interpolation":"LINEAR",
					"output":38
				},
				{
					"input":27,
					"interpolation":"LINEAR",
					"output":39
				},
				{
					"input":27,
					"interpolation":"LINEAR",
					"output":40
				}
			]
		},
		{
			"channels":[
				{
					"sampler":0,
					"target":{
						"node":4,
						"path":"translation"
					}
				},
				{
					"sampler":1,
					"target":{
						"node":4,
						"path":"rotation"
					}
				},
				{
					"sampler":2,
					"target":{
						"node":4,
						"path":"scale"
					}
				},
				{
					"sampler":3,
					"target":{
						"node":1,
						"path":"translation"
					}
				},
				{
					"sampler":4,
					"target":{
						"node":1,
						"path":"rotation"
					}
				},
				{
					"sampler":5,
					"target":{
						"node":1,
						"path":"scale"
					}
				},
				{
					"sampler":6,
					"target":{
						"node":0,
						"path":"translation"
					}
				},
				{
					"sampler":7,
					"target":{
						"node":0,
						"path":"rotation"
					}
				},
				{
					"sampler":8,
					"target":{
						"node":0,
						"path":"scale"
					}
				},
				{
					"sampler":9,
					"target":{
						"node":3,
						"path":"translation"
					}
				},
				{
					"sampler":10,
					"target":{
						"node":3,
						"path":"rotation"
					}
				},
				{
					"sampler":11,
					"target":{
						"node":3,
						"path":"scale"
					}
				},
				{
					"sampler":12,
					"target":{
						"node":2,
						"path":"translation"
					}
				},
				{
					"sampler":13,
					"target":{
						"node":2,
						"path":"rotation"
					}
				},
				{
					"sampler":14,
					"target":{
						"node":2,
						"path":"scale"
					}
				}
			],
			"name":"Idle",
			"samplers":[
				{
					"input":9,
					"interpolation":"STEP",
					"output":41
				},
				{
					"input":9,
					"interpolation":"STEP",
					"output":10
				},
				{
					"input":9,
					"interpolation":"STEP",
					"output":11
				},
				{
					"input":9,
					"interpolation":"STEP",
					"output":12
				},
				{
					"input":9,
					"interpolation":"STEP",
					"output":13
				},
				{
					"input":9,
					"interpolation":"STEP",
					"output":14
				},
				{
					"input":9,
					"interpolation":"STEP",
					"output":15
				},
				{
					"input":7,
					"interpolation":"LINEAR",
					"output":42
				},
				{
					"input":9,
					"interpolation":"STEP",
					"output":17
				},
				{
					"input":9,
					"interpolation":"STEP",
					"output":18
				},
				{
					"input":9,
					"interpolation":"STEP",
					"output":19
				},
				{
					"input":9,
					"interpolation":"STEP",
					"output":20
				},
				{
					"input":9,
					"interpolation":"STEP",
					"output":21
				},
				{
					"input":7,
					"interpolation":"LINEAR",
					"output":43
				},
				{
					"input":9,
					"interpolation":"STEP",
					"output":23
				}
			]
		},
		{
			"channels":[
				{
					"sampler":0,
					"target":{
						"node":4,
						"path":"translation"
					}
				},
				{
					"sampler":1,
					"target":{
						"node":4,
						"path":"rotation"
					}
				},
				{
					"sampler":2,
					"target":{
						"node":4,
						"path":"scale"
					}
				},
				{
					"sampler":3,
					"target":{
						"node":1,
						"path":"translation"
					}
				},
				{
					"sampler":4,
					"target":{
						"node":1,
						"path":"rotation"
					}
				},
				{
					"sampler":5,
					"target":{
						"node":1,
						"path":"scale"
					}
				},
				{
					"sampler":6,
					"target":{
						"node":0,
						"path":"translation"
					}
				},
				{
					"sampler":7,
					"target":{
						"node":0,
						"path":"rotation"
					}
				},
				{
					"sampler":8,
					"target":{
						"node":0,
						"path":"scale"
					}
				},
				{
					"sampler":9,
					"target":{
						"node":3,
						"path":"translation"
					}
				},
				{
					"sampler":10,
					"target":{
						"node":3,
						"path":"rotation"
					}
				},
				{
					"sampler":11,
					"target":{
						"node":3,
						"path":"scale"
					}
				},
				{
					"sampler":12,
					"target":{
						"node":2,
						"path":"translation"
					}
				},
				{
					"sampler":13,
					"target":{
						"node":2,
						"path":"rotation"
					}
				},
				{
					"sampler":14,
					"target":{
						"node":2,
						"path":"scale"
					}
				}
			],
			"name":"Walk",
			"samplers":[
				{
					"input":9,
					"interpolation":"STEP",
					"output":41
				},
				{
					"input":9,
					"interpolation":"STEP",
					"output":10
				},
				{
					"input":9,
					"interpolation":"STEP",
					"output":11
				},
				{
					"input":9,
					"interpolation":"STEP",
					"output":12
				},
				{
					"input":9,
					"interpolation":"STEP",
					"output":13
				},
				{
					"input":9,
					"interpolation":"STEP",
					"output":14
				},
				{
					"input":9,
					"interpolation":"STEP",
					"output":15
				},
				{
					"input":7,
					"interpolation":"LINEAR",
					"output":42
				},
				{
					"input":9,
					"interpolation":"STEP",
					"output":17
				},
				{
					"input":9,
					"interpolation":"STEP",
					"output":18
				},
				{
					"input":9,
					"interpolation":"STEP",
					"output":19
				},
				{
					"input":9,
					"interpolation":"STEP",
					"output":20
				},
				{
					"input":9,
					"interpolation":"STEP",
					"output":21
				},
				{
					"input":7,
					"interpolation":"LINEAR",
					"output":43
				},
				{
					"input":9,
					"interpolation":"STEP",
					"output":23
				}
			]
		}
	],
	"materials":[
		{
			"name":"tripo_material_c9336970-c444-4e54-a1c1-2c6cb654859c",
			"normalTexture":{
				"index":0
			},
			"pbrMetallicRoughness":{
				"baseColorTexture":{
					"index":1
				},
				"metallicRoughnessTexture":{
					"index":2
				}
			}
		}
	],
	"meshes":[
		{
			"name":"tripo_mesh_c9336970-c444-4e54-a1c1-2c6cb654859c",
			"primitives":[
				{
					"attributes":{
						"POSITION":0,
						"NORMAL":1,
						"TEXCOORD_0":2,
						"JOINTS_0":3,
						"WEIGHTS_0":4
					},
					"indices":5,
					"material":0
				}
			]
		}
	],
	"textures":[
		{
			"sampler":0,
			"source":0
		},
		{
			"sampler":0,
			"source":1
		},
		{
			"sampler":0,
			"source":2
		}
	],
	"images":[
		{
			"mimeType":"image/jpeg",
			"name":"NormalGL_c9336970-c444-4e54-a1c1-2c6cb654859c",
			"uri":"NormalGL_c9336970-c444-4e54-a1c1-2c6cb654859c.jpg"
		},
		{
			"mimeType":"image/jpeg",
			"name":"Color_c9336970-c444-4e54-a1c1-2c6cb654859c",
			"uri":"Color_c9336970-c444-4e54-a1c1-2c6cb654859c.jpg"
		},
		{
			"mimeType":"image/jpeg",
			"name":"ORM_c9336970-c444-4e54-a1c1-2c6cb654859c",
			"uri":"ORM_c9336970-c444-4e54-a1c1-2c6cb654859c.jpg"
		}
	],
	"skins":[
		{
			"inverseBindMatrices":6,
			"joints":[
				4,
				1,
				0,
				3,
				2,
				5
			],
			"name":"Armature"
		}
	],
	"accessors":[
		{
			"bufferView":0,
			"componentType":5126,
			"count":8875,
			"max":[
				0.2984304428100586,
				1.1765406131744385,
				0.5
			],
			"min":[
				-0.2984304428100586,
				0.600508451461792,
				-0.5
			],
			"type":"VEC3"
		},
		{
			"bufferView":1,
			"componentType":5126,
			"count":8875,
			"type":"VEC3"
		},
		{
			"bufferView":2,
			"componentType":5126,
			"count":8875,
			"type":"VEC2"
		},
		{
			"bufferView":3,
			"componentType":5121,
			"count":8875,
			"type":"VEC4"
		},
		{
			"bufferView":4,
			"componentType":5126,
			"count":8875,
			"type":"VEC4"
		},
		{
			"bufferView":5,
			"componentType":5123,
			"count":29640,
			"type":"SCALAR"
		},
		{
			"bufferView":6,
			"componentType":5126,
			"count":6,
			"type":"MAT4"
		},
		{
			"bufferView":7,
			"componentType":5126,
			"count":12,
			"max":[
				0.5
			],
			"min":[
				0.041666666666666664
			],
			"type":"SCALAR"
		},
		{
			"bufferView":8,
			"componentType":5126,
			"count":12,
			"type":"VEC3"
		},
		{
			"bufferView":9,
			"componentType":5126,
			"count":2,
			"max":[
				0.5
			],
			"min":[
				0.041666666666666664
			],
			"type":"SCALAR"
		},
		{
			"bufferView":10,
			"componentType":5126,
			"count":2,
			"type":"VEC4"
		},
		{
			"bufferView":11,
			"componentType":5126,
			"count":2,
			"type":"VEC3"
		},
		{
			"bufferView":12,
			"componentType":5126,
			"count":2,
			"type":"VEC3"
		},
		{
			"bufferView":13,
			"componentType":5126,
			"count":2,
			"type":"VEC4"
		},
		{
			"bufferView":14,
			"componentType":5126,
			"count":2,
			"type":"VEC3"
		},
		{
			"bufferView":15,
			"componentType":5126,
			"count":2,
			"type":"VEC3"
		},
		{
			"bufferView":16,
			"componentType":5126,
			"count":12,
			"type":"VEC4"
		},
		{
			"bufferView":17,
			"componentType":5126,
			"count":2,
			"type":"VEC3"
		},
		{
			"bufferView":18,
			"componentType":5126,
			"count":2,
			"type":"VEC3"
		},
		{
			"bufferView":19,
			"componentType":5126,
			"count":2,
			"type":"VEC4"
		},
		{
			"bufferView":20,
			"componentType":5126,
			"count":2,
			"type":"VEC3"
		},
		{
			"bufferView":21,
			"componentType":5126,
			"count":2,
			"type":"VEC3"
		},
		{
			"bufferView":22,
			"componentType":5126,
			"count":12,
			"type":"VEC4"
		},
		{
			"bufferView":23,
			"componentType":5126,
			"count":2,
			"type":"VEC3"
		},
		{
			"bufferView":24,
			"componentType":5126,
			"count":8,
			"max":[
				0.3333333333333333
			],
			"min":[
				0.041666666666666664
			],
			"type":"SCALAR"
		},
		{
			"bufferView":25,
			"componentType":5126,
			"count":8,
			"type":"VEC3"
		},
		{
			"bufferView":26,
			"componentType":5126,
			"count":8,
			"type":"VEC4"
		},
		{
			"bufferView":27,
			"componentType":5126,
			"count":2,
			"max":[
				0.3333333333333333
			],
			"min":[
				0.041666666666666664
			],
			"type":"SCALAR"
		},
		{
			"bufferView":28,
			"componentType":5126,
			"count":2,
			"type":"VEC3"
		},
		{
			"bufferView":29,
			"componentType":5126,
			"count":2,
			"type":"VEC3"
		},
		{
			"bufferView":30,
			"componentType":5126,
			"count":2,
			"type":"VEC4"
		},
		{
			"bufferView":31,
			"componentType":5126,
			"count":2,
			"type":"VEC3"
		},
		{
			"bufferView":32,
			"componentType":5126,
			"count":2,
			"type":"VEC3"
		},
		{
			"bufferView":33,
			"componentType":5126,
			"count":2,
			"type":"VEC4"
		},
		{
			"bufferView":34,
			"componentType":5126,
			"count":2,
			"type":"VEC3"
		},
		{
			"bufferView":35,
			"componentType":5126,
			"count":2,
			"type":"VEC3"
		},
		{
			"bufferView":36,
			"componentType":5126,
			"count":2,
			"type":"VEC4"
		},
		{
			"bufferView":37,
			"componentType":5126,
			"count":2,
			"type":"VEC3"
		},
		{
			"bufferView":38,
			"componentType":5126,
			"count":2,
			"type":"VEC3"
		},
		{
			"bufferView":39,
			"componentType":5126,
			"count":2,
			"type":"VEC4"
		},
		{
			"bufferView":40,
			"componentType":5126,
			"count":2,
			"type":"VEC3"
		},
		{
			"bufferView":41,
			"componentType":5126,
			"count":2,
			"type":"VEC3"
		},
		{
			"bufferView":42,
			"componentType":5126,
			"count":12,
			"type":"VEC4"
		},
		{
			"bufferView":43,
			"componentType":5126,
			"count":12,
			"type":"VEC4"
		}
	],
	"bufferViews":[
		{
			"buffer":0,
			"byteLength":106500,
			"byteOffset":0,
			"target":34962
		},
		{
			"buffer":0,
			"byteLength":106500,
			"byteOffset":106500,
			"target":34962
		},
		{
			"buffer":0,
			"byteLength":71000,
			"byteOffset":213000,
			"target":34962
		},
		{
			"buffer":0,
			"byteLength":35500,
			"byteOffset":284000,
			"target":34962
		},
		{
			"buffer":0,
			"byteLength":142000,
			"byteOffset":319500,
			"target":34962
		},
		{
			"buffer":0,
			"byteLength":59280,
			"byteOffset":461500,
			"target":34963
		},
		{
			"buffer":0,
			"byteLength":384,
			"byteOffset":520780
		},
		{
			"buffer":0,
			"byteLength":48,
			"byteOffset":521164
		},
		{
			"buffer":0,
			"byteLength":144,
			"byteOffset":521212
		},
		{
			"buffer":0,
			"byteLength":8,
			"byteOffset":521356
		},
		{
			"buffer":0,
			"byteLength":32,
			"byteOffset":521364
		},
		{
			"buffer":0,
			"byteLength":24,
			"byteOffset":521396
		},
		{
			"buffer":0,
			"byteLength":24,
			"byteOffset":521420
		},
		{
			"buffer":0,
			"byteLength":32,
			"byteOffset":521444
		},
		{
			"buffer":0,
			"byteLength":24,
			"byteOffset":521476
		},
		{
			"buffer":0,
			"byteLength":24,
			"byteOffset":521500
		},
		{
			"buffer":0,
			"byteLength":192,
			"byteOffset":521524
		},
		{
			"buffer":0,
			"byteLength":24,
			"byteOffset":521716
		},
		{
			"buffer":0,
			"byteLength":24,
			"byteOffset":521740
		},
		{
			"buffer":0,
			"byteLength":32,
			"byteOffset":521764
		},
		{
			"buffer":0,
			"byteLength":24,
			"byteOffset":521796
		},
		{
			"buffer":0,
			"byteLength":24,
			"byteOffset":521820
		},
		{
			"buffer":0,
			"byteLength":192,
			"byteOffset":521844
		},
		{
			"buffer":0,
			"byteLength":24,
			"byteOffset":522036
		},
		{
			"buffer":0,
			"byteLength":32,
			"byteOffset":522060
		},
		{
			"buffer":0,
			"byteLength":96,
			"byteOffset":522092
		},
		{
			"buffer":0,
			"byteLength":128,
			"byteOffset":522188
		},
		{
			"buffer":0,
			"byteLength":8,
			"byteOffset":522316
		},
		{
			"buffer":0,
			"byteLength":24,
			"byteOffset":522324
		},
		{
			"buffer":0,
			"byteLength":24,
			"byteOffset":522348
		},
		{
			"buffer":0,
			"byteLength":32,
			"byteOffset":522372
		},
		{
			"buffer":0,
			"byteLength":24,
			"byteOffset":522404
		},
		{
			"buffer":0,
			"byteLength":24,
			"byteOffset":522428
		},
		{
			"buffer":0,
			"byteLength":32,
			"byteOffset":522452
		},
		{
			"buffer":0,
			"byteLength":24,
			"byteOffset":522484
		},
		{
			"buffer":0,
			"byteLength":24,
			"byteOffset":522508
		},
		{
			"buffer":0,
			"byteLength":32,
			"byteOffset":522532
		},
		{
			"buffer":0,
			"byteLength":24,
			"byteOffset":522564
		},
		{
			"buffer":0,
			"byteLength":24,
			"byteOffset":522588
		},
		{
			"buffer":0,
			"byteLength":32,
			"byteOffset":522612
		},
		{
			"buffer":0,
			"byteLength":24,
			"byteOffset":522644
		},
		{
			"buffer":0,
			"byteLength":24,
			"byteOffset":522668
		},
		{
			"buffer":0,
			"byteLength":192,
			"byteOffset":522692
		},
		{
			"buffer":0,
			"byteLength":192,
			"byteOffset":522884
		}
	],
	"samplers":[
		{
			"magFilter":9729,
			"minFilter":9987
		}
	],
	"buffers":[
		{
			"byteLength":523076,
			"uri":"Head.bin"
		}
	]
}
