{
	"asset":{
		"generator":"Khronos glTF Blender I/O v5.2.39",
		"version":"2.0"
	},
	"scene":0,
	"scenes":[
		{
			"name":"Scene",
			"nodes":[
				11
			]
		}
	],
	"nodes":[
		{
			"name":"Bone.001",
			"rotation":[
				-0.030906982719898224,
				0.2870289981365204,
				-0.605016827583313,
				0.7420336008071899
			],
			"scale":[
				0.9999999403953552,
				0.9999999403953552,
				0.9999998807907104
			],
			"translation":[
				-7.82310962677002e-08,
				0.5344841480255127,
				5.21540641784668e-08
			]
		},
		{
			"children":[
				0
			],
			"name":"Bone",
			"rotation":[
				-0.19862280786037445,
				-0.006937957368791103,
				-0.14990760385990143,
				0.9685187339782715
			],
			"scale":[
				1,
				0.9999999403953552,
				0.9999999403953552
			],
			"translation":[
				0.06587819755077362,
				0.7101849317550659,
				0.6053601503372192
			]
		},
		{
			"name":"Bone.005",
			"rotation":[
				-0.31578266620635986,
				0.060266945511102676,
				0.09305814653635025,
				0.9423319101333618
			],
			"translation":[
				1.1175870895385742e-08,
				0.41022592782974243,
				-2.421438694000244e-08
			]
		},
		{
			"children":[
				2
			],
			"name":"Bone.002",
			"rotation":[
				-0.6443233489990234,
				0.42438822984695435,
				0.3955900967121124,
				0.4982474446296692
			],
			"scale":[
				0.9999999403953552,
				0.9999998807907104,
				0.9999998807907104
			],
			"translation":[
				0.06587819755077362,
				0.7101849317550659,
				0.6053601503372192
			]
		},
		{
			"name":"Bone.004",
			"rotation":[
				-0.2894338071346283,
				0.007082411088049412,
				-0.09320930391550064,
				0.952622652053833
			],
			"scale":[
				0.9999999403953552,
				0.9999999403953552,
				1
			],
			"translation":[
				6.891787052154541e-08,
				0.4320898652076721,
				4.209578037261963e-07
			]
		},
		{
			"children":[
				4
			],
			"name":"Bone.003",
			"rotation":[
				-0.18458615243434906,
				0.6810004711151123,
				0.671592652797699,
				0.22611863911151886
			],
			"scale":[
				0.9999999403953552,
				1,
				0.9999999403953552
			],
			"translation":[
				0.06587819755077362,
				0.7101849317550659,
				0.6053601503372192
			]
		},
		{
			"name":"Bone.008",
			"rotation":[
				-0.5279458165168762,
				0.07240772247314453,
				0.4093783497810364,
				0.740567147731781
			],
			"scale":[
				1.0000001192092896,
				1.0000001192092896,
				1
			],
			"translation":[
				5.21540641784668e-08,
				0.32135143876075745,
				1.341104507446289e-07
			]
		},
		{
			"children":[
				6
			],
			"name":"Bone.007",
			"rotation":[
				0.3189363181591034,
				-9.432815772925096e-08,
				-0.27056431770324707,
				0.9083361625671387
			],
			"scale":[
				1,
				0.9999998807907104,
				0.9999998807907104
			],
			"translation":[
				2.505257725715637e-07,
				0.64485102891922,
				5.587935447692871e-08
			]
		},
		{
			"children":[
				7
			],
			"name":"Bone.006",
			"rotation":[
				-0.15944978594779968,
				0.1371256560087204,
				0.9768678545951843,
				0.03874882310628891
			],
			"scale":[
				1,
				0.9999997019767761,
				0.9999997615814209
			],
			"translation":[
				0.06587819755077362,
				0.7101849317550659,
				0.6053601503372192
			]
		},
		{
			"name":"neutral_bone",
			"rotation":[
				-0.7071067690849304,
				0,
				0,
				0.7071067690849304
			]
		},
		{
			"mesh":0,
			"name":"tripo_node_6f9ac7eb-2553-43f3-9987-eb678c260b28",
			"skin":0
		},
		{
			"children":[
				10,
				1,
				3,
				5,
				8,
				9
			],
			"name":"Armature",
			"rotation":[
				0.007430288940668106,
				-0.12633772194385529,
				-0.3547201156616211,
				0.9263677597045898
			],
			"scale":[
				0.3033030033111572,
				0.3033030033111572,
				0.3033030331134796
			],
			"translation":[
				-0.04553946852684021,
				0.6134807467460632,
				-0.21945467591285706
			]
		}
	],
	"animations":[
		{
			"channels":[
				{
					"sampler":0,
					"target":{
						"node":1,
						"path":"translation"
					}
				},
				{
					"sampler":1,
					"target":{
						"node":1,
						"path":"rotation"
					}
				},
				{
					"sampler":2,
					"target":{
						"node":1,
						"path":"scale"
					}
				},
				{
					"sampler":3,
					"target":{
						"node":0,
						"path":"translation"
					}
				},
				{
					"sampler":4,
					"target":{
						"node":0,
						"path":"rotation"
					}
				},
				{
					"sampler":5,
					"target":{
						"node":0,
						"path":"scale"
					}
				},
				{
					"sampler":6,
					"target":{
						"node":3,
						"path":"translation"
					}
				},
				{
					"sampler":7,
					"target":{
						"node":3,
						"path":"rotation"
					}
				},
				{
					"sampler":8,
					"target":{
						"node":3,
						"path":"scale"
					}
				},
				{
					"sampler":9,
					"target":{
						"node":2,
						"path":"translation"
					}
				},
				{
					"sampler":10,
					"target":{
						"node":2,
						"path":"rotation"
					}
				},
				{
					"sampler":11,
					"target":{
						"node":2,
						"path":"scale"
					}
				},
				{
					"sampler":12,
					"target":{
						"node":5,
						"path":"translation"
					}
				},
				{
					"sampler":13,
					"target":{
						"node":5,
						"path":"rotation"
					}
				},
				{
					"sampler":14,
					"target":{
						"node":5,
						"path":"scale"
					}
				},
				{
					"sampler":15,
					"target":{
						"node":4,
						"path":"translation"
					}
				},
				{
					"sampler":16,
					"target":{
						"node":4,
						"path":"rotation"
					}
				},
				{
					"sampler":17,
					"target":{
						"node":4,
						"path":"scale"
					}
				},
				{
					"sampler":18,
					"target":{
						"node":8,
						"path":"translation"
					}
				},
				{
					"sampler":19,
					"target":{
						"node":8,
						"path":"rotation"
					}
				},
				{
					"sampler":20,
					"target":{
						"node":8,
						"path":"scale"
					}
				},
				{
					"sampler":21,
					"target":{
						"node":7,
						"path":"translation"
					}
				},
				{
					"sampler":22,
					"target":{
						"node":7,
						"path":"rotation"
					}
				},
				{
					"sampler":23,
					"target":{
						"node":7,
						"path":"scale"
					}
				},
				{
					"sampler":24,
					"target":{
						"node":6,
						"path":"translation"
					}
				},
				{
					"sampler":25,
					"target":{
						"node":6,
						"path":"rotation"
					}
				},
				{
					"sampler":26,
					"target":{
						"node":6,
						"path":"scale"
					}
				}
			],
			"name":"Attack",
			"samplers":[
				{
					"input":7,
					"interpolation":"STEP",
					"output":8
				},
				{
					"input":9,
					"interpolation":"LINEAR",
					"output":10
				},
				{
					"input":7,
					"interpolation":"STEP",
					"output":11
				},
				{
					"input":7,
					"interpolation":"STEP",
					"output":12
				},
				{
					"input":7,
					"interpolation":"STEP",
					"output":13
				},
				{
					"input":7,
					"interpolation":"STEP",
					"output":14
				},
				{
					"input":7,
					"interpolation":"STEP",
					"output":15
				},
				{
					"input":9,
					"interpolation":"LINEAR",
					"output":16
				},
				{
					"input":7,
					"interpolation":"STEP",
					"output":17
				},
				{
					"input":7,
					"interpolation":"STEP",
					"output":18
				},
				{
					"input":9,
					"interpolation":"LINEAR",
					"output":19
				},
				{
					"input":7,
					"interpolation":"STEP",
					"output":20
				},
				{
					"input":7,
					"interpolation":"STEP",
					"output":15
				},
				{
					"input":9,
					"interpolation":"LINEAR",
					"output":21
				},
				{
					"input":7,
					"interpolation":"STEP",
					"output":22
				},
				{
					"input":7,
					"interpolation":"STEP",
					"output":23
				},
				{
					"input":9,
					"interpolation":"LINEAR",
					"output":24
				},
				{
					"input":7,
					"interpolation":"STEP",
					"output":25
				},
				{
					"input":7,
					"interpolation":"STEP",
					"output":26
				},
				{
					"input":9,
					"interpolation":"LINEAR",
					"output":27
				},
				{
					"input":7,
					"interpolation":"STEP",
					"output":28
				},
				{
					"input":7,
					"interpolation":"STEP",
					"output":29
				},
				{
					"input":7,
					"interpolation":"STEP",
					"output":30
				},
				{
					"input":7,
					"interpolation":"STEP",
					"output":31
				},
				{
					"input":7,
					"interpolation":"STEP",
					"output":32
				},
				{
					"input":7,
					"interpolation":"STEP",
					"output":33
				},
				{
					"input":7,
					"interpolation":"STEP",
					"output":34
				}
			]
		},
		{
			"channels":[
				{
					"sampler":0,
					"target":{
						"node":1,
						"path":"translation"
					}
				},
				{
					"sampler":1,
					"target":{
						"node":1,
						"path":"rotation"
					}
				},
				{
					"sampler":2,
					"target":{
						"node":1,
						"path":"scale"
					}
				},
				{
					"sampler":3,
					"target":{
						"node":0,
						"path":"translation"
					}
				},
				{
					"sampler":4,
					"target":{
						"node":0,
						"path":"rotation"
					}
				},
				{
					"sampler":5,
					"target":{
						"node":0,
						"path":"scale"
					}
				},
				{
					"sampler":6,
					"target":{
						"node":3,
						"path":"translation"
					}
				},
				{
					"sampler":7,
					"target":{
						"node":3,
						"path":"rotation"
					}
				},
				{
					"sampler":8,
					"target":{
						"node":3,
						"path":"scale"
					}
				},
				{
					"sampler":9,
					"target":{
						"node":2,
						"path":"translation"
					}
				},
				{
					"sampler":10,
					"target":{
						"node":2,
						"path":"rotation"
					}
				},
				{
					"sampler":11,
					"target":{
						"node":2,
						"path":"scale"
					}
				},
				{
					"sampler":12,
					"target":{
						"node":5,
						"path":"translation"
					}
				},
				{
					"sampler":13,
					"target":{
						"node":5,
						"path":"rotation"
					}
				},
				{
					"sampler":14,
					"target":{
						"node":5,
						"path":"scale"
					}
				},
				{
					"sampler":15,
					"target":{
						"node":4,
						"path":"translation"
					}
				},
				{
					"sampler":16,
					"target":{
						"node":4,
						"path":"rotation"
					}
				},
				{
					"sampler":17,
					"target":{
						"node":4,
						"path":"scale"
					}
				},
				{
					"sampler":18,
					"target":{
						"node":8,
						"path":"translation"
					}
				},
				{
					"sampler":19,
					"target":{
						"node":8,
						"path":"rotation"
					}
				},
				{
					"sampler":20,
					"target":{
						"node":8,
						"path":"scale"
					}
				},
				{
					"sampler":21,
					"target":{
						"node":7,
						"path":"translation"
					}
				},
				{
					"sampler":22,
					"target":{
						"node":7,
						"path":"rotation"
					}
				},
				{
					"sampler":23,
					"target":{
						"node":7,
						"path":"scale"
					}
				},
				{
					"sampler":24,
					"target":{
						"node":6,
						"path":"translation"
					}
				},
				{
					"sampler":25,
					"target":{
						"node":6,
						"path":"rotation"
					}
				},
				{
					"sampler":26,
					"target":{
						"node":6,
						"path":"scale"
					}
				}
			],
			"name":"Die",
			"samplers":[
				{
					"input":7,
					"interpolation":"STEP",
					"output":35
				},
				{
					"input":7,
					"interpolation":"STEP",
					"output":36
				},
				{
					"input":7,
					"interpolation":"STEP",
					"output":37
				},
				{
					"input":7,
					"interpolation":"STEP",
					"output":38
				},
				{
					"input":7,
					"interpolation":"STEP",
					"output":39
				},
				{
					"input":7,
					"interpolation":"STEP",
					"output":11
				},
				{
					"input":7,
					"interpolation":"STEP",
					"output":40
				},
				{
					"input":7,
					"interpolation":"STEP",
					"output":41
				},
				{
					"input":7,
					"interpolation":"STEP",
					"output":25
				},
				{
					"input":7,
					"interpolation":"STEP",
					"output":42
				},
				{
					"input":9,
					"interpolation":"LINEAR",
					"output":43
				},
				{
					"input":7,
					"interpolation":"STEP",
					"output":44
				},
				{
					"input":7,
					"interpolation":"STEP",
					"output":45
				},
				{
					"input":7,
					"interpolation":"STEP",
					"output":46
				},
				{
					"input":7,
					"interpolation":"STEP",
					"output":47
				},
				{
					"input":7,
					"interpolation":"STEP",
					"output":48
				},
				{
					"input":9,
					"interpolation":"LINEAR",
					"output":49
				},
				{
					"input":7,
					"interpolation":"STEP",
					"output":50
				},
				{
					"input":7,
					"interpolation":"STEP",
					"output":45
				},
				{
					"input":7,
					"interpolation":"STEP",
					"output":51
				},
				{
					"input":7,
					"interpolation":"STEP",
					"output":28
				},
				{
					"input":7,
					"interpolation":"STEP",
					"output":52
				},
				{
					"input":7,
					"interpolation":"STEP",
					"output":53
				},
				{
					"input":7,
					"interpolation":"STEP",
					"output":54
				},
				{
					"input":7,
					"interpolation":"STEP",
					"output":55
				},
				{
					"input":7,
					"interpolation":"STEP",
					"output":56
				},
				{
					"input":7,
					"interpolation":"STEP",
					"output":50
				}
			]
		},
		{
			"channels":[
				{
					"sampler":0,
					"target":{
						"node":1,
						"path":"translation"
					}
				},
				{
					"sampler":1,
					"target":{
						"node":1,
						"path":"rotation"
					}
				},
				{
					"sampler":2,
					"target":{
						"node":1,
						"path":"scale"
					}
				},
				{
					"sampler":3,
					"target":{
						"node":0,
						"path":"translation"
					}
				},
				{
					"sampler":4,
					"target":{
						"node":0,
						"path":"rotation"
					}
				},
				{
					"sampler":5,
					"target":{
						"node":0,
						"path":"scale"
					}
				},
				{
					"sampler":6,
					"target":{
						"node":3,
						"path":"translation"
					}
				},
				{
					"sampler":7,
					"target":{
						"node":3,
						"path":"rotation"
					}
				},
				{
					"sampler":8,
					"target":{
						"node":3,
						"path":"scale"
					}
				},
				{
					"sampler":9,
					"target":{
						"node":2,
						"path":"translation"
					}
				},
				{
					"sampler":10,
					"target":{
						"node":2,
						"path":"rotation"
					}
				},
				{
					"sampler":11,
					"target":{
						"node":2,
						"path":"scale"
					}
				},
				{
					"sampler":12,
					"target":{
						"node":5,
						"path":"translation"
					}
				},
				{
					"sampler":13,
					"target":{
						"node":5,
						"path":"rotation"
					}
				},
				{
					"sampler":14,
					"target":{
						"node":5,
						"path":"scale"
					}
				},
				{
					"sampler":15,
					"target":{
						"node":4,
						"path":"translation"
					}
				},
				{
					"sampler":16,
					"target":{
						"node":4,
						"path":"rotation"
					}
				},
				{
					"sampler":17,
					"target":{
						"node":4,
						"path":"scale"
					}
				},
				{
					"sampler":18,
					"target":{
						"node":8,
						"path":"translation"
					}
				},
				{
					"sampler":19,
					"target":{
						"node":8,
						"path":"rotation"
					}
				},
				{
					"sampler":20,
					"target":{
						"node":8,
						"path":"scale"
					}
				},
				{
					"sampler":21,
					"target":{
						"node":7,
						"path":"translation"
					}
				},
				{
					"sampler":22,
					"target":{
						"node":7,
						"path":"rotation"
					}
				},
				{
					"sampler":23,
					"target":{
						"node":7,
						"path":"scale"
					}
				},
				{
					"sampler":24,
					"target":{
						"node":6,
						"path":"translation"
					}
				},
				{
					"sampler":25,
					"target":{
						"node":6,
						"path":"rotation"
					}
				},
				{
					"sampler":26,
					"target":{
						"node":6,
						"path":"scale"
					}
				}
			],
			"name":"Idle",
			"samplers":[
				{
					"input":7,
					"interpolation":"STEP",
					"output":35
				},
				{
					"input":7,
					"interpolation":"STEP",
					"output":36
				},
				{
					"input":7,
					"interpolation":"STEP",
					"output":37
				},
				{
					"input":7,
					"interpolation":"STEP",
					"output":38
				},
				{
					"input":7,
					"interpolation":"STEP",
					"output":39
				},
				{
					"input":7,
					"interpolation":"STEP",
					"output":11
				},
				{
					"input":7,
					"interpolation":"STEP",
					"output":40
				},
				{
					"input":7,
					"interpolation":"STEP",
					"output":41
				},
				{
					"input":7,
					"interpolation":"STEP",
					"output":25
				},
				{
					"input":7,
					"interpolation":"STEP",
					"output":42
				},
				{
					"input":9,
					"interpolation":"LINEAR",
					"output":43
				},
				{
					"input":7,
					"interpolation":"STEP",
					"output":44
				},
				{
					"input":7,
					"interpolation":"STEP",
					"output":45
				},
				{
					"input":7,
					"interpolation":"STEP",
					"output":46
				},
				{
					"input":7,
					"interpolation":"STEP",
					"output":47
				},
				{
					"input":7,
					"interpolation":"STEP",
					"output":48
				},
				{
					"input":9,
					"interpolation":"LINEAR",
					"output":49
				},
				{
					"input":7,
					"interpolation":"STEP",
					"output":50
				},
				{
					"input":7,
					"interpolation":"STEP",
					"output":45
				},
				{
					"input":7,
					"interpolation":"STEP",
					"output":51
				},
				{
					"input":7,
					"interpolation":"STEP",
					"output":28
				},
				{
					"input":7,
					"interpolation":"STEP",
					"output":52
				},
				{
					"input":7,
					"interpolation":"STEP",
					"output":53
				},
				{
					"input":7,
					"interpolation":"STEP",
					"output":54
				},
				{
					"input":7,
					"interpolation":"STEP",
					"output":55
				},
				{
					"input":7,
					"interpolation":"STEP",
					"output":56
				},
				{
					"input":7,
					"interpolation":"STEP",
					"output":50
				}
			]
		},
		{
			"channels":[
				{
					"sampler":0,
					"target":{
						"node":1,
						"path":"translation"
					}
				},
				{
					"sampler":1,
					"target":{
						"node":1,
						"path":"rotation"
					}
				},
				{
					"sampler":2,
					"target":{
						"node":1,
						"path":"scale"
					}
				},
				{
					"sampler":3,
					"target":{
						"node":0,
						"path":"translation"
					}
				},
				{
					"sampler":4,
					"target":{
						"node":0,
						"path":"rotation"
					}
				},
				{
					"sampler":5,
					"target":{
						"node":0,
						"path":"scale"
					}
				},
				{
					"sampler":6,
					"target":{
						"node":3,
						"path":"translation"
					}
				},
				{
					"sampler":7,
					"target":{
						"node":3,
						"path":"rotation"
					}
				},
				{
					"sampler":8,
					"target":{
						"node":3,
						"path":"scale"
					}
				},
				{
					"sampler":9,
					"target":{
						"node":2,
						"path":"translation"
					}
				},
				{
					"sampler":10,
					"target":{
						"node":2,
						"path":"rotation"
					}
				},
				{
					"sampler":11,
					"target":{
						"node":2,
						"path":"scale"
					}
				},
				{
					"sampler":12,
					"target":{
						"node":5,
						"path":"translation"
					}
				},
				{
					"sampler":13,
					"target":{
						"node":5,
						"path":"rotation"
					}
				},
				{
					"sampler":14,
					"target":{
						"node":5,
						"path":"scale"
					}
				},
				{
					"sampler":15,
					"target":{
						"node":4,
						"path":"translation"
					}
				},
				{
					"sampler":16,
					"target":{
						"node":4,
						"path":"rotation"
					}
				},
				{
					"sampler":17,
					"target":{
						"node":4,
						"path":"scale"
					}
				},
				{
					"sampler":18,
					"target":{
						"node":8,
						"path":"translation"
					}
				},
				{
					"sampler":19,
					"target":{
						"node":8,
						"path":"rotation"
					}
				},
				{
					"sampler":20,
					"target":{
						"node":8,
						"path":"scale"
					}
				},
				{
					"sampler":21,
					"target":{
						"node":7,
						"path":"translation"
					}
				},
				{
					"sampler":22,
					"target":{
						"node":7,
						"path":"rotation"
					}
				},
				{
					"sampler":23,
					"target":{
						"node":7,
						"path":"scale"
					}
				},
				{
					"sampler":24,
					"target":{
						"node":6,
						"path":"translation"
					}
				},
				{
					"sampler":25,
					"target":{
						"node":6,
						"path":"rotation"
					}
				},
				{
					"sampler":26,
					"target":{
						"node":6,
						"path":"scale"
					}
				}
			],
			"name":"Walk",
			"samplers":[
				{
					"input":7,
					"interpolation":"STEP",
					"output":35
				},
				{
					"input":7,
					"interpolation":"STEP",
					"output":36
				},
				{
					"input":7,
					"interpolation":"STEP",
					"output":37
				},
				{
					"input":7,
					"interpolation":"STEP",
					"output":38
				},
				{
					"input":7,
					"interpolation":"STEP",
					"output":39
				},
				{
					"input":7,
					"interpolation":"STEP",
					"output":11
				},
				{
					"input":7,
					"interpolation":"STEP",
					"output":40
				},
				{
					"input":7,
					"interpolation":"STEP",
					"output":41
				},
				{
					"input":7,
					"interpolation":"STEP",
					"output":25
				},
				{
					"input":7,
					"interpolation":"STEP",
					"output":42
				},
				{
					"input":9,
					"interpolation":"LINEAR",
					"output":43
				},
				{
					"input":7,
					"interpolation":"STEP",
					"output":44
				},
				{
					"input":7,
					"interpolation":"STEP",
					"output":45
				},
				{
					"input":7,
					"interpolation":"STEP",
					"output":46
				},
				{
					"input":7,
					"interpolation":"STEP",
					"output":47
				},
				{
					"input":7,
					"interpolation":"STEP",
					"output":48
				},
				{
					"input":9,
					"interpolation":"LINEAR",
					"output":49
				},
				{
					"input":7,
					"interpolation":"STEP",
					"output":50
				},
				{
					"input":7,
					"interpolation":"STEP",
					"output":45
				},
				{
					"input":7,
					"interpolation":"STEP",
					"output":51
				},
				{
					"input":7,
					"interpolation":"STEP",
					"output":28
				},
				{
					"input":7,
					"interpolation":"STEP",
					"output":52
				},
				{
					"input":7,
					"interpolation":"STEP",
					"output":53
				},
				{
					"input":7,
					"interpolation":"STEP",
					"output":54
				},
				{
					"input":7,
					"interpolation":"STEP",
					"output":55
				},
				{
					"input":7,
					"interpolation":"STEP",
					"output":56
				},
				{
					"input":7,
					"interpolation":"STEP",
					"output":50
				}
			]
		}
	],
	"materials":[
		{
			"name":"tripo_material_6f9ac7eb-2553-43f3-9987-eb678c260b28",
			"normalTexture":{
				"index":0
			},
			"pbrMetallicRoughness":{
				"baseColorTexture":{
					"index":1
				},
				"metallicRoughnessTexture":{
					"index":2
				}
			}
		}
	],
	"meshes":[
		{
			"name":"tripo_mesh_6f9ac7eb-2553-43f3-9987-eb678c260b28",
			"primitives":[
				{
					"attributes":{
						"POSITION":0,
						"NORMAL":1,
						"TEXCOORD_0":2,
						"JOINTS_0":3,
						"WEIGHTS_0":4
					},
					"indices":5,
					"material":0
				}
			]
		}
	],
	"textures":[
		{
			"sampler":0,
			"source":0
		},
		{
			"sampler":0,
			"source":1
		},
		{
			"sampler":0,
			"source":2
		}
	],
	"images":[
		{
			"mimeType":"image/jpeg",
			"name":"NormalGL_6f9ac7eb-2553-43f3-9987-eb678c260b28",
			"uri":"NormalGL_6f9ac7eb-2553-43f3-9987-eb678c260b28.jpg"
		},
		{
			"mimeType":"image/jpeg",
			"name":"Color_6f9ac7eb-2553-43f3-9987-eb678c260b28",
			"uri":"Color_6f9ac7eb-2553-43f3-9987-eb678c260b28.jpg"
		},
		{
			"mimeType":"image/jpeg",
			"name":"ORM_6f9ac7eb-2553-43f3-9987-eb678c260b28",
			"uri":"ORM_6f9ac7eb-2553-43f3-9987-eb678c260b28.jpg"
		}
	],
	"skins":[
		{
			"inverseBindMatrices":6,
			"joints":[
				1,
				0,
				3,
				2,
				5,
				4,
				8,
				7,
				6,
				9
			],
			"name":"Armature"
		}
	],
	"accessors":[
		{
			"bufferView":0,
			"componentType":5126,
			"count":6751,
			"max":[
				0.49796029925346375,
				1.0282363891601562,
				0.2887510061264038
			],
			"min":[
				-0.6082000136375427,
				0.1949957013130188,
				-0.2245917171239853
			],
			"type":"VEC3"
		},
		{
			"bufferView":1,
			"componentType":5126,
			"count":6751,
			"type":"VEC3"
		},
		{
			"bufferView":2,
			"componentType":5126,
			"count":6751,
			"type":"VEC2"
		},
		{
			"bufferView":3,
			"componentType":5121,
			"count":6751,
			"type":"VEC4"
		},
		{
			"bufferView":4,
			"componentType":5126,
			"count":6751,
			"type":"VEC4"
		},
		{
			"bufferView":5,
			"componentType":5123,
			"count":29847,
			"type":"SCALAR"
		},
		{
			"bufferView":6,
			"componentType":5126,
			"count":10,
			"type":"MAT4"
		},
		{
			"bufferView":7,
			"componentType":5126,
			"count":2,
			"max":[
				0.5
			],
			"min":[
				0
			],
			"type":"SCALAR"
		},
		{
			"bufferView":8,
			"componentType":5126,
			"count":2,
			"type":"VEC3"
		},
		{
			"bufferView":9,
			"componentType":5126,
			"count":13,
			"max":[
				0.5
			],
			"min":[
				0
			],
			"type":"SCALAR"
		},
		{
			"bufferView":10,
			"componentType":5126,
			"count":13,
			"type":"VEC4"
		},
		{
			"bufferView":11,
			"componentType":5126,
			"count":2,
			"type":"VEC3"
		},
		{
			"bufferView":12,
			"componentType":5126,
			"count":2,
			"type":"VEC3"
		},
		{
			"bufferView":13,
			"componentType":5126,
			"count":2,
			"type":"VEC4"
		},
		{
			"bufferView":14,
			"componentType":5126,
			"count":2,
			"type":"VEC3"
		},
		{
			"bufferView":15,
			"componentType":5126,
			"count":2,
			"type":"VEC3"
		},
		{
			"bufferView":16,
			"componentType":5126,
			"count":13,
			"type":"VEC4"
		},
		{
			"bufferView":17,
			"componentType":5126,
			"count":2,
			"type":"VEC3"
		},
		{
			"bufferView":18,
			"componentType":5126,
			"count":2,
			"type":"VEC3"
		},
		{
			"bufferView":19,
			"componentType":5126,
			"count":13,
			"type":"VEC4"
		},
		{
			"bufferView":20,
			"componentType":5126,
			"count":2,
			"type":"VEC3"
		},
		{
			"bufferView":21,
			"componentType":5126,
			"count":13,
			"type":"VEC4"
		},
		{
			"bufferView":22,
			"componentType":5126,
			"count":2,
			"type":"VEC3"
		},
		{
			"bufferView":23,
			"componentType":5126,
			"count":2,
			"type":"VEC3"
		},
		{
			"bufferView":24,
			"componentType":5126,
			"count":13,
			"type":"VEC4"
		},
		{
			"bufferView":25,
			"componentType":5126,
			"count":2,
			"type":"VEC3"
		},
		{
			"bufferView":26,
			"componentType":5126,
			"count":2,
			"type":"VEC3"
		},
		{
			"bufferView":27,
			"componentType":5126,
			"count":13,
			"type":"VEC4"
		},
		{
			"bufferView":28,
			"componentType":5126,
			"count":2,
			"type":"VEC3"
		},
		{
			"bufferView":29,
			"componentType":5126,
			"count":2,
			"type":"VEC3"
		},
		{
			"bufferView":30,
			"componentType":5126,
			"count":2,
			"type":"VEC4"
		},
		{
			"bufferView":31,
			"componentType":5126,
			"count":2,
			"type":"VEC3"
		},
		{
			"bufferView":32,
			"componentType":5126,
			"count":2,
			"type":"VEC3"
		},
		{
			"bufferView":33,
			"componentType":5126,
			"count":2,
			"type":"VEC4"
		},
		{
			"bufferView":34,
			"componentType":5126,
			"count":2,
			"type":"VEC3"
		},
		{
			"bufferView":35,
			"componentType":5126,
			"count":2,
			"type":"VEC3"
		},
		{
			"bufferView":36,
			"componentType":5126,
			"count":2,
			"type":"VEC4"
		},
		{
			"bufferView":37,
			"componentType":5126,
			"count":2,
			"type":"VEC3"
		},
		{
			"bufferView":38,
			"componentType":5126,
			"count":2,
			"type":"VEC3"
		},
		{
			"bufferView":39,
			"componentType":5126,
			"count":2,
			"type":"VEC4"
		},
		{
			"bufferView":40,
			"componentType":5126,
			"count":2,
			"type":"VEC3"
		},
		{
			"bufferView":41,
			"componentType":5126,
			"count":2,
			"type":"VEC4"
		},
		{
			"bufferView":42,
			"componentType":5126,
			"count":2,
			"type":"VEC3"
		},
		{
			"bufferView":43,
			"componentType":5126,
			"count":13,
			"type":"VEC4"
		},
		{
			"bufferView":44,
			"componentType":5126,
			"count":2,
			"type":"VEC3"
		},
		{
			"bufferView":45,
			"componentType":5126,
			"count":2,
			"type":"VEC3"
		},
		{
			"bufferView":46,
			"componentType":5126,
			"count":2,
			"type":"VEC4"
		},
		{
			"bufferView":47,
			"componentType":5126,
			"count":2,
			"type":"VEC3"
		},
		{
			"bufferView":48,
			"componentType":5126,
			"count":2,
			"type":"VEC3"
		},
		{
			"bufferView":49,
			"componentType":5126,
			"count":13,
			"type":"VEC4"
		},
		{
			"bufferView":50,
			"componentType":5126,
			"count":2,
			"type":"VEC3"
		},
		{
			"bufferView":51,
			"componentType":5126,
			"count":2,
			"type":"VEC4"
		},
		{
			"bufferView":52,
			"componentType":5126,
			"count":2,
			"type":"VEC3"
		},
		{
			"bufferView":53,
			"componentType":5126,
			"count":2,
			"type":"VEC4"
		},
		{
			"bufferView":54,
			"componentType":5126,
			"count":2,
			"type":"VEC3"
		},
		{
			"bufferView":55,
			"componentType":5126,
			"count":2,
			"type":"VEC3"
		},
		{
			"bufferView":56,
			"componentType":5126,
			"count":2,
			"type":"VEC4"
		}
	],
	"bufferViews":[
		{
			"buffer":0,
			"byteLength":81012,
			"byteOffset":0,
			"target":34962
		},
		{
			"buffer":0,
			"byteLength":81012,
			"byteOffset":81012,
			"target":34962
		},
		{
			"buffer":0,
			"byteLength":54008,
			"byteOffset":162024,
			"target":34962
		},
		{
			"buffer":0,
			"byteLength":27004,
			"byteOffset":216032,
			"target":34962
		},
		{
			"buffer":0,
			"byteLength":108016,
			"byteOffset":243036,
			"target":34962
		},
		{
			"buffer":0,
			"byteLength":59694,
			"byteOffset":351052,
			"target":34963
		},
		{
			"buffer":0,
			"byteLength":640,
			"byteOffset":410748
		},
		{
			"buffer":0,
			"byteLength":8,
			"byteOffset":411388
		},
		{
			"buffer":0,
			"byteLength":24,
			"byteOffset":411396
		},
		{
			"buffer":0,
			"byteLength":52,
			"byteOffset":411420
		},
		{
			"buffer":0,
			"byteLength":208,
			"byteOffset":411472
		},
		{
			"buffer":0,
			"byteLength":24,
			"byteOffset":411680
		},
		{
			"buffer":0,
			"byteLength":24,
			"byteOffset":411704
		},
		{
			"buffer":0,
			"byteLength":32,
			"byteOffset":411728
		},
		{
			"buffer":0,
			"byteLength":24,
			"byteOffset":411760
		},
		{
			"buffer":0,
			"byteLength":24,
			"byteOffset":411784
		},
		{
			"buffer":0,
			"byteLength":208,
			"byteOffset":411808
		},
		{
			"buffer":0,
			"byteLength":24,
			"byteOffset":412016
		},
		{
			"buffer":0,
			"byteLength":24,
			"byteOffset":412040
		},
		{
			"buffer":0,
			"byteLength":208,
			"byteOffset":412064
		},
		{
			"buffer":0,
			"byteLength":24,
			"byteOffset":412272
		},
		{
			"buffer":0,
			"byteLength":208,
			"byteOffset":412296
		},
		{
			"buffer":0,
			"byteLength":24,
			"byteOffset":412504
		},
		{
			"buffer":0,
			"byteLength":24,
			"byteOffset":412528
		},
		{
			"buffer":0,
			"byteLength":208,
			"byteOffset":412552
		},
		{
			"buffer":0,
			"byteLength":24,
			"byteOffset":412760
		},
		{
			"buffer":0,
			"byteLength":24,
			"byteOffset":412784
		},
		{
			"buffer":0,
			"byteLength":208,
			"byteOffset":412808
		},
		{
			"buffer":0,
			"byteLength":24,
			"byteOffset":413016
		},
		{
			"buffer":0,
			"byteLength":24,
			"byteOffset":413040
		},
		{
			"buffer":0,
			"byteLength":32,
			"byteOffset":413064
		},
		{
			"buffer":0,
			"byteLength":24,
			"byteOffset":413096
		},
		{
			"buffer":0,
			"byteLength":24,
			"byteOffset":413120
		},
		{
			"buffer":0,
			"byteLength":32,
			"byteOffset":413144
		},
		{
			"buffer":0,
			"byteLength":24,
			"byteOffset":413176
		},
		{
			"buffer":0,
			"byteLength":24,
			"byteOffset":413200
		},
		{
			"buffer":0,
			"byteLength":32,
			"byteOffset":413224
		},
		{
			"buffer":0,
			"byteLength":24,
			"byteOffset":413256
		},
		{
			"buffer":0,
			"byteLength":24,
			"byteOffset":413280
		},
		{
			"buffer":0,
			"byteLength":32,
			"byteOffset":413304
		},
		{
			"buffer":0,
			"byteLength":24,
			"byteOffset":413336
		},
		{
			"buffer":0,
			"byteLength":32,
			"byteOffset":413360
		},
		{
			"buffer":0,
			"byteLength":24,
			"byteOffset":413392
		},
		{
			"buffer":0,
			"byteLength":208,
			"byteOffset":413416
		},
		{
			"buffer":0,
			"byteLength":24,
			"byteOffset":413624
		},
		{
			"buffer":0,
			"byteLength":24,
			"byteOffset":413648
		},
		{
			"buffer":0,
			"byteLength":32,
			"byteOffset":413672
		},
		{
			"buffer":0,
			"byteLength":24,
			"byteOffset":413704
		},
		{
			"buffer":0,
			"byteLength":24,
			"byteOffset":413728
		},
		{
			"buffer":0,
			"byteLength":208,
			"byteOffset":413752
		},
		{
			"buffer":0,
			"byteLength":24,
			"byteOffset":413960
		},
		{
			"buffer":0,
			"byteLength":32,
			"byteOffset":413984
		},
		{
			"buffer":0,
			"byteLength":24,
			"byteOffset":414016
		},
		{
			"buffer":0,
			"byteLength":32,
			"byteOffset":414040
		},
		{
			"buffer":0,
			"byteLength":24,
			"byteOffset":414072
		},
		{
			"buffer":0,
			"byteLength":24,
			"byteOffset":414096
		},
		{
			"buffer":0,
			"byteLength":32,
			"byteOffset":414120
		}
	],
	"samplers":[
		{
			"magFilter":9729,
			"minFilter":9987
		}
	],
	"buffers":[
		{
			"byteLength":414152,
			"uri":"osa.bin"
		}
	]
}
