{
	"asset":{
		"generator":"Khronos glTF Blender I/O v5.2.39",
		"version":"2.0"
	},
	"scene":0,
	"scenes":[
		{
			"name":"Scene",
			"nodes":[
				26
			]
		}
	],
	"nodes":[
		{
			"name":"Bone.017",
			"rotation":[
				-0.7518238425254822,
				4.955004406781427e-09,
				-0.08119874447584152,
				0.6543452739715576
			],
			"scale":[
				0.9999999403953552,
				0.9999998211860657,
				1
			],
			"translation":[
				-4.470348358154297e-08,
				0.14706476032733917,
				-8.568167686462402e-08
			]
		},
		{
			"children":[
				0
			],
			"name":"Bone.016",
			"rotation":[
				0.45912623405456543,
				9.37786239774141e-08,
				-0.15950380265712738,
				0.8739345669746399
			],
			"scale":[
				1,
				0.9999998211860657,
				0.9999998211860657
			],
			"translation":[
				1.4901161193847656e-08,
				0.37466752529144287,
				8.195638656616211e-08
			]
		},
		{
			"children":[
				1
			],
			"name":"Bone.015",
			"rotation":[
				0.5652498602867126,
				0.037025779485702515,
				-0.24720892310142517,
				0.7861357927322388
			],
			"scale":[
				0.9999999403953552,
				1.0000001192092896,
				1
			],
			"translation":[
				-1.6298145055770874e-08,
				0.6658227443695068,
				0
			]
		},
		{
			"name":"Bone.020",
			"rotation":[
				0.5447978377342224,
				-0.03896082937717438,
				0.3070933520793915,
				0.7793401479721069
			],
			"scale":[
				0.9999998807907104,
				0.9999999403953552,
				1
			],
			"translation":[
				-2.9802322387695312e-08,
				0.22862988710403442,
				5.21540641784668e-08
			]
		},
		{
			"children":[
				3
			],
			"name":"Bone.019",
			"rotation":[
				-0.07878006994724274,
				-0.10257664322853088,
				-0.6116091012954712,
				0.7805165648460388
			],
			"scale":[
				0.9999999403953552,
				0.9999998211860657,
				1
			],
			"translation":[
				-3.119930624961853e-08,
				0.32652339339256287,
				8.940696716308594e-08
			]
		},
		{
			"children":[
				4
			],
			"name":"Bone.018",
			"rotation":[
				-0.2334054857492447,
				0.04702559486031532,
				-0.49030154943466187,
				0.8384001851081848
			],
			"scale":[
				1,
				1.0000001192092896,
				1
			],
			"translation":[
				-1.6298145055770874e-08,
				0.6658227443695068,
				0
			]
		},
		{
			"name":"Bone.023",
			"rotation":[
				0.20865800976753235,
				-7.176027594368861e-08,
				-0.6544082164764404,
				0.7267817854881287
			],
			"scale":[
				1,
				0.9999999403953552,
				0.9999999403953552
			],
			"translation":[
				2.039596438407898e-07,
				0.4273532032966614,
				3.725290298461914e-08
			]
		},
		{
			"children":[
				6
			],
			"name":"Bone.022",
			"rotation":[
				-0.10092975199222565,
				-0.049219824373722076,
				0.35225746035575867,
				0.9291422367095947
			],
			"translation":[
				-3.259629011154175e-08,
				0.3005104959011078,
				1.4901161193847656e-08
			]
		},
		{
			"children":[
				7
			],
			"name":"Bone.021",
			"rotation":[
				-0.02745654061436653,
				-0.007063194643706083,
				0.023808497935533524,
				0.9993144869804382
			],
			"scale":[
				1.000000238418579,
				0.9999999403953552,
				1.0000001192092896
			],
			"translation":[
				-1.6298145055770874e-08,
				0.6658227443695068,
				0
			]
		},
		{
			"children":[
				2,
				5,
				8
			],
			"name":"Bone",
			"rotation":[
				0.08693807572126389,
				-0.0014222695026546717,
				0.0495348684489727,
				0.9949804544448853
			],
			"scale":[
				0.9999999403953552,
				1.0000001192092896,
				1
			],
			"translation":[
				-0.008040844462811947,
				0.26891669631004333,
				0.06051577627658844
			]
		},
		{
			"name":"Bone.010",
			"rotation":[
				0.48272472620010376,
				0.005003125406801701,
				-0.14915913343429565,
				0.862962007522583
			],
			"translation":[
				-1.4901161193847656e-08,
				0.34885162115097046,
				5.587935447692871e-08
			]
		},
		{
			"children":[
				10
			],
			"name":"Bone.008",
			"rotation":[
				0.37541937828063965,
				-0.03198641538619995,
				-0.22490763664245605,
				0.8985843062400818
			],
			"scale":[
				1,
				1.0000001192092896,
				1
			],
			"translation":[
				1.1175870895385742e-08,
				0.4527733027935028,
				-7.450580596923828e-08
			]
		},
		{
			"children":[
				11
			],
			"name":"Bone.007",
			"rotation":[
				-0.4436601400375366,
				0.14498740434646606,
				0.13630303740501404,
				0.8738225698471069
			],
			"scale":[
				0.9999998211860657,
				0.9999999403953552,
				0.9999998807907104
			],
			"translation":[
				1.4901161193847656e-08,
				0.37379732728004456,
				-7.450580596923828e-08
			]
		},
		{
			"children":[
				12
			],
			"name":"Bone.006",
			"rotation":[
				0.23623473942279816,
				0.013614571653306484,
				0.6887699961662292,
				0.685276448726654
			],
			"scale":[
				0.9999998211860657,
				0.9999998807907104,
				0.9999999403953552
			],
			"translation":[
				1.364387571811676e-07,
				0.2994533181190491,
				6.51925802230835e-08
			]
		},
		{
			"children":[
				13
			],
			"name":"Bone.001",
			"rotation":[
				-0.1354673206806183,
				0.642003059387207,
				0.7455693483352661,
				0.11664950102567673
			],
			"scale":[
				0.9999997615814209,
				0.9999999403953552,
				0.9999999403953552
			],
			"translation":[
				-0.008040844462811947,
				0.26891669631004333,
				0.06051577627658844
			]
		},
		{
			"name":"Bone.009",
			"rotation":[
				0.552020788192749,
				-0.036916036158800125,
				0.07042698562145233,
				0.8300303220748901
			],
			"scale":[
				0.9999999403953552,
				0.9999997019767761,
				0.9999998211860657
			],
			"translation":[
				-1.862645149230957e-08,
				0.3568771779537201,
				7.450580596923828e-09
			]
		},
		{
			"children":[
				15
			],
			"name":"Bone.005",
			"rotation":[
				0.505621612071991,
				0.24618449807167053,
				0.05056041479110718,
				0.8253385424613953
			],
			"scale":[
				1.0000001192092896,
				1,
				0.9999998807907104
			],
			"translation":[
				-2.9802322387695312e-08,
				0.4676762521266937,
				-1.1175870895385742e-08
			]
		},
		{
			"children":[
				16
			],
			"name":"Bone.004",
			"rotation":[
				-0.5595191121101379,
				-0.25838664174079895,
				-0.015757808461785316,
				0.787354052066803
			],
			"scale":[
				0.9999998807907104,
				0.9999998807907104,
				1
			],
			"translation":[
				4.470348358154297e-08,
				0.3957214057445526,
				-5.960464477539063e-08
			]
		},
		{
			"children":[
				17
			],
			"name":"Bone.003",
			"rotation":[
				0.18570326268672943,
				0.027392253279685974,
				-0.684124767780304,
				0.7047958970069885
			],
			"scale":[
				1.0000001192092896,
				1,
				0.9999999403953552
			],
			"translation":[
				9.313225746154785e-10,
				0.31031277775764465,
				2.7939677238464355e-08
			]
		},
		{
			"children":[
				18
			],
			"name":"Bone.002",
			"rotation":[
				-0.6442521214485168,
				-0.13501301407814026,
				-0.11696533113718033,
				0.7436597347259521
			],
			"translation":[
				-0.008040844462811947,
				0.26891669631004333,
				0.06051577627658844
			]
		},
		{
			"name":"Bone.014",
			"rotation":[
				-0.12234319746494293,
				0.017211785539984703,
				-0.3533807098865509,
				0.9272853136062622
			],
			"translation":[
				1.043081283569336e-07,
				0.8036116361618042,
				0
			]
		},
		{
			"children":[
				20
			],
			"name":"Bone.013",
			"rotation":[
				0.016625503078103065,
				0.011369407176971436,
				-0.08841957151889801,
				0.9958796501159668
			],
			"scale":[
				1,
				1,
				0.9999998807907104
			],
			"translation":[
				2.7939677238464355e-09,
				0.5917659997940063,
				1.364387571811676e-07
			]
		},
		{
			"children":[
				21
			],
			"name":"Bone.012",
			"rotation":[
				0.06430063396692276,
				0.0002146300976164639,
				-0.012478561140596867,
				0.9978525638580322
			],
			"scale":[
				1,
				0.9999999403953552,
				0.9999999403953552
			],
			"translation":[
				-4.284083843231201e-08,
				0.5332772135734558,
				1.3535100151784718e-08
			]
		},
		{
			"children":[
				22
			],
			"name":"Bone.011",
			"rotation":[
				-0.9465555548667908,
				0.041834667325019836,
				0.28897085785865784,
				0.13703402876853943
			],
			"translation":[
				-0.008040844462811947,
				0.26891669631004333,
				0.06051577627658844
			]
		},
		{
			"name":"neutral_bone",
			"rotation":[
				-0.7071067690849304,
				0,
				0,
				0.7071067690849304
			]
		},
		{
			"mesh":0,
			"name":"tripo_node_39e2e291-b27a-44f4-b977-503debae7366",
			"skin":0
		},
		{
			"children":[
				25,
				9,
				14,
				19,
				23,
				24
			],
			"name":"Armature",
			"rotation":[
				0.026633944362401962,
				0.2017573118209839,
				-0.6354614496231079,
				0.7448312044143677
			],
			"scale":[
				0.5641897320747375,
				0.5641897916793823,
				0.5641897320747375
			],
			"translation":[
				0,
				0.6503169536590576,
				0
			]
		}
	],
	"animations":[
		{
			"channels":[
				{
					"sampler":0,
					"target":{
						"node":9,
						"path":"translation"
					}
				},
				{
					"sampler":1,
					"target":{
						"node":9,
						"path":"rotation"
					}
				},
				{
					"sampler":2,
					"target":{
						"node":9,
						"path":"scale"
					}
				},
				{
					"sampler":3,
					"target":{
						"node":2,
						"path":"translation"
					}
				},
				{
					"sampler":4,
					"target":{
						"node":2,
						"path":"rotation"
					}
				},
				{
					"sampler":5,
					"target":{
						"node":2,
						"path":"scale"
					}
				},
				{
					"sampler":6,
					"target":{
						"node":1,
						"path":"translation"
					}
				},
				{
					"sampler":7,
					"target":{
						"node":1,
						"path":"rotation"
					}
				},
				{
					"sampler":8,
					"target":{
						"node":1,
						"path":"scale"
					}
				},
				{
					"sampler":9,
					"target":{
						"node":0,
						"path":"translation"
					}
				},
				{
					"sampler":10,
					"target":{
						"node":0,
						"path":"rotation"
					}
				},
				{
					"sampler":11,
					"target":{
						"node":0,
						"path":"scale"
					}
				},
				{
					"sampler":12,
					"target":{
						"node":5,
						"path":"translation"
					}
				},
				{
					"sampler":13,
					"target":{
						"node":5,
						"path":"rotation"
					}
				},
				{
					"sampler":14,
					"target":{
						"node":5,
						"path":"scale"
					}
				},
				{
					"sampler":15,
					"target":{
						"node":4,
						"path":"translation"
					}
				},
				{
					"sampler":16,
					"target":{
						"node":4,
						"path":"rotation"
					}
				},
				{
					"sampler":17,
					"target":{
						"node":4,
						"path":"scale"
					}
				},
				{
					"sampler":18,
					"target":{
						"node":3,
						"path":"translation"
					}
				},
				{
					"sampler":19,
					"target":{
						"node":3,
						"path":"rotation"
					}
				},
				{
					"sampler":20,
					"target":{
						"node":3,
						"path":"scale"
					}
				},
				{
					"sampler":21,
					"target":{
						"node":8,
						"path":"translation"
					}
				},
				{
					"sampler":22,
					"target":{
						"node":8,
						"path":"rotation"
					}
				},
				{
					"sampler":23,
					"target":{
						"node":8,
						"path":"scale"
					}
				},
				{
					"sampler":24,
					"target":{
						"node":7,
						"path":"translation"
					}
				},
				{
					"sampler":25,
					"target":{
						"node":7,
						"path":"rotation"
					}
				},
				{
					"sampler":26,
					"target":{
						"node":7,
						"path":"scale"
					}
				},
				{
					"sampler":27,
					"target":{
						"node":6,
						"path":"translation"
					}
				},
				{
					"sampler":28,
					"target":{
						"node":6,
						"path":"rotation"
					}
				},
				{
					"sampler":29,
					"target":{
						"node":6,
						"path":"scale"
					}
				},
				{
					"sampler":30,
					"target":{
						"node":14,
						"path":"translation"
					}
				},
				{
					"sampler":31,
					"target":{
						"node":14,
						"path":"rotation"
					}
				},
				{
					"sampler":32,
					"target":{
						"node":14,
						"path":"scale"
					}
				},
				{
					"sampler":33,
					"target":{
						"node":13,
						"path":"translation"
					}
				},
				{
					"sampler":34,
					"target":{
						"node":13,
						"path":"rotation"
					}
				},
				{
					"sampler":35,
					"target":{
						"node":13,
						"path":"scale"
					}
				},
				{
					"sampler":36,
					"target":{
						"node":12,
						"path":"translation"
					}
				},
				{
					"sampler":37,
					"target":{
						"node":12,
						"path":"rotation"
					}
				},
				{
					"sampler":38,
					"target":{
						"node":12,
						"path":"scale"
					}
				},
				{
					"sampler":39,
					"target":{
						"node":11,
						"path":"translation"
					}
				},
				{
					"sampler":40,
					"target":{
						"node":11,
						"path":"rotation"
					}
				},
				{
					"sampler":41,
					"target":{
						"node":11,
						"path":"scale"
					}
				},
				{
					"sampler":42,
					"target":{
						"node":10,
						"path":"translation"
					}
				},
				{
					"sampler":43,
					"target":{
						"node":10,
						"path":"rotation"
					}
				},
				{
					"sampler":44,
					"target":{
						"node":10,
						"path":"scale"
					}
				},
				{
					"sampler":45,
					"target":{
						"node":19,
						"path":"translation"
					}
				},
				{
					"sampler":46,
					"target":{
						"node":19,
						"path":"rotation"
					}
				},
				{
					"sampler":47,
					"target":{
						"node":19,
						"path":"scale"
					}
				},
				{
					"sampler":48,
					"target":{
						"node":18,
						"path":"translation"
					}
				},
				{
					"sampler":49,
					"target":{
						"node":18,
						"path":"rotation"
					}
				},
				{
					"sampler":50,
					"target":{
						"node":18,
						"path":"scale"
					}
				},
				{
					"sampler":51,
					"target":{
						"node":17,
						"path":"translation"
					}
				},
				{
					"sampler":52,
					"target":{
						"node":17,
						"path":"rotation"
					}
				},
				{
					"sampler":53,
					"target":{
						"node":17,
						"path":"scale"
					}
				},
				{
					"sampler":54,
					"target":{
						"node":16,
						"path":"translation"
					}
				},
				{
					"sampler":55,
					"target":{
						"node":16,
						"path":"rotation"
					}
				},
				{
					"sampler":56,
					"target":{
						"node":16,
						"path":"scale"
					}
				},
				{
					"sampler":57,
					"target":{
						"node":15,
						"path":"translation"
					}
				},
				{
					"sampler":58,
					"target":{
						"node":15,
						"path":"rotation"
					}
				},
				{
					"sampler":59,
					"target":{
						"node":15,
						"path":"scale"
					}
				},
				{
					"sampler":60,
					"target":{
						"node":23,
						"path":"translation"
					}
				},
				{
					"sampler":61,
					"target":{
						"node":23,
						"path":"rotation"
					}
				},
				{
					"sampler":62,
					"target":{
						"node":23,
						"path":"scale"
					}
				},
				{
					"sampler":63,
					"target":{
						"node":22,
						"path":"translation"
					}
				},
				{
					"sampler":64,
					"target":{
						"node":22,
						"path":"rotation"
					}
				},
				{
					"sampler":65,
					"target":{
						"node":22,
						"path":"scale"
					}
				},
				{
					"sampler":66,
					"target":{
						"node":21,
						"path":"translation"
					}
				},
				{
					"sampler":67,
					"target":{
						"node":21,
						"path":"rotation"
					}
				},
				{
					"sampler":68,
					"target":{
						"node":21,
						"path":"scale"
					}
				},
				{
					"sampler":69,
					"target":{
						"node":20,
						"path":"translation"
					}
				},
				{
					"sampler":70,
					"target":{
						"node":20,
						"path":"rotation"
					}
				},
				{
					"sampler":71,
					"target":{
						"node":20,
						"path":"scale"
					}
				}
			],
			"name":"Attack",
			"samplers":[
				{
					"input":7,
					"interpolation":"STEP",
					"output":8
				},
				{
					"input":7,
					"interpolation":"STEP",
					"output":9
				},
				{
					"input":7,
					"interpolation":"STEP",
					"output":10
				},
				{
					"input":7,
					"interpolation":"STEP",
					"output":11
				},
				{
					"input":7,
					"interpolation":"STEP",
					"output":12
				},
				{
					"input":7,
					"interpolation":"STEP",
					"output":13
				},
				{
					"input":7,
					"interpolation":"STEP",
					"output":14
				},
				{
					"input":7,
					"interpolation":"STEP",
					"output":15
				},
				{
					"input":7,
					"interpolation":"STEP",
					"output":16
				},
				{
					"input":7,
					"interpolation":"STEP",
					"output":17
				},
				{
					"input":7,
					"interpolation":"STEP",
					"output":18
				},
				{
					"input":7,
					"interpolation":"STEP",
					"output":19
				},
				{
					"input":7,
					"interpolation":"STEP",
					"output":20
				},
				{
					"input":7,
					"interpolation":"STEP",
					"output":21
				},
				{
					"input":7,
					"interpolation":"STEP",
					"output":22
				},
				{
					"input":7,
					"interpolation":"STEP",
					"output":23
				},
				{
					"input":7,
					"interpolation":"STEP",
					"output":24
				},
				{
					"input":7,
					"interpolation":"STEP",
					"output":25
				},
				{
					"input":7,
					"interpolation":"STEP",
					"output":26
				},
				{
					"input":7,
					"interpolation":"STEP",
					"output":27
				},
				{
					"input":7,
					"interpolation":"STEP",
					"output":28
				},
				{
					"input":7,
					"interpolation":"STEP",
					"output":29
				},
				{
					"input":30,
					"interpolation":"LINEAR",
					"output":31
				},
				{
					"input":7,
					"interpolation":"STEP",
					"output":32
				},
				{
					"input":7,
					"interpolation":"STEP",
					"output":33
				},
				{
					"input":7,
					"interpolation":"STEP",
					"output":34
				},
				{
					"input":7,
					"interpolation":"STEP",
					"output":35
				},
				{
					"input":7,
					"interpolation":"STEP",
					"output":36
				},
				{
					"input":30,
					"interpolation":"LINEAR",
					"output":37
				},
				{
					"input":7,
					"interpolation":"STEP",
					"output":38
				},
				{
					"input":7,
					"interpolation":"STEP",
					"output":39
				},
				{
					"input":7,
					"interpolation":"STEP",
					"output":40
				},
				{
					"input":7,
					"interpolation":"STEP",
					"output":41
				},
				{
					"input":7,
					"interpolation":"STEP",
					"output":42
				},
				{
					"input":7,
					"interpolation":"STEP",
					"output":43
				},
				{
					"input":7,
					"interpolation":"STEP",
					"output":44
				},
				{
					"input":7,
					"interpolation":"STEP",
					"output":45
				},
				{
					"input":7,
					"interpolation":"STEP",
					"output":46
				},
				{
					"input":7,
					"interpolation":"STEP",
					"output":47
				},
				{
					"input":7,
					"interpolation":"STEP",
					"output":48
				},
				{
					"input":7,
					"interpolation":"STEP",
					"output":49
				},
				{
					"input":7,
					"interpolation":"STEP",
					"output":10
				},
				{
					"input":7,
					"interpolation":"STEP",
					"output":50
				},
				{
					"input":7,
					"interpolation":"STEP",
					"output":51
				},
				{
					"input":7,
					"interpolation":"STEP",
					"output":52
				},
				{
					"input":7,
					"interpolation":"STEP",
					"output":53
				},
				{
					"input":7,
					"interpolation":"STEP",
					"output":54
				},
				{
					"input":7,
					"interpolation":"STEP",
					"output":55
				},
				{
					"input":7,
					"interpolation":"STEP",
					"output":56
				},
				{
					"input":7,
					"interpolation":"STEP",
					"output":57
				},
				{
					"input":7,
					"interpolation":"STEP",
					"output":58
				},
				{
					"input":7,
					"interpolation":"STEP",
					"output":59
				},
				{
					"input":7,
					"interpolation":"STEP",
					"output":60
				},
				{
					"input":7,
					"interpolation":"STEP",
					"output":61
				},
				{
					"input":7,
					"interpolation":"STEP",
					"output":62
				},
				{
					"input":7,
					"interpolation":"STEP",
					"output":63
				},
				{
					"input":7,
					"interpolation":"STEP",
					"output":64
				},
				{
					"input":7,
					"interpolation":"STEP",
					"output":65
				},
				{
					"input":7,
					"interpolation":"STEP",
					"output":66
				},
				{
					"input":7,
					"interpolation":"STEP",
					"output":67
				},
				{
					"input":7,
					"interpolation":"STEP",
					"output":68
				},
				{
					"input":7,
					"interpolation":"STEP",
					"output":69
				},
				{
					"input":7,
					"interpolation":"STEP",
					"output":19
				},
				{
					"input":7,
					"interpolation":"STEP",
					"output":70
				},
				{
					"input":7,
					"interpolation":"STEP",
					"output":71
				},
				{
					"input":7,
					"interpolation":"STEP",
					"output":72
				},
				{
					"input":7,
					"interpolation":"STEP",
					"output":73
				},
				{
					"input":7,
					"interpolation":"STEP",
					"output":74
				},
				{
					"input":7,
					"interpolation":"STEP",
					"output":75
				},
				{
					"input":7,
					"interpolation":"STEP",
					"output":76
				},
				{
					"input":7,
					"interpolation":"STEP",
					"output":77
				},
				{
					"input":7,
					"interpolation":"STEP",
					"output":47
				}
			]
		},
		{
			"channels":[
				{
					"sampler":0,
					"target":{
						"node":9,
						"path":"translation"
					}
				},
				{
					"sampler":1,
					"target":{
						"node":9,
						"path":"rotation"
					}
				},
				{
					"sampler":2,
					"target":{
						"node":9,
						"path":"scale"
					}
				},
				{
					"sampler":3,
					"target":{
						"node":2,
						"path":"translation"
					}
				},
				{
					"sampler":4,
					"target":{
						"node":2,
						"path":"rotation"
					}
				},
				{
					"sampler":5,
					"target":{
						"node":2,
						"path":"scale"
					}
				},
				{
					"sampler":6,
					"target":{
						"node":1,
						"path":"translation"
					}
				},
				{
					"sampler":7,
					"target":{
						"node":1,
						"path":"rotation"
					}
				},
				{
					"sampler":8,
					"target":{
						"node":1,
						"path":"scale"
					}
				},
				{
					"sampler":9,
					"target":{
						"node":0,
						"path":"translation"
					}
				},
				{
					"sampler":10,
					"target":{
						"node":0,
						"path":"rotation"
					}
				},
				{
					"sampler":11,
					"target":{
						"node":0,
						"path":"scale"
					}
				},
				{
					"sampler":12,
					"target":{
						"node":5,
						"path":"translation"
					}
				},
				{
					"sampler":13,
					"target":{
						"node":5,
						"path":"rotation"
					}
				},
				{
					"sampler":14,
					"target":{
						"node":5,
						"path":"scale"
					}
				},
				{
					"sampler":15,
					"target":{
						"node":4,
						"path":"translation"
					}
				},
				{
					"sampler":16,
					"target":{
						"node":4,
						"path":"rotation"
					}
				},
				{
					"sampler":17,
					"target":{
						"node":4,
						"path":"scale"
					}
				},
				{
					"sampler":18,
					"target":{
						"node":3,
						"path":"translation"
					}
				},
				{
					"sampler":19,
					"target":{
						"node":3,
						"path":"rotation"
					}
				},
				{
					"sampler":20,
					"target":{
						"node":3,
						"path":"scale"
					}
				},
				{
					"sampler":21,
					"target":{
						"node":8,
						"path":"translation"
					}
				},
				{
					"sampler":22,
					"target":{
						"node":8,
						"path":"rotation"
					}
				},
				{
					"sampler":23,
					"target":{
						"node":8,
						"path":"scale"
					}
				},
				{
					"sampler":24,
					"target":{
						"node":7,
						"path":"translation"
					}
				},
				{
					"sampler":25,
					"target":{
						"node":7,
						"path":"rotation"
					}
				},
				{
					"sampler":26,
					"target":{
						"node":7,
						"path":"scale"
					}
				},
				{
					"sampler":27,
					"target":{
						"node":6,
						"path":"translation"
					}
				},
				{
					"sampler":28,
					"target":{
						"node":6,
						"path":"rotation"
					}
				},
				{
					"sampler":29,
					"target":{
						"node":6,
						"path":"scale"
					}
				},
				{
					"sampler":30,
					"target":{
						"node":14,
						"path":"translation"
					}
				},
				{
					"sampler":31,
					"target":{
						"node":14,
						"path":"rotation"
					}
				},
				{
					"sampler":32,
					"target":{
						"node":14,
						"path":"scale"
					}
				},
				{
					"sampler":33,
					"target":{
						"node":13,
						"path":"translation"
					}
				},
				{
					"sampler":34,
					"target":{
						"node":13,
						"path":"rotation"
					}
				},
				{
					"sampler":35,
					"target":{
						"node":13,
						"path":"scale"
					}
				},
				{
					"sampler":36,
					"target":{
						"node":12,
						"path":"translation"
					}
				},
				{
					"sampler":37,
					"target":{
						"node":12,
						"path":"rotation"
					}
				},
				{
					"sampler":38,
					"target":{
						"node":12,
						"path":"scale"
					}
				},
				{
					"sampler":39,
					"target":{
						"node":11,
						"path":"translation"
					}
				},
				{
					"sampler":40,
					"target":{
						"node":11,
						"path":"rotation"
					}
				},
				{
					"sampler":41,
					"target":{
						"node":11,
						"path":"scale"
					}
				},
				{
					"sampler":42,
					"target":{
						"node":10,
						"path":"translation"
					}
				},
				{
					"sampler":43,
					"target":{
						"node":10,
						"path":"rotation"
					}
				},
				{
					"sampler":44,
					"target":{
						"node":10,
						"path":"scale"
					}
				},
				{
					"sampler":45,
					"target":{
						"node":19,
						"path":"translation"
					}
				},
				{
					"sampler":46,
					"target":{
						"node":19,
						"path":"rotation"
					}
				},
				{
					"sampler":47,
					"target":{
						"node":19,
						"path":"scale"
					}
				},
				{
					"sampler":48,
					"target":{
						"node":18,
						"path":"translation"
					}
				},
				{
					"sampler":49,
					"target":{
						"node":18,
						"path":"rotation"
					}
				},
				{
					"sampler":50,
					"target":{
						"node":18,
						"path":"scale"
					}
				},
				{
					"sampler":51,
					"target":{
						"node":17,
						"path":"translation"
					}
				},
				{
					"sampler":52,
					"target":{
						"node":17,
						"path":"rotation"
					}
				},
				{
					"sampler":53,
					"target":{
						"node":17,
						"path":"scale"
					}
				},
				{
					"sampler":54,
					"target":{
						"node":16,
						"path":"translation"
					}
				},
				{
					"sampler":55,
					"target":{
						"node":16,
						"path":"rotation"
					}
				},
				{
					"sampler":56,
					"target":{
						"node":16,
						"path":"scale"
					}
				},
				{
					"sampler":57,
					"target":{
						"node":15,
						"path":"translation"
					}
				},
				{
					"sampler":58,
					"target":{
						"node":15,
						"path":"rotation"
					}
				},
				{
					"sampler":59,
					"target":{
						"node":15,
						"path":"scale"
					}
				},
				{
					"sampler":60,
					"target":{
						"node":23,
						"path":"translation"
					}
				},
				{
					"sampler":61,
					"target":{
						"node":23,
						"path":"rotation"
					}
				},
				{
					"sampler":62,
					"target":{
						"node":23,
						"path":"scale"
					}
				},
				{
					"sampler":63,
					"target":{
						"node":22,
						"path":"translation"
					}
				},
				{
					"sampler":64,
					"target":{
						"node":22,
						"path":"rotation"
					}
				},
				{
					"sampler":65,
					"target":{
						"node":22,
						"path":"scale"
					}
				},
				{
					"sampler":66,
					"target":{
						"node":21,
						"path":"translation"
					}
				},
				{
					"sampler":67,
					"target":{
						"node":21,
						"path":"rotation"
					}
				},
				{
					"sampler":68,
					"target":{
						"node":21,
						"path":"scale"
					}
				},
				{
					"sampler":69,
					"target":{
						"node":20,
						"path":"translation"
					}
				},
				{
					"sampler":70,
					"target":{
						"node":20,
						"path":"rotation"
					}
				},
				{
					"sampler":71,
					"target":{
						"node":20,
						"path":"scale"
					}
				},
				{
					"sampler":0,
					"target":{
						"node":9,
						"path":"translation"
					}
				},
				{
					"sampler":1,
					"target":{
						"node":9,
						"path":"rotation"
					}
				},
				{
					"sampler":2,
					"target":{
						"node":9,
						"path":"scale"
					}
				},
				{
					"sampler":3,
					"target":{
						"node":2,
						"path":"translation"
					}
				},
				{
					"sampler":4,
					"target":{
						"node":2,
						"path":"rotation"
					}
				},
				{
					"sampler":5,
					"target":{
						"node":2,
						"path":"scale"
					}
				},
				{
					"sampler":6,
					"target":{
						"node":1,
						"path":"translation"
					}
				},
				{
					"sampler":7,
					"target":{
						"node":1,
						"path":"rotation"
					}
				},
				{
					"sampler":8,
					"target":{
						"node":1,
						"path":"scale"
					}
				},
				{
					"sampler":9,
					"target":{
						"node":0,
						"path":"translation"
					}
				},
				{
					"sampler":10,
					"target":{
						"node":0,
						"path":"rotation"
					}
				},
				{
					"sampler":11,
					"target":{
						"node":0,
						"path":"scale"
					}
				},
				{
					"sampler":12,
					"target":{
						"node":5,
						"path":"translation"
					}
				},
				{
					"sampler":13,
					"target":{
						"node":5,
						"path":"rotation"
					}
				},
				{
					"sampler":14,
					"target":{
						"node":5,
						"path":"scale"
					}
				},
				{
					"sampler":15,
					"target":{
						"node":4,
						"path":"translation"
					}
				},
				{
					"sampler":16,
					"target":{
						"node":4,
						"path":"rotation"
					}
				},
				{
					"sampler":17,
					"target":{
						"node":4,
						"path":"scale"
					}
				},
				{
					"sampler":18,
					"target":{
						"node":3,
						"path":"translation"
					}
				},
				{
					"sampler":19,
					"target":{
						"node":3,
						"path":"rotation"
					}
				},
				{
					"sampler":20,
					"target":{
						"node":3,
						"path":"scale"
					}
				},
				{
					"sampler":21,
					"target":{
						"node":8,
						"path":"translation"
					}
				},
				{
					"sampler":22,
					"target":{
						"node":8,
						"path":"rotation"
					}
				},
				{
					"sampler":23,
					"target":{
						"node":8,
						"path":"scale"
					}
				},
				{
					"sampler":24,
					"target":{
						"node":7,
						"path":"translation"
					}
				},
				{
					"sampler":25,
					"target":{
						"node":7,
						"path":"rotation"
					}
				},
				{
					"sampler":26,
					"target":{
						"node":7,
						"path":"scale"
					}
				},
				{
					"sampler":27,
					"target":{
						"node":6,
						"path":"translation"
					}
				},
				{
					"sampler":28,
					"target":{
						"node":6,
						"path":"rotation"
					}
				},
				{
					"sampler":29,
					"target":{
						"node":6,
						"path":"scale"
					}
				},
				{
					"sampler":30,
					"target":{
						"node":14,
						"path":"translation"
					}
				},
				{
					"sampler":31,
					"target":{
						"node":14,
						"path":"rotation"
					}
				},
				{
					"sampler":32,
					"target":{
						"node":14,
						"path":"scale"
					}
				},
				{
					"sampler":33,
					"target":{
						"node":13,
						"path":"translation"
					}
				},
				{
					"sampler":34,
					"target":{
						"node":13,
						"path":"rotation"
					}
				},
				{
					"sampler":35,
					"target":{
						"node":13,
						"path":"scale"
					}
				},
				{
					"sampler":36,
					"target":{
						"node":12,
						"path":"translation"
					}
				},
				{
					"sampler":37,
					"target":{
						"node":12,
						"path":"rotation"
					}
				},
				{
					"sampler":38,
					"target":{
						"node":12,
						"path":"scale"
					}
				},
				{
					"sampler":39,
					"target":{
						"node":11,
						"path":"translation"
					}
				},
				{
					"sampler":40,
					"target":{
						"node":11,
						"path":"rotation"
					}
				},
				{
					"sampler":41,
					"target":{
						"node":11,
						"path":"scale"
					}
				},
				{
					"sampler":42,
					"target":{
						"node":10,
						"path":"translation"
					}
				},
				{
					"sampler":43,
					"target":{
						"node":10,
						"path":"rotation"
					}
				},
				{
					"sampler":44,
					"target":{
						"node":10,
						"path":"scale"
					}
				},
				{
					"sampler":45,
					"target":{
						"node":19,
						"path":"translation"
					}
				},
				{
					"sampler":46,
					"target":{
						"node":19,
						"path":"rotation"
					}
				},
				{
					"sampler":47,
					"target":{
						"node":19,
						"path":"scale"
					}
				},
				{
					"sampler":48,
					"target":{
						"node":18,
						"path":"translation"
					}
				},
				{
					"sampler":49,
					"target":{
						"node":18,
						"path":"rotation"
					}
				},
				{
					"sampler":50,
					"target":{
						"node":18,
						"path":"scale"
					}
				},
				{
					"sampler":51,
					"target":{
						"node":17,
						"path":"translation"
					}
				},
				{
					"sampler":52,
					"target":{
						"node":17,
						"path":"rotation"
					}
				},
				{
					"sampler":53,
					"target":{
						"node":17,
						"path":"scale"
					}
				},
				{
					"sampler":54,
					"target":{
						"node":16,
						"path":"translation"
					}
				},
				{
					"sampler":55,
					"target":{
						"node":16,
						"path":"rotation"
					}
				},
				{
					"sampler":56,
					"target":{
						"node":16,
						"path":"scale"
					}
				},
				{
					"sampler":57,
					"target":{
						"node":15,
						"path":"translation"
					}
				},
				{
					"sampler":58,
					"target":{
						"node":15,
						"path":"rotation"
					}
				},
				{
					"sampler":59,
					"target":{
						"node":15,
						"path":"scale"
					}
				},
				{
					"sampler":60,
					"target":{
						"node":23,
						"path":"translation"
					}
				},
				{
					"sampler":61,
					"target":{
						"node":23,
						"path":"rotation"
					}
				},
				{
					"sampler":62,
					"target":{
						"node":23,
						"path":"scale"
					}
				},
				{
					"sampler":63,
					"target":{
						"node":22,
						"path":"translation"
					}
				},
				{
					"sampler":64,
					"target":{
						"node":22,
						"path":"rotation"
					}
				},
				{
					"sampler":65,
					"target":{
						"node":22,
						"path":"scale"
					}
				},
				{
					"sampler":66,
					"target":{
						"node":21,
						"path":"translation"
					}
				},
				{
					"sampler":67,
					"target":{
						"node":21,
						"path":"rotation"
					}
				},
				{
					"sampler":68,
					"target":{
						"node":21,
						"path":"scale"
					}
				},
				{
					"sampler":69,
					"target":{
						"node":20,
						"path":"translation"
					}
				},
				{
					"sampler":70,
					"target":{
						"node":20,
						"path":"rotation"
					}
				},
				{
					"sampler":71,
					"target":{
						"node":20,
						"path":"scale"
					}
				}
			],
			"name":"Die",
			"samplers":[
				{
					"input":78,
					"interpolation":"LINEAR",
					"output":79
				},
				{
					"input":78,
					"interpolation":"LINEAR",
					"output":80
				},
				{
					"input":78,
					"interpolation":"LINEAR",
					"output":81
				},
				{
					"input":78,
					"interpolation":"LINEAR",
					"output":82
				},
				{
					"input":78,
					"interpolation":"LINEAR",
					"output":83
				},
				{
					"input":78,
					"interpolation":"LINEAR",
					"output":84
				},
				{
					"input":78,
					"interpolation":"LINEAR",
					"output":85
				},
				{
					"input":78,
					"interpolation":"LINEAR",
					"output":86
				},
				{
					"input":78,
					"interpolation":"LINEAR",
					"output":87
				},
				{
					"input":78,
					"interpolation":"LINEAR",
					"output":88
				},
				{
					"input":78,
					"interpolation":"LINEAR",
					"output":89
				},
				{
					"input":78,
					"interpolation":"LINEAR",
					"output":90
				},
				{
					"input":78,
					"interpolation":"LINEAR",
					"output":91
				},
				{
					"input":78,
					"interpolation":"LINEAR",
					"output":92
				},
				{
					"input":78,
					"interpolation":"LINEAR",
					"output":93
				},
				{
					"input":78,
					"interpolation":"LINEAR",
					"output":94
				},
				{
					"input":78,
					"interpolation":"LINEAR",
					"output":95
				},
				{
					"input":78,
					"interpolation":"LINEAR",
					"output":96
				},
				{
					"input":78,
					"interpolation":"LINEAR",
					"output":97
				},
				{
					"input":78,
					"interpolation":"LINEAR",
					"output":98
				},
				{
					"input":78,
					"interpolation":"LINEAR",
					"output":99
				},
				{
					"input":78,
					"interpolation":"LINEAR",
					"output":100
				},
				{
					"input":78,
					"interpolation":"LINEAR",
					"output":101
				},
				{
					"input":78,
					"interpolation":"LINEAR",
					"output":102
				},
				{
					"input":78,
					"interpolation":"LINEAR",
					"output":103
				},
				{
					"input":78,
					"interpolation":"LINEAR",
					"output":104
				},
				{
					"input":78,
					"interpolation":"LINEAR",
					"output":105
				},
				{
					"input":78,
					"interpolation":"LINEAR",
					"output":106
				},
				{
					"input":78,
					"interpolation":"LINEAR",
					"output":107
				},
				{
					"input":78,
					"interpolation":"LINEAR",
					"output":108
				},
				{
					"input":78,
					"interpolation":"LINEAR",
					"output":109
				},
				{
					"input":78,
					"interpolation":"LINEAR",
					"output":110
				},
				{
					"input":78,
					"interpolation":"LINEAR",
					"output":111
				},
				{
					"input":78,
					"interpolation":"LINEAR",
					"output":112
				},
				{
					"input":78,
					"interpolation":"LINEAR",
					"output":113
				},
				{
					"input":78,
					"interpolation":"LINEAR",
					"output":114
				},
				{
					"input":78,
					"interpolation":"LINEAR",
					"output":115
				},
				{
					"input":78,
					"interpolation":"LINEAR",
					"output":116
				},
				{
					"input":78,
					"interpolation":"LINEAR",
					"output":117
				},
				{
					"input":78,
					"interpolation":"LINEAR",
					"output":118
				},
				{
					"input":78,
					"interpolation":"LINEAR",
					"output":119
				},
				{
					"input":78,
					"interpolation":"LINEAR",
					"output":81
				},
				{
					"input":78,
					"interpolation":"LINEAR",
					"output":120
				},
				{
					"input":78,
					"interpolation":"LINEAR",
					"output":121
				},
				{
					"input":78,
					"interpolation":"LINEAR",
					"output":122
				},
				{
					"input":78,
					"interpolation":"LINEAR",
					"output":123
				},
				{
					"input":78,
					"interpolation":"LINEAR",
					"output":124
				},
				{
					"input":78,
					"interpolation":"LINEAR",
					"output":125
				},
				{
					"input":78,
					"interpolation":"LINEAR",
					"output":126
				},
				{
					"input":78,
					"interpolation":"LINEAR",
					"output":127
				},
				{
					"input":78,
					"interpolation":"LINEAR",
					"output":128
				},
				{
					"input":78,
					"interpolation":"LINEAR",
					"output":129
				},
				{
					"input":78,
					"interpolation":"LINEAR",
					"output":130
				},
				{
					"input":78,
					"interpolation":"LINEAR",
					"output":131
				},
				{
					"input":78,
					"interpolation":"LINEAR",
					"output":132
				},
				{
					"input":78,
					"interpolation":"LINEAR",
					"output":133
				},
				{
					"input":78,
					"interpolation":"LINEAR",
					"output":134
				},
				{
					"input":78,
					"interpolation":"LINEAR",
					"output":135
				},
				{
					"input":78,
					"interpolation":"LINEAR",
					"output":136
				},
				{
					"input":78,
					"interpolation":"LINEAR",
					"output":137
				},
				{
					"input":78,
					"interpolation":"LINEAR",
					"output":138
				},
				{
					"input":78,
					"interpolation":"LINEAR",
					"output":139
				},
				{
					"input":78,
					"interpolation":"LINEAR",
					"output":90
				},
				{
					"input":78,
					"interpolation":"LINEAR",
					"output":140
				},
				{
					"input":78,
					"interpolation":"LINEAR",
					"output":141
				},
				{
					"input":78,
					"interpolation":"LINEAR",
					"output":142
				},
				{
					"input":78,
					"interpolation":"LINEAR",
					"output":143
				},
				{
					"input":78,
					"interpolation":"LINEAR",
					"output":144
				},
				{
					"input":78,
					"interpolation":"LINEAR",
					"output":145
				},
				{
					"input":78,
					"interpolation":"LINEAR",
					"output":146
				},
				{
					"input":78,
					"interpolation":"LINEAR",
					"output":147
				},
				{
					"input":78,
					"interpolation":"LINEAR",
					"output":117
				}
			]
		},
		{
			"channels":[
				{
					"sampler":0,
					"target":{
						"node":9,
						"path":"translation"
					}
				},
				{
					"sampler":1,
					"target":{
						"node":9,
						"path":"rotation"
					}
				},
				{
					"sampler":2,
					"target":{
						"node":9,
						"path":"scale"
					}
				},
				{
					"sampler":3,
					"target":{
						"node":2,
						"path":"translation"
					}
				},
				{
					"sampler":4,
					"target":{
						"node":2,
						"path":"rotation"
					}
				},
				{
					"sampler":5,
					"target":{
						"node":2,
						"path":"scale"
					}
				},
				{
					"sampler":6,
					"target":{
						"node":1,
						"path":"translation"
					}
				},
				{
					"sampler":7,
					"target":{
						"node":1,
						"path":"rotation"
					}
				},
				{
					"sampler":8,
					"target":{
						"node":1,
						"path":"scale"
					}
				},
				{
					"sampler":9,
					"target":{
						"node":0,
						"path":"translation"
					}
				},
				{
					"sampler":10,
					"target":{
						"node":0,
						"path":"rotation"
					}
				},
				{
					"sampler":11,
					"target":{
						"node":0,
						"path":"scale"
					}
				},
				{
					"sampler":12,
					"target":{
						"node":5,
						"path":"translation"
					}
				},
				{
					"sampler":13,
					"target":{
						"node":5,
						"path":"rotation"
					}
				},
				{
					"sampler":14,
					"target":{
						"node":5,
						"path":"scale"
					}
				},
				{
					"sampler":15,
					"target":{
						"node":4,
						"path":"translation"
					}
				},
				{
					"sampler":16,
					"target":{
						"node":4,
						"path":"rotation"
					}
				},
				{
					"sampler":17,
					"target":{
						"node":4,
						"path":"scale"
					}
				},
				{
					"sampler":18,
					"target":{
						"node":3,
						"path":"translation"
					}
				},
				{
					"sampler":19,
					"target":{
						"node":3,
						"path":"rotation"
					}
				},
				{
					"sampler":20,
					"target":{
						"node":3,
						"path":"scale"
					}
				},
				{
					"sampler":21,
					"target":{
						"node":8,
						"path":"translation"
					}
				},
				{
					"sampler":22,
					"target":{
						"node":8,
						"path":"rotation"
					}
				},
				{
					"sampler":23,
					"target":{
						"node":8,
						"path":"scale"
					}
				},
				{
					"sampler":24,
					"target":{
						"node":7,
						"path":"translation"
					}
				},
				{
					"sampler":25,
					"target":{
						"node":7,
						"path":"rotation"
					}
				},
				{
					"sampler":26,
					"target":{
						"node":7,
						"path":"scale"
					}
				},
				{
					"sampler":27,
					"target":{
						"node":6,
						"path":"translation"
					}
				},
				{
					"sampler":28,
					"target":{
						"node":6,
						"path":"rotation"
					}
				},
				{
					"sampler":29,
					"target":{
						"node":6,
						"path":"scale"
					}
				},
				{
					"sampler":30,
					"target":{
						"node":14,
						"path":"translation"
					}
				},
				{
					"sampler":31,
					"target":{
						"node":14,
						"path":"rotation"
					}
				},
				{
					"sampler":32,
					"target":{
						"node":14,
						"path":"scale"
					}
				},
				{
					"sampler":33,
					"target":{
						"node":13,
						"path":"translation"
					}
				},
				{
					"sampler":34,
					"target":{
						"node":13,
						"path":"rotation"
					}
				},
				{
					"sampler":35,
					"target":{
						"node":13,
						"path":"scale"
					}
				},
				{
					"sampler":36,
					"target":{
						"node":12,
						"path":"translation"
					}
				},
				{
					"sampler":37,
					"target":{
						"node":12,
						"path":"rotation"
					}
				},
				{
					"sampler":38,
					"target":{
						"node":12,
						"path":"scale"
					}
				},
				{
					"sampler":39,
					"target":{
						"node":11,
						"path":"translation"
					}
				},
				{
					"sampler":40,
					"target":{
						"node":11,
						"path":"rotation"
					}
				},
				{
					"sampler":41,
					"target":{
						"node":11,
						"path":"scale"
					}
				},
				{
					"sampler":42,
					"target":{
						"node":10,
						"path":"translation"
					}
				},
				{
					"sampler":43,
					"target":{
						"node":10,
						"path":"rotation"
					}
				},
				{
					"sampler":44,
					"target":{
						"node":10,
						"path":"scale"
					}
				},
				{
					"sampler":45,
					"target":{
						"node":19,
						"path":"translation"
					}
				},
				{
					"sampler":46,
					"target":{
						"node":19,
						"path":"rotation"
					}
				},
				{
					"sampler":47,
					"target":{
						"node":19,
						"path":"scale"
					}
				},
				{
					"sampler":48,
					"target":{
						"node":18,
						"path":"translation"
					}
				},
				{
					"sampler":49,
					"target":{
						"node":18,
						"path":"rotation"
					}
				},
				{
					"sampler":50,
					"target":{
						"node":18,
						"path":"scale"
					}
				},
				{
					"sampler":51,
					"target":{
						"node":17,
						"path":"translation"
					}
				},
				{
					"sampler":52,
					"target":{
						"node":17,
						"path":"rotation"
					}
				},
				{
					"sampler":53,
					"target":{
						"node":17,
						"path":"scale"
					}
				},
				{
					"sampler":54,
					"target":{
						"node":16,
						"path":"translation"
					}
				},
				{
					"sampler":55,
					"target":{
						"node":16,
						"path":"rotation"
					}
				},
				{
					"sampler":56,
					"target":{
						"node":16,
						"path":"scale"
					}
				},
				{
					"sampler":57,
					"target":{
						"node":15,
						"path":"translation"
					}
				},
				{
					"sampler":58,
					"target":{
						"node":15,
						"path":"rotation"
					}
				},
				{
					"sampler":59,
					"target":{
						"node":15,
						"path":"scale"
					}
				},
				{
					"sampler":60,
					"target":{
						"node":23,
						"path":"translation"
					}
				},
				{
					"sampler":61,
					"target":{
						"node":23,
						"path":"rotation"
					}
				},
				{
					"sampler":62,
					"target":{
						"node":23,
						"path":"scale"
					}
				},
				{
					"sampler":63,
					"target":{
						"node":22,
						"path":"translation"
					}
				},
				{
					"sampler":64,
					"target":{
						"node":22,
						"path":"rotation"
					}
				},
				{
					"sampler":65,
					"target":{
						"node":22,
						"path":"scale"
					}
				},
				{
					"sampler":66,
					"target":{
						"node":21,
						"path":"translation"
					}
				},
				{
					"sampler":67,
					"target":{
						"node":21,
						"path":"rotation"
					}
				},
				{
					"sampler":68,
					"target":{
						"node":21,
						"path":"scale"
					}
				},
				{
					"sampler":69,
					"target":{
						"node":20,
						"path":"translation"
					}
				},
				{
					"sampler":70,
					"target":{
						"node":20,
						"path":"rotation"
					}
				},
				{
					"sampler":71,
					"target":{
						"node":20,
						"path":"scale"
					}
				}
			],
			"name":"Idle",
			"samplers":[
				{
					"input":148,
					"interpolation":"STEP",
					"output":8
				},
				{
					"input":148,
					"interpolation":"STEP",
					"output":9
				},
				{
					"input":148,
					"interpolation":"STEP",
					"output":10
				},
				{
					"input":148,
					"interpolation":"STEP",
					"output":11
				},
				{
					"input":148,
					"interpolation":"STEP",
					"output":12
				},
				{
					"input":148,
					"interpolation":"STEP",
					"output":13
				},
				{
					"input":148,
					"interpolation":"STEP",
					"output":14
				},
				{
					"input":148,
					"interpolation":"STEP",
					"output":15
				},
				{
					"input":148,
					"interpolation":"STEP",
					"output":16
				},
				{
					"input":148,
					"interpolation":"STEP",
					"output":17
				},
				{
					"input":148,
					"interpolation":"STEP",
					"output":18
				},
				{
					"input":148,
					"interpolation":"STEP",
					"output":19
				},
				{
					"input":148,
					"interpolation":"STEP",
					"output":20
				},
				{
					"input":148,
					"interpolation":"STEP",
					"output":21
				},
				{
					"input":148,
					"interpolation":"STEP",
					"output":22
				},
				{
					"input":148,
					"interpolation":"STEP",
					"output":23
				},
				{
					"input":148,
					"interpolation":"STEP",
					"output":24
				},
				{
					"input":148,
					"interpolation":"STEP",
					"output":25
				},
				{
					"input":148,
					"interpolation":"STEP",
					"output":26
				},
				{
					"input":148,
					"interpolation":"STEP",
					"output":27
				},
				{
					"input":148,
					"interpolation":"STEP",
					"output":28
				},
				{
					"input":148,
					"interpolation":"STEP",
					"output":29
				},
				{
					"input":148,
					"interpolation":"STEP",
					"output":149
				},
				{
					"input":148,
					"interpolation":"STEP",
					"output":32
				},
				{
					"input":148,
					"interpolation":"STEP",
					"output":33
				},
				{
					"input":148,
					"interpolation":"STEP",
					"output":150
				},
				{
					"input":148,
					"interpolation":"STEP",
					"output":151
				},
				{
					"input":148,
					"interpolation":"STEP",
					"output":152
				},
				{
					"input":148,
					"interpolation":"STEP",
					"output":153
				},
				{
					"input":148,
					"interpolation":"STEP",
					"output":38
				},
				{
					"input":148,
					"interpolation":"STEP",
					"output":39
				},
				{
					"input":148,
					"interpolation":"STEP",
					"output":40
				},
				{
					"input":148,
					"interpolation":"STEP",
					"output":41
				},
				{
					"input":148,
					"interpolation":"STEP",
					"output":42
				},
				{
					"input":148,
					"interpolation":"STEP",
					"output":43
				},
				{
					"input":148,
					"interpolation":"STEP",
					"output":44
				},
				{
					"input":148,
					"interpolation":"STEP",
					"output":45
				},
				{
					"input":148,
					"interpolation":"STEP",
					"output":46
				},
				{
					"input":148,
					"interpolation":"STEP",
					"output":47
				},
				{
					"input":148,
					"interpolation":"STEP",
					"output":48
				},
				{
					"input":148,
					"interpolation":"STEP",
					"output":49
				},
				{
					"input":148,
					"interpolation":"STEP",
					"output":10
				},
				{
					"input":148,
					"interpolation":"STEP",
					"output":50
				},
				{
					"input":148,
					"interpolation":"STEP",
					"output":51
				},
				{
					"input":148,
					"interpolation":"STEP",
					"output":52
				},
				{
					"input":148,
					"interpolation":"STEP",
					"output":53
				},
				{
					"input":148,
					"interpolation":"STEP",
					"output":54
				},
				{
					"input":148,
					"interpolation":"STEP",
					"output":55
				},
				{
					"input":148,
					"interpolation":"STEP",
					"output":56
				},
				{
					"input":148,
					"interpolation":"STEP",
					"output":57
				},
				{
					"input":148,
					"interpolation":"STEP",
					"output":58
				},
				{
					"input":148,
					"interpolation":"STEP",
					"output":59
				},
				{
					"input":148,
					"interpolation":"STEP",
					"output":60
				},
				{
					"input":148,
					"interpolation":"STEP",
					"output":61
				},
				{
					"input":148,
					"interpolation":"STEP",
					"output":62
				},
				{
					"input":148,
					"interpolation":"STEP",
					"output":63
				},
				{
					"input":148,
					"interpolation":"STEP",
					"output":64
				},
				{
					"input":148,
					"interpolation":"STEP",
					"output":65
				},
				{
					"input":148,
					"interpolation":"STEP",
					"output":66
				},
				{
					"input":148,
					"interpolation":"STEP",
					"output":67
				},
				{
					"input":148,
					"interpolation":"STEP",
					"output":68
				},
				{
					"input":148,
					"interpolation":"STEP",
					"output":69
				},
				{
					"input":148,
					"interpolation":"STEP",
					"output":19
				},
				{
					"input":148,
					"interpolation":"STEP",
					"output":70
				},
				{
					"input":154,
					"interpolation":"LINEAR",
					"output":155
				},
				{
					"input":148,
					"interpolation":"STEP",
					"output":72
				},
				{
					"input":148,
					"interpolation":"STEP",
					"output":73
				},
				{
					"input":154,
					"interpolation":"LINEAR",
					"output":156
				},
				{
					"input":148,
					"interpolation":"STEP",
					"output":75
				},
				{
					"input":148,
					"interpolation":"STEP",
					"output":76
				},
				{
					"input":148,
					"interpolation":"STEP",
					"output":77
				},
				{
					"input":148,
					"interpolation":"STEP",
					"output":47
				}
			]
		},
		{
			"channels":[
				{
					"sampler":0,
					"target":{
						"node":9,
						"path":"translation"
					}
				},
				{
					"sampler":1,
					"target":{
						"node":9,
						"path":"rotation"
					}
				},
				{
					"sampler":2,
					"target":{
						"node":9,
						"path":"scale"
					}
				},
				{
					"sampler":3,
					"target":{
						"node":2,
						"path":"translation"
					}
				},
				{
					"sampler":4,
					"target":{
						"node":2,
						"path":"rotation"
					}
				},
				{
					"sampler":5,
					"target":{
						"node":2,
						"path":"scale"
					}
				},
				{
					"sampler":6,
					"target":{
						"node":1,
						"path":"translation"
					}
				},
				{
					"sampler":7,
					"target":{
						"node":1,
						"path":"rotation"
					}
				},
				{
					"sampler":8,
					"target":{
						"node":1,
						"path":"scale"
					}
				},
				{
					"sampler":9,
					"target":{
						"node":0,
						"path":"translation"
					}
				},
				{
					"sampler":10,
					"target":{
						"node":0,
						"path":"rotation"
					}
				},
				{
					"sampler":11,
					"target":{
						"node":0,
						"path":"scale"
					}
				},
				{
					"sampler":12,
					"target":{
						"node":5,
						"path":"translation"
					}
				},
				{
					"sampler":13,
					"target":{
						"node":5,
						"path":"rotation"
					}
				},
				{
					"sampler":14,
					"target":{
						"node":5,
						"path":"scale"
					}
				},
				{
					"sampler":15,
					"target":{
						"node":4,
						"path":"translation"
					}
				},
				{
					"sampler":16,
					"target":{
						"node":4,
						"path":"rotation"
					}
				},
				{
					"sampler":17,
					"target":{
						"node":4,
						"path":"scale"
					}
				},
				{
					"sampler":18,
					"target":{
						"node":3,
						"path":"translation"
					}
				},
				{
					"sampler":19,
					"target":{
						"node":3,
						"path":"rotation"
					}
				},
				{
					"sampler":20,
					"target":{
						"node":3,
						"path":"scale"
					}
				},
				{
					"sampler":21,
					"target":{
						"node":8,
						"path":"translation"
					}
				},
				{
					"sampler":22,
					"target":{
						"node":8,
						"path":"rotation"
					}
				},
				{
					"sampler":23,
					"target":{
						"node":8,
						"path":"scale"
					}
				},
				{
					"sampler":24,
					"target":{
						"node":7,
						"path":"translation"
					}
				},
				{
					"sampler":25,
					"target":{
						"node":7,
						"path":"rotation"
					}
				},
				{
					"sampler":26,
					"target":{
						"node":7,
						"path":"scale"
					}
				},
				{
					"sampler":27,
					"target":{
						"node":6,
						"path":"translation"
					}
				},
				{
					"sampler":28,
					"target":{
						"node":6,
						"path":"rotation"
					}
				},
				{
					"sampler":29,
					"target":{
						"node":6,
						"path":"scale"
					}
				},
				{
					"sampler":30,
					"target":{
						"node":14,
						"path":"translation"
					}
				},
				{
					"sampler":31,
					"target":{
						"node":14,
						"path":"rotation"
					}
				},
				{
					"sampler":32,
					"target":{
						"node":14,
						"path":"scale"
					}
				},
				{
					"sampler":33,
					"target":{
						"node":13,
						"path":"translation"
					}
				},
				{
					"sampler":34,
					"target":{
						"node":13,
						"path":"rotation"
					}
				},
				{
					"sampler":35,
					"target":{
						"node":13,
						"path":"scale"
					}
				},
				{
					"sampler":36,
					"target":{
						"node":12,
						"path":"translation"
					}
				},
				{
					"sampler":37,
					"target":{
						"node":12,
						"path":"rotation"
					}
				},
				{
					"sampler":38,
					"target":{
						"node":12,
						"path":"scale"
					}
				},
				{
					"sampler":39,
					"target":{
						"node":11,
						"path":"translation"
					}
				},
				{
					"sampler":40,
					"target":{
						"node":11,
						"path":"rotation"
					}
				},
				{
					"sampler":41,
					"target":{
						"node":11,
						"path":"scale"
					}
				},
				{
					"sampler":42,
					"target":{
						"node":10,
						"path":"translation"
					}
				},
				{
					"sampler":43,
					"target":{
						"node":10,
						"path":"rotation"
					}
				},
				{
					"sampler":44,
					"target":{
						"node":10,
						"path":"scale"
					}
				},
				{
					"sampler":45,
					"target":{
						"node":19,
						"path":"translation"
					}
				},
				{
					"sampler":46,
					"target":{
						"node":19,
						"path":"rotation"
					}
				},
				{
					"sampler":47,
					"target":{
						"node":19,
						"path":"scale"
					}
				},
				{
					"sampler":48,
					"target":{
						"node":18,
						"path":"translation"
					}
				},
				{
					"sampler":49,
					"target":{
						"node":18,
						"path":"rotation"
					}
				},
				{
					"sampler":50,
					"target":{
						"node":18,
						"path":"scale"
					}
				},
				{
					"sampler":51,
					"target":{
						"node":17,
						"path":"translation"
					}
				},
				{
					"sampler":52,
					"target":{
						"node":17,
						"path":"rotation"
					}
				},
				{
					"sampler":53,
					"target":{
						"node":17,
						"path":"scale"
					}
				},
				{
					"sampler":54,
					"target":{
						"node":16,
						"path":"translation"
					}
				},
				{
					"sampler":55,
					"target":{
						"node":16,
						"path":"rotation"
					}
				},
				{
					"sampler":56,
					"target":{
						"node":16,
						"path":"scale"
					}
				},
				{
					"sampler":57,
					"target":{
						"node":15,
						"path":"translation"
					}
				},
				{
					"sampler":58,
					"target":{
						"node":15,
						"path":"rotation"
					}
				},
				{
					"sampler":59,
					"target":{
						"node":15,
						"path":"scale"
					}
				},
				{
					"sampler":60,
					"target":{
						"node":23,
						"path":"translation"
					}
				},
				{
					"sampler":61,
					"target":{
						"node":23,
						"path":"rotation"
					}
				},
				{
					"sampler":62,
					"target":{
						"node":23,
						"path":"scale"
					}
				},
				{
					"sampler":63,
					"target":{
						"node":22,
						"path":"translation"
					}
				},
				{
					"sampler":64,
					"target":{
						"node":22,
						"path":"rotation"
					}
				},
				{
					"sampler":65,
					"target":{
						"node":22,
						"path":"scale"
					}
				},
				{
					"sampler":66,
					"target":{
						"node":21,
						"path":"translation"
					}
				},
				{
					"sampler":67,
					"target":{
						"node":21,
						"path":"rotation"
					}
				},
				{
					"sampler":68,
					"target":{
						"node":21,
						"path":"scale"
					}
				},
				{
					"sampler":69,
					"target":{
						"node":20,
						"path":"translation"
					}
				},
				{
					"sampler":70,
					"target":{
						"node":20,
						"path":"rotation"
					}
				},
				{
					"sampler":71,
					"target":{
						"node":20,
						"path":"scale"
					}
				}
			],
			"name":"Walk",
			"samplers":[
				{
					"input":148,
					"interpolation":"STEP",
					"output":8
				},
				{
					"input":148,
					"interpolation":"STEP",
					"output":9
				},
				{
					"input":148,
					"interpolation":"STEP",
					"output":10
				},
				{
					"input":148,
					"interpolation":"STEP",
					"output":11
				},
				{
					"input":148,
					"interpolation":"STEP",
					"output":12
				},
				{
					"input":148,
					"interpolation":"STEP",
					"output":13
				},
				{
					"input":148,
					"interpolation":"STEP",
					"output":14
				},
				{
					"input":148,
					"interpolation":"STEP",
					"output":15
				},
				{
					"input":148,
					"interpolation":"STEP",
					"output":16
				},
				{
					"input":148,
					"interpolation":"STEP",
					"output":17
				},
				{
					"input":148,
					"interpolation":"STEP",
					"output":18
				},
				{
					"input":148,
					"interpolation":"STEP",
					"output":19
				},
				{
					"input":148,
					"interpolation":"STEP",
					"output":20
				},
				{
					"input":148,
					"interpolation":"STEP",
					"output":21
				},
				{
					"input":148,
					"interpolation":"STEP",
					"output":22
				},
				{
					"input":148,
					"interpolation":"STEP",
					"output":23
				},
				{
					"input":148,
					"interpolation":"STEP",
					"output":24
				},
				{
					"input":148,
					"interpolation":"STEP",
					"output":25
				},
				{
					"input":148,
					"interpolation":"STEP",
					"output":26
				},
				{
					"input":148,
					"interpolation":"STEP",
					"output":27
				},
				{
					"input":148,
					"interpolation":"STEP",
					"output":28
				},
				{
					"input":148,
					"interpolation":"STEP",
					"output":29
				},
				{
					"input":148,
					"interpolation":"STEP",
					"output":149
				},
				{
					"input":148,
					"interpolation":"STEP",
					"output":32
				},
				{
					"input":148,
					"interpolation":"STEP",
					"output":33
				},
				{
					"input":148,
					"interpolation":"STEP",
					"output":150
				},
				{
					"input":148,
					"interpolation":"STEP",
					"output":151
				},
				{
					"input":148,
					"interpolation":"STEP",
					"output":152
				},
				{
					"input":148,
					"interpolation":"STEP",
					"output":153
				},
				{
					"input":148,
					"interpolation":"STEP",
					"output":38
				},
				{
					"input":148,
					"interpolation":"STEP",
					"output":39
				},
				{
					"input":148,
					"interpolation":"STEP",
					"output":40
				},
				{
					"input":148,
					"interpolation":"STEP",
					"output":41
				},
				{
					"input":148,
					"interpolation":"STEP",
					"output":42
				},
				{
					"input":154,
					"interpolation":"LINEAR",
					"output":157
				},
				{
					"input":148,
					"interpolation":"STEP",
					"output":44
				},
				{
					"input":148,
					"interpolation":"STEP",
					"output":45
				},
				{
					"input":148,
					"interpolation":"STEP",
					"output":46
				},
				{
					"input":148,
					"interpolation":"STEP",
					"output":47
				},
				{
					"input":148,
					"interpolation":"STEP",
					"output":48
				},
				{
					"input":148,
					"interpolation":"STEP",
					"output":49
				},
				{
					"input":148,
					"interpolation":"STEP",
					"output":10
				},
				{
					"input":148,
					"interpolation":"STEP",
					"output":50
				},
				{
					"input":148,
					"interpolation":"STEP",
					"output":51
				},
				{
					"input":148,
					"interpolation":"STEP",
					"output":52
				},
				{
					"input":148,
					"interpolation":"STEP",
					"output":53
				},
				{
					"input":148,
					"interpolation":"STEP",
					"output":54
				},
				{
					"input":148,
					"interpolation":"STEP",
					"output":55
				},
				{
					"input":148,
					"interpolation":"STEP",
					"output":56
				},
				{
					"input":154,
					"interpolation":"LINEAR",
					"output":158
				},
				{
					"input":148,
					"interpolation":"STEP",
					"output":58
				},
				{
					"input":148,
					"interpolation":"STEP",
					"output":59
				},
				{
					"input":148,
					"interpolation":"STEP",
					"output":60
				},
				{
					"input":148,
					"interpolation":"STEP",
					"output":61
				},
				{
					"input":148,
					"interpolation":"STEP",
					"output":62
				},
				{
					"input":148,
					"interpolation":"STEP",
					"output":63
				},
				{
					"input":148,
					"interpolation":"STEP",
					"output":64
				},
				{
					"input":148,
					"interpolation":"STEP",
					"output":65
				},
				{
					"input":148,
					"interpolation":"STEP",
					"output":66
				},
				{
					"input":148,
					"interpolation":"STEP",
					"output":67
				},
				{
					"input":148,
					"interpolation":"STEP",
					"output":68
				},
				{
					"input":148,
					"interpolation":"STEP",
					"output":69
				},
				{
					"input":148,
					"interpolation":"STEP",
					"output":19
				},
				{
					"input":148,
					"interpolation":"STEP",
					"output":70
				},
				{
					"input":148,
					"interpolation":"STEP",
					"output":71
				},
				{
					"input":148,
					"interpolation":"STEP",
					"output":72
				},
				{
					"input":148,
					"interpolation":"STEP",
					"output":73
				},
				{
					"input":148,
					"interpolation":"STEP",
					"output":74
				},
				{
					"input":148,
					"interpolation":"STEP",
					"output":75
				},
				{
					"input":148,
					"interpolation":"STEP",
					"output":76
				},
				{
					"input":148,
					"interpolation":"STEP",
					"output":77
				},
				{
					"input":148,
					"interpolation":"STEP",
					"output":47
				}
			]
		}
	],
	"materials":[
		{
			"name":"tripo_material_39e2e291-b27a-44f4-b977-503debae7366",
			"normalTexture":{
				"index":0
			},
			"pbrMetallicRoughness":{
				"baseColorTexture":{
					"index":1
				},
				"metallicRoughnessTexture":{
					"index":2
				}
			}
		}
	],
	"meshes":[
		{
			"name":"tripo_mesh_39e2e291-b27a-44f4-b977-503debae7366",
			"primitives":[
				{
					"attributes":{
						"POSITION":0,
						"NORMAL":1,
						"TEXCOORD_0":2,
						"JOINTS_0":3,
						"WEIGHTS_0":4
					},
					"indices":5,
					"material":0
				}
			]
		}
	],
	"textures":[
		{
			"sampler":0,
			"source":0
		},
		{
			"sampler":0,
			"source":1
		},
		{
			"sampler":0,
			"source":2
		}
	],
	"images":[
		{
			"mimeType":"image/jpeg",
			"name":"NormalGL_39e2e291-b27a-44f4-b977-503debae7366",
			"uri":"NormalGL_39e2e291-b27a-44f4-b977-503debae7366.jpg"
		},
		{
			"mimeType":"image/jpeg",
			"name":"Color_39e2e291-b27a-44f4-b977-503debae7366",
			"uri":"Color_39e2e291-b27a-44f4-b977-503debae7366.jpg"
		},
		{
			"mimeType":"image/jpeg",
			"name":"ORM_39e2e291-b27a-44f4-b977-503debae7366",
			"uri":"ORM_39e2e291-b27a-44f4-b977-503debae7366.jpg"
		}
	],
	"skins":[
		{
			"inverseBindMatrices":6,
			"joints":[
				9,
				2,
				1,
				0,
				5,
				4,
				3,
				8,
				7,
				6,
				14,
				13,
				12,
				11,
				10,
				19,
				18,
				17,
				16,
				15,
				23,
				22,
				21,
				20,
				24
			],
			"name":"Armature"
		}
	],
	"accessors":[
		{
			"bufferView":0,
			"componentType":5126,
			"count":6075,
			"max":[
				1.1560628414154053,
				1.112947940826416,
				0.2854986786842346
			],
			"min":[
				-1.1567131280899048,
				0.05159884691238403,
				-0.2867554724216461
			],
			"type":"VEC3"
		},
		{
			"bufferView":1,
			"componentType":5126,
			"count":6075,
			"type":"VEC3"
		},
		{
			"bufferView":2,
			"componentType":5126,
			"count":6075,
			"type":"VEC2"
		},
		{
			"bufferView":3,
			"componentType":5121,
			"count":6075,
			"type":"VEC4"
		},
		{
			"bufferView":4,
			"componentType":5126,
			"count":6075,
			"type":"VEC4"
		},
		{
			"bufferView":5,
			"componentType":5123,
			"count":28362,
			"type":"SCALAR"
		},
		{
			"bufferView":6,
			"componentType":5126,
			"count":25,
			"type":"MAT4"
		},
		{
			"bufferView":7,
			"componentType":5126,
			"count":2,
			"max":[
				0.5416666666666666
			],
			"min":[
				0.041666666666666664
			],
			"type":"SCALAR"
		},
		{
			"bufferView":8,
			"componentType":5126,
			"count":2,
			"type":"VEC3"
		},
		{
			"bufferView":9,
			"componentType":5126,
			"count":2,
			"type":"VEC4"
		},
		{
			"bufferView":10,
			"componentType":5126,
			"count":2,
			"type":"VEC3"
		},
		{
			"bufferView":11,
			"componentType":5126,
			"count":2,
			"type":"VEC3"
		},
		{
			"bufferView":12,
			"componentType":5126,
			"count":2,
			"type":"VEC4"
		},
		{
			"bufferView":13,
			"componentType":5126,
			"count":2,
			"type":"VEC3"
		},
		{
			"bufferView":14,
			"componentType":5126,
			"count":2,
			"type":"VEC3"
		},
		{
			"bufferView":15,
			"componentType":5126,
			"count":2,
			"type":"VEC4"
		},
		{
			"bufferView":16,
			"componentType":5126,
			"count":2,
			"type":"VEC3"
		},
		{
			"bufferView":17,
			"componentType":5126,
			"count":2,
			"type":"VEC3"
		},
		{
			"bufferView":18,
			"componentType":5126,
			"count":2,
			"type":"VEC4"
		},
		{
			"bufferView":19,
			"componentType":5126,
			"count":2,
			"type":"VEC3"
		},
		{
			"bufferView":20,
			"componentType":5126,
			"count":2,
			"type":"VEC3"
		},
		{
			"bufferView":21,
			"componentType":5126,
			"count":2,
			"type":"VEC4"
		},
		{
			"bufferView":22,
			"componentType":5126,
			"count":2,
			"type":"VEC3"
		},
		{
			"bufferView":23,
			"componentType":5126,
			"count":2,
			"type":"VEC3"
		},
		{
			"bufferView":24,
			"componentType":5126,
			"count":2,
			"type":"VEC4"
		},
		{
			"bufferView":25,
			"componentType":5126,
			"count":2,
			"type":"VEC3"
		},
		{
			"bufferView":26,
			"componentType":5126,
			"count":2,
			"type":"VEC3"
		},
		{
			"bufferView":27,
			"componentType":5126,
			"count":2,
			"type":"VEC4"
		},
		{
			"bufferView":28,
			"componentType":5126,
			"count":2,
			"type":"VEC3"
		},
		{
			"bufferView":29,
			"componentType":5126,
			"count":2,
			"type":"VEC3"
		},
		{
			"bufferView":30,
			"componentType":5126,
			"count":13,
			"max":[
				0.5416666666666666
			],
			"min":[
				0.041666666666666664
			],
			"type":"SCALAR"
		},
		{
			"bufferView":31,
			"componentType":5126,
			"count":13,
			"type":"VEC4"
		},
		{
			"bufferView":32,
			"componentType":5126,
			"count":2,
			"type":"VEC3"
		},
		{
			"bufferView":33,
			"componentType":5126,
			"count":2,
			"type":"VEC3"
		},
		{
			"bufferView":34,
			"componentType":5126,
			"count":2,
			"type":"VEC4"
		},
		{
			"bufferView":35,
			"componentType":5126,
			"count":2,
			"type":"VEC3"
		},
		{
			"bufferView":36,
			"componentType":5126,
			"count":2,
			"type":"VEC3"
		},
		{
			"bufferView":37,
			"componentType":5126,
			"count":13,
			"type":"VEC4"
		},
		{
			"bufferView":38,
			"componentType":5126,
			"count":2,
			"type":"VEC3"
		},
		{
			"bufferView":39,
			"componentType":5126,
			"count":2,
			"type":"VEC3"
		},
		{
			"bufferView":40,
			"componentType":5126,
			"count":2,
			"type":"VEC4"
		},
		{
			"bufferView":41,
			"componentType":5126,
			"count":2,
			"type":"VEC3"
		},
		{
			"bufferView":42,
			"componentType":5126,
			"count":2,
			"type":"VEC3"
		},
		{
			"bufferView":43,
			"componentType":5126,
			"count":2,
			"type":"VEC4"
		},
		{
			"bufferView":44,
			"componentType":5126,
			"count":2,
			"type":"VEC3"
		},
		{
			"bufferView":45,
			"componentType":5126,
			"count":2,
			"type":"VEC3"
		},
		{
			"bufferView":46,
			"componentType":5126,
			"count":2,
			"type":"VEC4"
		},
		{
			"bufferView":47,
			"componentType":5126,
			"count":2,
			"type":"VEC3"
		},
		{
			"bufferView":48,
			"componentType":5126,
			"count":2,
			"type":"VEC3"
		},
		{
			"bufferView":49,
			"componentType":5126,
			"count":2,
			"type":"VEC4"
		},
		{
			"bufferView":50,
			"componentType":5126,
			"count":2,
			"type":"VEC3"
		},
		{
			"bufferView":51,
			"componentType":5126,
			"count":2,
			"type":"VEC4"
		},
		{
			"bufferView":52,
			"componentType":5126,
			"count":2,
			"type":"VEC3"
		},
		{
			"bufferView":53,
			"componentType":5126,
			"count":2,
			"type":"VEC3"
		},
		{
			"bufferView":54,
			"componentType":5126,
			"count":2,
			"type":"VEC4"
		},
		{
			"bufferView":55,
			"componentType":5126,
			"count":2,
			"type":"VEC3"
		},
		{
			"bufferView":56,
			"componentType":5126,
			"count":2,
			"type":"VEC3"
		},
		{
			"bufferView":57,
			"componentType":5126,
			"count":2,
			"type":"VEC4"
		},
		{
			"bufferView":58,
			"componentType":5126,
			"count":2,
			"type":"VEC3"
		},
		{
			"bufferView":59,
			"componentType":5126,
			"count":2,
			"type":"VEC3"
		},
		{
			"bufferView":60,
			"componentType":5126,
			"count":2,
			"type":"VEC4"
		},
		{
			"bufferView":61,
			"componentType":5126,
			"count":2,
			"type":"VEC3"
		},
		{
			"bufferView":62,
			"componentType":5126,
			"count":2,
			"type":"VEC3"
		},
		{
			"bufferView":63,
			"componentType":5126,
			"count":2,
			"type":"VEC4"
		},
		{
			"bufferView":64,
			"componentType":5126,
			"count":2,
			"type":"VEC3"
		},
		{
			"bufferView":65,
			"componentType":5126,
			"count":2,
			"type":"VEC3"
		},
		{
			"bufferView":66,
			"componentType":5126,
			"count":2,
			"type":"VEC4"
		},
		{
			"bufferView":67,
			"componentType":5126,
			"count":2,
			"type":"VEC3"
		},
		{
			"bufferView":68,
			"componentType":5126,
			"count":2,
			"type":"VEC3"
		},
		{
			"bufferView":69,
			"componentType":5126,
			"count":2,
			"type":"VEC4"
		},
		{
			"bufferView":70,
			"componentType":5126,
			"count":2,
			"type":"VEC3"
		},
		{
			"bufferView":71,
			"componentType":5126,
			"count":2,
			"type":"VEC4"
		},
		{
			"bufferView":72,
			"componentType":5126,
			"count":2,
			"type":"VEC3"
		},
		{
			"bufferView":73,
			"componentType":5126,
			"count":2,
			"type":"VEC3"
		},
		{
			"bufferView":74,
			"componentType":5126,
			"count":2,
			"type":"VEC4"
		},
		{
			"bufferView":75,
			"componentType":5126,
			"count":2,
			"type":"VEC3"
		},
		{
			"bufferView":76,
			"componentType":5126,
			"count":2,
			"type":"VEC3"
		},
		{
			"bufferView":77,
			"componentType":5126,
			"count":2,
			"type":"VEC4"
		},
		{
			"bufferView":78,
			"componentType":5126,
			"count":1,
			"max":[
				0.041666666666666664
			],
			"min":[
				0.041666666666666664
			],
			"type":"SCALAR"
		},
		{
			"bufferView":79,
			"componentType":5126,
			"count":1,
			"type":"VEC3"
		},
		{
			"bufferView":80,
			"componentType":5126,
			"count":1,
			"type":"VEC4"
		},
		{
			"bufferView":81,
			"componentType":5126,
			"count":1,
			"type":"VEC3"
		},
		{
			"bufferView":82,
			"componentType":5126,
			"count":1,
			"type":"VEC3"
		},
		{
			"bufferView":83,
			"componentType":5126,
			"count":1,
			"type":"VEC4"
		},
		{
			"bufferView":84,
			"componentType":5126,
			"count":1,
			"type":"VEC3"
		},
		{
			"bufferView":85,
			"componentType":5126,
			"count":1,
			"type":"VEC3"
		},
		{
			"bufferView":86,
			"componentType":5126,
			"count":1,
			"type":"VEC4"
		},
		{
			"bufferView":87,
			"componentType":5126,
			"count":1,
			"type":"VEC3"
		},
		{
			"bufferView":88,
			"componentType":5126,
			"count":1,
			"type":"VEC3"
		},
		{
			"bufferView":89,
			"componentType":5126,
			"count":1,
			"type":"VEC4"
		},
		{
			"bufferView":90,
			"componentType":5126,
			"count":1,
			"type":"VEC3"
		},
		{
			"bufferView":91,
			"componentType":5126,
			"count":1,
			"type":"VEC3"
		},
		{
			"bufferView":92,
			"componentType":5126,
			"count":1,
			"type":"VEC4"
		},
		{
			"bufferView":93,
			"componentType":5126,
			"count":1,
			"type":"VEC3"
		},
		{
			"bufferView":94,
			"componentType":5126,
			"count":1,
			"type":"VEC3"
		},
		{
			"bufferView":95,
			"componentType":5126,
			"count":1,
			"type":"VEC4"
		},
		{
			"bufferView":96,
			"componentType":5126,
			"count":1,
			"type":"VEC3"
		},
		{
			"bufferView":97,
			"componentType":5126,
			"count":1,
			"type":"VEC3"
		},
		{
			"bufferView":98,
			"componentType":5126,
			"count":1,
			"type":"VEC4"
		},
		{
			"bufferView":99,
			"componentType":5126,
			"count":1,
			"type":"VEC3"
		},
		{
			"bufferView":100,
			"componentType":5126,
			"count":1,
			"type":"VEC3"
		},
		{
			"bufferView":101,
			"componentType":5126,
			"count":1,
			"type":"VEC4"
		},
		{
			"bufferView":102,
			"componentType":5126,
			"count":1,
			"type":"VEC3"
		},
		{
			"bufferView":103,
			"componentType":5126,
			"count":1,
			"type":"VEC3"
		},
		{
			"bufferView":104,
			"componentType":5126,
			"count":1,
			"type":"VEC4"
		},
		{
			"bufferView":105,
			"componentType":5126,
			"count":1,
			"type":"VEC3"
		},
		{
			"bufferView":106,
			"componentType":5126,
			"count":1,
			"type":"VEC3"
		},
		{
			"bufferView":107,
			"componentType":5126,
			"count":1,
			"type":"VEC4"
		},
		{
			"bufferView":108,
			"componentType":5126,
			"count":1,
			"type":"VEC3"
		},
		{
			"bufferView":109,
			"componentType":5126,
			"count":1,
			"type":"VEC3"
		},
		{
			"bufferView":110,
			"componentType":5126,
			"count":1,
			"type":"VEC4"
		},
		{
			"bufferView":111,
			"componentType":5126,
			"count":1,
			"type":"VEC3"
		},
		{
			"bufferView":112,
			"componentType":5126,
			"count":1,
			"type":"VEC3"
		},
		{
			"bufferView":113,
			"componentType":5126,
			"count":1,
			"type":"VEC4"
		},
		{
			"bufferView":114,
			"componentType":5126,
			"count":1,
			"type":"VEC3"
		},
		{
			"bufferView":115,
			"componentType":5126,
			"count":1,
			"type":"VEC3"
		},
		{
			"bufferView":116,
			"componentType":5126,
			"count":1,
			"type":"VEC4"
		},
		{
			"bufferView":117,
			"componentType":5126,
			"count":1,
			"type":"VEC3"
		},
		{
			"bufferView":118,
			"componentType":5126,
			"count":1,
			"type":"VEC3"
		},
		{
			"bufferView":119,
			"componentType":5126,
			"count":1,
			"type":"VEC4"
		},
		{
			"bufferView":120,
			"componentType":5126,
			"count":1,
			"type":"VEC3"
		},
		{
			"bufferView":121,
			"componentType":5126,
			"count":1,
			"type":"VEC4"
		},
		{
			"bufferView":122,
			"componentType":5126,
			"count":1,
			"type":"VEC3"
		},
		{
			"bufferView":123,
			"componentType":5126,
			"count":1,
			"type":"VEC3"
		},
		{
			"bufferView":124,
			"componentType":5126,
			"count":1,
			"type":"VEC4"
		},
		{
			"bufferView":125,
			"componentType":5126,
			"count":1,
			"type":"VEC3"
		},
		{
			"bufferView":126,
			"componentType":5126,
			"count":1,
			"type":"VEC3"
		},
		{
			"bufferView":127,
			"componentType":5126,
			"count":1,
			"type":"VEC4"
		},
		{
			"bufferView":128,
			"componentType":5126,
			"count":1,
			"type":"VEC3"
		},
		{
			"bufferView":129,
			"componentType":5126,
			"count":1,
			"type":"VEC3"
		},
		{
			"bufferView":130,
			"componentType":5126,
			"count":1,
			"type":"VEC4"
		},
		{
			"bufferView":131,
			"componentType":5126,
			"count":1,
			"type":"VEC3"
		},
		{
			"bufferView":132,
			"componentType":5126,
			"count":1,
			"type":"VEC3"
		},
		{
			"bufferView":133,
			"componentType":5126,
			"count":1,
			"type":"VEC4"
		},
		{
			"bufferView":134,
			"componentType":5126,
			"count":1,
			"type":"VEC3"
		},
		{
			"bufferView":135,
			"componentType":5126,
			"count":1,
			"type":"VEC3"
		},
		{
			"bufferView":136,
			"componentType":5126,
			"count":1,
			"type":"VEC4"
		},
		{
			"bufferView":137,
			"componentType":5126,
			"count":1,
			"type":"VEC3"
		},
		{
			"bufferView":138,
			"componentType":5126,
			"count":1,
			"type":"VEC3"
		},
		{
			"bufferView":139,
			"componentType":5126,
			"count":1,
			"type":"VEC4"
		},
		{
			"bufferView":140,
			"componentType":5126,
			"count":1,
			"type":"VEC3"
		},
		{
			"bufferView":141,
			"componentType":5126,
			"count":1,
			"type":"VEC4"
		},
		{
			"bufferView":142,
			"componentType":5126,
			"count":1,
			"type":"VEC3"
		},
		{
			"bufferView":143,
			"componentType":5126,
			"count":1,
			"type":"VEC3"
		},
		{
			"bufferView":144,
			"componentType":5126,
			"count":1,
			"type":"VEC4"
		},
		{
			"bufferView":145,
			"componentType":5126,
			"count":1,
			"type":"VEC3"
		},
		{
			"bufferView":146,
			"componentType":5126,
			"count":1,
			"type":"VEC3"
		},
		{
			"bufferView":147,
			"componentType":5126,
			"count":1,
			"type":"VEC4"
		},
		{
			"bufferView":148,
			"componentType":5126,
			"count":2,
			"max":[
				0.5
			],
			"min":[
				0.041666666666666664
			],
			"type":"SCALAR"
		},
		{
			"bufferView":149,
			"componentType":5126,
			"count":2,
			"type":"VEC4"
		},
		{
			"bufferView":150,
			"componentType":5126,
			"count":2,
			"type":"VEC4"
		},
		{
			"bufferView":151,
			"componentType":5126,
			"count":2,
			"type":"VEC3"
		},
		{
			"bufferView":152,
			"componentType":5126,
			"count":2,
			"type":"VEC3"
		},
		{
			"bufferView":153,
			"componentType":5126,
			"count":2,
			"type":"VEC4"
		},
		{
			"bufferView":154,
			"componentType":5126,
			"count":12,
			"max":[
				0.5
			],
			"min":[
				0.041666666666666664
			],
			"type":"SCALAR"
		},
		{
			"bufferView":155,
			"componentType":5126,
			"count":12,
			"type":"VEC4"
		},
		{
			"bufferView":156,
			"componentType":5126,
			"count":12,
			"type":"VEC4"
		},
		{
			"bufferView":157,
			"componentType":5126,
			"count":12,
			"type":"VEC4"
		},
		{
			"bufferView":158,
			"componentType":5126,
			"count":12,
			"type":"VEC4"
		}
	],
	"bufferViews":[
		{
			"buffer":0,
			"byteLength":72900,
			"byteOffset":0,
			"target":34962
		},
		{
			"buffer":0,
			"byteLength":72900,
			"byteOffset":72900,
			"target":34962
		},
		{
			"buffer":0,
			"byteLength":48600,
			"byteOffset":145800,
			"target":34962
		},
		{
			"buffer":0,
			"byteLength":24300,
			"byteOffset":194400,
			"target":34962
		},
		{
			"buffer":0,
			"byteLength":97200,
			"byteOffset":218700,
			"target":34962
		},
		{
			"buffer":0,
			"byteLength":56724,
			"byteOffset":315900,
			"target":34963
		},
		{
			"buffer":0,
			"byteLength":1600,
			"byteOffset":372624
		},
		{
			"buffer":0,
			"byteLength":8,
			"byteOffset":374224
		},
		{
			"buffer":0,
			"byteLength":24,
			"byteOffset":374232
		},
		{
			"buffer":0,
			"byteLength":32,
			"byteOffset":374256
		},
		{
			"buffer":0,
			"byteLength":24,
			"byteOffset":374288
		},
		{
			"buffer":0,
			"byteLength":24,
			"byteOffset":374312
		},
		{
			"buffer":0,
			"byteLength":32,
			"byteOffset":374336
		},
		{
			"buffer":0,
			"byteLength":24,
			"byteOffset":374368
		},
		{
			"buffer":0,
			"byteLength":24,
			"byteOffset":374392
		},
		{
			"buffer":0,
			"byteLength":32,
			"byteOffset":374416
		},
		{
			"buffer":0,
			"byteLength":24,
			"byteOffset":374448
		},
		{
			"buffer":0,
			"byteLength":24,
			"byteOffset":374472
		},
		{
			"buffer":0,
			"byteLength":32,
			"byteOffset":374496
		},
		{
			"buffer":0,
			"byteLength":24,
			"byteOffset":374528
		},
		{
			"buffer":0,
			"byteLength":24,
			"byteOffset":374552
		},
		{
			"buffer":0,
			"byteLength":32,
			"byteOffset":374576
		},
		{
			"buffer":0,
			"byteLength":24,
			"byteOffset":374608
		},
		{
			"buffer":0,
			"byteLength":24,
			"byteOffset":374632
		},
		{
			"buffer":0,
			"byteLength":32,
			"byteOffset":374656
		},
		{
			"buffer":0,
			"byteLength":24,
			"byteOffset":374688
		},
		{
			"buffer":0,
			"byteLength":24,
			"byteOffset":374712
		},
		{
			"buffer":0,
			"byteLength":32,
			"byteOffset":374736
		},
		{
			"buffer":0,
			"byteLength":24,
			"byteOffset":374768
		},
		{
			"buffer":0,
			"byteLength":24,
			"byteOffset":374792
		},
		{
			"buffer":0,
			"byteLength":52,
			"byteOffset":374816
		},
		{
			"buffer":0,
			"byteLength":208,
			"byteOffset":374868
		},
		{
			"buffer":0,
			"byteLength":24,
			"byteOffset":375076
		},
		{
			"buffer":0,
			"byteLength":24,
			"byteOffset":375100
		},
		{
			"buffer":0,
			"byteLength":32,
			"byteOffset":375124
		},
		{
			"buffer":0,
			"byteLength":24,
			"byteOffset":375156
		},
		{
			"buffer":0,
			"byteLength":24,
			"byteOffset":375180
		},
		{
			"buffer":0,
			"byteLength":208,
			"byteOffset":375204
		},
		{
			"buffer":0,
			"byteLength":24,
			"byteOffset":375412
		},
		{
			"buffer":0,
			"byteLength":24,
			"byteOffset":375436
		},
		{
			"buffer":0,
			"byteLength":32,
			"byteOffset":375460
		},
		{
			"buffer":0,
			"byteLength":24,
			"byteOffset":375492
		},
		{
			"buffer":0,
			"byteLength":24,
			"byteOffset":375516
		},
		{
			"buffer":0,
			"byteLength":32,
			"byteOffset":375540
		},
		{
			"buffer":0,
			"byteLength":24,
			"byteOffset":375572
		},
		{
			"buffer":0,
			"byteLength":24,
			"byteOffset":375596
		},
		{
			"buffer":0,
			"byteLength":32,
			"byteOffset":375620
		},
		{
			"buffer":0,
			"byteLength":24,
			"byteOffset":375652
		},
		{
			"buffer":0,
			"byteLength":24,
			"byteOffset":375676
		},
		{
			"buffer":0,
			"byteLength":32,
			"byteOffset":375700
		},
		{
			"buffer":0,
			"byteLength":24,
			"byteOffset":375732
		},
		{
			"buffer":0,
			"byteLength":32,
			"byteOffset":375756
		},
		{
			"buffer":0,
			"byteLength":24,
			"byteOffset":375788
		},
		{
			"buffer":0,
			"byteLength":24,
			"byteOffset":375812
		},
		{
			"buffer":0,
			"byteLength":32,
			"byteOffset":375836
		},
		{
			"buffer":0,
			"byteLength":24,
			"byteOffset":375868
		},
		{
			"buffer":0,
			"byteLength":24,
			"byteOffset":375892
		},
		{
			"buffer":0,
			"byteLength":32,
			"byteOffset":375916
		},
		{
			"buffer":0,
			"byteLength":24,
			"byteOffset":375948
		},
		{
			"buffer":0,
			"byteLength":24,
			"byteOffset":375972
		},
		{
			"buffer":0,
			"byteLength":32,
			"byteOffset":375996
		},
		{
			"buffer":0,
			"byteLength":24,
			"byteOffset":376028
		},
		{
			"buffer":0,
			"byteLength":24,
			"byteOffset":376052
		},
		{
			"buffer":0,
			"byteLength":32,
			"byteOffset":376076
		},
		{
			"buffer":0,
			"byteLength":24,
			"byteOffset":376108
		},
		{
			"buffer":0,
			"byteLength":24,
			"byteOffset":376132
		},
		{
			"buffer":0,
			"byteLength":32,
			"byteOffset":376156
		},
		{
			"buffer":0,
			"byteLength":24,
			"byteOffset":376188
		},
		{
			"buffer":0,
			"byteLength":24,
			"byteOffset":376212
		},
		{
			"buffer":0,
			"byteLength":32,
			"byteOffset":376236
		},
		{
			"buffer":0,
			"byteLength":24,
			"byteOffset":376268
		},
		{
			"buffer":0,
			"byteLength":32,
			"byteOffset":376292
		},
		{
			"buffer":0,
			"byteLength":24,
			"byteOffset":376324
		},
		{
			"buffer":0,
			"byteLength":24,
			"byteOffset":376348
		},
		{
			"buffer":0,
			"byteLength":32,
			"byteOffset":376372
		},
		{
			"buffer":0,
			"byteLength":24,
			"byteOffset":376404
		},
		{
			"buffer":0,
			"byteLength":24,
			"byteOffset":376428
		},
		{
			"buffer":0,
			"byteLength":32,
			"byteOffset":376452
		},
		{
			"buffer":0,
			"byteLength":4,
			"byteOffset":376484
		},
		{
			"buffer":0,
			"byteLength":12,
			"byteOffset":376488
		},
		{
			"buffer":0,
			"byteLength":16,
			"byteOffset":376500
		},
		{
			"buffer":0,
			"byteLength":12,
			"byteOffset":376516
		},
		{
			"buffer":0,
			"byteLength":12,
			"byteOffset":376528
		},
		{
			"buffer":0,
			"byteLength":16,
			"byteOffset":376540
		},
		{
			"buffer":0,
			"byteLength":12,
			"byteOffset":376556
		},
		{
			"buffer":0,
			"byteLength":12,
			"byteOffset":376568
		},
		{
			"buffer":0,
			"byteLength":16,
			"byteOffset":376580
		},
		{
			"buffer":0,
			"byteLength":12,
			"byteOffset":376596
		},
		{
			"buffer":0,
			"byteLength":12,
			"byteOffset":376608
		},
		{
			"buffer":0,
			"byteLength":16,
			"byteOffset":376620
		},
		{
			"buffer":0,
			"byteLength":12,
			"byteOffset":376636
		},
		{
			"buffer":0,
			"byteLength":12,
			"byteOffset":376648
		},
		{
			"buffer":0,
			"byteLength":16,
			"byteOffset":376660
		},
		{
			"buffer":0,
			"byteLength":12,
			"byteOffset":376676
		},
		{
			"buffer":0,
			"byteLength":12,
			"byteOffset":376688
		},
		{
			"buffer":0,
			"byteLength":16,
			"byteOffset":376700
		},
		{
			"buffer":0,
			"byteLength":12,
			"byteOffset":376716
		},
		{
			"buffer":0,
			"byteLength":12,
			"byteOffset":376728
		},
		{
			"buffer":0,
			"byteLength":16,
			"byteOffset":376740
		},
		{
			"buffer":0,
			"byteLength":12,
			"byteOffset":376756
		},
		{
			"buffer":0,
			"byteLength":12,
			"byteOffset":376768
		},
		{
			"buffer":0,
			"byteLength":16,
			"byteOffset":376780
		},
		{
			"buffer":0,
			"byteLength":12,
			"byteOffset":376796
		},
		{
			"buffer":0,
			"byteLength":12,
			"byteOffset":376808
		},
		{
			"buffer":0,
			"byteLength":16,
			"byteOffset":376820
		},
		{
			"buffer":0,
			"byteLength":12,
			"byteOffset":376836
		},
		{
			"buffer":0,
			"byteLength":12,
			"byteOffset":376848
		},
		{
			"buffer":0,
			"byteLength":16,
			"byteOffset":376860
		},
		{
			"buffer":0,
			"byteLength":12,
			"byteOffset":376876
		},
		{
			"buffer":0,
			"byteLength":12,
			"byteOffset":376888
		},
		{
			"buffer":0,
			"byteLength":16,
			"byteOffset":376900
		},
		{
			"buffer":0,
			"byteLength":12,
			"byteOffset":376916
		},
		{
			"buffer":0,
			"byteLength":12,
			"byteOffset":376928
		},
		{
			"buffer":0,
			"byteLength":16,
			"byteOffset":376940
		},
		{
			"buffer":0,
			"byteLength":12,
			"byteOffset":376956
		},
		{
			"buffer":0,
			"byteLength":12,
			"byteOffset":376968
		},
		{
			"buffer":0,
			"byteLength":16,
			"byteOffset":376980
		},
		{
			"buffer":0,
			"byteLength":12,
			"byteOffset":376996
		},
		{
			"buffer":0,
			"byteLength":12,
			"byteOffset":377008
		},
		{
			"buffer":0,
			"byteLength":16,
			"byteOffset":377020
		},
		{
			"buffer":0,
			"byteLength":12,
			"byteOffset":377036
		},
		{
			"buffer":0,
			"byteLength":16,
			"byteOffset":377048
		},
		{
			"buffer":0,
			"byteLength":12,
			"byteOffset":377064
		},
		{
			"buffer":0,
			"byteLength":12,
			"byteOffset":377076
		},
		{
			"buffer":0,
			"byteLength":16,
			"byteOffset":377088
		},
		{
			"buffer":0,
			"byteLength":12,
			"byteOffset":377104
		},
		{
			"buffer":0,
			"byteLength":12,
			"byteOffset":377116
		},
		{
			"buffer":0,
			"byteLength":16,
			"byteOffset":377128
		},
		{
			"buffer":0,
			"byteLength":12,
			"byteOffset":377144
		},
		{
			"buffer":0,
			"byteLength":12,
			"byteOffset":377156
		},
		{
			"buffer":0,
			"byteLength":16,
			"byteOffset":377168
		},
		{
			"buffer":0,
			"byteLength":12,
			"byteOffset":377184
		},
		{
			"buffer":0,
			"byteLength":12,
			"byteOffset":377196
		},
		{
			"buffer":0,
			"byteLength":16,
			"byteOffset":377208
		},
		{
			"buffer":0,
			"byteLength":12,
			"byteOffset":377224
		},
		{
			"buffer":0,
			"byteLength":12,
			"byteOffset":377236
		},
		{
			"buffer":0,
			"byteLength":16,
			"byteOffset":377248
		},
		{
			"buffer":0,
			"byteLength":12,
			"byteOffset":377264
		},
		{
			"buffer":0,
			"byteLength":12,
			"byteOffset":377276
		},
		{
			"buffer":0,
			"byteLength":16,
			"byteOffset":377288
		},
		{
			"buffer":0,
			"byteLength":12,
			"byteOffset":377304
		},
		{
			"buffer":0,
			"byteLength":16,
			"byteOffset":377316
		},
		{
			"buffer":0,
			"byteLength":12,
			"byteOffset":377332
		},
		{
			"buffer":0,
			"byteLength":12,
			"byteOffset":377344
		},
		{
			"buffer":0,
			"byteLength":16,
			"byteOffset":377356
		},
		{
			"buffer":0,
			"byteLength":12,
			"byteOffset":377372
		},
		{
			"buffer":0,
			"byteLength":12,
			"byteOffset":377384
		},
		{
			"buffer":0,
			"byteLength":16,
			"byteOffset":377396
		},
		{
			"buffer":0,
			"byteLength":8,
			"byteOffset":377412
		},
		{
			"buffer":0,
			"byteLength":32,
			"byteOffset":377420
		},
		{
			"buffer":0,
			"byteLength":32,
			"byteOffset":377452
		},
		{
			"buffer":0,
			"byteLength":24,
			"byteOffset":377484
		},
		{
			"buffer":0,
			"byteLength":24,
			"byteOffset":377508
		},
		{
			"buffer":0,
			"byteLength":32,
			"byteOffset":377532
		},
		{
			"buffer":0,
			"byteLength":48,
			"byteOffset":377564
		},
		{
			"buffer":0,
			"byteLength":192,
			"byteOffset":377612
		},
		{
			"buffer":0,
			"byteLength":192,
			"byteOffset":377804
		},
		{
			"buffer":0,
			"byteLength":192,
			"byteOffset":377996
		},
		{
			"buffer":0,
			"byteLength":192,
			"byteOffset":378188
		}
	],
	"samplers":[
		{
			"magFilter":9729,
			"minFilter":9987
		}
	],
	"buffers":[
		{
			"byteLength":378380,
			"uri":"raptor.bin"
		}
	]
}
