{
	"asset":{
		"generator":"Khronos glTF Blender I/O v5.2.39",
		"version":"2.0"
	},
	"scene":0,
	"scenes":[
		{
			"name":"Scene",
			"nodes":[
				7
			]
		}
	],
	"nodes":[
		{
			"name":"Bone.003",
			"rotation":[
				0.3073238134384155,
				0.15721569955348969,
				-0.3562885820865631,
				0.8682705760002136
			],
			"scale":[
				1,
				0.9999999403953552,
				1
			],
			"translation":[
				2.9802322387695312e-08,
				1.7549712657928467,
				8.940696716308594e-08
			]
		},
		{
			"children":[
				0
			],
			"name":"Bone.001",
			"rotation":[
				0.6454955339431763,
				1.7155173281935276e-08,
				0.07539119571447372,
				0.7600340247154236
			],
			"scale":[
				0.9999999403953552,
				1,
				1
			],
			"translation":[
				0,
				1.0000001192092896,
				0
			]
		},
		{
			"name":"Bone.004",
			"rotation":[
				-0.14792226254940033,
				0.015342085622251034,
				-0.051334138959646225,
				0.9875467419624329
			],
			"scale":[
				0.9999999403953552,
				0.9999999403953552,
				0.9999998211860657
			],
			"translation":[
				4.470348358154297e-08,
				1.7062633037567139,
				3.3527612686157227e-08
			]
		},
		{
			"children":[
				2
			],
			"name":"Bone.002",
			"rotation":[
				-0.6478936672210693,
				0.063402459025383,
				0.0191325843334198,
				0.7588464021682739
			],
			"scale":[
				1,
				1,
				1.0000001192092896
			],
			"translation":[
				0,
				1.0000001192092896,
				0
			]
		},
		{
			"children":[
				1,
				3
			],
			"name":"Bone"
		},
		{
			"name":"neutral_bone",
			"rotation":[
				-0.7071067690849304,
				0,
				0,
				0.7071067690849304
			]
		},
		{
			"mesh":0,
			"name":"tripo_node_fe611016-5424-4205-9508-4fdfe23b85fc",
			"skin":0
		},
		{
			"children":[
				6,
				4,
				5
			],
			"name":"Armature",
			"scale":[
				0.2933727502822876,
				0.2933727502822876,
				0.2933727502822876
			],
			"translation":[
				0.10908031463623047,
				0.39151066541671753,
				0.006468571722507477
			]
		}
	],
	"animations":[
		{
			"channels":[
				{
					"sampler":0,
					"target":{
						"node":4,
						"path":"translation"
					}
				},
				{
					"sampler":1,
					"target":{
						"node":4,
						"path":"rotation"
					}
				},
				{
					"sampler":2,
					"target":{
						"node":4,
						"path":"scale"
					}
				},
				{
					"sampler":3,
					"target":{
						"node":1,
						"path":"translation"
					}
				},
				{
					"sampler":4,
					"target":{
						"node":1,
						"path":"rotation"
					}
				},
				{
					"sampler":5,
					"target":{
						"node":1,
						"path":"scale"
					}
				},
				{
					"sampler":6,
					"target":{
						"node":0,
						"path":"translation"
					}
				},
				{
					"sampler":7,
					"target":{
						"node":0,
						"path":"rotation"
					}
				},
				{
					"sampler":8,
					"target":{
						"node":0,
						"path":"scale"
					}
				},
				{
					"sampler":9,
					"target":{
						"node":3,
						"path":"translation"
					}
				},
				{
					"sampler":10,
					"target":{
						"node":3,
						"path":"rotation"
					}
				},
				{
					"sampler":11,
					"target":{
						"node":3,
						"path":"scale"
					}
				},
				{
					"sampler":12,
					"target":{
						"node":2,
						"path":"translation"
					}
				},
				{
					"sampler":13,
					"target":{
						"node":2,
						"path":"rotation"
					}
				},
				{
					"sampler":14,
					"target":{
						"node":2,
						"path":"scale"
					}
				}
			],
			"name":"Attack",
			"samplers":[
				{
					"input":7,
					"interpolation":"STEP",
					"output":8
				},
				{
					"input":7,
					"interpolation":"STEP",
					"output":9
				},
				{
					"input":7,
					"interpolation":"STEP",
					"output":10
				},
				{
					"input":7,
					"interpolation":"STEP",
					"output":11
				},
				{
					"input":7,
					"interpolation":"STEP",
					"output":12
				},
				{
					"input":7,
					"interpolation":"STEP",
					"output":13
				},
				{
					"input":7,
					"interpolation":"STEP",
					"output":14
				},
				{
					"input":15,
					"interpolation":"LINEAR",
					"output":16
				},
				{
					"input":7,
					"interpolation":"STEP",
					"output":17
				},
				{
					"input":7,
					"interpolation":"STEP",
					"output":11
				},
				{
					"input":7,
					"interpolation":"STEP",
					"output":18
				},
				{
					"input":7,
					"interpolation":"STEP",
					"output":13
				},
				{
					"input":7,
					"interpolation":"STEP",
					"output":19
				},
				{
					"input":15,
					"interpolation":"LINEAR",
					"output":20
				},
				{
					"input":7,
					"interpolation":"STEP",
					"output":21
				}
			]
		},
		{
			"channels":[
				{
					"sampler":0,
					"target":{
						"node":4,
						"path":"translation"
					}
				},
				{
					"sampler":1,
					"target":{
						"node":4,
						"path":"rotation"
					}
				},
				{
					"sampler":2,
					"target":{
						"node":4,
						"path":"scale"
					}
				},
				{
					"sampler":3,
					"target":{
						"node":1,
						"path":"translation"
					}
				},
				{
					"sampler":4,
					"target":{
						"node":1,
						"path":"rotation"
					}
				},
				{
					"sampler":5,
					"target":{
						"node":1,
						"path":"scale"
					}
				},
				{
					"sampler":6,
					"target":{
						"node":0,
						"path":"translation"
					}
				},
				{
					"sampler":7,
					"target":{
						"node":0,
						"path":"rotation"
					}
				},
				{
					"sampler":8,
					"target":{
						"node":0,
						"path":"scale"
					}
				},
				{
					"sampler":9,
					"target":{
						"node":3,
						"path":"translation"
					}
				},
				{
					"sampler":10,
					"target":{
						"node":3,
						"path":"rotation"
					}
				},
				{
					"sampler":11,
					"target":{
						"node":3,
						"path":"scale"
					}
				},
				{
					"sampler":12,
					"target":{
						"node":2,
						"path":"translation"
					}
				},
				{
					"sampler":13,
					"target":{
						"node":2,
						"path":"rotation"
					}
				},
				{
					"sampler":14,
					"target":{
						"node":2,
						"path":"scale"
					}
				}
			],
			"name":"Die",
			"samplers":[
				{
					"input":22,
					"interpolation":"LINEAR",
					"output":23
				},
				{
					"input":22,
					"interpolation":"LINEAR",
					"output":24
				},
				{
					"input":22,
					"interpolation":"LINEAR",
					"output":25
				},
				{
					"input":22,
					"interpolation":"LINEAR",
					"output":26
				},
				{
					"input":22,
					"interpolation":"LINEAR",
					"output":27
				},
				{
					"input":22,
					"interpolation":"LINEAR",
					"output":28
				},
				{
					"input":22,
					"interpolation":"LINEAR",
					"output":29
				},
				{
					"input":22,
					"interpolation":"LINEAR",
					"output":30
				},
				{
					"input":22,
					"interpolation":"LINEAR",
					"output":31
				},
				{
					"input":22,
					"interpolation":"LINEAR",
					"output":26
				},
				{
					"input":22,
					"interpolation":"LINEAR",
					"output":32
				},
				{
					"input":22,
					"interpolation":"LINEAR",
					"output":28
				},
				{
					"input":22,
					"interpolation":"LINEAR",
					"output":33
				},
				{
					"input":22,
					"interpolation":"LINEAR",
					"output":34
				},
				{
					"input":22,
					"interpolation":"LINEAR",
					"output":35
				}
			]
		},
		{
			"channels":[
				{
					"sampler":0,
					"target":{
						"node":4,
						"path":"translation"
					}
				},
				{
					"sampler":1,
					"target":{
						"node":4,
						"path":"rotation"
					}
				},
				{
					"sampler":2,
					"target":{
						"node":4,
						"path":"scale"
					}
				},
				{
					"sampler":3,
					"target":{
						"node":1,
						"path":"translation"
					}
				},
				{
					"sampler":4,
					"target":{
						"node":1,
						"path":"rotation"
					}
				},
				{
					"sampler":5,
					"target":{
						"node":1,
						"path":"scale"
					}
				},
				{
					"sampler":6,
					"target":{
						"node":0,
						"path":"translation"
					}
				},
				{
					"sampler":7,
					"target":{
						"node":0,
						"path":"rotation"
					}
				},
				{
					"sampler":8,
					"target":{
						"node":0,
						"path":"scale"
					}
				},
				{
					"sampler":9,
					"target":{
						"node":3,
						"path":"translation"
					}
				},
				{
					"sampler":10,
					"target":{
						"node":3,
						"path":"rotation"
					}
				},
				{
					"sampler":11,
					"target":{
						"node":3,
						"path":"scale"
					}
				},
				{
					"sampler":12,
					"target":{
						"node":2,
						"path":"translation"
					}
				},
				{
					"sampler":13,
					"target":{
						"node":2,
						"path":"rotation"
					}
				},
				{
					"sampler":14,
					"target":{
						"node":2,
						"path":"scale"
					}
				}
			],
			"name":"Idle",
			"samplers":[
				{
					"input":22,
					"interpolation":"LINEAR",
					"output":23
				},
				{
					"input":22,
					"interpolation":"LINEAR",
					"output":24
				},
				{
					"input":22,
					"interpolation":"LINEAR",
					"output":25
				},
				{
					"input":22,
					"interpolation":"LINEAR",
					"output":26
				},
				{
					"input":22,
					"interpolation":"LINEAR",
					"output":27
				},
				{
					"input":22,
					"interpolation":"LINEAR",
					"output":28
				},
				{
					"input":22,
					"interpolation":"LINEAR",
					"output":29
				},
				{
					"input":22,
					"interpolation":"LINEAR",
					"output":30
				},
				{
					"input":22,
					"interpolation":"LINEAR",
					"output":31
				},
				{
					"input":22,
					"interpolation":"LINEAR",
					"output":26
				},
				{
					"input":22,
					"interpolation":"LINEAR",
					"output":32
				},
				{
					"input":22,
					"interpolation":"LINEAR",
					"output":28
				},
				{
					"input":22,
					"interpolation":"LINEAR",
					"output":33
				},
				{
					"input":22,
					"interpolation":"LINEAR",
					"output":34
				},
				{
					"input":22,
					"interpolation":"LINEAR",
					"output":35
				}
			]
		},
		{
			"channels":[
				{
					"sampler":0,
					"target":{
						"node":4,
						"path":"translation"
					}
				},
				{
					"sampler":1,
					"target":{
						"node":4,
						"path":"rotation"
					}
				},
				{
					"sampler":2,
					"target":{
						"node":4,
						"path":"scale"
					}
				},
				{
					"sampler":3,
					"target":{
						"node":1,
						"path":"translation"
					}
				},
				{
					"sampler":4,
					"target":{
						"node":1,
						"path":"rotation"
					}
				},
				{
					"sampler":5,
					"target":{
						"node":1,
						"path":"scale"
					}
				},
				{
					"sampler":6,
					"target":{
						"node":0,
						"path":"translation"
					}
				},
				{
					"sampler":7,
					"target":{
						"node":0,
						"path":"rotation"
					}
				},
				{
					"sampler":8,
					"target":{
						"node":0,
						"path":"scale"
					}
				},
				{
					"sampler":9,
					"target":{
						"node":3,
						"path":"translation"
					}
				},
				{
					"sampler":10,
					"target":{
						"node":3,
						"path":"rotation"
					}
				},
				{
					"sampler":11,
					"target":{
						"node":3,
						"path":"scale"
					}
				},
				{
					"sampler":12,
					"target":{
						"node":2,
						"path":"translation"
					}
				},
				{
					"sampler":13,
					"target":{
						"node":2,
						"path":"rotation"
					}
				},
				{
					"sampler":14,
					"target":{
						"node":2,
						"path":"scale"
					}
				}
			],
			"name":"Walk",
			"samplers":[
				{
					"input":22,
					"interpolation":"LINEAR",
					"output":23
				},
				{
					"input":22,
					"interpolation":"LINEAR",
					"output":24
				},
				{
					"input":22,
					"interpolation":"LINEAR",
					"output":25
				},
				{
					"input":22,
					"interpolation":"LINEAR",
					"output":26
				},
				{
					"input":22,
					"interpolation":"LINEAR",
					"output":27
				},
				{
					"input":22,
					"interpolation":"LINEAR",
					"output":28
				},
				{
					"input":22,
					"interpolation":"LINEAR",
					"output":29
				},
				{
					"input":22,
					"interpolation":"LINEAR",
					"output":30
				},
				{
					"input":22,
					"interpolation":"LINEAR",
					"output":31
				},
				{
					"input":22,
					"interpolation":"LINEAR",
					"output":26
				},
				{
					"input":22,
					"interpolation":"LINEAR",
					"output":32
				},
				{
					"input":22,
					"interpolation":"LINEAR",
					"output":28
				},
				{
					"input":22,
					"interpolation":"LINEAR",
					"output":33
				},
				{
					"input":22,
					"interpolation":"LINEAR",
					"output":34
				},
				{
					"input":22,
					"interpolation":"LINEAR",
					"output":35
				}
			]
		}
	],
	"materials":[
		{
			"name":"tripo_material_fe611016-5424-4205-9508-4fdfe23b85fc",
			"normalTexture":{
				"index":0
			},
			"pbrMetallicRoughness":{
				"baseColorTexture":{
					"index":1
				},
				"metallicRoughnessTexture":{
					"index":2
				}
			}
		}
	],
	"meshes":[
		{
			"name":"tripo_mesh_fe611016-5424-4205-9508-4fdfe23b85fc",
			"primitives":[
				{
					"attributes":{
						"POSITION":0,
						"NORMAL":1,
						"TEXCOORD_0":2,
						"JOINTS_0":3,
						"WEIGHTS_0":4
					},
					"indices":5,
					"material":0
				}
			]
		}
	],
	"textures":[
		{
			"sampler":0,
			"source":0
		},
		{
			"sampler":0,
			"source":1
		},
		{
			"sampler":0,
			"source":2
		}
	],
	"images":[
		{
			"mimeType":"image/jpeg",
			"name":"NormalGL_fe611016-5424-4205-9508-4fdfe23b85fc",
			"uri":"NormalGL_fe611016-5424-4205-9508-4fdfe23b85fc.jpg"
		},
		{
			"mimeType":"image/jpeg",
			"name":"Color_fe611016-5424-4205-9508-4fdfe23b85fc",
			"uri":"Color_fe611016-5424-4205-9508-4fdfe23b85fc.jpg"
		},
		{
			"mimeType":"image/jpeg",
			"name":"ORM_fe611016-5424-4205-9508-4fdfe23b85fc",
			"uri":"ORM_fe611016-5424-4205-9508-4fdfe23b85fc.jpg"
		}
	],
	"skins":[
		{
			"inverseBindMatrices":6,
			"joints":[
				4,
				1,
				0,
				3,
				2,
				5
			],
			"name":"Armature"
		}
	],
	"accessors":[
		{
			"bufferView":0,
			"componentType":5126,
			"count":8141,
			"max":[
				0.6352325081825256,
				2.050750970840454,
				1.0623273849487305
			],
			"min":[
				-0.6352325081825256,
				-0.012001752853393555,
				-1.0623273849487305
			],
			"type":"VEC3"
		},
		{
			"bufferView":1,
			"componentType":5126,
			"count":8141,
			"type":"VEC3"
		},
		{
			"bufferView":2,
			"componentType":5126,
			"count":8141,
			"type":"VEC2"
		},
		{
			"bufferView":3,
			"componentType":5121,
			"count":8141,
			"type":"VEC4"
		},
		{
			"bufferView":4,
			"componentType":5126,
			"count":8141,
			"type":"VEC4"
		},
		{
			"bufferView":5,
			"componentType":5123,
			"count":27921,
			"type":"SCALAR"
		},
		{
			"bufferView":6,
			"componentType":5126,
			"count":6,
			"type":"MAT4"
		},
		{
			"bufferView":7,
			"componentType":5126,
			"count":2,
			"max":[
				0.4166666666666667
			],
			"min":[
				0.041666666666666664
			],
			"type":"SCALAR"
		},
		{
			"bufferView":8,
			"componentType":5126,
			"count":2,
			"type":"VEC3"
		},
		{
			"bufferView":9,
			"componentType":5126,
			"count":2,
			"type":"VEC4"
		},
		{
			"bufferView":10,
			"componentType":5126,
			"count":2,
			"type":"VEC3"
		},
		{
			"bufferView":11,
			"componentType":5126,
			"count":2,
			"type":"VEC3"
		},
		{
			"bufferView":12,
			"componentType":5126,
			"count":2,
			"type":"VEC4"
		},
		{
			"bufferView":13,
			"componentType":5126,
			"count":2,
			"type":"VEC3"
		},
		{
			"bufferView":14,
			"componentType":5126,
			"count":2,
			"type":"VEC3"
		},
		{
			"bufferView":15,
			"componentType":5126,
			"count":10,
			"max":[
				0.4166666666666667
			],
			"min":[
				0.041666666666666664
			],
			"type":"SCALAR"
		},
		{
			"bufferView":16,
			"componentType":5126,
			"count":10,
			"type":"VEC4"
		},
		{
			"bufferView":17,
			"componentType":5126,
			"count":2,
			"type":"VEC3"
		},
		{
			"bufferView":18,
			"componentType":5126,
			"count":2,
			"type":"VEC4"
		},
		{
			"bufferView":19,
			"componentType":5126,
			"count":2,
			"type":"VEC3"
		},
		{
			"bufferView":20,
			"componentType":5126,
			"count":10,
			"type":"VEC4"
		},
		{
			"bufferView":21,
			"componentType":5126,
			"count":2,
			"type":"VEC3"
		},
		{
			"bufferView":22,
			"componentType":5126,
			"count":1,
			"max":[
				0.041666666666666664
			],
			"min":[
				0.041666666666666664
			],
			"type":"SCALAR"
		},
		{
			"bufferView":23,
			"componentType":5126,
			"count":1,
			"type":"VEC3"
		},
		{
			"bufferView":24,
			"componentType":5126,
			"count":1,
			"type":"VEC4"
		},
		{
			"bufferView":25,
			"componentType":5126,
			"count":1,
			"type":"VEC3"
		},
		{
			"bufferView":26,
			"componentType":5126,
			"count":1,
			"type":"VEC3"
		},
		{
			"bufferView":27,
			"componentType":5126,
			"count":1,
			"type":"VEC4"
		},
		{
			"bufferView":28,
			"componentType":5126,
			"count":1,
			"type":"VEC3"
		},
		{
			"bufferView":29,
			"componentType":5126,
			"count":1,
			"type":"VEC3"
		},
		{
			"bufferView":30,
			"componentType":5126,
			"count":1,
			"type":"VEC4"
		},
		{
			"bufferView":31,
			"componentType":5126,
			"count":1,
			"type":"VEC3"
		},
		{
			"bufferView":32,
			"componentType":5126,
			"count":1,
			"type":"VEC4"
		},
		{
			"bufferView":33,
			"componentType":5126,
			"count":1,
			"type":"VEC3"
		},
		{
			"bufferView":34,
			"componentType":5126,
			"count":1,
			"type":"VEC4"
		},
		{
			"bufferView":35,
			"componentType":5126,
			"count":1,
			"type":"VEC3"
		}
	],
	"bufferViews":[
		{
			"buffer":0,
			"byteLength":97692,
			"byteOffset":0,
			"target":34962
		},
		{
			"buffer":0,
			"byteLength":97692,
			"byteOffset":97692,
			"target":34962
		},
		{
			"buffer":0,
			"byteLength":65128,
			"byteOffset":195384,
			"target":34962
		},
		{
			"buffer":0,
			"byteLength":32564,
			"byteOffset":260512,
			"target":34962
		},
		{
			"buffer":0,
			"byteLength":130256,
			"byteOffset":293076,
			"target":34962
		},
		{
			"buffer":0,
			"byteLength":55842,
			"byteOffset":423332,
			"target":34963
		},
		{
			"buffer":0,
			"byteLength":384,
			"byteOffset":479176
		},
		{
			"buffer":0,
			"byteLength":8,
			"byteOffset":479560
		},
		{
			"buffer":0,
			"byteLength":24,
			"byteOffset":479568
		},
		{
			"buffer":0,
			"byteLength":32,
			"byteOffset":479592
		},
		{
			"buffer":0,
			"byteLength":24,
			"byteOffset":479624
		},
		{
			"buffer":0,
			"byteLength":24,
			"byteOffset":479648
		},
		{
			"buffer":0,
			"byteLength":32,
			"byteOffset":479672
		},
		{
			"buffer":0,
			"byteLength":24,
			"byteOffset":479704
		},
		{
			"buffer":0,
			"byteLength":24,
			"byteOffset":479728
		},
		{
			"buffer":0,
			"byteLength":40,
			"byteOffset":479752
		},
		{
			"buffer":0,
			"byteLength":160,
			"byteOffset":479792
		},
		{
			"buffer":0,
			"byteLength":24,
			"byteOffset":479952
		},
		{
			"buffer":0,
			"byteLength":32,
			"byteOffset":479976
		},
		{
			"buffer":0,
			"byteLength":24,
			"byteOffset":480008
		},
		{
			"buffer":0,
			"byteLength":160,
			"byteOffset":480032
		},
		{
			"buffer":0,
			"byteLength":24,
			"byteOffset":480192
		},
		{
			"buffer":0,
			"byteLength":4,
			"byteOffset":480216
		},
		{
			"buffer":0,
			"byteLength":12,
			"byteOffset":480220
		},
		{
			"buffer":0,
			"byteLength":16,
			"byteOffset":480232
		},
		{
			"buffer":0,
			"byteLength":12,
			"byteOffset":480248
		},
		{
			"buffer":0,
			"byteLength":12,
			"byteOffset":480260
		},
		{
			"buffer":0,
			"byteLength":16,
			"byteOffset":480272
		},
		{
			"buffer":0,
			"byteLength":12,
			"byteOffset":480288
		},
		{
			"buffer":0,
			"byteLength":12,
			"byteOffset":480300
		},
		{
			"buffer":0,
			"byteLength":16,
			"byteOffset":480312
		},
		{
			"buffer":0,
			"byteLength":12,
			"byteOffset":480328
		},
		{
			"buffer":0,
			"byteLength":16,
			"byteOffset":480340
		},
		{
			"buffer":0,
			"byteLength":12,
			"byteOffset":480356
		},
		{
			"buffer":0,
			"byteLength":16,
			"byteOffset":480368
		},
		{
			"buffer":0,
			"byteLength":12,
			"byteOffset":480384
		}
	],
	"samplers":[
		{
			"magFilter":9729,
			"minFilter":9987
		}
	],
	"buffers":[
		{
			"byteLength":480396,
			"uri":"robotboss.bin"
		}
	]
}
