{
	"asset":{
		"generator":"Khronos glTF Blender I/O v5.2.39",
		"version":"2.0"
	},
	"scene":0,
	"scenes":[
		{
			"name":"Scene",
			"nodes":[
				13
			]
		}
	],
	"nodes":[
		{
			"name":"Bone.003",
			"rotation":[
				-0.3820067048072815,
				0.05283636972308159,
				0.15294471383094788,
				0.9098830819129944
			],
			"scale":[
				0.9999999403953552,
				0.9999998211860657,
				0.9999999403953552
			],
			"translation":[
				-1.862645149230957e-08,
				0.3486272096633911,
				-2.421438694000244e-08
			]
		},
		{
			"name":"Bone.004",
			"rotation":[
				0.11151618510484695,
				-0.00227359589189291,
				-0.19790363311767578,
				0.9738547801971436
			],
			"translation":[
				-1.862645149230957e-08,
				0.3486272096633911,
				-2.421438694000244e-08
			]
		},
		{
			"children":[
				0,
				1
			],
			"name":"Bone.002",
			"rotation":[
				0.18138545751571655,
				0.19823195040225983,
				-0.37679794430732727,
				0.8864687085151672
			],
			"scale":[
				0.9999999403953552,
				1,
				1
			],
			"translation":[
				2.896413207054138e-07,
				0.22767333686351776,
				3.818422555923462e-08
			]
		},
		{
			"children":[
				2
			],
			"name":"Bone.001",
			"rotation":[
				0.17583055794239044,
				0.05888074263930321,
				-0.5081608891487122,
				0.8410643339157104
			],
			"scale":[
				1,
				0.9999999403953552,
				1
			],
			"translation":[
				-2.6724592316895723e-08,
				1.0066277980804443,
				-1.4551915228366852e-11
			]
		},
		{
			"children":[
				3
			],
			"name":"Bone",
			"rotation":[
				0.007818803191184998,
				-0.0005610047373920679,
				0.053697746247053146,
				0.9985264539718628
			],
			"translation":[
				0.10795685648918152,
				-0.0006998181343078613,
				-0.015657328069210052
			]
		},
		{
			"name":"Bone.005",
			"rotation":[
				-0.8123561143875122,
				0.18171262741088867,
				0.2103600800037384,
				0.5126467943191528
			],
			"scale":[
				0.9999999403953552,
				0.9999999403953552,
				0.9999999403953552
			],
			"translation":[
				0.10795685648918152,
				-0.0006998181343078613,
				-0.015657328069210052
			]
		},
		{
			"name":"Bone.006",
			"rotation":[
				-0.27957433462142944,
				0.5354135632514954,
				0.7730987071990967,
				0.19362053275108337
			],
			"scale":[
				0.9999998807907104,
				0.9999999403953552,
				1
			],
			"translation":[
				0.10795685648918152,
				-0.0006998181343078613,
				-0.015657328069210052
			]
		},
		{
			"name":"Bone.007",
			"rotation":[
				-0.375264972448349,
				-0.5250241160392761,
				-0.712007462978363,
				0.27671509981155396
			],
			"scale":[
				1.0000001192092896,
				1,
				1.0000001192092896
			],
			"translation":[
				0.10795685648918152,
				-0.0006998181343078613,
				-0.015657328069210052
			]
		},
		{
			"name":"Bone.008",
			"rotation":[
				0.01339593343436718,
				-0.628940761089325,
				-0.7765070796012878,
				0.03593002259731293
			],
			"scale":[
				1,
				1.0000001192092896,
				1.0000032186508179
			],
			"translation":[
				0.10795685648918152,
				-0.0006998181343078613,
				-0.015657328069210052
			]
		},
		{
			"name":"Bone.009",
			"rotation":[
				-0.6121893525123596,
				-0.3933884799480438,
				-0.5697064399719238,
				0.38197416067123413
			],
			"translation":[
				0.10795685648918152,
				-0.0006998181343078613,
				-0.015657328069210052
			]
		},
		{
			"name":"Bone.010",
			"rotation":[
				-0.7901849150657654,
				-0.18945685029029846,
				-0.2824265658855438,
				0.5098521113395691
			],
			"scale":[
				1,
				0.9999999403953552,
				0.9999999403953552
			],
			"translation":[
				0.10795685648918152,
				-0.0006998181343078613,
				-0.015657328069210052
			]
		},
		{
			"name":"neutral_bone",
			"rotation":[
				-0.7071067690849304,
				0,
				0,
				0.7071067690849304
			]
		},
		{
			"mesh":0,
			"name":"tripo_node_9a571380-b13b-46db-9d4e-752c082dd9a8",
			"skin":0
		},
		{
			"children":[
				12,
				4,
				5,
				6,
				7,
				8,
				9,
				10,
				11
			],
			"name":"Armature",
			"scale":[
				0.6224015951156616,
				0.6224015951156616,
				0.6224015951156616
			],
			"translation":[
				-0.13370773196220398,
				0.1690751612186432,
				-0.026042355224490166
			]
		}
	],
	"animations":[
		{
			"channels":[
				{
					"sampler":0,
					"target":{
						"node":4,
						"path":"translation"
					}
				},
				{
					"sampler":1,
					"target":{
						"node":4,
						"path":"rotation"
					}
				},
				{
					"sampler":2,
					"target":{
						"node":4,
						"path":"scale"
					}
				},
				{
					"sampler":3,
					"target":{
						"node":3,
						"path":"translation"
					}
				},
				{
					"sampler":4,
					"target":{
						"node":3,
						"path":"rotation"
					}
				},
				{
					"sampler":5,
					"target":{
						"node":3,
						"path":"scale"
					}
				},
				{
					"sampler":6,
					"target":{
						"node":2,
						"path":"translation"
					}
				},
				{
					"sampler":7,
					"target":{
						"node":2,
						"path":"rotation"
					}
				},
				{
					"sampler":8,
					"target":{
						"node":2,
						"path":"scale"
					}
				},
				{
					"sampler":9,
					"target":{
						"node":0,
						"path":"translation"
					}
				},
				{
					"sampler":10,
					"target":{
						"node":0,
						"path":"rotation"
					}
				},
				{
					"sampler":11,
					"target":{
						"node":0,
						"path":"scale"
					}
				},
				{
					"sampler":12,
					"target":{
						"node":1,
						"path":"translation"
					}
				},
				{
					"sampler":13,
					"target":{
						"node":1,
						"path":"rotation"
					}
				},
				{
					"sampler":14,
					"target":{
						"node":1,
						"path":"scale"
					}
				},
				{
					"sampler":15,
					"target":{
						"node":5,
						"path":"translation"
					}
				},
				{
					"sampler":16,
					"target":{
						"node":5,
						"path":"rotation"
					}
				},
				{
					"sampler":17,
					"target":{
						"node":5,
						"path":"scale"
					}
				},
				{
					"sampler":18,
					"target":{
						"node":6,
						"path":"translation"
					}
				},
				{
					"sampler":19,
					"target":{
						"node":6,
						"path":"rotation"
					}
				},
				{
					"sampler":20,
					"target":{
						"node":6,
						"path":"scale"
					}
				},
				{
					"sampler":21,
					"target":{
						"node":7,
						"path":"translation"
					}
				},
				{
					"sampler":22,
					"target":{
						"node":7,
						"path":"rotation"
					}
				},
				{
					"sampler":23,
					"target":{
						"node":7,
						"path":"scale"
					}
				},
				{
					"sampler":24,
					"target":{
						"node":8,
						"path":"translation"
					}
				},
				{
					"sampler":25,
					"target":{
						"node":8,
						"path":"rotation"
					}
				},
				{
					"sampler":26,
					"target":{
						"node":8,
						"path":"scale"
					}
				},
				{
					"sampler":27,
					"target":{
						"node":9,
						"path":"translation"
					}
				},
				{
					"sampler":28,
					"target":{
						"node":9,
						"path":"rotation"
					}
				},
				{
					"sampler":29,
					"target":{
						"node":9,
						"path":"scale"
					}
				},
				{
					"sampler":30,
					"target":{
						"node":10,
						"path":"translation"
					}
				},
				{
					"sampler":31,
					"target":{
						"node":10,
						"path":"rotation"
					}
				},
				{
					"sampler":32,
					"target":{
						"node":10,
						"path":"scale"
					}
				}
			],
			"name":"Attack",
			"samplers":[
				{
					"input":7,
					"interpolation":"STEP",
					"output":8
				},
				{
					"input":7,
					"interpolation":"STEP",
					"output":9
				},
				{
					"input":7,
					"interpolation":"STEP",
					"output":10
				},
				{
					"input":7,
					"interpolation":"STEP",
					"output":11
				},
				{
					"input":7,
					"interpolation":"STEP",
					"output":12
				},
				{
					"input":7,
					"interpolation":"STEP",
					"output":13
				},
				{
					"input":7,
					"interpolation":"STEP",
					"output":14
				},
				{
					"input":7,
					"interpolation":"STEP",
					"output":15
				},
				{
					"input":7,
					"interpolation":"STEP",
					"output":16
				},
				{
					"input":7,
					"interpolation":"STEP",
					"output":17
				},
				{
					"input":18,
					"interpolation":"LINEAR",
					"output":19
				},
				{
					"input":7,
					"interpolation":"STEP",
					"output":20
				},
				{
					"input":7,
					"interpolation":"STEP",
					"output":21
				},
				{
					"input":18,
					"interpolation":"LINEAR",
					"output":22
				},
				{
					"input":7,
					"interpolation":"STEP",
					"output":23
				},
				{
					"input":7,
					"interpolation":"STEP",
					"output":24
				},
				{
					"input":7,
					"interpolation":"STEP",
					"output":25
				},
				{
					"input":7,
					"interpolation":"STEP",
					"output":26
				},
				{
					"input":7,
					"interpolation":"STEP",
					"output":27
				},
				{
					"input":7,
					"interpolation":"STEP",
					"output":28
				},
				{
					"input":7,
					"interpolation":"STEP",
					"output":29
				},
				{
					"input":7,
					"interpolation":"STEP",
					"output":30
				},
				{
					"input":7,
					"interpolation":"STEP",
					"output":31
				},
				{
					"input":7,
					"interpolation":"STEP",
					"output":13
				},
				{
					"input":7,
					"interpolation":"STEP",
					"output":32
				},
				{
					"input":7,
					"interpolation":"STEP",
					"output":33
				},
				{
					"input":7,
					"interpolation":"STEP",
					"output":34
				},
				{
					"input":7,
					"interpolation":"STEP",
					"output":35
				},
				{
					"input":7,
					"interpolation":"STEP",
					"output":36
				},
				{
					"input":7,
					"interpolation":"STEP",
					"output":37
				},
				{
					"input":7,
					"interpolation":"STEP",
					"output":38
				},
				{
					"input":7,
					"interpolation":"STEP",
					"output":39
				},
				{
					"input":7,
					"interpolation":"STEP",
					"output":40
				}
			]
		},
		{
			"channels":[
				{
					"sampler":0,
					"target":{
						"node":4,
						"path":"translation"
					}
				},
				{
					"sampler":1,
					"target":{
						"node":4,
						"path":"rotation"
					}
				},
				{
					"sampler":2,
					"target":{
						"node":4,
						"path":"scale"
					}
				},
				{
					"sampler":3,
					"target":{
						"node":3,
						"path":"translation"
					}
				},
				{
					"sampler":4,
					"target":{
						"node":3,
						"path":"rotation"
					}
				},
				{
					"sampler":5,
					"target":{
						"node":3,
						"path":"scale"
					}
				},
				{
					"sampler":6,
					"target":{
						"node":2,
						"path":"translation"
					}
				},
				{
					"sampler":7,
					"target":{
						"node":2,
						"path":"rotation"
					}
				},
				{
					"sampler":8,
					"target":{
						"node":2,
						"path":"scale"
					}
				},
				{
					"sampler":9,
					"target":{
						"node":0,
						"path":"translation"
					}
				},
				{
					"sampler":10,
					"target":{
						"node":0,
						"path":"rotation"
					}
				},
				{
					"sampler":11,
					"target":{
						"node":0,
						"path":"scale"
					}
				},
				{
					"sampler":12,
					"target":{
						"node":1,
						"path":"translation"
					}
				},
				{
					"sampler":13,
					"target":{
						"node":1,
						"path":"rotation"
					}
				},
				{
					"sampler":14,
					"target":{
						"node":1,
						"path":"scale"
					}
				},
				{
					"sampler":15,
					"target":{
						"node":5,
						"path":"translation"
					}
				},
				{
					"sampler":16,
					"target":{
						"node":5,
						"path":"rotation"
					}
				},
				{
					"sampler":17,
					"target":{
						"node":5,
						"path":"scale"
					}
				},
				{
					"sampler":18,
					"target":{
						"node":6,
						"path":"translation"
					}
				},
				{
					"sampler":19,
					"target":{
						"node":6,
						"path":"rotation"
					}
				},
				{
					"sampler":20,
					"target":{
						"node":6,
						"path":"scale"
					}
				},
				{
					"sampler":21,
					"target":{
						"node":7,
						"path":"translation"
					}
				},
				{
					"sampler":22,
					"target":{
						"node":7,
						"path":"rotation"
					}
				},
				{
					"sampler":23,
					"target":{
						"node":7,
						"path":"scale"
					}
				},
				{
					"sampler":24,
					"target":{
						"node":8,
						"path":"translation"
					}
				},
				{
					"sampler":25,
					"target":{
						"node":8,
						"path":"rotation"
					}
				},
				{
					"sampler":26,
					"target":{
						"node":8,
						"path":"scale"
					}
				},
				{
					"sampler":27,
					"target":{
						"node":9,
						"path":"translation"
					}
				},
				{
					"sampler":28,
					"target":{
						"node":9,
						"path":"rotation"
					}
				},
				{
					"sampler":29,
					"target":{
						"node":9,
						"path":"scale"
					}
				},
				{
					"sampler":30,
					"target":{
						"node":10,
						"path":"translation"
					}
				},
				{
					"sampler":31,
					"target":{
						"node":10,
						"path":"rotation"
					}
				},
				{
					"sampler":32,
					"target":{
						"node":10,
						"path":"scale"
					}
				}
			],
			"name":"Die",
			"samplers":[
				{
					"input":41,
					"interpolation":"LINEAR",
					"output":42
				},
				{
					"input":41,
					"interpolation":"LINEAR",
					"output":43
				},
				{
					"input":41,
					"interpolation":"LINEAR",
					"output":44
				},
				{
					"input":41,
					"interpolation":"LINEAR",
					"output":45
				},
				{
					"input":41,
					"interpolation":"LINEAR",
					"output":46
				},
				{
					"input":41,
					"interpolation":"LINEAR",
					"output":47
				},
				{
					"input":41,
					"interpolation":"LINEAR",
					"output":48
				},
				{
					"input":41,
					"interpolation":"LINEAR",
					"output":49
				},
				{
					"input":41,
					"interpolation":"LINEAR",
					"output":50
				},
				{
					"input":41,
					"interpolation":"LINEAR",
					"output":51
				},
				{
					"input":41,
					"interpolation":"LINEAR",
					"output":52
				},
				{
					"input":41,
					"interpolation":"LINEAR",
					"output":53
				},
				{
					"input":41,
					"interpolation":"LINEAR",
					"output":54
				},
				{
					"input":41,
					"interpolation":"LINEAR",
					"output":55
				},
				{
					"input":41,
					"interpolation":"LINEAR",
					"output":56
				},
				{
					"input":41,
					"interpolation":"LINEAR",
					"output":57
				},
				{
					"input":41,
					"interpolation":"LINEAR",
					"output":58
				},
				{
					"input":41,
					"interpolation":"LINEAR",
					"output":59
				},
				{
					"input":41,
					"interpolation":"LINEAR",
					"output":60
				},
				{
					"input":41,
					"interpolation":"LINEAR",
					"output":61
				},
				{
					"input":41,
					"interpolation":"LINEAR",
					"output":62
				},
				{
					"input":41,
					"interpolation":"LINEAR",
					"output":63
				},
				{
					"input":41,
					"interpolation":"LINEAR",
					"output":64
				},
				{
					"input":41,
					"interpolation":"LINEAR",
					"output":47
				},
				{
					"input":41,
					"interpolation":"LINEAR",
					"output":65
				},
				{
					"input":41,
					"interpolation":"LINEAR",
					"output":66
				},
				{
					"input":41,
					"interpolation":"LINEAR",
					"output":67
				},
				{
					"input":41,
					"interpolation":"LINEAR",
					"output":68
				},
				{
					"input":41,
					"interpolation":"LINEAR",
					"output":69
				},
				{
					"input":41,
					"interpolation":"LINEAR",
					"output":70
				},
				{
					"input":41,
					"interpolation":"LINEAR",
					"output":71
				},
				{
					"input":41,
					"interpolation":"LINEAR",
					"output":72
				},
				{
					"input":41,
					"interpolation":"LINEAR",
					"output":73
				}
			]
		},
		{
			"channels":[
				{
					"sampler":0,
					"target":{
						"node":4,
						"path":"translation"
					}
				},
				{
					"sampler":1,
					"target":{
						"node":4,
						"path":"rotation"
					}
				},
				{
					"sampler":2,
					"target":{
						"node":4,
						"path":"scale"
					}
				},
				{
					"sampler":3,
					"target":{
						"node":3,
						"path":"translation"
					}
				},
				{
					"sampler":4,
					"target":{
						"node":3,
						"path":"rotation"
					}
				},
				{
					"sampler":5,
					"target":{
						"node":3,
						"path":"scale"
					}
				},
				{
					"sampler":6,
					"target":{
						"node":2,
						"path":"translation"
					}
				},
				{
					"sampler":7,
					"target":{
						"node":2,
						"path":"rotation"
					}
				},
				{
					"sampler":8,
					"target":{
						"node":2,
						"path":"scale"
					}
				},
				{
					"sampler":9,
					"target":{
						"node":0,
						"path":"translation"
					}
				},
				{
					"sampler":10,
					"target":{
						"node":0,
						"path":"rotation"
					}
				},
				{
					"sampler":11,
					"target":{
						"node":0,
						"path":"scale"
					}
				},
				{
					"sampler":12,
					"target":{
						"node":1,
						"path":"translation"
					}
				},
				{
					"sampler":13,
					"target":{
						"node":1,
						"path":"rotation"
					}
				},
				{
					"sampler":14,
					"target":{
						"node":1,
						"path":"scale"
					}
				},
				{
					"sampler":15,
					"target":{
						"node":5,
						"path":"translation"
					}
				},
				{
					"sampler":16,
					"target":{
						"node":5,
						"path":"rotation"
					}
				},
				{
					"sampler":17,
					"target":{
						"node":5,
						"path":"scale"
					}
				},
				{
					"sampler":18,
					"target":{
						"node":6,
						"path":"translation"
					}
				},
				{
					"sampler":19,
					"target":{
						"node":6,
						"path":"rotation"
					}
				},
				{
					"sampler":20,
					"target":{
						"node":6,
						"path":"scale"
					}
				},
				{
					"sampler":21,
					"target":{
						"node":7,
						"path":"translation"
					}
				},
				{
					"sampler":22,
					"target":{
						"node":7,
						"path":"rotation"
					}
				},
				{
					"sampler":23,
					"target":{
						"node":7,
						"path":"scale"
					}
				},
				{
					"sampler":24,
					"target":{
						"node":8,
						"path":"translation"
					}
				},
				{
					"sampler":25,
					"target":{
						"node":8,
						"path":"rotation"
					}
				},
				{
					"sampler":26,
					"target":{
						"node":8,
						"path":"scale"
					}
				},
				{
					"sampler":27,
					"target":{
						"node":9,
						"path":"translation"
					}
				},
				{
					"sampler":28,
					"target":{
						"node":9,
						"path":"rotation"
					}
				},
				{
					"sampler":29,
					"target":{
						"node":9,
						"path":"scale"
					}
				},
				{
					"sampler":30,
					"target":{
						"node":10,
						"path":"translation"
					}
				},
				{
					"sampler":31,
					"target":{
						"node":10,
						"path":"rotation"
					}
				},
				{
					"sampler":32,
					"target":{
						"node":10,
						"path":"scale"
					}
				},
				{
					"sampler":0,
					"target":{
						"node":4,
						"path":"translation"
					}
				},
				{
					"sampler":1,
					"target":{
						"node":4,
						"path":"rotation"
					}
				},
				{
					"sampler":2,
					"target":{
						"node":4,
						"path":"scale"
					}
				},
				{
					"sampler":3,
					"target":{
						"node":3,
						"path":"translation"
					}
				},
				{
					"sampler":4,
					"target":{
						"node":3,
						"path":"rotation"
					}
				},
				{
					"sampler":5,
					"target":{
						"node":3,
						"path":"scale"
					}
				},
				{
					"sampler":6,
					"target":{
						"node":2,
						"path":"translation"
					}
				},
				{
					"sampler":7,
					"target":{
						"node":2,
						"path":"rotation"
					}
				},
				{
					"sampler":8,
					"target":{
						"node":2,
						"path":"scale"
					}
				},
				{
					"sampler":9,
					"target":{
						"node":0,
						"path":"translation"
					}
				},
				{
					"sampler":10,
					"target":{
						"node":0,
						"path":"rotation"
					}
				},
				{
					"sampler":11,
					"target":{
						"node":0,
						"path":"scale"
					}
				},
				{
					"sampler":12,
					"target":{
						"node":1,
						"path":"translation"
					}
				},
				{
					"sampler":13,
					"target":{
						"node":1,
						"path":"rotation"
					}
				},
				{
					"sampler":14,
					"target":{
						"node":1,
						"path":"scale"
					}
				},
				{
					"sampler":15,
					"target":{
						"node":5,
						"path":"translation"
					}
				},
				{
					"sampler":16,
					"target":{
						"node":5,
						"path":"rotation"
					}
				},
				{
					"sampler":17,
					"target":{
						"node":5,
						"path":"scale"
					}
				},
				{
					"sampler":18,
					"target":{
						"node":6,
						"path":"translation"
					}
				},
				{
					"sampler":19,
					"target":{
						"node":6,
						"path":"rotation"
					}
				},
				{
					"sampler":20,
					"target":{
						"node":6,
						"path":"scale"
					}
				},
				{
					"sampler":21,
					"target":{
						"node":7,
						"path":"translation"
					}
				},
				{
					"sampler":22,
					"target":{
						"node":7,
						"path":"rotation"
					}
				},
				{
					"sampler":23,
					"target":{
						"node":7,
						"path":"scale"
					}
				},
				{
					"sampler":24,
					"target":{
						"node":8,
						"path":"translation"
					}
				},
				{
					"sampler":25,
					"target":{
						"node":8,
						"path":"rotation"
					}
				},
				{
					"sampler":26,
					"target":{
						"node":8,
						"path":"scale"
					}
				},
				{
					"sampler":27,
					"target":{
						"node":9,
						"path":"translation"
					}
				},
				{
					"sampler":28,
					"target":{
						"node":9,
						"path":"rotation"
					}
				},
				{
					"sampler":29,
					"target":{
						"node":9,
						"path":"scale"
					}
				},
				{
					"sampler":30,
					"target":{
						"node":10,
						"path":"translation"
					}
				},
				{
					"sampler":31,
					"target":{
						"node":10,
						"path":"rotation"
					}
				},
				{
					"sampler":32,
					"target":{
						"node":10,
						"path":"scale"
					}
				}
			],
			"name":"Idle",
			"samplers":[
				{
					"input":41,
					"interpolation":"LINEAR",
					"output":42
				},
				{
					"input":41,
					"interpolation":"LINEAR",
					"output":43
				},
				{
					"input":41,
					"interpolation":"LINEAR",
					"output":44
				},
				{
					"input":41,
					"interpolation":"LINEAR",
					"output":45
				},
				{
					"input":41,
					"interpolation":"LINEAR",
					"output":46
				},
				{
					"input":41,
					"interpolation":"LINEAR",
					"output":47
				},
				{
					"input":41,
					"interpolation":"LINEAR",
					"output":48
				},
				{
					"input":41,
					"interpolation":"LINEAR",
					"output":49
				},
				{
					"input":41,
					"interpolation":"LINEAR",
					"output":50
				},
				{
					"input":41,
					"interpolation":"LINEAR",
					"output":51
				},
				{
					"input":41,
					"interpolation":"LINEAR",
					"output":52
				},
				{
					"input":41,
					"interpolation":"LINEAR",
					"output":53
				},
				{
					"input":41,
					"interpolation":"LINEAR",
					"output":54
				},
				{
					"input":41,
					"interpolation":"LINEAR",
					"output":55
				},
				{
					"input":41,
					"interpolation":"LINEAR",
					"output":56
				},
				{
					"input":41,
					"interpolation":"LINEAR",
					"output":57
				},
				{
					"input":41,
					"interpolation":"LINEAR",
					"output":58
				},
				{
					"input":41,
					"interpolation":"LINEAR",
					"output":59
				},
				{
					"input":41,
					"interpolation":"LINEAR",
					"output":60
				},
				{
					"input":41,
					"interpolation":"LINEAR",
					"output":61
				},
				{
					"input":41,
					"interpolation":"LINEAR",
					"output":62
				},
				{
					"input":41,
					"interpolation":"LINEAR",
					"output":63
				},
				{
					"input":41,
					"interpolation":"LINEAR",
					"output":64
				},
				{
					"input":41,
					"interpolation":"LINEAR",
					"output":47
				},
				{
					"input":41,
					"interpolation":"LINEAR",
					"output":65
				},
				{
					"input":41,
					"interpolation":"LINEAR",
					"output":66
				},
				{
					"input":41,
					"interpolation":"LINEAR",
					"output":67
				},
				{
					"input":41,
					"interpolation":"LINEAR",
					"output":68
				},
				{
					"input":41,
					"interpolation":"LINEAR",
					"output":69
				},
				{
					"input":41,
					"interpolation":"LINEAR",
					"output":70
				},
				{
					"input":41,
					"interpolation":"LINEAR",
					"output":71
				},
				{
					"input":41,
					"interpolation":"LINEAR",
					"output":72
				},
				{
					"input":41,
					"interpolation":"LINEAR",
					"output":73
				}
			]
		},
		{
			"channels":[
				{
					"sampler":0,
					"target":{
						"node":4,
						"path":"translation"
					}
				},
				{
					"sampler":1,
					"target":{
						"node":4,
						"path":"rotation"
					}
				},
				{
					"sampler":2,
					"target":{
						"node":4,
						"path":"scale"
					}
				},
				{
					"sampler":3,
					"target":{
						"node":3,
						"path":"translation"
					}
				},
				{
					"sampler":4,
					"target":{
						"node":3,
						"path":"rotation"
					}
				},
				{
					"sampler":5,
					"target":{
						"node":3,
						"path":"scale"
					}
				},
				{
					"sampler":6,
					"target":{
						"node":2,
						"path":"translation"
					}
				},
				{
					"sampler":7,
					"target":{
						"node":2,
						"path":"rotation"
					}
				},
				{
					"sampler":8,
					"target":{
						"node":2,
						"path":"scale"
					}
				},
				{
					"sampler":9,
					"target":{
						"node":0,
						"path":"translation"
					}
				},
				{
					"sampler":10,
					"target":{
						"node":0,
						"path":"rotation"
					}
				},
				{
					"sampler":11,
					"target":{
						"node":0,
						"path":"scale"
					}
				},
				{
					"sampler":12,
					"target":{
						"node":1,
						"path":"translation"
					}
				},
				{
					"sampler":13,
					"target":{
						"node":1,
						"path":"rotation"
					}
				},
				{
					"sampler":14,
					"target":{
						"node":1,
						"path":"scale"
					}
				},
				{
					"sampler":15,
					"target":{
						"node":5,
						"path":"translation"
					}
				},
				{
					"sampler":16,
					"target":{
						"node":5,
						"path":"rotation"
					}
				},
				{
					"sampler":17,
					"target":{
						"node":5,
						"path":"scale"
					}
				},
				{
					"sampler":18,
					"target":{
						"node":6,
						"path":"translation"
					}
				},
				{
					"sampler":19,
					"target":{
						"node":6,
						"path":"rotation"
					}
				},
				{
					"sampler":20,
					"target":{
						"node":6,
						"path":"scale"
					}
				},
				{
					"sampler":21,
					"target":{
						"node":7,
						"path":"translation"
					}
				},
				{
					"sampler":22,
					"target":{
						"node":7,
						"path":"rotation"
					}
				},
				{
					"sampler":23,
					"target":{
						"node":7,
						"path":"scale"
					}
				},
				{
					"sampler":24,
					"target":{
						"node":8,
						"path":"translation"
					}
				},
				{
					"sampler":25,
					"target":{
						"node":8,
						"path":"rotation"
					}
				},
				{
					"sampler":26,
					"target":{
						"node":8,
						"path":"scale"
					}
				},
				{
					"sampler":27,
					"target":{
						"node":9,
						"path":"translation"
					}
				},
				{
					"sampler":28,
					"target":{
						"node":9,
						"path":"rotation"
					}
				},
				{
					"sampler":29,
					"target":{
						"node":9,
						"path":"scale"
					}
				},
				{
					"sampler":30,
					"target":{
						"node":10,
						"path":"translation"
					}
				},
				{
					"sampler":31,
					"target":{
						"node":10,
						"path":"rotation"
					}
				},
				{
					"sampler":32,
					"target":{
						"node":10,
						"path":"scale"
					}
				}
			],
			"name":"Walk",
			"samplers":[
				{
					"input":74,
					"interpolation":"STEP",
					"output":8
				},
				{
					"input":74,
					"interpolation":"STEP",
					"output":9
				},
				{
					"input":74,
					"interpolation":"STEP",
					"output":10
				},
				{
					"input":74,
					"interpolation":"STEP",
					"output":11
				},
				{
					"input":74,
					"interpolation":"STEP",
					"output":12
				},
				{
					"input":74,
					"interpolation":"STEP",
					"output":13
				},
				{
					"input":74,
					"interpolation":"STEP",
					"output":14
				},
				{
					"input":74,
					"interpolation":"STEP",
					"output":15
				},
				{
					"input":74,
					"interpolation":"STEP",
					"output":16
				},
				{
					"input":74,
					"interpolation":"STEP",
					"output":17
				},
				{
					"input":74,
					"interpolation":"STEP",
					"output":75
				},
				{
					"input":74,
					"interpolation":"STEP",
					"output":76
				},
				{
					"input":74,
					"interpolation":"STEP",
					"output":21
				},
				{
					"input":74,
					"interpolation":"STEP",
					"output":77
				},
				{
					"input":74,
					"interpolation":"STEP",
					"output":78
				},
				{
					"input":74,
					"interpolation":"STEP",
					"output":24
				},
				{
					"input":79,
					"interpolation":"LINEAR",
					"output":80
				},
				{
					"input":74,
					"interpolation":"STEP",
					"output":26
				},
				{
					"input":74,
					"interpolation":"STEP",
					"output":27
				},
				{
					"input":79,
					"interpolation":"LINEAR",
					"output":81
				},
				{
					"input":74,
					"interpolation":"STEP",
					"output":29
				},
				{
					"input":74,
					"interpolation":"STEP",
					"output":30
				},
				{
					"input":79,
					"interpolation":"LINEAR",
					"output":82
				},
				{
					"input":74,
					"interpolation":"STEP",
					"output":13
				},
				{
					"input":74,
					"interpolation":"STEP",
					"output":32
				},
				{
					"input":74,
					"interpolation":"STEP",
					"output":33
				},
				{
					"input":74,
					"interpolation":"STEP",
					"output":34
				},
				{
					"input":74,
					"interpolation":"STEP",
					"output":35
				},
				{
					"input":74,
					"interpolation":"STEP",
					"output":36
				},
				{
					"input":74,
					"interpolation":"STEP",
					"output":37
				},
				{
					"input":74,
					"interpolation":"STEP",
					"output":38
				},
				{
					"input":79,
					"interpolation":"LINEAR",
					"output":83
				},
				{
					"input":74,
					"interpolation":"STEP",
					"output":40
				}
			]
		}
	],
	"materials":[
		{
			"name":"tripo_material_9a571380-b13b-46db-9d4e-752c082dd9a8",
			"normalTexture":{
				"index":0
			},
			"pbrMetallicRoughness":{
				"baseColorTexture":{
					"index":1
				},
				"metallicRoughnessTexture":{
					"index":2
				}
			}
		}
	],
	"meshes":[
		{
			"name":"tripo_mesh_9a571380-b13b-46db-9d4e-752c082dd9a8",
			"primitives":[
				{
					"attributes":{
						"POSITION":0,
						"NORMAL":1,
						"TEXCOORD_0":2,
						"JOINTS_0":3,
						"WEIGHTS_0":4
					},
					"indices":5,
					"material":0
				}
			]
		}
	],
	"textures":[
		{
			"sampler":0,
			"source":0
		},
		{
			"sampler":0,
			"source":1
		},
		{
			"sampler":0,
			"source":2
		}
	],
	"images":[
		{
			"mimeType":"image/jpeg",
			"name":"NormalGL_9a571380-b13b-46db-9d4e-752c082dd9a8",
			"uri":"NormalGL_9a571380-b13b-46db-9d4e-752c082dd9a8.jpg"
		},
		{
			"mimeType":"image/jpeg",
			"name":"Color_9a571380-b13b-46db-9d4e-752c082dd9a8",
			"uri":"Color_9a571380-b13b-46db-9d4e-752c082dd9a8.jpg"
		},
		{
			"mimeType":"image/jpeg",
			"name":"ORM_9a571380-b13b-46db-9d4e-752c082dd9a8",
			"uri":"ORM_9a571380-b13b-46db-9d4e-752c082dd9a8.jpg"
		}
	],
	"skins":[
		{
			"inverseBindMatrices":6,
			"joints":[
				4,
				3,
				2,
				0,
				1,
				5,
				6,
				7,
				8,
				9,
				10,
				11
			],
			"name":"Armature"
		}
	],
	"accessors":[
		{
			"bufferView":0,
			"componentType":5126,
			"count":8645,
			"max":[
				0.4573121666908264,
				1.2365036010742188,
				0.4121619164943695
			],
			"min":[
				-0.3728595972061157,
				-0.015969693660736084,
				-0.38101926445961
			],
			"type":"VEC3"
		},
		{
			"bufferView":1,
			"componentType":5126,
			"count":8645,
			"type":"VEC3"
		},
		{
			"bufferView":2,
			"componentType":5126,
			"count":8645,
			"type":"VEC2"
		},
		{
			"bufferView":3,
			"componentType":5121,
			"count":8645,
			"type":"VEC4"
		},
		{
			"bufferView":4,
			"componentType":5126,
			"count":8645,
			"type":"VEC4"
		},
		{
			"bufferView":5,
			"componentType":5123,
			"count":29898,
			"type":"SCALAR"
		},
		{
			"bufferView":6,
			"componentType":5126,
			"count":12,
			"type":"MAT4"
		},
		{
			"bufferView":7,
			"componentType":5126,
			"count":2,
			"max":[
				0.5
			],
			"min":[
				0
			],
			"type":"SCALAR"
		},
		{
			"bufferView":8,
			"componentType":5126,
			"count":2,
			"type":"VEC3"
		},
		{
			"bufferView":9,
			"componentType":5126,
			"count":2,
			"type":"VEC4"
		},
		{
			"bufferView":10,
			"componentType":5126,
			"count":2,
			"type":"VEC3"
		},
		{
			"bufferView":11,
			"componentType":5126,
			"count":2,
			"type":"VEC3"
		},
		{
			"bufferView":12,
			"componentType":5126,
			"count":2,
			"type":"VEC4"
		},
		{
			"bufferView":13,
			"componentType":5126,
			"count":2,
			"type":"VEC3"
		},
		{
			"bufferView":14,
			"componentType":5126,
			"count":2,
			"type":"VEC3"
		},
		{
			"bufferView":15,
			"componentType":5126,
			"count":2,
			"type":"VEC4"
		},
		{
			"bufferView":16,
			"componentType":5126,
			"count":2,
			"type":"VEC3"
		},
		{
			"bufferView":17,
			"componentType":5126,
			"count":2,
			"type":"VEC3"
		},
		{
			"bufferView":18,
			"componentType":5126,
			"count":13,
			"max":[
				0.5
			],
			"min":[
				0
			],
			"type":"SCALAR"
		},
		{
			"bufferView":19,
			"componentType":5126,
			"count":13,
			"type":"VEC4"
		},
		{
			"bufferView":20,
			"componentType":5126,
			"count":2,
			"type":"VEC3"
		},
		{
			"bufferView":21,
			"componentType":5126,
			"count":2,
			"type":"VEC3"
		},
		{
			"bufferView":22,
			"componentType":5126,
			"count":13,
			"type":"VEC4"
		},
		{
			"bufferView":23,
			"componentType":5126,
			"count":2,
			"type":"VEC3"
		},
		{
			"bufferView":24,
			"componentType":5126,
			"count":2,
			"type":"VEC3"
		},
		{
			"bufferView":25,
			"componentType":5126,
			"count":2,
			"type":"VEC4"
		},
		{
			"bufferView":26,
			"componentType":5126,
			"count":2,
			"type":"VEC3"
		},
		{
			"bufferView":27,
			"componentType":5126,
			"count":2,
			"type":"VEC3"
		},
		{
			"bufferView":28,
			"componentType":5126,
			"count":2,
			"type":"VEC4"
		},
		{
			"bufferView":29,
			"componentType":5126,
			"count":2,
			"type":"VEC3"
		},
		{
			"bufferView":30,
			"componentType":5126,
			"count":2,
			"type":"VEC3"
		},
		{
			"bufferView":31,
			"componentType":5126,
			"count":2,
			"type":"VEC4"
		},
		{
			"bufferView":32,
			"componentType":5126,
			"count":2,
			"type":"VEC3"
		},
		{
			"bufferView":33,
			"componentType":5126,
			"count":2,
			"type":"VEC4"
		},
		{
			"bufferView":34,
			"componentType":5126,
			"count":2,
			"type":"VEC3"
		},
		{
			"bufferView":35,
			"componentType":5126,
			"count":2,
			"type":"VEC3"
		},
		{
			"bufferView":36,
			"componentType":5126,
			"count":2,
			"type":"VEC4"
		},
		{
			"bufferView":37,
			"componentType":5126,
			"count":2,
			"type":"VEC3"
		},
		{
			"bufferView":38,
			"componentType":5126,
			"count":2,
			"type":"VEC3"
		},
		{
			"bufferView":39,
			"componentType":5126,
			"count":2,
			"type":"VEC4"
		},
		{
			"bufferView":40,
			"componentType":5126,
			"count":2,
			"type":"VEC3"
		},
		{
			"bufferView":41,
			"componentType":5126,
			"count":1,
			"max":[
				0.041666666666666664
			],
			"min":[
				0.041666666666666664
			],
			"type":"SCALAR"
		},
		{
			"bufferView":42,
			"componentType":5126,
			"count":1,
			"type":"VEC3"
		},
		{
			"bufferView":43,
			"componentType":5126,
			"count":1,
			"type":"VEC4"
		},
		{
			"bufferView":44,
			"componentType":5126,
			"count":1,
			"type":"VEC3"
		},
		{
			"bufferView":45,
			"componentType":5126,
			"count":1,
			"type":"VEC3"
		},
		{
			"bufferView":46,
			"componentType":5126,
			"count":1,
			"type":"VEC4"
		},
		{
			"bufferView":47,
			"componentType":5126,
			"count":1,
			"type":"VEC3"
		},
		{
			"bufferView":48,
			"componentType":5126,
			"count":1,
			"type":"VEC3"
		},
		{
			"bufferView":49,
			"componentType":5126,
			"count":1,
			"type":"VEC4"
		},
		{
			"bufferView":50,
			"componentType":5126,
			"count":1,
			"type":"VEC3"
		},
		{
			"bufferView":51,
			"componentType":5126,
			"count":1,
			"type":"VEC3"
		},
		{
			"bufferView":52,
			"componentType":5126,
			"count":1,
			"type":"VEC4"
		},
		{
			"bufferView":53,
			"componentType":5126,
			"count":1,
			"type":"VEC3"
		},
		{
			"bufferView":54,
			"componentType":5126,
			"count":1,
			"type":"VEC3"
		},
		{
			"bufferView":55,
			"componentType":5126,
			"count":1,
			"type":"VEC4"
		},
		{
			"bufferView":56,
			"componentType":5126,
			"count":1,
			"type":"VEC3"
		},
		{
			"bufferView":57,
			"componentType":5126,
			"count":1,
			"type":"VEC3"
		},
		{
			"bufferView":58,
			"componentType":5126,
			"count":1,
			"type":"VEC4"
		},
		{
			"bufferView":59,
			"componentType":5126,
			"count":1,
			"type":"VEC3"
		},
		{
			"bufferView":60,
			"componentType":5126,
			"count":1,
			"type":"VEC3"
		},
		{
			"bufferView":61,
			"componentType":5126,
			"count":1,
			"type":"VEC4"
		},
		{
			"bufferView":62,
			"componentType":5126,
			"count":1,
			"type":"VEC3"
		},
		{
			"bufferView":63,
			"componentType":5126,
			"count":1,
			"type":"VEC3"
		},
		{
			"bufferView":64,
			"componentType":5126,
			"count":1,
			"type":"VEC4"
		},
		{
			"bufferView":65,
			"componentType":5126,
			"count":1,
			"type":"VEC3"
		},
		{
			"bufferView":66,
			"componentType":5126,
			"count":1,
			"type":"VEC4"
		},
		{
			"bufferView":67,
			"componentType":5126,
			"count":1,
			"type":"VEC3"
		},
		{
			"bufferView":68,
			"componentType":5126,
			"count":1,
			"type":"VEC3"
		},
		{
			"bufferView":69,
			"componentType":5126,
			"count":1,
			"type":"VEC4"
		},
		{
			"bufferView":70,
			"componentType":5126,
			"count":1,
			"type":"VEC3"
		},
		{
			"bufferView":71,
			"componentType":5126,
			"count":1,
			"type":"VEC3"
		},
		{
			"bufferView":72,
			"componentType":5126,
			"count":1,
			"type":"VEC4"
		},
		{
			"bufferView":73,
			"componentType":5126,
			"count":1,
			"type":"VEC3"
		},
		{
			"bufferView":74,
			"componentType":5126,
			"count":2,
			"max":[
				0.5
			],
			"min":[
				0.041666666666666664
			],
			"type":"SCALAR"
		},
		{
			"bufferView":75,
			"componentType":5126,
			"count":2,
			"type":"VEC4"
		},
		{
			"bufferView":76,
			"componentType":5126,
			"count":2,
			"type":"VEC3"
		},
		{
			"bufferView":77,
			"componentType":5126,
			"count":2,
			"type":"VEC4"
		},
		{
			"bufferView":78,
			"componentType":5126,
			"count":2,
			"type":"VEC3"
		},
		{
			"bufferView":79,
			"componentType":5126,
			"count":12,
			"max":[
				0.5
			],
			"min":[
				0.041666666666666664
			],
			"type":"SCALAR"
		},
		{
			"bufferView":80,
			"componentType":5126,
			"count":12,
			"type":"VEC4"
		},
		{
			"bufferView":81,
			"componentType":5126,
			"count":12,
			"type":"VEC4"
		},
		{
			"bufferView":82,
			"componentType":5126,
			"count":12,
			"type":"VEC4"
		},
		{
			"bufferView":83,
			"componentType":5126,
			"count":12,
			"type":"VEC4"
		}
	],
	"bufferViews":[
		{
			"buffer":0,
			"byteLength":103740,
			"byteOffset":0,
			"target":34962
		},
		{
			"buffer":0,
			"byteLength":103740,
			"byteOffset":103740,
			"target":34962
		},
		{
			"buffer":0,
			"byteLength":69160,
			"byteOffset":207480,
			"target":34962
		},
		{
			"buffer":0,
			"byteLength":34580,
			"byteOffset":276640,
			"target":34962
		},
		{
			"buffer":0,
			"byteLength":138320,
			"byteOffset":311220,
			"target":34962
		},
		{
			"buffer":0,
			"byteLength":59796,
			"byteOffset":449540,
			"target":34963
		},
		{
			"buffer":0,
			"byteLength":768,
			"byteOffset":509336
		},
		{
			"buffer":0,
			"byteLength":8,
			"byteOffset":510104
		},
		{
			"buffer":0,
			"byteLength":24,
			"byteOffset":510112
		},
		{
			"buffer":0,
			"byteLength":32,
			"byteOffset":510136
		},
		{
			"buffer":0,
			"byteLength":24,
			"byteOffset":510168
		},
		{
			"buffer":0,
			"byteLength":24,
			"byteOffset":510192
		},
		{
			"buffer":0,
			"byteLength":32,
			"byteOffset":510216
		},
		{
			"buffer":0,
			"byteLength":24,
			"byteOffset":510248
		},
		{
			"buffer":0,
			"byteLength":24,
			"byteOffset":510272
		},
		{
			"buffer":0,
			"byteLength":32,
			"byteOffset":510296
		},
		{
			"buffer":0,
			"byteLength":24,
			"byteOffset":510328
		},
		{
			"buffer":0,
			"byteLength":24,
			"byteOffset":510352
		},
		{
			"buffer":0,
			"byteLength":52,
			"byteOffset":510376
		},
		{
			"buffer":0,
			"byteLength":208,
			"byteOffset":510428
		},
		{
			"buffer":0,
			"byteLength":24,
			"byteOffset":510636
		},
		{
			"buffer":0,
			"byteLength":24,
			"byteOffset":510660
		},
		{
			"buffer":0,
			"byteLength":208,
			"byteOffset":510684
		},
		{
			"buffer":0,
			"byteLength":24,
			"byteOffset":510892
		},
		{
			"buffer":0,
			"byteLength":24,
			"byteOffset":510916
		},
		{
			"buffer":0,
			"byteLength":32,
			"byteOffset":510940
		},
		{
			"buffer":0,
			"byteLength":24,
			"byteOffset":510972
		},
		{
			"buffer":0,
			"byteLength":24,
			"byteOffset":510996
		},
		{
			"buffer":0,
			"byteLength":32,
			"byteOffset":511020
		},
		{
			"buffer":0,
			"byteLength":24,
			"byteOffset":511052
		},
		{
			"buffer":0,
			"byteLength":24,
			"byteOffset":511076
		},
		{
			"buffer":0,
			"byteLength":32,
			"byteOffset":511100
		},
		{
			"buffer":0,
			"byteLength":24,
			"byteOffset":511132
		},
		{
			"buffer":0,
			"byteLength":32,
			"byteOffset":511156
		},
		{
			"buffer":0,
			"byteLength":24,
			"byteOffset":511188
		},
		{
			"buffer":0,
			"byteLength":24,
			"byteOffset":511212
		},
		{
			"buffer":0,
			"byteLength":32,
			"byteOffset":511236
		},
		{
			"buffer":0,
			"byteLength":24,
			"byteOffset":511268
		},
		{
			"buffer":0,
			"byteLength":24,
			"byteOffset":511292
		},
		{
			"buffer":0,
			"byteLength":32,
			"byteOffset":511316
		},
		{
			"buffer":0,
			"byteLength":24,
			"byteOffset":511348
		},
		{
			"buffer":0,
			"byteLength":4,
			"byteOffset":511372
		},
		{
			"buffer":0,
			"byteLength":12,
			"byteOffset":511376
		},
		{
			"buffer":0,
			"byteLength":16,
			"byteOffset":511388
		},
		{
			"buffer":0,
			"byteLength":12,
			"byteOffset":511404
		},
		{
			"buffer":0,
			"byteLength":12,
			"byteOffset":511416
		},
		{
			"buffer":0,
			"byteLength":16,
			"byteOffset":511428
		},
		{
			"buffer":0,
			"byteLength":12,
			"byteOffset":511444
		},
		{
			"buffer":0,
			"byteLength":12,
			"byteOffset":511456
		},
		{
			"buffer":0,
			"byteLength":16,
			"byteOffset":511468
		},
		{
			"buffer":0,
			"byteLength":12,
			"byteOffset":511484
		},
		{
			"buffer":0,
			"byteLength":12,
			"byteOffset":511496
		},
		{
			"buffer":0,
			"byteLength":16,
			"byteOffset":511508
		},
		{
			"buffer":0,
			"byteLength":12,
			"byteOffset":511524
		},
		{
			"buffer":0,
			"byteLength":12,
			"byteOffset":511536
		},
		{
			"buffer":0,
			"byteLength":16,
			"byteOffset":511548
		},
		{
			"buffer":0,
			"byteLength":12,
			"byteOffset":511564
		},
		{
			"buffer":0,
			"byteLength":12,
			"byteOffset":511576
		},
		{
			"buffer":0,
			"byteLength":16,
			"byteOffset":511588
		},
		{
			"buffer":0,
			"byteLength":12,
			"byteOffset":511604
		},
		{
			"buffer":0,
			"byteLength":12,
			"byteOffset":511616
		},
		{
			"buffer":0,
			"byteLength":16,
			"byteOffset":511628
		},
		{
			"buffer":0,
			"byteLength":12,
			"byteOffset":511644
		},
		{
			"buffer":0,
			"byteLength":12,
			"byteOffset":511656
		},
		{
			"buffer":0,
			"byteLength":16,
			"byteOffset":511668
		},
		{
			"buffer":0,
			"byteLength":12,
			"byteOffset":511684
		},
		{
			"buffer":0,
			"byteLength":16,
			"byteOffset":511696
		},
		{
			"buffer":0,
			"byteLength":12,
			"byteOffset":511712
		},
		{
			"buffer":0,
			"byteLength":12,
			"byteOffset":511724
		},
		{
			"buffer":0,
			"byteLength":16,
			"byteOffset":511736
		},
		{
			"buffer":0,
			"byteLength":12,
			"byteOffset":511752
		},
		{
			"buffer":0,
			"byteLength":12,
			"byteOffset":511764
		},
		{
			"buffer":0,
			"byteLength":16,
			"byteOffset":511776
		},
		{
			"buffer":0,
			"byteLength":12,
			"byteOffset":511792
		},
		{
			"buffer":0,
			"byteLength":8,
			"byteOffset":511804
		},
		{
			"buffer":0,
			"byteLength":32,
			"byteOffset":511812
		},
		{
			"buffer":0,
			"byteLength":24,
			"byteOffset":511844
		},
		{
			"buffer":0,
			"byteLength":32,
			"byteOffset":511868
		},
		{
			"buffer":0,
			"byteLength":24,
			"byteOffset":511900
		},
		{
			"buffer":0,
			"byteLength":48,
			"byteOffset":511924
		},
		{
			"buffer":0,
			"byteLength":192,
			"byteOffset":511972
		},
		{
			"buffer":0,
			"byteLength":192,
			"byteOffset":512164
		},
		{
			"buffer":0,
			"byteLength":192,
			"byteOffset":512356
		},
		{
			"buffer":0,
			"byteLength":192,
			"byteOffset":512548
		}
	],
	"samplers":[
		{
			"magFilter":9729,
			"minFilter":9987
		}
	],
	"buffers":[
		{
			"byteLength":512740,
			"uri":"root.bin"
		}
	]
}
