{
	"asset":{
		"generator":"Khronos glTF Blender I/O v5.2.39",
		"version":"2.0"
	},
	"scene":0,
	"scenes":[
		{
			"name":"Scene",
			"nodes":[
				16
			]
		}
	],
	"nodes":[
		{
			"name":"Bone.004",
			"rotation":[
				-0.04471494257450104,
				0.004085659980773926,
				-0.07292447984218597,
				0.996326208114624
			],
			"scale":[
				0.9999998807907104,
				0.9999999403953552,
				0.9999999403953552
			],
			"translation":[
				1.862645149230957e-08,
				0.5610079765319824,
				8.69622454047203e-08
			]
		},
		{
			"children":[
				0
			],
			"name":"Bone.001",
			"rotation":[
				0.7667914628982544,
				-0.07143237441778183,
				0.05093972384929657,
				0.6358721852302551
			],
			"scale":[
				1.0000001192092896,
				0.9999998211860657,
				0.9999998807907104
			],
			"translation":[
				-4.562025424093008e-09,
				0.9000970125198364,
				1.964508555829525e-09
			]
		},
		{
			"name":"Bone.003",
			"rotation":[
				0.08028862625360489,
				-0.0027339865919202566,
				-0.09513077139854431,
				0.9922178983688354
			],
			"scale":[
				0.9999999403953552,
				1,
				1
			],
			"translation":[
				4.6566128730773926e-08,
				0.5184462070465088,
				-4.237517714500427e-08
			]
		},
		{
			"children":[
				2
			],
			"name":"Bone.002",
			"rotation":[
				-0.7559053301811218,
				0.09668652713298798,
				0.03888185694813728,
				0.6463335752487183
			],
			"scale":[
				1,
				0.9999999403953552,
				1
			],
			"translation":[
				-4.562025424093008e-09,
				0.9000970125198364,
				1.964508555829525e-09
			]
		},
		{
			"name":"Bone.005",
			"rotation":[
				0.047954458743333817,
				0.0008741393103264272,
				0.036151986569166183,
				0.998194694519043
			],
			"scale":[
				1,
				1,
				0.9999999403953552
			],
			"translation":[
				-4.562025424093008e-09,
				0.9000970125198364,
				1.964508555829525e-09
			]
		},
		{
			"children":[
				1,
				3,
				4
			],
			"name":"Bone",
			"rotation":[
				-0.019714785739779472,
				-3.50801059312289e-08,
				-0.013453327119350433,
				0.9997151494026184
			],
			"scale":[
				0.9999998807907104,
				0.9999999403953552,
				1
			],
			"translation":[
				0.6297591328620911,
				0.19812285900115967,
				-0.015544268302619457
			]
		},
		{
			"name":"Bone.013",
			"rotation":[
				0.27439936995506287,
				-0.3192968964576721,
				0.6700780987739563,
				0.6113507747650146
			],
			"scale":[
				1,
				0.9999999403953552,
				0.9999998807907104
			],
			"translation":[
				3.213062882423401e-08,
				0.9333872199058533,
				4.0279701352119446e-08
			]
		},
		{
			"children":[
				6
			],
			"name":"Bone.009",
			"rotation":[
				0.0063628810457885265,
				-0.012670484371483326,
				-0.02438022382557392,
				0.9996022582054138
			],
			"translation":[
				3.725290298461914e-09,
				0.5203519463539124,
				-8.847564458847046e-09
			]
		},
		{
			"children":[
				7
			],
			"name":"Bone.008",
			"rotation":[
				-0.45973193645477295,
				0.056203942745923996,
				-0.09933480620384216,
				0.8806930780410767
			],
			"scale":[
				1,
				1,
				1.0000001192092896
			],
			"translation":[
				-2.8583251321379066e-08,
				0.3104812800884247,
				2.514570951461792e-08
			]
		},
		{
			"children":[
				8
			],
			"name":"Bone.006",
			"rotation":[
				-0.023644987493753433,
				-0.4816458821296692,
				-0.8759503960609436,
				0.01300138235092163
			],
			"scale":[
				1,
				1.0000001192092896,
				1.0000004768371582
			],
			"translation":[
				0.6297591328620911,
				0.19812285900115967,
				-0.015544268302619457
			]
		},
		{
			"name":"Bone.012",
			"rotation":[
				-0.18133985996246338,
				-0.04814162105321884,
				-0.6403099894523621,
				0.7448499202728271
			],
			"scale":[
				1,
				0.9999999403953552,
				1
			],
			"translation":[
				3.725290298461914e-08,
				0.8653440475463867,
				-1.932494342327118e-08
			]
		},
		{
			"children":[
				10
			],
			"name":"Bone.011",
			"rotation":[
				-0.00904071144759655,
				0.0005838739452883601,
				0.002644328400492668,
				0.9999554753303528
			],
			"scale":[
				0.9999999403953552,
				0.9999998211860657,
				0.9999998807907104
			],
			"translation":[
				-9.313225746154785e-09,
				0.5228590965270996,
				-4.307366907596588e-09
			]
		},
		{
			"children":[
				11
			],
			"name":"Bone.010",
			"rotation":[
				-0.411573201417923,
				0.0032001612707972527,
				0.03614382818341255,
				0.9106541275978088
			],
			"scale":[
				0.9999999403953552,
				1,
				1
			],
			"translation":[
				3.725290298461914e-09,
				0.30965691804885864,
				-4.377216100692749e-08
			]
		},
		{
			"children":[
				12
			],
			"name":"Bone.007",
			"rotation":[
				-0.893634021282196,
				0.036620691418647766,
				0.054424483329057693,
				0.4439765214920044
			],
			"scale":[
				0.9999999403953552,
				0.9999999403953552,
				0.9999999403953552
			],
			"translation":[
				0.6297591328620911,
				0.19812285900115967,
				-0.015544268302619457
			]
		},
		{
			"name":"neutral_bone",
			"rotation":[
				-0.7071067690849304,
				0,
				0,
				0.7071067690849304
			]
		},
		{
			"mesh":0,
			"name":"tripo_node_5a2026af-1842-40e7-bfa1-8a2aa8192b46",
			"skin":0
		},
		{
			"children":[
				15,
				5,
				9,
				13,
				14
			],
			"name":"Armature",
			"scale":[
				0.3393944799900055,
				0.3393944799900055,
				0.3393944799900055
			],
			"translation":[
				-0.18074390292167664,
				0.48200398683547974,
				0.004321461543440819
			]
		}
	],
	"animations":[
		{
			"channels":[
				{
					"sampler":0,
					"target":{
						"node":5,
						"path":"translation"
					}
				},
				{
					"sampler":1,
					"target":{
						"node":5,
						"path":"rotation"
					}
				},
				{
					"sampler":2,
					"target":{
						"node":5,
						"path":"scale"
					}
				},
				{
					"sampler":3,
					"target":{
						"node":1,
						"path":"translation"
					}
				},
				{
					"sampler":4,
					"target":{
						"node":1,
						"path":"rotation"
					}
				},
				{
					"sampler":5,
					"target":{
						"node":1,
						"path":"scale"
					}
				},
				{
					"sampler":6,
					"target":{
						"node":0,
						"path":"translation"
					}
				},
				{
					"sampler":7,
					"target":{
						"node":0,
						"path":"rotation"
					}
				},
				{
					"sampler":8,
					"target":{
						"node":0,
						"path":"scale"
					}
				},
				{
					"sampler":9,
					"target":{
						"node":3,
						"path":"translation"
					}
				},
				{
					"sampler":10,
					"target":{
						"node":3,
						"path":"rotation"
					}
				},
				{
					"sampler":11,
					"target":{
						"node":3,
						"path":"scale"
					}
				},
				{
					"sampler":12,
					"target":{
						"node":2,
						"path":"translation"
					}
				},
				{
					"sampler":13,
					"target":{
						"node":2,
						"path":"rotation"
					}
				},
				{
					"sampler":14,
					"target":{
						"node":2,
						"path":"scale"
					}
				},
				{
					"sampler":15,
					"target":{
						"node":4,
						"path":"translation"
					}
				},
				{
					"sampler":16,
					"target":{
						"node":4,
						"path":"rotation"
					}
				},
				{
					"sampler":17,
					"target":{
						"node":4,
						"path":"scale"
					}
				},
				{
					"sampler":18,
					"target":{
						"node":9,
						"path":"translation"
					}
				},
				{
					"sampler":19,
					"target":{
						"node":9,
						"path":"rotation"
					}
				},
				{
					"sampler":20,
					"target":{
						"node":9,
						"path":"scale"
					}
				},
				{
					"sampler":21,
					"target":{
						"node":8,
						"path":"translation"
					}
				},
				{
					"sampler":22,
					"target":{
						"node":8,
						"path":"rotation"
					}
				},
				{
					"sampler":23,
					"target":{
						"node":8,
						"path":"scale"
					}
				},
				{
					"sampler":24,
					"target":{
						"node":7,
						"path":"translation"
					}
				},
				{
					"sampler":25,
					"target":{
						"node":7,
						"path":"rotation"
					}
				},
				{
					"sampler":26,
					"target":{
						"node":7,
						"path":"scale"
					}
				},
				{
					"sampler":27,
					"target":{
						"node":6,
						"path":"translation"
					}
				},
				{
					"sampler":28,
					"target":{
						"node":6,
						"path":"rotation"
					}
				},
				{
					"sampler":29,
					"target":{
						"node":6,
						"path":"scale"
					}
				},
				{
					"sampler":30,
					"target":{
						"node":13,
						"path":"translation"
					}
				},
				{
					"sampler":31,
					"target":{
						"node":13,
						"path":"rotation"
					}
				},
				{
					"sampler":32,
					"target":{
						"node":13,
						"path":"scale"
					}
				},
				{
					"sampler":33,
					"target":{
						"node":12,
						"path":"translation"
					}
				},
				{
					"sampler":34,
					"target":{
						"node":12,
						"path":"rotation"
					}
				},
				{
					"sampler":35,
					"target":{
						"node":12,
						"path":"scale"
					}
				},
				{
					"sampler":36,
					"target":{
						"node":11,
						"path":"translation"
					}
				},
				{
					"sampler":37,
					"target":{
						"node":11,
						"path":"rotation"
					}
				},
				{
					"sampler":38,
					"target":{
						"node":11,
						"path":"scale"
					}
				},
				{
					"sampler":39,
					"target":{
						"node":10,
						"path":"translation"
					}
				},
				{
					"sampler":40,
					"target":{
						"node":10,
						"path":"rotation"
					}
				},
				{
					"sampler":41,
					"target":{
						"node":10,
						"path":"scale"
					}
				}
			],
			"name":"Attack",
			"samplers":[
				{
					"input":7,
					"interpolation":"STEP",
					"output":8
				},
				{
					"input":7,
					"interpolation":"STEP",
					"output":9
				},
				{
					"input":7,
					"interpolation":"STEP",
					"output":10
				},
				{
					"input":7,
					"interpolation":"STEP",
					"output":11
				},
				{
					"input":7,
					"interpolation":"STEP",
					"output":12
				},
				{
					"input":7,
					"interpolation":"STEP",
					"output":13
				},
				{
					"input":7,
					"interpolation":"STEP",
					"output":14
				},
				{
					"input":7,
					"interpolation":"STEP",
					"output":15
				},
				{
					"input":7,
					"interpolation":"STEP",
					"output":16
				},
				{
					"input":7,
					"interpolation":"STEP",
					"output":17
				},
				{
					"input":7,
					"interpolation":"STEP",
					"output":18
				},
				{
					"input":7,
					"interpolation":"STEP",
					"output":19
				},
				{
					"input":7,
					"interpolation":"STEP",
					"output":20
				},
				{
					"input":7,
					"interpolation":"STEP",
					"output":21
				},
				{
					"input":7,
					"interpolation":"STEP",
					"output":22
				},
				{
					"input":7,
					"interpolation":"STEP",
					"output":23
				},
				{
					"input":7,
					"interpolation":"STEP",
					"output":24
				},
				{
					"input":7,
					"interpolation":"STEP",
					"output":25
				},
				{
					"input":7,
					"interpolation":"STEP",
					"output":26
				},
				{
					"input":7,
					"interpolation":"STEP",
					"output":27
				},
				{
					"input":7,
					"interpolation":"STEP",
					"output":28
				},
				{
					"input":7,
					"interpolation":"STEP",
					"output":29
				},
				{
					"input":30,
					"interpolation":"LINEAR",
					"output":31
				},
				{
					"input":7,
					"interpolation":"STEP",
					"output":32
				},
				{
					"input":7,
					"interpolation":"STEP",
					"output":33
				},
				{
					"input":7,
					"interpolation":"STEP",
					"output":34
				},
				{
					"input":7,
					"interpolation":"STEP",
					"output":35
				},
				{
					"input":7,
					"interpolation":"STEP",
					"output":36
				},
				{
					"input":7,
					"interpolation":"STEP",
					"output":37
				},
				{
					"input":7,
					"interpolation":"STEP",
					"output":38
				},
				{
					"input":7,
					"interpolation":"STEP",
					"output":39
				},
				{
					"input":7,
					"interpolation":"STEP",
					"output":40
				},
				{
					"input":7,
					"interpolation":"STEP",
					"output":41
				},
				{
					"input":7,
					"interpolation":"STEP",
					"output":42
				},
				{
					"input":7,
					"interpolation":"STEP",
					"output":43
				},
				{
					"input":7,
					"interpolation":"STEP",
					"output":44
				},
				{
					"input":7,
					"interpolation":"STEP",
					"output":45
				},
				{
					"input":7,
					"interpolation":"STEP",
					"output":46
				},
				{
					"input":7,
					"interpolation":"STEP",
					"output":47
				},
				{
					"input":7,
					"interpolation":"STEP",
					"output":48
				},
				{
					"input":7,
					"interpolation":"STEP",
					"output":49
				},
				{
					"input":7,
					"interpolation":"STEP",
					"output":50
				}
			]
		},
		{
			"channels":[
				{
					"sampler":0,
					"target":{
						"node":5,
						"path":"translation"
					}
				},
				{
					"sampler":1,
					"target":{
						"node":5,
						"path":"rotation"
					}
				},
				{
					"sampler":2,
					"target":{
						"node":5,
						"path":"scale"
					}
				},
				{
					"sampler":3,
					"target":{
						"node":1,
						"path":"translation"
					}
				},
				{
					"sampler":4,
					"target":{
						"node":1,
						"path":"rotation"
					}
				},
				{
					"sampler":5,
					"target":{
						"node":1,
						"path":"scale"
					}
				},
				{
					"sampler":6,
					"target":{
						"node":0,
						"path":"translation"
					}
				},
				{
					"sampler":7,
					"target":{
						"node":0,
						"path":"rotation"
					}
				},
				{
					"sampler":8,
					"target":{
						"node":0,
						"path":"scale"
					}
				},
				{
					"sampler":9,
					"target":{
						"node":3,
						"path":"translation"
					}
				},
				{
					"sampler":10,
					"target":{
						"node":3,
						"path":"rotation"
					}
				},
				{
					"sampler":11,
					"target":{
						"node":3,
						"path":"scale"
					}
				},
				{
					"sampler":12,
					"target":{
						"node":2,
						"path":"translation"
					}
				},
				{
					"sampler":13,
					"target":{
						"node":2,
						"path":"rotation"
					}
				},
				{
					"sampler":14,
					"target":{
						"node":2,
						"path":"scale"
					}
				},
				{
					"sampler":15,
					"target":{
						"node":4,
						"path":"translation"
					}
				},
				{
					"sampler":16,
					"target":{
						"node":4,
						"path":"rotation"
					}
				},
				{
					"sampler":17,
					"target":{
						"node":4,
						"path":"scale"
					}
				},
				{
					"sampler":18,
					"target":{
						"node":9,
						"path":"translation"
					}
				},
				{
					"sampler":19,
					"target":{
						"node":9,
						"path":"rotation"
					}
				},
				{
					"sampler":20,
					"target":{
						"node":9,
						"path":"scale"
					}
				},
				{
					"sampler":21,
					"target":{
						"node":8,
						"path":"translation"
					}
				},
				{
					"sampler":22,
					"target":{
						"node":8,
						"path":"rotation"
					}
				},
				{
					"sampler":23,
					"target":{
						"node":8,
						"path":"scale"
					}
				},
				{
					"sampler":24,
					"target":{
						"node":7,
						"path":"translation"
					}
				},
				{
					"sampler":25,
					"target":{
						"node":7,
						"path":"rotation"
					}
				},
				{
					"sampler":26,
					"target":{
						"node":7,
						"path":"scale"
					}
				},
				{
					"sampler":27,
					"target":{
						"node":6,
						"path":"translation"
					}
				},
				{
					"sampler":28,
					"target":{
						"node":6,
						"path":"rotation"
					}
				},
				{
					"sampler":29,
					"target":{
						"node":6,
						"path":"scale"
					}
				},
				{
					"sampler":30,
					"target":{
						"node":13,
						"path":"translation"
					}
				},
				{
					"sampler":31,
					"target":{
						"node":13,
						"path":"rotation"
					}
				},
				{
					"sampler":32,
					"target":{
						"node":13,
						"path":"scale"
					}
				},
				{
					"sampler":33,
					"target":{
						"node":12,
						"path":"translation"
					}
				},
				{
					"sampler":34,
					"target":{
						"node":12,
						"path":"rotation"
					}
				},
				{
					"sampler":35,
					"target":{
						"node":12,
						"path":"scale"
					}
				},
				{
					"sampler":36,
					"target":{
						"node":11,
						"path":"translation"
					}
				},
				{
					"sampler":37,
					"target":{
						"node":11,
						"path":"rotation"
					}
				},
				{
					"sampler":38,
					"target":{
						"node":11,
						"path":"scale"
					}
				},
				{
					"sampler":39,
					"target":{
						"node":10,
						"path":"translation"
					}
				},
				{
					"sampler":40,
					"target":{
						"node":10,
						"path":"rotation"
					}
				},
				{
					"sampler":41,
					"target":{
						"node":10,
						"path":"scale"
					}
				}
			],
			"name":"Die",
			"samplers":[
				{
					"input":51,
					"interpolation":"LINEAR",
					"output":52
				},
				{
					"input":51,
					"interpolation":"LINEAR",
					"output":53
				},
				{
					"input":51,
					"interpolation":"LINEAR",
					"output":54
				},
				{
					"input":51,
					"interpolation":"LINEAR",
					"output":55
				},
				{
					"input":51,
					"interpolation":"LINEAR",
					"output":56
				},
				{
					"input":51,
					"interpolation":"LINEAR",
					"output":57
				},
				{
					"input":51,
					"interpolation":"LINEAR",
					"output":58
				},
				{
					"input":51,
					"interpolation":"LINEAR",
					"output":59
				},
				{
					"input":51,
					"interpolation":"LINEAR",
					"output":60
				},
				{
					"input":51,
					"interpolation":"LINEAR",
					"output":61
				},
				{
					"input":51,
					"interpolation":"LINEAR",
					"output":62
				},
				{
					"input":51,
					"interpolation":"LINEAR",
					"output":63
				},
				{
					"input":51,
					"interpolation":"LINEAR",
					"output":64
				},
				{
					"input":51,
					"interpolation":"LINEAR",
					"output":65
				},
				{
					"input":51,
					"interpolation":"LINEAR",
					"output":66
				},
				{
					"input":51,
					"interpolation":"LINEAR",
					"output":67
				},
				{
					"input":51,
					"interpolation":"LINEAR",
					"output":68
				},
				{
					"input":51,
					"interpolation":"LINEAR",
					"output":69
				},
				{
					"input":51,
					"interpolation":"LINEAR",
					"output":70
				},
				{
					"input":51,
					"interpolation":"LINEAR",
					"output":71
				},
				{
					"input":51,
					"interpolation":"LINEAR",
					"output":72
				},
				{
					"input":51,
					"interpolation":"LINEAR",
					"output":73
				},
				{
					"input":51,
					"interpolation":"LINEAR",
					"output":74
				},
				{
					"input":51,
					"interpolation":"LINEAR",
					"output":75
				},
				{
					"input":51,
					"interpolation":"LINEAR",
					"output":76
				},
				{
					"input":51,
					"interpolation":"LINEAR",
					"output":77
				},
				{
					"input":51,
					"interpolation":"LINEAR",
					"output":78
				},
				{
					"input":51,
					"interpolation":"LINEAR",
					"output":79
				},
				{
					"input":51,
					"interpolation":"LINEAR",
					"output":80
				},
				{
					"input":51,
					"interpolation":"LINEAR",
					"output":81
				},
				{
					"input":51,
					"interpolation":"LINEAR",
					"output":82
				},
				{
					"input":51,
					"interpolation":"LINEAR",
					"output":83
				},
				{
					"input":51,
					"interpolation":"LINEAR",
					"output":84
				},
				{
					"input":51,
					"interpolation":"LINEAR",
					"output":85
				},
				{
					"input":51,
					"interpolation":"LINEAR",
					"output":86
				},
				{
					"input":51,
					"interpolation":"LINEAR",
					"output":87
				},
				{
					"input":51,
					"interpolation":"LINEAR",
					"output":88
				},
				{
					"input":51,
					"interpolation":"LINEAR",
					"output":89
				},
				{
					"input":51,
					"interpolation":"LINEAR",
					"output":90
				},
				{
					"input":51,
					"interpolation":"LINEAR",
					"output":91
				},
				{
					"input":51,
					"interpolation":"LINEAR",
					"output":92
				},
				{
					"input":51,
					"interpolation":"LINEAR",
					"output":93
				}
			]
		},
		{
			"channels":[
				{
					"sampler":0,
					"target":{
						"node":5,
						"path":"translation"
					}
				},
				{
					"sampler":1,
					"target":{
						"node":5,
						"path":"rotation"
					}
				},
				{
					"sampler":2,
					"target":{
						"node":5,
						"path":"scale"
					}
				},
				{
					"sampler":3,
					"target":{
						"node":1,
						"path":"translation"
					}
				},
				{
					"sampler":4,
					"target":{
						"node":1,
						"path":"rotation"
					}
				},
				{
					"sampler":5,
					"target":{
						"node":1,
						"path":"scale"
					}
				},
				{
					"sampler":6,
					"target":{
						"node":0,
						"path":"translation"
					}
				},
				{
					"sampler":7,
					"target":{
						"node":0,
						"path":"rotation"
					}
				},
				{
					"sampler":8,
					"target":{
						"node":0,
						"path":"scale"
					}
				},
				{
					"sampler":9,
					"target":{
						"node":3,
						"path":"translation"
					}
				},
				{
					"sampler":10,
					"target":{
						"node":3,
						"path":"rotation"
					}
				},
				{
					"sampler":11,
					"target":{
						"node":3,
						"path":"scale"
					}
				},
				{
					"sampler":12,
					"target":{
						"node":2,
						"path":"translation"
					}
				},
				{
					"sampler":13,
					"target":{
						"node":2,
						"path":"rotation"
					}
				},
				{
					"sampler":14,
					"target":{
						"node":2,
						"path":"scale"
					}
				},
				{
					"sampler":15,
					"target":{
						"node":4,
						"path":"translation"
					}
				},
				{
					"sampler":16,
					"target":{
						"node":4,
						"path":"rotation"
					}
				},
				{
					"sampler":17,
					"target":{
						"node":4,
						"path":"scale"
					}
				},
				{
					"sampler":18,
					"target":{
						"node":9,
						"path":"translation"
					}
				},
				{
					"sampler":19,
					"target":{
						"node":9,
						"path":"rotation"
					}
				},
				{
					"sampler":20,
					"target":{
						"node":9,
						"path":"scale"
					}
				},
				{
					"sampler":21,
					"target":{
						"node":8,
						"path":"translation"
					}
				},
				{
					"sampler":22,
					"target":{
						"node":8,
						"path":"rotation"
					}
				},
				{
					"sampler":23,
					"target":{
						"node":8,
						"path":"scale"
					}
				},
				{
					"sampler":24,
					"target":{
						"node":7,
						"path":"translation"
					}
				},
				{
					"sampler":25,
					"target":{
						"node":7,
						"path":"rotation"
					}
				},
				{
					"sampler":26,
					"target":{
						"node":7,
						"path":"scale"
					}
				},
				{
					"sampler":27,
					"target":{
						"node":6,
						"path":"translation"
					}
				},
				{
					"sampler":28,
					"target":{
						"node":6,
						"path":"rotation"
					}
				},
				{
					"sampler":29,
					"target":{
						"node":6,
						"path":"scale"
					}
				},
				{
					"sampler":30,
					"target":{
						"node":13,
						"path":"translation"
					}
				},
				{
					"sampler":31,
					"target":{
						"node":13,
						"path":"rotation"
					}
				},
				{
					"sampler":32,
					"target":{
						"node":13,
						"path":"scale"
					}
				},
				{
					"sampler":33,
					"target":{
						"node":12,
						"path":"translation"
					}
				},
				{
					"sampler":34,
					"target":{
						"node":12,
						"path":"rotation"
					}
				},
				{
					"sampler":35,
					"target":{
						"node":12,
						"path":"scale"
					}
				},
				{
					"sampler":36,
					"target":{
						"node":11,
						"path":"translation"
					}
				},
				{
					"sampler":37,
					"target":{
						"node":11,
						"path":"rotation"
					}
				},
				{
					"sampler":38,
					"target":{
						"node":11,
						"path":"scale"
					}
				},
				{
					"sampler":39,
					"target":{
						"node":10,
						"path":"translation"
					}
				},
				{
					"sampler":40,
					"target":{
						"node":10,
						"path":"rotation"
					}
				},
				{
					"sampler":41,
					"target":{
						"node":10,
						"path":"scale"
					}
				},
				{
					"sampler":0,
					"target":{
						"node":5,
						"path":"translation"
					}
				},
				{
					"sampler":1,
					"target":{
						"node":5,
						"path":"rotation"
					}
				},
				{
					"sampler":2,
					"target":{
						"node":5,
						"path":"scale"
					}
				},
				{
					"sampler":3,
					"target":{
						"node":1,
						"path":"translation"
					}
				},
				{
					"sampler":4,
					"target":{
						"node":1,
						"path":"rotation"
					}
				},
				{
					"sampler":5,
					"target":{
						"node":1,
						"path":"scale"
					}
				},
				{
					"sampler":6,
					"target":{
						"node":0,
						"path":"translation"
					}
				},
				{
					"sampler":7,
					"target":{
						"node":0,
						"path":"rotation"
					}
				},
				{
					"sampler":8,
					"target":{
						"node":0,
						"path":"scale"
					}
				},
				{
					"sampler":9,
					"target":{
						"node":3,
						"path":"translation"
					}
				},
				{
					"sampler":10,
					"target":{
						"node":3,
						"path":"rotation"
					}
				},
				{
					"sampler":11,
					"target":{
						"node":3,
						"path":"scale"
					}
				},
				{
					"sampler":12,
					"target":{
						"node":2,
						"path":"translation"
					}
				},
				{
					"sampler":13,
					"target":{
						"node":2,
						"path":"rotation"
					}
				},
				{
					"sampler":14,
					"target":{
						"node":2,
						"path":"scale"
					}
				},
				{
					"sampler":15,
					"target":{
						"node":4,
						"path":"translation"
					}
				},
				{
					"sampler":16,
					"target":{
						"node":4,
						"path":"rotation"
					}
				},
				{
					"sampler":17,
					"target":{
						"node":4,
						"path":"scale"
					}
				},
				{
					"sampler":18,
					"target":{
						"node":9,
						"path":"translation"
					}
				},
				{
					"sampler":19,
					"target":{
						"node":9,
						"path":"rotation"
					}
				},
				{
					"sampler":20,
					"target":{
						"node":9,
						"path":"scale"
					}
				},
				{
					"sampler":21,
					"target":{
						"node":8,
						"path":"translation"
					}
				},
				{
					"sampler":22,
					"target":{
						"node":8,
						"path":"rotation"
					}
				},
				{
					"sampler":23,
					"target":{
						"node":8,
						"path":"scale"
					}
				},
				{
					"sampler":24,
					"target":{
						"node":7,
						"path":"translation"
					}
				},
				{
					"sampler":25,
					"target":{
						"node":7,
						"path":"rotation"
					}
				},
				{
					"sampler":26,
					"target":{
						"node":7,
						"path":"scale"
					}
				},
				{
					"sampler":27,
					"target":{
						"node":6,
						"path":"translation"
					}
				},
				{
					"sampler":28,
					"target":{
						"node":6,
						"path":"rotation"
					}
				},
				{
					"sampler":29,
					"target":{
						"node":6,
						"path":"scale"
					}
				},
				{
					"sampler":30,
					"target":{
						"node":13,
						"path":"translation"
					}
				},
				{
					"sampler":31,
					"target":{
						"node":13,
						"path":"rotation"
					}
				},
				{
					"sampler":32,
					"target":{
						"node":13,
						"path":"scale"
					}
				},
				{
					"sampler":33,
					"target":{
						"node":12,
						"path":"translation"
					}
				},
				{
					"sampler":34,
					"target":{
						"node":12,
						"path":"rotation"
					}
				},
				{
					"sampler":35,
					"target":{
						"node":12,
						"path":"scale"
					}
				},
				{
					"sampler":36,
					"target":{
						"node":11,
						"path":"translation"
					}
				},
				{
					"sampler":37,
					"target":{
						"node":11,
						"path":"rotation"
					}
				},
				{
					"sampler":38,
					"target":{
						"node":11,
						"path":"scale"
					}
				},
				{
					"sampler":39,
					"target":{
						"node":10,
						"path":"translation"
					}
				},
				{
					"sampler":40,
					"target":{
						"node":10,
						"path":"rotation"
					}
				},
				{
					"sampler":41,
					"target":{
						"node":10,
						"path":"scale"
					}
				}
			],
			"name":"Idle",
			"samplers":[
				{
					"input":51,
					"interpolation":"LINEAR",
					"output":52
				},
				{
					"input":51,
					"interpolation":"LINEAR",
					"output":53
				},
				{
					"input":51,
					"interpolation":"LINEAR",
					"output":54
				},
				{
					"input":51,
					"interpolation":"LINEAR",
					"output":55
				},
				{
					"input":51,
					"interpolation":"LINEAR",
					"output":56
				},
				{
					"input":51,
					"interpolation":"LINEAR",
					"output":57
				},
				{
					"input":51,
					"interpolation":"LINEAR",
					"output":58
				},
				{
					"input":51,
					"interpolation":"LINEAR",
					"output":59
				},
				{
					"input":51,
					"interpolation":"LINEAR",
					"output":60
				},
				{
					"input":51,
					"interpolation":"LINEAR",
					"output":61
				},
				{
					"input":51,
					"interpolation":"LINEAR",
					"output":62
				},
				{
					"input":51,
					"interpolation":"LINEAR",
					"output":63
				},
				{
					"input":51,
					"interpolation":"LINEAR",
					"output":64
				},
				{
					"input":51,
					"interpolation":"LINEAR",
					"output":65
				},
				{
					"input":51,
					"interpolation":"LINEAR",
					"output":66
				},
				{
					"input":51,
					"interpolation":"LINEAR",
					"output":67
				},
				{
					"input":51,
					"interpolation":"LINEAR",
					"output":68
				},
				{
					"input":51,
					"interpolation":"LINEAR",
					"output":69
				},
				{
					"input":51,
					"interpolation":"LINEAR",
					"output":70
				},
				{
					"input":51,
					"interpolation":"LINEAR",
					"output":71
				},
				{
					"input":51,
					"interpolation":"LINEAR",
					"output":72
				},
				{
					"input":51,
					"interpolation":"LINEAR",
					"output":73
				},
				{
					"input":51,
					"interpolation":"LINEAR",
					"output":74
				},
				{
					"input":51,
					"interpolation":"LINEAR",
					"output":75
				},
				{
					"input":51,
					"interpolation":"LINEAR",
					"output":76
				},
				{
					"input":51,
					"interpolation":"LINEAR",
					"output":77
				},
				{
					"input":51,
					"interpolation":"LINEAR",
					"output":78
				},
				{
					"input":51,
					"interpolation":"LINEAR",
					"output":79
				},
				{
					"input":51,
					"interpolation":"LINEAR",
					"output":80
				},
				{
					"input":51,
					"interpolation":"LINEAR",
					"output":81
				},
				{
					"input":51,
					"interpolation":"LINEAR",
					"output":82
				},
				{
					"input":51,
					"interpolation":"LINEAR",
					"output":83
				},
				{
					"input":51,
					"interpolation":"LINEAR",
					"output":84
				},
				{
					"input":51,
					"interpolation":"LINEAR",
					"output":85
				},
				{
					"input":51,
					"interpolation":"LINEAR",
					"output":86
				},
				{
					"input":51,
					"interpolation":"LINEAR",
					"output":87
				},
				{
					"input":51,
					"interpolation":"LINEAR",
					"output":88
				},
				{
					"input":51,
					"interpolation":"LINEAR",
					"output":89
				},
				{
					"input":51,
					"interpolation":"LINEAR",
					"output":90
				},
				{
					"input":51,
					"interpolation":"LINEAR",
					"output":91
				},
				{
					"input":51,
					"interpolation":"LINEAR",
					"output":92
				},
				{
					"input":51,
					"interpolation":"LINEAR",
					"output":93
				}
			]
		},
		{
			"channels":[
				{
					"sampler":0,
					"target":{
						"node":5,
						"path":"translation"
					}
				},
				{
					"sampler":1,
					"target":{
						"node":5,
						"path":"rotation"
					}
				},
				{
					"sampler":2,
					"target":{
						"node":5,
						"path":"scale"
					}
				},
				{
					"sampler":3,
					"target":{
						"node":1,
						"path":"translation"
					}
				},
				{
					"sampler":4,
					"target":{
						"node":1,
						"path":"rotation"
					}
				},
				{
					"sampler":5,
					"target":{
						"node":1,
						"path":"scale"
					}
				},
				{
					"sampler":6,
					"target":{
						"node":0,
						"path":"translation"
					}
				},
				{
					"sampler":7,
					"target":{
						"node":0,
						"path":"rotation"
					}
				},
				{
					"sampler":8,
					"target":{
						"node":0,
						"path":"scale"
					}
				},
				{
					"sampler":9,
					"target":{
						"node":3,
						"path":"translation"
					}
				},
				{
					"sampler":10,
					"target":{
						"node":3,
						"path":"rotation"
					}
				},
				{
					"sampler":11,
					"target":{
						"node":3,
						"path":"scale"
					}
				},
				{
					"sampler":12,
					"target":{
						"node":2,
						"path":"translation"
					}
				},
				{
					"sampler":13,
					"target":{
						"node":2,
						"path":"rotation"
					}
				},
				{
					"sampler":14,
					"target":{
						"node":2,
						"path":"scale"
					}
				},
				{
					"sampler":15,
					"target":{
						"node":4,
						"path":"translation"
					}
				},
				{
					"sampler":16,
					"target":{
						"node":4,
						"path":"rotation"
					}
				},
				{
					"sampler":17,
					"target":{
						"node":4,
						"path":"scale"
					}
				},
				{
					"sampler":18,
					"target":{
						"node":9,
						"path":"translation"
					}
				},
				{
					"sampler":19,
					"target":{
						"node":9,
						"path":"rotation"
					}
				},
				{
					"sampler":20,
					"target":{
						"node":9,
						"path":"scale"
					}
				},
				{
					"sampler":21,
					"target":{
						"node":8,
						"path":"translation"
					}
				},
				{
					"sampler":22,
					"target":{
						"node":8,
						"path":"rotation"
					}
				},
				{
					"sampler":23,
					"target":{
						"node":8,
						"path":"scale"
					}
				},
				{
					"sampler":24,
					"target":{
						"node":7,
						"path":"translation"
					}
				},
				{
					"sampler":25,
					"target":{
						"node":7,
						"path":"rotation"
					}
				},
				{
					"sampler":26,
					"target":{
						"node":7,
						"path":"scale"
					}
				},
				{
					"sampler":27,
					"target":{
						"node":6,
						"path":"translation"
					}
				},
				{
					"sampler":28,
					"target":{
						"node":6,
						"path":"rotation"
					}
				},
				{
					"sampler":29,
					"target":{
						"node":6,
						"path":"scale"
					}
				},
				{
					"sampler":30,
					"target":{
						"node":13,
						"path":"translation"
					}
				},
				{
					"sampler":31,
					"target":{
						"node":13,
						"path":"rotation"
					}
				},
				{
					"sampler":32,
					"target":{
						"node":13,
						"path":"scale"
					}
				},
				{
					"sampler":33,
					"target":{
						"node":12,
						"path":"translation"
					}
				},
				{
					"sampler":34,
					"target":{
						"node":12,
						"path":"rotation"
					}
				},
				{
					"sampler":35,
					"target":{
						"node":12,
						"path":"scale"
					}
				},
				{
					"sampler":36,
					"target":{
						"node":11,
						"path":"translation"
					}
				},
				{
					"sampler":37,
					"target":{
						"node":11,
						"path":"rotation"
					}
				},
				{
					"sampler":38,
					"target":{
						"node":11,
						"path":"scale"
					}
				},
				{
					"sampler":39,
					"target":{
						"node":10,
						"path":"translation"
					}
				},
				{
					"sampler":40,
					"target":{
						"node":10,
						"path":"rotation"
					}
				},
				{
					"sampler":41,
					"target":{
						"node":10,
						"path":"scale"
					}
				}
			],
			"name":"Walk",
			"samplers":[
				{
					"input":94,
					"interpolation":"STEP",
					"output":8
				},
				{
					"input":94,
					"interpolation":"STEP",
					"output":9
				},
				{
					"input":94,
					"interpolation":"STEP",
					"output":10
				},
				{
					"input":94,
					"interpolation":"STEP",
					"output":11
				},
				{
					"input":94,
					"interpolation":"STEP",
					"output":12
				},
				{
					"input":94,
					"interpolation":"STEP",
					"output":13
				},
				{
					"input":94,
					"interpolation":"STEP",
					"output":14
				},
				{
					"input":94,
					"interpolation":"STEP",
					"output":15
				},
				{
					"input":94,
					"interpolation":"STEP",
					"output":16
				},
				{
					"input":94,
					"interpolation":"STEP",
					"output":17
				},
				{
					"input":94,
					"interpolation":"STEP",
					"output":18
				},
				{
					"input":94,
					"interpolation":"STEP",
					"output":19
				},
				{
					"input":94,
					"interpolation":"STEP",
					"output":20
				},
				{
					"input":94,
					"interpolation":"STEP",
					"output":21
				},
				{
					"input":94,
					"interpolation":"STEP",
					"output":22
				},
				{
					"input":94,
					"interpolation":"STEP",
					"output":23
				},
				{
					"input":94,
					"interpolation":"STEP",
					"output":24
				},
				{
					"input":94,
					"interpolation":"STEP",
					"output":25
				},
				{
					"input":94,
					"interpolation":"STEP",
					"output":26
				},
				{
					"input":94,
					"interpolation":"STEP",
					"output":27
				},
				{
					"input":94,
					"interpolation":"STEP",
					"output":28
				},
				{
					"input":94,
					"interpolation":"STEP",
					"output":29
				},
				{
					"input":95,
					"interpolation":"LINEAR",
					"output":96
				},
				{
					"input":94,
					"interpolation":"STEP",
					"output":97
				},
				{
					"input":94,
					"interpolation":"STEP",
					"output":98
				},
				{
					"input":94,
					"interpolation":"STEP",
					"output":99
				},
				{
					"input":94,
					"interpolation":"STEP",
					"output":100
				},
				{
					"input":94,
					"interpolation":"STEP",
					"output":101
				},
				{
					"input":94,
					"interpolation":"STEP",
					"output":37
				},
				{
					"input":94,
					"interpolation":"STEP",
					"output":102
				},
				{
					"input":94,
					"interpolation":"STEP",
					"output":39
				},
				{
					"input":94,
					"interpolation":"STEP",
					"output":40
				},
				{
					"input":94,
					"interpolation":"STEP",
					"output":41
				},
				{
					"input":94,
					"interpolation":"STEP",
					"output":42
				},
				{
					"input":95,
					"interpolation":"LINEAR",
					"output":103
				},
				{
					"input":94,
					"interpolation":"STEP",
					"output":104
				},
				{
					"input":94,
					"interpolation":"STEP",
					"output":105
				},
				{
					"input":94,
					"interpolation":"STEP",
					"output":106
				},
				{
					"input":94,
					"interpolation":"STEP",
					"output":50
				},
				{
					"input":94,
					"interpolation":"STEP",
					"output":107
				},
				{
					"input":94,
					"interpolation":"STEP",
					"output":108
				},
				{
					"input":94,
					"interpolation":"STEP",
					"output":50
				}
			]
		}
	],
	"materials":[
		{
			"name":"tripo_material_5a2026af-1842-40e7-bfa1-8a2aa8192b46",
			"normalTexture":{
				"index":0
			},
			"pbrMetallicRoughness":{
				"baseColorTexture":{
					"index":1
				},
				"metallicRoughnessTexture":{
					"index":2
				}
			}
		}
	],
	"meshes":[
		{
			"name":"tripo_mesh_5a2026af-1842-40e7-bfa1-8a2aa8192b46",
			"primitives":[
				{
					"attributes":{
						"POSITION":0,
						"NORMAL":1,
						"TEXCOORD_0":2,
						"JOINTS_0":3,
						"WEIGHTS_0":4
					},
					"indices":5,
					"material":0
				}
			]
		}
	],
	"textures":[
		{
			"sampler":0,
			"source":0
		},
		{
			"sampler":0,
			"source":1
		},
		{
			"sampler":0,
			"source":2
		}
	],
	"images":[
		{
			"mimeType":"image/jpeg",
			"name":"NormalGL_5a2026af-1842-40e7-bfa1-8a2aa8192b46",
			"uri":"NormalGL_5a2026af-1842-40e7-bfa1-8a2aa8192b46.jpg"
		},
		{
			"mimeType":"image/jpeg",
			"name":"Color_5a2026af-1842-40e7-bfa1-8a2aa8192b46",
			"uri":"Color_5a2026af-1842-40e7-bfa1-8a2aa8192b46.jpg"
		},
		{
			"mimeType":"image/jpeg",
			"name":"ORM_5a2026af-1842-40e7-bfa1-8a2aa8192b46",
			"uri":"ORM_5a2026af-1842-40e7-bfa1-8a2aa8192b46.jpg"
		}
	],
	"skins":[
		{
			"inverseBindMatrices":6,
			"joints":[
				5,
				1,
				0,
				3,
				2,
				4,
				9,
				8,
				7,
				6,
				13,
				12,
				11,
				10,
				14
			],
			"name":"Armature"
		}
	],
	"accessors":[
		{
			"bufferView":0,
			"componentType":5126,
			"count":7112,
			"max":[
				0.1459713876247406,
				1.059566855430603,
				0.5469468832015991
			],
			"min":[
				-0.11173400282859802,
				-0.013907074928283691,
				-0.5477654933929443
			],
			"type":"VEC3"
		},
		{
			"bufferView":1,
			"componentType":5126,
			"count":7112,
			"type":"VEC3"
		},
		{
			"bufferView":2,
			"componentType":5126,
			"count":7112,
			"type":"VEC2"
		},
		{
			"bufferView":3,
			"componentType":5121,
			"count":7112,
			"type":"VEC4"
		},
		{
			"bufferView":4,
			"componentType":5126,
			"count":7112,
			"type":"VEC4"
		},
		{
			"bufferView":5,
			"componentType":5123,
			"count":29772,
			"type":"SCALAR"
		},
		{
			"bufferView":6,
			"componentType":5126,
			"count":15,
			"type":"MAT4"
		},
		{
			"bufferView":7,
			"componentType":5126,
			"count":2,
			"max":[
				0.5833333333333334
			],
			"min":[
				0.041666666666666664
			],
			"type":"SCALAR"
		},
		{
			"bufferView":8,
			"componentType":5126,
			"count":2,
			"type":"VEC3"
		},
		{
			"bufferView":9,
			"componentType":5126,
			"count":2,
			"type":"VEC4"
		},
		{
			"bufferView":10,
			"componentType":5126,
			"count":2,
			"type":"VEC3"
		},
		{
			"bufferView":11,
			"componentType":5126,
			"count":2,
			"type":"VEC3"
		},
		{
			"bufferView":12,
			"componentType":5126,
			"count":2,
			"type":"VEC4"
		},
		{
			"bufferView":13,
			"componentType":5126,
			"count":2,
			"type":"VEC3"
		},
		{
			"bufferView":14,
			"componentType":5126,
			"count":2,
			"type":"VEC3"
		},
		{
			"bufferView":15,
			"componentType":5126,
			"count":2,
			"type":"VEC4"
		},
		{
			"bufferView":16,
			"componentType":5126,
			"count":2,
			"type":"VEC3"
		},
		{
			"bufferView":17,
			"componentType":5126,
			"count":2,
			"type":"VEC3"
		},
		{
			"bufferView":18,
			"componentType":5126,
			"count":2,
			"type":"VEC4"
		},
		{
			"bufferView":19,
			"componentType":5126,
			"count":2,
			"type":"VEC3"
		},
		{
			"bufferView":20,
			"componentType":5126,
			"count":2,
			"type":"VEC3"
		},
		{
			"bufferView":21,
			"componentType":5126,
			"count":2,
			"type":"VEC4"
		},
		{
			"bufferView":22,
			"componentType":5126,
			"count":2,
			"type":"VEC3"
		},
		{
			"bufferView":23,
			"componentType":5126,
			"count":2,
			"type":"VEC3"
		},
		{
			"bufferView":24,
			"componentType":5126,
			"count":2,
			"type":"VEC4"
		},
		{
			"bufferView":25,
			"componentType":5126,
			"count":2,
			"type":"VEC3"
		},
		{
			"bufferView":26,
			"componentType":5126,
			"count":2,
			"type":"VEC3"
		},
		{
			"bufferView":27,
			"componentType":5126,
			"count":2,
			"type":"VEC4"
		},
		{
			"bufferView":28,
			"componentType":5126,
			"count":2,
			"type":"VEC3"
		},
		{
			"bufferView":29,
			"componentType":5126,
			"count":2,
			"type":"VEC3"
		},
		{
			"bufferView":30,
			"componentType":5126,
			"count":14,
			"max":[
				0.5833333333333334
			],
			"min":[
				0.041666666666666664
			],
			"type":"SCALAR"
		},
		{
			"bufferView":31,
			"componentType":5126,
			"count":14,
			"type":"VEC4"
		},
		{
			"bufferView":32,
			"componentType":5126,
			"count":2,
			"type":"VEC3"
		},
		{
			"bufferView":33,
			"componentType":5126,
			"count":2,
			"type":"VEC3"
		},
		{
			"bufferView":34,
			"componentType":5126,
			"count":2,
			"type":"VEC4"
		},
		{
			"bufferView":35,
			"componentType":5126,
			"count":2,
			"type":"VEC3"
		},
		{
			"bufferView":36,
			"componentType":5126,
			"count":2,
			"type":"VEC3"
		},
		{
			"bufferView":37,
			"componentType":5126,
			"count":2,
			"type":"VEC4"
		},
		{
			"bufferView":38,
			"componentType":5126,
			"count":2,
			"type":"VEC3"
		},
		{
			"bufferView":39,
			"componentType":5126,
			"count":2,
			"type":"VEC3"
		},
		{
			"bufferView":40,
			"componentType":5126,
			"count":2,
			"type":"VEC4"
		},
		{
			"bufferView":41,
			"componentType":5126,
			"count":2,
			"type":"VEC3"
		},
		{
			"bufferView":42,
			"componentType":5126,
			"count":2,
			"type":"VEC3"
		},
		{
			"bufferView":43,
			"componentType":5126,
			"count":2,
			"type":"VEC4"
		},
		{
			"bufferView":44,
			"componentType":5126,
			"count":2,
			"type":"VEC3"
		},
		{
			"bufferView":45,
			"componentType":5126,
			"count":2,
			"type":"VEC3"
		},
		{
			"bufferView":46,
			"componentType":5126,
			"count":2,
			"type":"VEC4"
		},
		{
			"bufferView":47,
			"componentType":5126,
			"count":2,
			"type":"VEC3"
		},
		{
			"bufferView":48,
			"componentType":5126,
			"count":2,
			"type":"VEC3"
		},
		{
			"bufferView":49,
			"componentType":5126,
			"count":2,
			"type":"VEC4"
		},
		{
			"bufferView":50,
			"componentType":5126,
			"count":2,
			"type":"VEC3"
		},
		{
			"bufferView":51,
			"componentType":5126,
			"count":1,
			"max":[
				0.041666666666666664
			],
			"min":[
				0.041666666666666664
			],
			"type":"SCALAR"
		},
		{
			"bufferView":52,
			"componentType":5126,
			"count":1,
			"type":"VEC3"
		},
		{
			"bufferView":53,
			"componentType":5126,
			"count":1,
			"type":"VEC4"
		},
		{
			"bufferView":54,
			"componentType":5126,
			"count":1,
			"type":"VEC3"
		},
		{
			"bufferView":55,
			"componentType":5126,
			"count":1,
			"type":"VEC3"
		},
		{
			"bufferView":56,
			"componentType":5126,
			"count":1,
			"type":"VEC4"
		},
		{
			"bufferView":57,
			"componentType":5126,
			"count":1,
			"type":"VEC3"
		},
		{
			"bufferView":58,
			"componentType":5126,
			"count":1,
			"type":"VEC3"
		},
		{
			"bufferView":59,
			"componentType":5126,
			"count":1,
			"type":"VEC4"
		},
		{
			"bufferView":60,
			"componentType":5126,
			"count":1,
			"type":"VEC3"
		},
		{
			"bufferView":61,
			"componentType":5126,
			"count":1,
			"type":"VEC3"
		},
		{
			"bufferView":62,
			"componentType":5126,
			"count":1,
			"type":"VEC4"
		},
		{
			"bufferView":63,
			"componentType":5126,
			"count":1,
			"type":"VEC3"
		},
		{
			"bufferView":64,
			"componentType":5126,
			"count":1,
			"type":"VEC3"
		},
		{
			"bufferView":65,
			"componentType":5126,
			"count":1,
			"type":"VEC4"
		},
		{
			"bufferView":66,
			"componentType":5126,
			"count":1,
			"type":"VEC3"
		},
		{
			"bufferView":67,
			"componentType":5126,
			"count":1,
			"type":"VEC3"
		},
		{
			"bufferView":68,
			"componentType":5126,
			"count":1,
			"type":"VEC4"
		},
		{
			"bufferView":69,
			"componentType":5126,
			"count":1,
			"type":"VEC3"
		},
		{
			"bufferView":70,
			"componentType":5126,
			"count":1,
			"type":"VEC3"
		},
		{
			"bufferView":71,
			"componentType":5126,
			"count":1,
			"type":"VEC4"
		},
		{
			"bufferView":72,
			"componentType":5126,
			"count":1,
			"type":"VEC3"
		},
		{
			"bufferView":73,
			"componentType":5126,
			"count":1,
			"type":"VEC3"
		},
		{
			"bufferView":74,
			"componentType":5126,
			"count":1,
			"type":"VEC4"
		},
		{
			"bufferView":75,
			"componentType":5126,
			"count":1,
			"type":"VEC3"
		},
		{
			"bufferView":76,
			"componentType":5126,
			"count":1,
			"type":"VEC3"
		},
		{
			"bufferView":77,
			"componentType":5126,
			"count":1,
			"type":"VEC4"
		},
		{
			"bufferView":78,
			"componentType":5126,
			"count":1,
			"type":"VEC3"
		},
		{
			"bufferView":79,
			"componentType":5126,
			"count":1,
			"type":"VEC3"
		},
		{
			"bufferView":80,
			"componentType":5126,
			"count":1,
			"type":"VEC4"
		},
		{
			"bufferView":81,
			"componentType":5126,
			"count":1,
			"type":"VEC3"
		},
		{
			"bufferView":82,
			"componentType":5126,
			"count":1,
			"type":"VEC3"
		},
		{
			"bufferView":83,
			"componentType":5126,
			"count":1,
			"type":"VEC4"
		},
		{
			"bufferView":84,
			"componentType":5126,
			"count":1,
			"type":"VEC3"
		},
		{
			"bufferView":85,
			"componentType":5126,
			"count":1,
			"type":"VEC3"
		},
		{
			"bufferView":86,
			"componentType":5126,
			"count":1,
			"type":"VEC4"
		},
		{
			"bufferView":87,
			"componentType":5126,
			"count":1,
			"type":"VEC3"
		},
		{
			"bufferView":88,
			"componentType":5126,
			"count":1,
			"type":"VEC3"
		},
		{
			"bufferView":89,
			"componentType":5126,
			"count":1,
			"type":"VEC4"
		},
		{
			"bufferView":90,
			"componentType":5126,
			"count":1,
			"type":"VEC3"
		},
		{
			"bufferView":91,
			"componentType":5126,
			"count":1,
			"type":"VEC3"
		},
		{
			"bufferView":92,
			"componentType":5126,
			"count":1,
			"type":"VEC4"
		},
		{
			"bufferView":93,
			"componentType":5126,
			"count":1,
			"type":"VEC3"
		},
		{
			"bufferView":94,
			"componentType":5126,
			"count":2,
			"max":[
				0.5416666666666666
			],
			"min":[
				0.041666666666666664
			],
			"type":"SCALAR"
		},
		{
			"bufferView":95,
			"componentType":5126,
			"count":13,
			"max":[
				0.5416666666666666
			],
			"min":[
				0.041666666666666664
			],
			"type":"SCALAR"
		},
		{
			"bufferView":96,
			"componentType":5126,
			"count":13,
			"type":"VEC4"
		},
		{
			"bufferView":97,
			"componentType":5126,
			"count":2,
			"type":"VEC3"
		},
		{
			"bufferView":98,
			"componentType":5126,
			"count":2,
			"type":"VEC3"
		},
		{
			"bufferView":99,
			"componentType":5126,
			"count":2,
			"type":"VEC4"
		},
		{
			"bufferView":100,
			"componentType":5126,
			"count":2,
			"type":"VEC3"
		},
		{
			"bufferView":101,
			"componentType":5126,
			"count":2,
			"type":"VEC3"
		},
		{
			"bufferView":102,
			"componentType":5126,
			"count":2,
			"type":"VEC3"
		},
		{
			"bufferView":103,
			"componentType":5126,
			"count":13,
			"type":"VEC4"
		},
		{
			"bufferView":104,
			"componentType":5126,
			"count":2,
			"type":"VEC3"
		},
		{
			"bufferView":105,
			"componentType":5126,
			"count":2,
			"type":"VEC3"
		},
		{
			"bufferView":106,
			"componentType":5126,
			"count":2,
			"type":"VEC4"
		},
		{
			"bufferView":107,
			"componentType":5126,
			"count":2,
			"type":"VEC3"
		},
		{
			"bufferView":108,
			"componentType":5126,
			"count":2,
			"type":"VEC4"
		}
	],
	"bufferViews":[
		{
			"buffer":0,
			"byteLength":85344,
			"byteOffset":0,
			"target":34962
		},
		{
			"buffer":0,
			"byteLength":85344,
			"byteOffset":85344,
			"target":34962
		},
		{
			"buffer":0,
			"byteLength":56896,
			"byteOffset":170688,
			"target":34962
		},
		{
			"buffer":0,
			"byteLength":28448,
			"byteOffset":227584,
			"target":34962
		},
		{
			"buffer":0,
			"byteLength":113792,
			"byteOffset":256032,
			"target":34962
		},
		{
			"buffer":0,
			"byteLength":59544,
			"byteOffset":369824,
			"target":34963
		},
		{
			"buffer":0,
			"byteLength":960,
			"byteOffset":429368
		},
		{
			"buffer":0,
			"byteLength":8,
			"byteOffset":430328
		},
		{
			"buffer":0,
			"byteLength":24,
			"byteOffset":430336
		},
		{
			"buffer":0,
			"byteLength":32,
			"byteOffset":430360
		},
		{
			"buffer":0,
			"byteLength":24,
			"byteOffset":430392
		},
		{
			"buffer":0,
			"byteLength":24,
			"byteOffset":430416
		},
		{
			"buffer":0,
			"byteLength":32,
			"byteOffset":430440
		},
		{
			"buffer":0,
			"byteLength":24,
			"byteOffset":430472
		},
		{
			"buffer":0,
			"byteLength":24,
			"byteOffset":430496
		},
		{
			"buffer":0,
			"byteLength":32,
			"byteOffset":430520
		},
		{
			"buffer":0,
			"byteLength":24,
			"byteOffset":430552
		},
		{
			"buffer":0,
			"byteLength":24,
			"byteOffset":430576
		},
		{
			"buffer":0,
			"byteLength":32,
			"byteOffset":430600
		},
		{
			"buffer":0,
			"byteLength":24,
			"byteOffset":430632
		},
		{
			"buffer":0,
			"byteLength":24,
			"byteOffset":430656
		},
		{
			"buffer":0,
			"byteLength":32,
			"byteOffset":430680
		},
		{
			"buffer":0,
			"byteLength":24,
			"byteOffset":430712
		},
		{
			"buffer":0,
			"byteLength":24,
			"byteOffset":430736
		},
		{
			"buffer":0,
			"byteLength":32,
			"byteOffset":430760
		},
		{
			"buffer":0,
			"byteLength":24,
			"byteOffset":430792
		},
		{
			"buffer":0,
			"byteLength":24,
			"byteOffset":430816
		},
		{
			"buffer":0,
			"byteLength":32,
			"byteOffset":430840
		},
		{
			"buffer":0,
			"byteLength":24,
			"byteOffset":430872
		},
		{
			"buffer":0,
			"byteLength":24,
			"byteOffset":430896
		},
		{
			"buffer":0,
			"byteLength":56,
			"byteOffset":430920
		},
		{
			"buffer":0,
			"byteLength":224,
			"byteOffset":430976
		},
		{
			"buffer":0,
			"byteLength":24,
			"byteOffset":431200
		},
		{
			"buffer":0,
			"byteLength":24,
			"byteOffset":431224
		},
		{
			"buffer":0,
			"byteLength":32,
			"byteOffset":431248
		},
		{
			"buffer":0,
			"byteLength":24,
			"byteOffset":431280
		},
		{
			"buffer":0,
			"byteLength":24,
			"byteOffset":431304
		},
		{
			"buffer":0,
			"byteLength":32,
			"byteOffset":431328
		},
		{
			"buffer":0,
			"byteLength":24,
			"byteOffset":431360
		},
		{
			"buffer":0,
			"byteLength":24,
			"byteOffset":431384
		},
		{
			"buffer":0,
			"byteLength":32,
			"byteOffset":431408
		},
		{
			"buffer":0,
			"byteLength":24,
			"byteOffset":431440
		},
		{
			"buffer":0,
			"byteLength":24,
			"byteOffset":431464
		},
		{
			"buffer":0,
			"byteLength":32,
			"byteOffset":431488
		},
		{
			"buffer":0,
			"byteLength":24,
			"byteOffset":431520
		},
		{
			"buffer":0,
			"byteLength":24,
			"byteOffset":431544
		},
		{
			"buffer":0,
			"byteLength":32,
			"byteOffset":431568
		},
		{
			"buffer":0,
			"byteLength":24,
			"byteOffset":431600
		},
		{
			"buffer":0,
			"byteLength":24,
			"byteOffset":431624
		},
		{
			"buffer":0,
			"byteLength":32,
			"byteOffset":431648
		},
		{
			"buffer":0,
			"byteLength":24,
			"byteOffset":431680
		},
		{
			"buffer":0,
			"byteLength":4,
			"byteOffset":431704
		},
		{
			"buffer":0,
			"byteLength":12,
			"byteOffset":431708
		},
		{
			"buffer":0,
			"byteLength":16,
			"byteOffset":431720
		},
		{
			"buffer":0,
			"byteLength":12,
			"byteOffset":431736
		},
		{
			"buffer":0,
			"byteLength":12,
			"byteOffset":431748
		},
		{
			"buffer":0,
			"byteLength":16,
			"byteOffset":431760
		},
		{
			"buffer":0,
			"byteLength":12,
			"byteOffset":431776
		},
		{
			"buffer":0,
			"byteLength":12,
			"byteOffset":431788
		},
		{
			"buffer":0,
			"byteLength":16,
			"byteOffset":431800
		},
		{
			"buffer":0,
			"byteLength":12,
			"byteOffset":431816
		},
		{
			"buffer":0,
			"byteLength":12,
			"byteOffset":431828
		},
		{
			"buffer":0,
			"byteLength":16,
			"byteOffset":431840
		},
		{
			"buffer":0,
			"byteLength":12,
			"byteOffset":431856
		},
		{
			"buffer":0,
			"byteLength":12,
			"byteOffset":431868
		},
		{
			"buffer":0,
			"byteLength":16,
			"byteOffset":431880
		},
		{
			"buffer":0,
			"byteLength":12,
			"byteOffset":431896
		},
		{
			"buffer":0,
			"byteLength":12,
			"byteOffset":431908
		},
		{
			"buffer":0,
			"byteLength":16,
			"byteOffset":431920
		},
		{
			"buffer":0,
			"byteLength":12,
			"byteOffset":431936
		},
		{
			"buffer":0,
			"byteLength":12,
			"byteOffset":431948
		},
		{
			"buffer":0,
			"byteLength":16,
			"byteOffset":431960
		},
		{
			"buffer":0,
			"byteLength":12,
			"byteOffset":431976
		},
		{
			"buffer":0,
			"byteLength":12,
			"byteOffset":431988
		},
		{
			"buffer":0,
			"byteLength":16,
			"byteOffset":432000
		},
		{
			"buffer":0,
			"byteLength":12,
			"byteOffset":432016
		},
		{
			"buffer":0,
			"byteLength":12,
			"byteOffset":432028
		},
		{
			"buffer":0,
			"byteLength":16,
			"byteOffset":432040
		},
		{
			"buffer":0,
			"byteLength":12,
			"byteOffset":432056
		},
		{
			"buffer":0,
			"byteLength":12,
			"byteOffset":432068
		},
		{
			"buffer":0,
			"byteLength":16,
			"byteOffset":432080
		},
		{
			"buffer":0,
			"byteLength":12,
			"byteOffset":432096
		},
		{
			"buffer":0,
			"byteLength":12,
			"byteOffset":432108
		},
		{
			"buffer":0,
			"byteLength":16,
			"byteOffset":432120
		},
		{
			"buffer":0,
			"byteLength":12,
			"byteOffset":432136
		},
		{
			"buffer":0,
			"byteLength":12,
			"byteOffset":432148
		},
		{
			"buffer":0,
			"byteLength":16,
			"byteOffset":432160
		},
		{
			"buffer":0,
			"byteLength":12,
			"byteOffset":432176
		},
		{
			"buffer":0,
			"byteLength":12,
			"byteOffset":432188
		},
		{
			"buffer":0,
			"byteLength":16,
			"byteOffset":432200
		},
		{
			"buffer":0,
			"byteLength":12,
			"byteOffset":432216
		},
		{
			"buffer":0,
			"byteLength":12,
			"byteOffset":432228
		},
		{
			"buffer":0,
			"byteLength":16,
			"byteOffset":432240
		},
		{
			"buffer":0,
			"byteLength":12,
			"byteOffset":432256
		},
		{
			"buffer":0,
			"byteLength":8,
			"byteOffset":432268
		},
		{
			"buffer":0,
			"byteLength":52,
			"byteOffset":432276
		},
		{
			"buffer":0,
			"byteLength":208,
			"byteOffset":432328
		},
		{
			"buffer":0,
			"byteLength":24,
			"byteOffset":432536
		},
		{
			"buffer":0,
			"byteLength":24,
			"byteOffset":432560
		},
		{
			"buffer":0,
			"byteLength":32,
			"byteOffset":432584
		},
		{
			"buffer":0,
			"byteLength":24,
			"byteOffset":432616
		},
		{
			"buffer":0,
			"byteLength":24,
			"byteOffset":432640
		},
		{
			"buffer":0,
			"byteLength":24,
			"byteOffset":432664
		},
		{
			"buffer":0,
			"byteLength":208,
			"byteOffset":432688
		},
		{
			"buffer":0,
			"byteLength":24,
			"byteOffset":432896
		},
		{
			"buffer":0,
			"byteLength":24,
			"byteOffset":432920
		},
		{
			"buffer":0,
			"byteLength":32,
			"byteOffset":432944
		},
		{
			"buffer":0,
			"byteLength":24,
			"byteOffset":432976
		},
		{
			"buffer":0,
			"byteLength":32,
			"byteOffset":433000
		}
	],
	"samplers":[
		{
			"magFilter":9729,
			"minFilter":9987
		}
	],
	"buffers":[
		{
			"byteLength":433032,
			"uri":"sgolem.bin"
		}
	]
}
