{
	"asset":{
		"generator":"Khronos glTF Blender I/O v5.2.39",
		"version":"2.0"
	},
	"scene":0,
	"scenes":[
		{
			"name":"Scene",
			"nodes":[
				10
			]
		}
	],
	"nodes":[
		{
			"name":"Bone.008",
			"rotation":[
				0.02570720762014389,
				-0.009305547922849655,
				-0.6485430002212524,
				0.7606868743896484
			],
			"scale":[
				0.9999999403953552,
				0.9999998807907104,
				0.9999999403953552
			],
			"translation":[
				2.9802322387695312e-08,
				1,
				-1.4901161193847656e-08
			]
		},
		{
			"children":[
				0
			],
			"name":"Bone",
			"translation":[
				2.9802322387695312e-08,
				2.9802322387695312e-08,
				-1.4901161193847656e-08
			]
		},
		{
			"name":"Bone.007",
			"rotation":[
				-0.0015406530583277345,
				0.018581729382276535,
				-0.26136472821235657,
				0.9650600552558899
			],
			"scale":[
				1,
				1.000000238418579,
				1
			],
			"translation":[
				2.3981556296348572e-08,
				0.34203991293907166,
				1.1175870895385742e-08
			]
		},
		{
			"children":[
				2
			],
			"name":"Bone.006",
			"rotation":[
				0.016440019011497498,
				0.021522128954529762,
				-0.0719374418258667,
				0.9970414638519287
			],
			"scale":[
				0.9999999403953552,
				0.9999999403953552,
				1
			],
			"translation":[
				-5.8906152844429016e-08,
				0.47066882252693176,
				7.450580596923828e-09
			]
		},
		{
			"children":[
				3
			],
			"name":"Bone.005",
			"rotation":[
				-0.022682497277855873,
				-0.01500194426625967,
				0.1514061689376831,
				0.9880975484848022
			],
			"scale":[
				0.9999999403953552,
				1,
				1
			],
			"translation":[
				1.1199153959751129e-07,
				0.620738685131073,
				-4.6566128730773926e-09
			]
		},
		{
			"children":[
				4
			],
			"name":"Bone.004",
			"rotation":[
				0.029284249991178513,
				0.024207038804888725,
				-0.23360204696655273,
				0.9715897440910339
			],
			"scale":[
				0.9999999403953552,
				1,
				1
			],
			"translation":[
				1.5133991837501526e-08,
				0.46127915382385254,
				5.122274160385132e-09
			]
		},
		{
			"children":[
				5
			],
			"name":"Bone.003",
			"rotation":[
				-0.06600634008646011,
				5.240099021364131e-09,
				-0.7001687288284302,
				0.7109198570251465
			],
			"translation":[
				2.468004822731018e-08,
				0.6602821946144104,
				-1.1641532182693481e-08
			]
		},
		{
			"children":[
				6
			],
			"name":"Bone.002",
			"rotation":[
				0.4644682705402374,
				-0.055312931537628174,
				-0.045504841953516006,
				0.882688581943512
			],
			"scale":[
				0.9999998807907104,
				1,
				0.9999999403953552
			],
			"translation":[
				1.3969838619232178e-09,
				0.36532720923423767,
				1.7229467630386353e-08
			]
		},
		{
			"children":[
				7
			],
			"name":"Bone.001",
			"rotation":[
				-0.49258896708488464,
				0.32968616485595703,
				0.7925971150398254,
				0.14301395416259766
			],
			"scale":[
				1.0000001192092896,
				1.000000238418579,
				1.0000001192092896
			],
			"translation":[
				2.9802322387695312e-08,
				2.9802322387695312e-08,
				-1.4901161193847656e-08
			]
		},
		{
			"mesh":0,
			"name":"tripo_node_fbe38847-177a-4348-abfc-ec02329fe12e",
			"skin":0
		},
		{
			"children":[
				9,
				1,
				8
			],
			"name":"Armature",
			"scale":[
				0.4496976137161255,
				0.4496976137161255,
				0.4496976137161255
			],
			"translation":[
				0.21491792798042297,
				0.13348014652729034,
				-0.06969612836837769
			]
		}
	],
	"animations":[
		{
			"channels":[
				{
					"sampler":0,
					"target":{
						"node":1,
						"path":"translation"
					}
				},
				{
					"sampler":1,
					"target":{
						"node":1,
						"path":"rotation"
					}
				},
				{
					"sampler":2,
					"target":{
						"node":1,
						"path":"scale"
					}
				},
				{
					"sampler":3,
					"target":{
						"node":0,
						"path":"translation"
					}
				},
				{
					"sampler":4,
					"target":{
						"node":0,
						"path":"rotation"
					}
				},
				{
					"sampler":5,
					"target":{
						"node":0,
						"path":"scale"
					}
				},
				{
					"sampler":6,
					"target":{
						"node":8,
						"path":"translation"
					}
				},
				{
					"sampler":7,
					"target":{
						"node":8,
						"path":"rotation"
					}
				},
				{
					"sampler":8,
					"target":{
						"node":8,
						"path":"scale"
					}
				},
				{
					"sampler":9,
					"target":{
						"node":7,
						"path":"translation"
					}
				},
				{
					"sampler":10,
					"target":{
						"node":7,
						"path":"rotation"
					}
				},
				{
					"sampler":11,
					"target":{
						"node":7,
						"path":"scale"
					}
				},
				{
					"sampler":12,
					"target":{
						"node":6,
						"path":"translation"
					}
				},
				{
					"sampler":13,
					"target":{
						"node":6,
						"path":"rotation"
					}
				},
				{
					"sampler":14,
					"target":{
						"node":6,
						"path":"scale"
					}
				},
				{
					"sampler":15,
					"target":{
						"node":5,
						"path":"translation"
					}
				},
				{
					"sampler":16,
					"target":{
						"node":5,
						"path":"rotation"
					}
				},
				{
					"sampler":17,
					"target":{
						"node":5,
						"path":"scale"
					}
				},
				{
					"sampler":18,
					"target":{
						"node":4,
						"path":"translation"
					}
				},
				{
					"sampler":19,
					"target":{
						"node":4,
						"path":"rotation"
					}
				},
				{
					"sampler":20,
					"target":{
						"node":4,
						"path":"scale"
					}
				},
				{
					"sampler":21,
					"target":{
						"node":3,
						"path":"translation"
					}
				},
				{
					"sampler":22,
					"target":{
						"node":3,
						"path":"rotation"
					}
				},
				{
					"sampler":23,
					"target":{
						"node":3,
						"path":"scale"
					}
				},
				{
					"sampler":24,
					"target":{
						"node":2,
						"path":"translation"
					}
				},
				{
					"sampler":25,
					"target":{
						"node":2,
						"path":"rotation"
					}
				},
				{
					"sampler":26,
					"target":{
						"node":2,
						"path":"scale"
					}
				}
			],
			"name":"Attack",
			"samplers":[
				{
					"input":7,
					"interpolation":"STEP",
					"output":8
				},
				{
					"input":9,
					"interpolation":"LINEAR",
					"output":10
				},
				{
					"input":7,
					"interpolation":"STEP",
					"output":11
				},
				{
					"input":7,
					"interpolation":"STEP",
					"output":12
				},
				{
					"input":9,
					"interpolation":"LINEAR",
					"output":13
				},
				{
					"input":7,
					"interpolation":"STEP",
					"output":14
				},
				{
					"input":7,
					"interpolation":"STEP",
					"output":8
				},
				{
					"input":7,
					"interpolation":"STEP",
					"output":15
				},
				{
					"input":7,
					"interpolation":"STEP",
					"output":16
				},
				{
					"input":7,
					"interpolation":"STEP",
					"output":17
				},
				{
					"input":7,
					"interpolation":"STEP",
					"output":18
				},
				{
					"input":7,
					"interpolation":"STEP",
					"output":19
				},
				{
					"input":7,
					"interpolation":"STEP",
					"output":20
				},
				{
					"input":7,
					"interpolation":"STEP",
					"output":21
				},
				{
					"input":7,
					"interpolation":"STEP",
					"output":11
				},
				{
					"input":7,
					"interpolation":"STEP",
					"output":22
				},
				{
					"input":7,
					"interpolation":"STEP",
					"output":23
				},
				{
					"input":7,
					"interpolation":"STEP",
					"output":24
				},
				{
					"input":7,
					"interpolation":"STEP",
					"output":25
				},
				{
					"input":7,
					"interpolation":"STEP",
					"output":26
				},
				{
					"input":7,
					"interpolation":"STEP",
					"output":27
				},
				{
					"input":7,
					"interpolation":"STEP",
					"output":28
				},
				{
					"input":7,
					"interpolation":"STEP",
					"output":29
				},
				{
					"input":7,
					"interpolation":"STEP",
					"output":30
				},
				{
					"input":7,
					"interpolation":"STEP",
					"output":31
				},
				{
					"input":7,
					"interpolation":"STEP",
					"output":32
				},
				{
					"input":7,
					"interpolation":"STEP",
					"output":33
				}
			]
		},
		{
			"channels":[
				{
					"sampler":0,
					"target":{
						"node":1,
						"path":"translation"
					}
				},
				{
					"sampler":1,
					"target":{
						"node":1,
						"path":"rotation"
					}
				},
				{
					"sampler":2,
					"target":{
						"node":1,
						"path":"scale"
					}
				},
				{
					"sampler":3,
					"target":{
						"node":0,
						"path":"translation"
					}
				},
				{
					"sampler":4,
					"target":{
						"node":0,
						"path":"rotation"
					}
				},
				{
					"sampler":5,
					"target":{
						"node":0,
						"path":"scale"
					}
				},
				{
					"sampler":6,
					"target":{
						"node":8,
						"path":"translation"
					}
				},
				{
					"sampler":7,
					"target":{
						"node":8,
						"path":"rotation"
					}
				},
				{
					"sampler":8,
					"target":{
						"node":8,
						"path":"scale"
					}
				},
				{
					"sampler":9,
					"target":{
						"node":7,
						"path":"translation"
					}
				},
				{
					"sampler":10,
					"target":{
						"node":7,
						"path":"rotation"
					}
				},
				{
					"sampler":11,
					"target":{
						"node":7,
						"path":"scale"
					}
				},
				{
					"sampler":12,
					"target":{
						"node":6,
						"path":"translation"
					}
				},
				{
					"sampler":13,
					"target":{
						"node":6,
						"path":"rotation"
					}
				},
				{
					"sampler":14,
					"target":{
						"node":6,
						"path":"scale"
					}
				},
				{
					"sampler":15,
					"target":{
						"node":5,
						"path":"translation"
					}
				},
				{
					"sampler":16,
					"target":{
						"node":5,
						"path":"rotation"
					}
				},
				{
					"sampler":17,
					"target":{
						"node":5,
						"path":"scale"
					}
				},
				{
					"sampler":18,
					"target":{
						"node":4,
						"path":"translation"
					}
				},
				{
					"sampler":19,
					"target":{
						"node":4,
						"path":"rotation"
					}
				},
				{
					"sampler":20,
					"target":{
						"node":4,
						"path":"scale"
					}
				},
				{
					"sampler":21,
					"target":{
						"node":3,
						"path":"translation"
					}
				},
				{
					"sampler":22,
					"target":{
						"node":3,
						"path":"rotation"
					}
				},
				{
					"sampler":23,
					"target":{
						"node":3,
						"path":"scale"
					}
				},
				{
					"sampler":24,
					"target":{
						"node":2,
						"path":"translation"
					}
				},
				{
					"sampler":25,
					"target":{
						"node":2,
						"path":"rotation"
					}
				},
				{
					"sampler":26,
					"target":{
						"node":2,
						"path":"scale"
					}
				}
			],
			"name":"Die",
			"samplers":[
				{
					"input":34,
					"interpolation":"STEP",
					"output":8
				},
				{
					"input":35,
					"interpolation":"LINEAR",
					"output":36
				},
				{
					"input":34,
					"interpolation":"STEP",
					"output":11
				},
				{
					"input":34,
					"interpolation":"LINEAR",
					"output":37
				},
				{
					"input":35,
					"interpolation":"LINEAR",
					"output":38
				},
				{
					"input":34,
					"interpolation":"LINEAR",
					"output":39
				},
				{
					"input":34,
					"interpolation":"STEP",
					"output":8
				},
				{
					"input":35,
					"interpolation":"LINEAR",
					"output":40
				},
				{
					"input":34,
					"interpolation":"STEP",
					"output":41
				},
				{
					"input":34,
					"interpolation":"LINEAR",
					"output":42
				},
				{
					"input":35,
					"interpolation":"LINEAR",
					"output":43
				},
				{
					"input":34,
					"interpolation":"STEP",
					"output":44
				},
				{
					"input":34,
					"interpolation":"LINEAR",
					"output":45
				},
				{
					"input":35,
					"interpolation":"LINEAR",
					"output":46
				},
				{
					"input":34,
					"interpolation":"LINEAR",
					"output":47
				},
				{
					"input":34,
					"interpolation":"LINEAR",
					"output":48
				},
				{
					"input":35,
					"interpolation":"LINEAR",
					"output":49
				},
				{
					"input":34,
					"interpolation":"STEP",
					"output":50
				},
				{
					"input":34,
					"interpolation":"LINEAR",
					"output":51
				},
				{
					"input":34,
					"interpolation":"LINEAR",
					"output":52
				},
				{
					"input":34,
					"interpolation":"STEP",
					"output":27
				},
				{
					"input":34,
					"interpolation":"LINEAR",
					"output":53
				},
				{
					"input":34,
					"interpolation":"LINEAR",
					"output":54
				},
				{
					"input":34,
					"interpolation":"LINEAR",
					"output":55
				},
				{
					"input":34,
					"interpolation":"LINEAR",
					"output":56
				},
				{
					"input":34,
					"interpolation":"LINEAR",
					"output":57
				},
				{
					"input":34,
					"interpolation":"STEP",
					"output":58
				}
			]
		},
		{
			"channels":[
				{
					"sampler":0,
					"target":{
						"node":1,
						"path":"translation"
					}
				},
				{
					"sampler":1,
					"target":{
						"node":1,
						"path":"rotation"
					}
				},
				{
					"sampler":2,
					"target":{
						"node":1,
						"path":"scale"
					}
				},
				{
					"sampler":3,
					"target":{
						"node":0,
						"path":"translation"
					}
				},
				{
					"sampler":4,
					"target":{
						"node":0,
						"path":"rotation"
					}
				},
				{
					"sampler":5,
					"target":{
						"node":0,
						"path":"scale"
					}
				},
				{
					"sampler":6,
					"target":{
						"node":8,
						"path":"translation"
					}
				},
				{
					"sampler":7,
					"target":{
						"node":8,
						"path":"rotation"
					}
				},
				{
					"sampler":8,
					"target":{
						"node":8,
						"path":"scale"
					}
				},
				{
					"sampler":9,
					"target":{
						"node":7,
						"path":"translation"
					}
				},
				{
					"sampler":10,
					"target":{
						"node":7,
						"path":"rotation"
					}
				},
				{
					"sampler":11,
					"target":{
						"node":7,
						"path":"scale"
					}
				},
				{
					"sampler":12,
					"target":{
						"node":6,
						"path":"translation"
					}
				},
				{
					"sampler":13,
					"target":{
						"node":6,
						"path":"rotation"
					}
				},
				{
					"sampler":14,
					"target":{
						"node":6,
						"path":"scale"
					}
				},
				{
					"sampler":15,
					"target":{
						"node":5,
						"path":"translation"
					}
				},
				{
					"sampler":16,
					"target":{
						"node":5,
						"path":"rotation"
					}
				},
				{
					"sampler":17,
					"target":{
						"node":5,
						"path":"scale"
					}
				},
				{
					"sampler":18,
					"target":{
						"node":4,
						"path":"translation"
					}
				},
				{
					"sampler":19,
					"target":{
						"node":4,
						"path":"rotation"
					}
				},
				{
					"sampler":20,
					"target":{
						"node":4,
						"path":"scale"
					}
				},
				{
					"sampler":21,
					"target":{
						"node":3,
						"path":"translation"
					}
				},
				{
					"sampler":22,
					"target":{
						"node":3,
						"path":"rotation"
					}
				},
				{
					"sampler":23,
					"target":{
						"node":3,
						"path":"scale"
					}
				},
				{
					"sampler":24,
					"target":{
						"node":2,
						"path":"translation"
					}
				},
				{
					"sampler":25,
					"target":{
						"node":2,
						"path":"rotation"
					}
				},
				{
					"sampler":26,
					"target":{
						"node":2,
						"path":"scale"
					}
				}
			],
			"name":"Idle",
			"samplers":[
				{
					"input":59,
					"interpolation":"STEP",
					"output":8
				},
				{
					"input":60,
					"interpolation":"LINEAR",
					"output":61
				},
				{
					"input":59,
					"interpolation":"STEP",
					"output":11
				},
				{
					"input":59,
					"interpolation":"STEP",
					"output":12
				},
				{
					"input":59,
					"interpolation":"STEP",
					"output":62
				},
				{
					"input":59,
					"interpolation":"STEP",
					"output":14
				},
				{
					"input":59,
					"interpolation":"STEP",
					"output":8
				},
				{
					"input":59,
					"interpolation":"STEP",
					"output":15
				},
				{
					"input":59,
					"interpolation":"STEP",
					"output":16
				},
				{
					"input":59,
					"interpolation":"STEP",
					"output":17
				},
				{
					"input":59,
					"interpolation":"STEP",
					"output":18
				},
				{
					"input":59,
					"interpolation":"STEP",
					"output":19
				},
				{
					"input":59,
					"interpolation":"STEP",
					"output":20
				},
				{
					"input":59,
					"interpolation":"STEP",
					"output":21
				},
				{
					"input":59,
					"interpolation":"STEP",
					"output":11
				},
				{
					"input":59,
					"interpolation":"STEP",
					"output":22
				},
				{
					"input":59,
					"interpolation":"STEP",
					"output":23
				},
				{
					"input":59,
					"interpolation":"STEP",
					"output":24
				},
				{
					"input":59,
					"interpolation":"STEP",
					"output":25
				},
				{
					"input":59,
					"interpolation":"STEP",
					"output":26
				},
				{
					"input":59,
					"interpolation":"STEP",
					"output":27
				},
				{
					"input":59,
					"interpolation":"STEP",
					"output":28
				},
				{
					"input":59,
					"interpolation":"STEP",
					"output":29
				},
				{
					"input":59,
					"interpolation":"STEP",
					"output":30
				},
				{
					"input":59,
					"interpolation":"STEP",
					"output":31
				},
				{
					"input":59,
					"interpolation":"STEP",
					"output":32
				},
				{
					"input":59,
					"interpolation":"STEP",
					"output":33
				}
			]
		},
		{
			"channels":[
				{
					"sampler":0,
					"target":{
						"node":1,
						"path":"translation"
					}
				},
				{
					"sampler":1,
					"target":{
						"node":1,
						"path":"rotation"
					}
				},
				{
					"sampler":2,
					"target":{
						"node":1,
						"path":"scale"
					}
				},
				{
					"sampler":3,
					"target":{
						"node":0,
						"path":"translation"
					}
				},
				{
					"sampler":4,
					"target":{
						"node":0,
						"path":"rotation"
					}
				},
				{
					"sampler":5,
					"target":{
						"node":0,
						"path":"scale"
					}
				},
				{
					"sampler":6,
					"target":{
						"node":8,
						"path":"translation"
					}
				},
				{
					"sampler":7,
					"target":{
						"node":8,
						"path":"rotation"
					}
				},
				{
					"sampler":8,
					"target":{
						"node":8,
						"path":"scale"
					}
				},
				{
					"sampler":9,
					"target":{
						"node":7,
						"path":"translation"
					}
				},
				{
					"sampler":10,
					"target":{
						"node":7,
						"path":"rotation"
					}
				},
				{
					"sampler":11,
					"target":{
						"node":7,
						"path":"scale"
					}
				},
				{
					"sampler":12,
					"target":{
						"node":6,
						"path":"translation"
					}
				},
				{
					"sampler":13,
					"target":{
						"node":6,
						"path":"rotation"
					}
				},
				{
					"sampler":14,
					"target":{
						"node":6,
						"path":"scale"
					}
				},
				{
					"sampler":15,
					"target":{
						"node":5,
						"path":"translation"
					}
				},
				{
					"sampler":16,
					"target":{
						"node":5,
						"path":"rotation"
					}
				},
				{
					"sampler":17,
					"target":{
						"node":5,
						"path":"scale"
					}
				},
				{
					"sampler":18,
					"target":{
						"node":4,
						"path":"translation"
					}
				},
				{
					"sampler":19,
					"target":{
						"node":4,
						"path":"rotation"
					}
				},
				{
					"sampler":20,
					"target":{
						"node":4,
						"path":"scale"
					}
				},
				{
					"sampler":21,
					"target":{
						"node":3,
						"path":"translation"
					}
				},
				{
					"sampler":22,
					"target":{
						"node":3,
						"path":"rotation"
					}
				},
				{
					"sampler":23,
					"target":{
						"node":3,
						"path":"scale"
					}
				},
				{
					"sampler":24,
					"target":{
						"node":2,
						"path":"translation"
					}
				},
				{
					"sampler":25,
					"target":{
						"node":2,
						"path":"rotation"
					}
				},
				{
					"sampler":26,
					"target":{
						"node":2,
						"path":"scale"
					}
				}
			],
			"name":"Walk",
			"samplers":[
				{
					"input":7,
					"interpolation":"STEP",
					"output":8
				},
				{
					"input":7,
					"interpolation":"STEP",
					"output":63
				},
				{
					"input":7,
					"interpolation":"STEP",
					"output":11
				},
				{
					"input":7,
					"interpolation":"STEP",
					"output":12
				},
				{
					"input":7,
					"interpolation":"STEP",
					"output":62
				},
				{
					"input":7,
					"interpolation":"STEP",
					"output":14
				},
				{
					"input":7,
					"interpolation":"STEP",
					"output":8
				},
				{
					"input":7,
					"interpolation":"STEP",
					"output":15
				},
				{
					"input":7,
					"interpolation":"STEP",
					"output":16
				},
				{
					"input":7,
					"interpolation":"STEP",
					"output":17
				},
				{
					"input":7,
					"interpolation":"STEP",
					"output":18
				},
				{
					"input":7,
					"interpolation":"STEP",
					"output":19
				},
				{
					"input":7,
					"interpolation":"STEP",
					"output":20
				},
				{
					"input":9,
					"interpolation":"LINEAR",
					"output":64
				},
				{
					"input":7,
					"interpolation":"STEP",
					"output":65
				},
				{
					"input":7,
					"interpolation":"STEP",
					"output":66
				},
				{
					"input":9,
					"interpolation":"LINEAR",
					"output":67
				},
				{
					"input":7,
					"interpolation":"STEP",
					"output":68
				},
				{
					"input":7,
					"interpolation":"STEP",
					"output":69
				},
				{
					"input":9,
					"interpolation":"LINEAR",
					"output":70
				},
				{
					"input":7,
					"interpolation":"STEP",
					"output":71
				},
				{
					"input":7,
					"interpolation":"STEP",
					"output":72
				},
				{
					"input":9,
					"interpolation":"LINEAR",
					"output":73
				},
				{
					"input":7,
					"interpolation":"STEP",
					"output":74
				},
				{
					"input":7,
					"interpolation":"STEP",
					"output":75
				},
				{
					"input":9,
					"interpolation":"LINEAR",
					"output":76
				},
				{
					"input":7,
					"interpolation":"STEP",
					"output":77
				}
			]
		}
	],
	"materials":[
		{
			"name":"tripo_material_fbe38847-177a-4348-abfc-ec02329fe12e",
			"normalTexture":{
				"index":0
			},
			"pbrMetallicRoughness":{
				"baseColorTexture":{
					"index":1
				},
				"metallicRoughnessTexture":{
					"index":2
				}
			}
		}
	],
	"meshes":[
		{
			"name":"tripo_mesh_fbe38847-177a-4348-abfc-ec02329fe12e",
			"primitives":[
				{
					"attributes":{
						"POSITION":0,
						"NORMAL":1,
						"TEXCOORD_0":2,
						"JOINTS_0":3,
						"WEIGHTS_0":4
					},
					"indices":5,
					"material":0
				}
			]
		}
	],
	"textures":[
		{
			"sampler":0,
			"source":0
		},
		{
			"sampler":0,
			"source":1
		},
		{
			"sampler":0,
			"source":2
		}
	],
	"images":[
		{
			"mimeType":"image/jpeg",
			"name":"NormalGL_fbe38847-177a-4348-abfc-ec02329fe12e",
			"uri":"NormalGL_fbe38847-177a-4348-abfc-ec02329fe12e.jpg"
		},
		{
			"mimeType":"image/jpeg",
			"name":"Color_fbe38847-177a-4348-abfc-ec02329fe12e",
			"uri":"Color_fbe38847-177a-4348-abfc-ec02329fe12e.jpg"
		},
		{
			"mimeType":"image/jpeg",
			"name":"ORM_fbe38847-177a-4348-abfc-ec02329fe12e",
			"uri":"ORM_fbe38847-177a-4348-abfc-ec02329fe12e.jpg"
		}
	],
	"skins":[
		{
			"inverseBindMatrices":6,
			"joints":[
				1,
				0,
				8,
				7,
				6,
				5,
				4,
				3,
				2
			],
			"name":"Armature"
		}
	],
	"accessors":[
		{
			"bufferView":0,
			"componentType":5126,
			"count":5664,
			"max":[
				0.41726380586624146,
				0.6614408493041992,
				0.14966467022895813
			],
			"min":[
				-0.3401503562927246,
				-0.01513063907623291,
				-0.8503352403640747
			],
			"type":"VEC3"
		},
		{
			"bufferView":1,
			"componentType":5126,
			"count":5664,
			"type":"VEC3"
		},
		{
			"bufferView":2,
			"componentType":5126,
			"count":5664,
			"type":"VEC2"
		},
		{
			"bufferView":3,
			"componentType":5121,
			"count":5664,
			"type":"VEC4"
		},
		{
			"bufferView":4,
			"componentType":5126,
			"count":5664,
			"type":"VEC4"
		},
		{
			"bufferView":5,
			"componentType":5123,
			"count":28566,
			"type":"SCALAR"
		},
		{
			"bufferView":6,
			"componentType":5126,
			"count":9,
			"type":"MAT4"
		},
		{
			"bufferView":7,
			"componentType":5126,
			"count":2,
			"max":[
				0.5
			],
			"min":[
				0
			],
			"type":"SCALAR"
		},
		{
			"bufferView":8,
			"componentType":5126,
			"count":2,
			"type":"VEC3"
		},
		{
			"bufferView":9,
			"componentType":5126,
			"count":13,
			"max":[
				0.5
			],
			"min":[
				0
			],
			"type":"SCALAR"
		},
		{
			"bufferView":10,
			"componentType":5126,
			"count":13,
			"type":"VEC4"
		},
		{
			"bufferView":11,
			"componentType":5126,
			"count":2,
			"type":"VEC3"
		},
		{
			"bufferView":12,
			"componentType":5126,
			"count":2,
			"type":"VEC3"
		},
		{
			"bufferView":13,
			"componentType":5126,
			"count":13,
			"type":"VEC4"
		},
		{
			"bufferView":14,
			"componentType":5126,
			"count":2,
			"type":"VEC3"
		},
		{
			"bufferView":15,
			"componentType":5126,
			"count":2,
			"type":"VEC4"
		},
		{
			"bufferView":16,
			"componentType":5126,
			"count":2,
			"type":"VEC3"
		},
		{
			"bufferView":17,
			"componentType":5126,
			"count":2,
			"type":"VEC3"
		},
		{
			"bufferView":18,
			"componentType":5126,
			"count":2,
			"type":"VEC4"
		},
		{
			"bufferView":19,
			"componentType":5126,
			"count":2,
			"type":"VEC3"
		},
		{
			"bufferView":20,
			"componentType":5126,
			"count":2,
			"type":"VEC3"
		},
		{
			"bufferView":21,
			"componentType":5126,
			"count":2,
			"type":"VEC4"
		},
		{
			"bufferView":22,
			"componentType":5126,
			"count":2,
			"type":"VEC3"
		},
		{
			"bufferView":23,
			"componentType":5126,
			"count":2,
			"type":"VEC4"
		},
		{
			"bufferView":24,
			"componentType":5126,
			"count":2,
			"type":"VEC3"
		},
		{
			"bufferView":25,
			"componentType":5126,
			"count":2,
			"type":"VEC3"
		},
		{
			"bufferView":26,
			"componentType":5126,
			"count":2,
			"type":"VEC4"
		},
		{
			"bufferView":27,
			"componentType":5126,
			"count":2,
			"type":"VEC3"
		},
		{
			"bufferView":28,
			"componentType":5126,
			"count":2,
			"type":"VEC3"
		},
		{
			"bufferView":29,
			"componentType":5126,
			"count":2,
			"type":"VEC4"
		},
		{
			"bufferView":30,
			"componentType":5126,
			"count":2,
			"type":"VEC3"
		},
		{
			"bufferView":31,
			"componentType":5126,
			"count":2,
			"type":"VEC3"
		},
		{
			"bufferView":32,
			"componentType":5126,
			"count":2,
			"type":"VEC4"
		},
		{
			"bufferView":33,
			"componentType":5126,
			"count":2,
			"type":"VEC3"
		},
		{
			"bufferView":34,
			"componentType":5126,
			"count":2,
			"max":[
				0.25
			],
			"min":[
				0
			],
			"type":"SCALAR"
		},
		{
			"bufferView":35,
			"componentType":5126,
			"count":7,
			"max":[
				0.25
			],
			"min":[
				0
			],
			"type":"SCALAR"
		},
		{
			"bufferView":36,
			"componentType":5126,
			"count":7,
			"type":"VEC4"
		},
		{
			"bufferView":37,
			"componentType":5126,
			"count":2,
			"type":"VEC3"
		},
		{
			"bufferView":38,
			"componentType":5126,
			"count":7,
			"type":"VEC4"
		},
		{
			"bufferView":39,
			"componentType":5126,
			"count":2,
			"type":"VEC3"
		},
		{
			"bufferView":40,
			"componentType":5126,
			"count":7,
			"type":"VEC4"
		},
		{
			"bufferView":41,
			"componentType":5126,
			"count":2,
			"type":"VEC3"
		},
		{
			"bufferView":42,
			"componentType":5126,
			"count":2,
			"type":"VEC3"
		},
		{
			"bufferView":43,
			"componentType":5126,
			"count":7,
			"type":"VEC4"
		},
		{
			"bufferView":44,
			"componentType":5126,
			"count":2,
			"type":"VEC3"
		},
		{
			"bufferView":45,
			"componentType":5126,
			"count":2,
			"type":"VEC3"
		},
		{
			"bufferView":46,
			"componentType":5126,
			"count":7,
			"type":"VEC4"
		},
		{
			"bufferView":47,
			"componentType":5126,
			"count":2,
			"type":"VEC3"
		},
		{
			"bufferView":48,
			"componentType":5126,
			"count":2,
			"type":"VEC3"
		},
		{
			"bufferView":49,
			"componentType":5126,
			"count":7,
			"type":"VEC4"
		},
		{
			"bufferView":50,
			"componentType":5126,
			"count":2,
			"type":"VEC3"
		},
		{
			"bufferView":51,
			"componentType":5126,
			"count":2,
			"type":"VEC3"
		},
		{
			"bufferView":52,
			"componentType":5126,
			"count":2,
			"type":"VEC4"
		},
		{
			"bufferView":53,
			"componentType":5126,
			"count":2,
			"type":"VEC3"
		},
		{
			"bufferView":54,
			"componentType":5126,
			"count":2,
			"type":"VEC4"
		},
		{
			"bufferView":55,
			"componentType":5126,
			"count":2,
			"type":"VEC3"
		},
		{
			"bufferView":56,
			"componentType":5126,
			"count":2,
			"type":"VEC3"
		},
		{
			"bufferView":57,
			"componentType":5126,
			"count":2,
			"type":"VEC4"
		},
		{
			"bufferView":58,
			"componentType":5126,
			"count":2,
			"type":"VEC3"
		},
		{
			"bufferView":59,
			"componentType":5126,
			"count":2,
			"max":[
				0.5
			],
			"min":[
				0.041666666666666664
			],
			"type":"SCALAR"
		},
		{
			"bufferView":60,
			"componentType":5126,
			"count":12,
			"max":[
				0.5
			],
			"min":[
				0.041666666666666664
			],
			"type":"SCALAR"
		},
		{
			"bufferView":61,
			"componentType":5126,
			"count":12,
			"type":"VEC4"
		},
		{
			"bufferView":62,
			"componentType":5126,
			"count":2,
			"type":"VEC4"
		},
		{
			"bufferView":63,
			"componentType":5126,
			"count":2,
			"type":"VEC4"
		},
		{
			"bufferView":64,
			"componentType":5126,
			"count":13,
			"type":"VEC4"
		},
		{
			"bufferView":65,
			"componentType":5126,
			"count":2,
			"type":"VEC3"
		},
		{
			"bufferView":66,
			"componentType":5126,
			"count":2,
			"type":"VEC3"
		},
		{
			"bufferView":67,
			"componentType":5126,
			"count":13,
			"type":"VEC4"
		},
		{
			"bufferView":68,
			"componentType":5126,
			"count":2,
			"type":"VEC3"
		},
		{
			"bufferView":69,
			"componentType":5126,
			"count":2,
			"type":"VEC3"
		},
		{
			"bufferView":70,
			"componentType":5126,
			"count":13,
			"type":"VEC4"
		},
		{
			"bufferView":71,
			"componentType":5126,
			"count":2,
			"type":"VEC3"
		},
		{
			"bufferView":72,
			"componentType":5126,
			"count":2,
			"type":"VEC3"
		},
		{
			"bufferView":73,
			"componentType":5126,
			"count":13,
			"type":"VEC4"
		},
		{
			"bufferView":74,
			"componentType":5126,
			"count":2,
			"type":"VEC3"
		},
		{
			"bufferView":75,
			"componentType":5126,
			"count":2,
			"type":"VEC3"
		},
		{
			"bufferView":76,
			"componentType":5126,
			"count":13,
			"type":"VEC4"
		},
		{
			"bufferView":77,
			"componentType":5126,
			"count":2,
			"type":"VEC3"
		}
	],
	"bufferViews":[
		{
			"buffer":0,
			"byteLength":67968,
			"byteOffset":0,
			"target":34962
		},
		{
			"buffer":0,
			"byteLength":67968,
			"byteOffset":67968,
			"target":34962
		},
		{
			"buffer":0,
			"byteLength":45312,
			"byteOffset":135936,
			"target":34962
		},
		{
			"buffer":0,
			"byteLength":22656,
			"byteOffset":181248,
			"target":34962
		},
		{
			"buffer":0,
			"byteLength":90624,
			"byteOffset":203904,
			"target":34962
		},
		{
			"buffer":0,
			"byteLength":57132,
			"byteOffset":294528,
			"target":34963
		},
		{
			"buffer":0,
			"byteLength":576,
			"byteOffset":351660
		},
		{
			"buffer":0,
			"byteLength":8,
			"byteOffset":352236
		},
		{
			"buffer":0,
			"byteLength":24,
			"byteOffset":352244
		},
		{
			"buffer":0,
			"byteLength":52,
			"byteOffset":352268
		},
		{
			"buffer":0,
			"byteLength":208,
			"byteOffset":352320
		},
		{
			"buffer":0,
			"byteLength":24,
			"byteOffset":352528
		},
		{
			"buffer":0,
			"byteLength":24,
			"byteOffset":352552
		},
		{
			"buffer":0,
			"byteLength":208,
			"byteOffset":352576
		},
		{
			"buffer":0,
			"byteLength":24,
			"byteOffset":352784
		},
		{
			"buffer":0,
			"byteLength":32,
			"byteOffset":352808
		},
		{
			"buffer":0,
			"byteLength":24,
			"byteOffset":352840
		},
		{
			"buffer":0,
			"byteLength":24,
			"byteOffset":352864
		},
		{
			"buffer":0,
			"byteLength":32,
			"byteOffset":352888
		},
		{
			"buffer":0,
			"byteLength":24,
			"byteOffset":352920
		},
		{
			"buffer":0,
			"byteLength":24,
			"byteOffset":352944
		},
		{
			"buffer":0,
			"byteLength":32,
			"byteOffset":352968
		},
		{
			"buffer":0,
			"byteLength":24,
			"byteOffset":353000
		},
		{
			"buffer":0,
			"byteLength":32,
			"byteOffset":353024
		},
		{
			"buffer":0,
			"byteLength":24,
			"byteOffset":353056
		},
		{
			"buffer":0,
			"byteLength":24,
			"byteOffset":353080
		},
		{
			"buffer":0,
			"byteLength":32,
			"byteOffset":353104
		},
		{
			"buffer":0,
			"byteLength":24,
			"byteOffset":353136
		},
		{
			"buffer":0,
			"byteLength":24,
			"byteOffset":353160
		},
		{
			"buffer":0,
			"byteLength":32,
			"byteOffset":353184
		},
		{
			"buffer":0,
			"byteLength":24,
			"byteOffset":353216
		},
		{
			"buffer":0,
			"byteLength":24,
			"byteOffset":353240
		},
		{
			"buffer":0,
			"byteLength":32,
			"byteOffset":353264
		},
		{
			"buffer":0,
			"byteLength":24,
			"byteOffset":353296
		},
		{
			"buffer":0,
			"byteLength":8,
			"byteOffset":353320
		},
		{
			"buffer":0,
			"byteLength":28,
			"byteOffset":353328
		},
		{
			"buffer":0,
			"byteLength":112,
			"byteOffset":353356
		},
		{
			"buffer":0,
			"byteLength":24,
			"byteOffset":353468
		},
		{
			"buffer":0,
			"byteLength":112,
			"byteOffset":353492
		},
		{
			"buffer":0,
			"byteLength":24,
			"byteOffset":353604
		},
		{
			"buffer":0,
			"byteLength":112,
			"byteOffset":353628
		},
		{
			"buffer":0,
			"byteLength":24,
			"byteOffset":353740
		},
		{
			"buffer":0,
			"byteLength":24,
			"byteOffset":353764
		},
		{
			"buffer":0,
			"byteLength":112,
			"byteOffset":353788
		},
		{
			"buffer":0,
			"byteLength":24,
			"byteOffset":353900
		},
		{
			"buffer":0,
			"byteLength":24,
			"byteOffset":353924
		},
		{
			"buffer":0,
			"byteLength":112,
			"byteOffset":353948
		},
		{
			"buffer":0,
			"byteLength":24,
			"byteOffset":354060
		},
		{
			"buffer":0,
			"byteLength":24,
			"byteOffset":354084
		},
		{
			"buffer":0,
			"byteLength":112,
			"byteOffset":354108
		},
		{
			"buffer":0,
			"byteLength":24,
			"byteOffset":354220
		},
		{
			"buffer":0,
			"byteLength":24,
			"byteOffset":354244
		},
		{
			"buffer":0,
			"byteLength":32,
			"byteOffset":354268
		},
		{
			"buffer":0,
			"byteLength":24,
			"byteOffset":354300
		},
		{
			"buffer":0,
			"byteLength":32,
			"byteOffset":354324
		},
		{
			"buffer":0,
			"byteLength":24,
			"byteOffset":354356
		},
		{
			"buffer":0,
			"byteLength":24,
			"byteOffset":354380
		},
		{
			"buffer":0,
			"byteLength":32,
			"byteOffset":354404
		},
		{
			"buffer":0,
			"byteLength":24,
			"byteOffset":354436
		},
		{
			"buffer":0,
			"byteLength":8,
			"byteOffset":354460
		},
		{
			"buffer":0,
			"byteLength":48,
			"byteOffset":354468
		},
		{
			"buffer":0,
			"byteLength":192,
			"byteOffset":354516
		},
		{
			"buffer":0,
			"byteLength":32,
			"byteOffset":354708
		},
		{
			"buffer":0,
			"byteLength":32,
			"byteOffset":354740
		},
		{
			"buffer":0,
			"byteLength":208,
			"byteOffset":354772
		},
		{
			"buffer":0,
			"byteLength":24,
			"byteOffset":354980
		},
		{
			"buffer":0,
			"byteLength":24,
			"byteOffset":355004
		},
		{
			"buffer":0,
			"byteLength":208,
			"byteOffset":355028
		},
		{
			"buffer":0,
			"byteLength":24,
			"byteOffset":355236
		},
		{
			"buffer":0,
			"byteLength":24,
			"byteOffset":355260
		},
		{
			"buffer":0,
			"byteLength":208,
			"byteOffset":355284
		},
		{
			"buffer":0,
			"byteLength":24,
			"byteOffset":355492
		},
		{
			"buffer":0,
			"byteLength":24,
			"byteOffset":355516
		},
		{
			"buffer":0,
			"byteLength":208,
			"byteOffset":355540
		},
		{
			"buffer":0,
			"byteLength":24,
			"byteOffset":355748
		},
		{
			"buffer":0,
			"byteLength":24,
			"byteOffset":355772
		},
		{
			"buffer":0,
			"byteLength":208,
			"byteOffset":355796
		},
		{
			"buffer":0,
			"byteLength":24,
			"byteOffset":356004
		}
	],
	"samplers":[
		{
			"magFilter":9729,
			"minFilter":9987
		}
	],
	"buffers":[
		{
			"byteLength":356028,
			"uri":"snake.bin"
		}
	]
}
