{
	"asset":{
		"generator":"Khronos glTF Blender I/O v5.2.39",
		"version":"2.0"
	},
	"scene":0,
	"scenes":[
		{
			"name":"Scene",
			"nodes":[
				10
			]
		}
	],
	"nodes":[
		{
			"name":"Bone.001",
			"rotation":[
				0.48213323950767517,
				0.07641013711690903,
				-0.13830693066120148,
				0.8617309331893921
			],
			"scale":[
				1,
				1.0000001192092896,
				1.0000001192092896
			],
			"translation":[
				8.541974239051342e-09,
				0.9990510940551758,
				2.561137080192566e-09
			]
		},
		{
			"children":[
				0
			],
			"name":"Bone",
			"rotation":[
				-0.0013237042585387826,
				2.4788914032569664e-08,
				0.06831497699022293,
				0.9976629018783569
			],
			"scale":[
				1.0000001192092896,
				0.9999998807907104,
				0.9999998807907104
			],
			"translation":[
				2.6775524020195007e-09,
				-5.820766091346741e-10,
				1.1641532182693481e-10
			]
		},
		{
			"name":"Bone.008",
			"rotation":[
				-0.32791668176651,
				-0.11982576549053192,
				-0.24303150177001953,
				0.9050127863883972
			],
			"scale":[
				1,
				1,
				1.0000001192092896
			],
			"translation":[
				1.30385160446167e-07,
				0.7330635190010071,
				8.102506399154663e-08
			]
		},
		{
			"children":[
				2
			],
			"name":"Bone.007",
			"rotation":[
				0.3544463813304901,
				0.03516228497028351,
				0.03389796242117882,
				0.9337999224662781
			],
			"scale":[
				0.9999998807907104,
				1.0000001192092896,
				0.9999999403953552
			],
			"translation":[
				6.705522537231445e-08,
				0.5574870705604553,
				-1.2665987014770508e-07
			]
		},
		{
			"children":[
				3
			],
			"name":"Bone.006",
			"rotation":[
				0.32536450028419495,
				6.753946024673496e-08,
				0.12209544330835342,
				0.937673032283783
			],
			"scale":[
				0.9999999403953552,
				0.9999998211860657,
				0.9999999403953552
			],
			"translation":[
				5.774199962615967e-08,
				1.1430124044418335,
				-2.1979212760925293e-07
			]
		},
		{
			"children":[
				4
			],
			"name":"Bone.005",
			"rotation":[
				-0.47273722290992737,
				2.154080291916216e-08,
				-0.16971680521965027,
				0.8647055625915527
			],
			"scale":[
				1.0000001192092896,
				0.9999998807907104,
				0.9999998211860657
			],
			"translation":[
				-1.862645149230957e-08,
				0.7556303143501282,
				9.778887033462524e-08
			]
		},
		{
			"children":[
				5
			],
			"name":"Bone.004",
			"rotation":[
				-0.513054370880127,
				-0.024508284404873848,
				-0.19262884557247162,
				0.8361033201217651
			],
			"scale":[
				0.9999999403953552,
				0.9999998807907104,
				0.9999999403953552
			],
			"translation":[
				-4.377216100692749e-08,
				1.1568922996520996,
				-2.8405338525772095e-08
			]
		},
		{
			"children":[
				6
			],
			"name":"Bone.003",
			"rotation":[
				0.5136536955833435,
				0.06912640482187271,
				0.12581613659858704,
				0.8459029197692871
			],
			"translation":[
				-1.3969838619232178e-08,
				0.655716598033905,
				-1.3737007975578308e-08
			]
		},
		{
			"children":[
				7
			],
			"name":"Bone.002",
			"rotation":[
				-0.8828849792480469,
				-0.024179616943001747,
				-0.04573914036154747,
				0.466730535030365
			],
			"scale":[
				1,
				0.9999999403953552,
				1
			],
			"translation":[
				2.6775524020195007e-09,
				-5.820766091346741e-10,
				1.1641532182693481e-10
			]
		},
		{
			"mesh":0,
			"name":"tripo_node_6e837e3b-50e6-4f68-8f58-718c8f50a2eb",
			"skin":0
		},
		{
			"children":[
				9,
				1,
				8
			],
			"name":"Armature",
			"rotation":[
				-0.06916719675064087,
				0.7260578274726868,
				-0.0860091969370842,
				0.6787181496620178
			],
			"scale":[
				0.7584909200668335,
				0.7584911584854126,
				0.7584910988807678
			],
			"translation":[
				-0.019600380212068558,
				0.020973559468984604,
				-0.036385297775268555
			]
		}
	],
	"animations":[
		{
			"channels":[
				{
					"sampler":0,
					"target":{
						"node":1,
						"path":"translation"
					}
				},
				{
					"sampler":1,
					"target":{
						"node":1,
						"path":"rotation"
					}
				},
				{
					"sampler":2,
					"target":{
						"node":1,
						"path":"scale"
					}
				},
				{
					"sampler":3,
					"target":{
						"node":0,
						"path":"translation"
					}
				},
				{
					"sampler":4,
					"target":{
						"node":0,
						"path":"rotation"
					}
				},
				{
					"sampler":5,
					"target":{
						"node":0,
						"path":"scale"
					}
				},
				{
					"sampler":6,
					"target":{
						"node":8,
						"path":"translation"
					}
				},
				{
					"sampler":7,
					"target":{
						"node":8,
						"path":"rotation"
					}
				},
				{
					"sampler":8,
					"target":{
						"node":8,
						"path":"scale"
					}
				},
				{
					"sampler":9,
					"target":{
						"node":7,
						"path":"translation"
					}
				},
				{
					"sampler":10,
					"target":{
						"node":7,
						"path":"rotation"
					}
				},
				{
					"sampler":11,
					"target":{
						"node":7,
						"path":"scale"
					}
				},
				{
					"sampler":12,
					"target":{
						"node":6,
						"path":"translation"
					}
				},
				{
					"sampler":13,
					"target":{
						"node":6,
						"path":"rotation"
					}
				},
				{
					"sampler":14,
					"target":{
						"node":6,
						"path":"scale"
					}
				},
				{
					"sampler":15,
					"target":{
						"node":5,
						"path":"translation"
					}
				},
				{
					"sampler":16,
					"target":{
						"node":5,
						"path":"rotation"
					}
				},
				{
					"sampler":17,
					"target":{
						"node":5,
						"path":"scale"
					}
				},
				{
					"sampler":18,
					"target":{
						"node":4,
						"path":"translation"
					}
				},
				{
					"sampler":19,
					"target":{
						"node":4,
						"path":"rotation"
					}
				},
				{
					"sampler":20,
					"target":{
						"node":4,
						"path":"scale"
					}
				},
				{
					"sampler":21,
					"target":{
						"node":3,
						"path":"translation"
					}
				},
				{
					"sampler":22,
					"target":{
						"node":3,
						"path":"rotation"
					}
				},
				{
					"sampler":23,
					"target":{
						"node":3,
						"path":"scale"
					}
				},
				{
					"sampler":24,
					"target":{
						"node":2,
						"path":"translation"
					}
				},
				{
					"sampler":25,
					"target":{
						"node":2,
						"path":"rotation"
					}
				},
				{
					"sampler":26,
					"target":{
						"node":2,
						"path":"scale"
					}
				}
			],
			"name":"Attack",
			"samplers":[
				{
					"input":7,
					"interpolation":"STEP",
					"output":8
				},
				{
					"input":9,
					"interpolation":"LINEAR",
					"output":10
				},
				{
					"input":7,
					"interpolation":"STEP",
					"output":11
				},
				{
					"input":7,
					"interpolation":"STEP",
					"output":12
				},
				{
					"input":9,
					"interpolation":"LINEAR",
					"output":13
				},
				{
					"input":7,
					"interpolation":"STEP",
					"output":14
				},
				{
					"input":7,
					"interpolation":"STEP",
					"output":8
				},
				{
					"input":7,
					"interpolation":"STEP",
					"output":15
				},
				{
					"input":7,
					"interpolation":"STEP",
					"output":16
				},
				{
					"input":7,
					"interpolation":"STEP",
					"output":17
				},
				{
					"input":7,
					"interpolation":"STEP",
					"output":18
				},
				{
					"input":7,
					"interpolation":"STEP",
					"output":19
				},
				{
					"input":7,
					"interpolation":"STEP",
					"output":20
				},
				{
					"input":7,
					"interpolation":"STEP",
					"output":21
				},
				{
					"input":7,
					"interpolation":"STEP",
					"output":22
				},
				{
					"input":7,
					"interpolation":"STEP",
					"output":23
				},
				{
					"input":7,
					"interpolation":"STEP",
					"output":24
				},
				{
					"input":7,
					"interpolation":"STEP",
					"output":25
				},
				{
					"input":7,
					"interpolation":"STEP",
					"output":26
				},
				{
					"input":7,
					"interpolation":"STEP",
					"output":27
				},
				{
					"input":7,
					"interpolation":"STEP",
					"output":11
				},
				{
					"input":7,
					"interpolation":"STEP",
					"output":28
				},
				{
					"input":7,
					"interpolation":"STEP",
					"output":29
				},
				{
					"input":7,
					"interpolation":"STEP",
					"output":30
				},
				{
					"input":7,
					"interpolation":"STEP",
					"output":31
				},
				{
					"input":7,
					"interpolation":"STEP",
					"output":32
				},
				{
					"input":7,
					"interpolation":"STEP",
					"output":33
				}
			]
		},
		{
			"channels":[
				{
					"sampler":0,
					"target":{
						"node":1,
						"path":"translation"
					}
				},
				{
					"sampler":1,
					"target":{
						"node":1,
						"path":"rotation"
					}
				},
				{
					"sampler":2,
					"target":{
						"node":1,
						"path":"scale"
					}
				},
				{
					"sampler":3,
					"target":{
						"node":0,
						"path":"translation"
					}
				},
				{
					"sampler":4,
					"target":{
						"node":0,
						"path":"rotation"
					}
				},
				{
					"sampler":5,
					"target":{
						"node":0,
						"path":"scale"
					}
				},
				{
					"sampler":6,
					"target":{
						"node":8,
						"path":"translation"
					}
				},
				{
					"sampler":7,
					"target":{
						"node":8,
						"path":"rotation"
					}
				},
				{
					"sampler":8,
					"target":{
						"node":8,
						"path":"scale"
					}
				},
				{
					"sampler":9,
					"target":{
						"node":7,
						"path":"translation"
					}
				},
				{
					"sampler":10,
					"target":{
						"node":7,
						"path":"rotation"
					}
				},
				{
					"sampler":11,
					"target":{
						"node":7,
						"path":"scale"
					}
				},
				{
					"sampler":12,
					"target":{
						"node":6,
						"path":"translation"
					}
				},
				{
					"sampler":13,
					"target":{
						"node":6,
						"path":"rotation"
					}
				},
				{
					"sampler":14,
					"target":{
						"node":6,
						"path":"scale"
					}
				},
				{
					"sampler":15,
					"target":{
						"node":5,
						"path":"translation"
					}
				},
				{
					"sampler":16,
					"target":{
						"node":5,
						"path":"rotation"
					}
				},
				{
					"sampler":17,
					"target":{
						"node":5,
						"path":"scale"
					}
				},
				{
					"sampler":18,
					"target":{
						"node":4,
						"path":"translation"
					}
				},
				{
					"sampler":19,
					"target":{
						"node":4,
						"path":"rotation"
					}
				},
				{
					"sampler":20,
					"target":{
						"node":4,
						"path":"scale"
					}
				},
				{
					"sampler":21,
					"target":{
						"node":3,
						"path":"translation"
					}
				},
				{
					"sampler":22,
					"target":{
						"node":3,
						"path":"rotation"
					}
				},
				{
					"sampler":23,
					"target":{
						"node":3,
						"path":"scale"
					}
				},
				{
					"sampler":24,
					"target":{
						"node":2,
						"path":"translation"
					}
				},
				{
					"sampler":25,
					"target":{
						"node":2,
						"path":"rotation"
					}
				},
				{
					"sampler":26,
					"target":{
						"node":2,
						"path":"scale"
					}
				}
			],
			"name":"Die",
			"samplers":[
				{
					"input":34,
					"interpolation":"LINEAR",
					"output":35
				},
				{
					"input":36,
					"interpolation":"LINEAR",
					"output":37
				},
				{
					"input":34,
					"interpolation":"STEP",
					"output":38
				},
				{
					"input":34,
					"interpolation":"LINEAR",
					"output":39
				},
				{
					"input":36,
					"interpolation":"LINEAR",
					"output":40
				},
				{
					"input":34,
					"interpolation":"LINEAR",
					"output":41
				},
				{
					"input":34,
					"interpolation":"STEP",
					"output":8
				},
				{
					"input":34,
					"interpolation":"STEP",
					"output":15
				},
				{
					"input":34,
					"interpolation":"STEP",
					"output":16
				},
				{
					"input":34,
					"interpolation":"STEP",
					"output":17
				},
				{
					"input":36,
					"interpolation":"LINEAR",
					"output":42
				},
				{
					"input":34,
					"interpolation":"STEP",
					"output":43
				},
				{
					"input":34,
					"interpolation":"LINEAR",
					"output":44
				},
				{
					"input":36,
					"interpolation":"LINEAR",
					"output":45
				},
				{
					"input":34,
					"interpolation":"STEP",
					"output":46
				},
				{
					"input":34,
					"interpolation":"LINEAR",
					"output":47
				},
				{
					"input":36,
					"interpolation":"LINEAR",
					"output":48
				},
				{
					"input":34,
					"interpolation":"STEP",
					"output":49
				},
				{
					"input":34,
					"interpolation":"LINEAR",
					"output":50
				},
				{
					"input":34,
					"interpolation":"LINEAR",
					"output":51
				},
				{
					"input":34,
					"interpolation":"STEP",
					"output":52
				},
				{
					"input":34,
					"interpolation":"LINEAR",
					"output":53
				},
				{
					"input":34,
					"interpolation":"LINEAR",
					"output":54
				},
				{
					"input":34,
					"interpolation":"STEP",
					"output":55
				},
				{
					"input":34,
					"interpolation":"LINEAR",
					"output":56
				},
				{
					"input":34,
					"interpolation":"LINEAR",
					"output":32
				},
				{
					"input":34,
					"interpolation":"LINEAR",
					"output":57
				}
			]
		},
		{
			"channels":[
				{
					"sampler":0,
					"target":{
						"node":1,
						"path":"translation"
					}
				},
				{
					"sampler":1,
					"target":{
						"node":1,
						"path":"rotation"
					}
				},
				{
					"sampler":2,
					"target":{
						"node":1,
						"path":"scale"
					}
				},
				{
					"sampler":3,
					"target":{
						"node":0,
						"path":"translation"
					}
				},
				{
					"sampler":4,
					"target":{
						"node":0,
						"path":"rotation"
					}
				},
				{
					"sampler":5,
					"target":{
						"node":0,
						"path":"scale"
					}
				},
				{
					"sampler":6,
					"target":{
						"node":8,
						"path":"translation"
					}
				},
				{
					"sampler":7,
					"target":{
						"node":8,
						"path":"rotation"
					}
				},
				{
					"sampler":8,
					"target":{
						"node":8,
						"path":"scale"
					}
				},
				{
					"sampler":9,
					"target":{
						"node":7,
						"path":"translation"
					}
				},
				{
					"sampler":10,
					"target":{
						"node":7,
						"path":"rotation"
					}
				},
				{
					"sampler":11,
					"target":{
						"node":7,
						"path":"scale"
					}
				},
				{
					"sampler":12,
					"target":{
						"node":6,
						"path":"translation"
					}
				},
				{
					"sampler":13,
					"target":{
						"node":6,
						"path":"rotation"
					}
				},
				{
					"sampler":14,
					"target":{
						"node":6,
						"path":"scale"
					}
				},
				{
					"sampler":15,
					"target":{
						"node":5,
						"path":"translation"
					}
				},
				{
					"sampler":16,
					"target":{
						"node":5,
						"path":"rotation"
					}
				},
				{
					"sampler":17,
					"target":{
						"node":5,
						"path":"scale"
					}
				},
				{
					"sampler":18,
					"target":{
						"node":4,
						"path":"translation"
					}
				},
				{
					"sampler":19,
					"target":{
						"node":4,
						"path":"rotation"
					}
				},
				{
					"sampler":20,
					"target":{
						"node":4,
						"path":"scale"
					}
				},
				{
					"sampler":21,
					"target":{
						"node":3,
						"path":"translation"
					}
				},
				{
					"sampler":22,
					"target":{
						"node":3,
						"path":"rotation"
					}
				},
				{
					"sampler":23,
					"target":{
						"node":3,
						"path":"scale"
					}
				},
				{
					"sampler":24,
					"target":{
						"node":2,
						"path":"translation"
					}
				},
				{
					"sampler":25,
					"target":{
						"node":2,
						"path":"rotation"
					}
				},
				{
					"sampler":26,
					"target":{
						"node":2,
						"path":"scale"
					}
				},
				{
					"sampler":0,
					"target":{
						"node":1,
						"path":"translation"
					}
				},
				{
					"sampler":1,
					"target":{
						"node":1,
						"path":"rotation"
					}
				},
				{
					"sampler":2,
					"target":{
						"node":1,
						"path":"scale"
					}
				},
				{
					"sampler":3,
					"target":{
						"node":0,
						"path":"translation"
					}
				},
				{
					"sampler":4,
					"target":{
						"node":0,
						"path":"rotation"
					}
				},
				{
					"sampler":5,
					"target":{
						"node":0,
						"path":"scale"
					}
				},
				{
					"sampler":6,
					"target":{
						"node":8,
						"path":"translation"
					}
				},
				{
					"sampler":7,
					"target":{
						"node":8,
						"path":"rotation"
					}
				},
				{
					"sampler":8,
					"target":{
						"node":8,
						"path":"scale"
					}
				},
				{
					"sampler":9,
					"target":{
						"node":7,
						"path":"translation"
					}
				},
				{
					"sampler":10,
					"target":{
						"node":7,
						"path":"rotation"
					}
				},
				{
					"sampler":11,
					"target":{
						"node":7,
						"path":"scale"
					}
				},
				{
					"sampler":12,
					"target":{
						"node":6,
						"path":"translation"
					}
				},
				{
					"sampler":13,
					"target":{
						"node":6,
						"path":"rotation"
					}
				},
				{
					"sampler":14,
					"target":{
						"node":6,
						"path":"scale"
					}
				},
				{
					"sampler":15,
					"target":{
						"node":5,
						"path":"translation"
					}
				},
				{
					"sampler":16,
					"target":{
						"node":5,
						"path":"rotation"
					}
				},
				{
					"sampler":17,
					"target":{
						"node":5,
						"path":"scale"
					}
				},
				{
					"sampler":18,
					"target":{
						"node":4,
						"path":"translation"
					}
				},
				{
					"sampler":19,
					"target":{
						"node":4,
						"path":"rotation"
					}
				},
				{
					"sampler":20,
					"target":{
						"node":4,
						"path":"scale"
					}
				},
				{
					"sampler":21,
					"target":{
						"node":3,
						"path":"translation"
					}
				},
				{
					"sampler":22,
					"target":{
						"node":3,
						"path":"rotation"
					}
				},
				{
					"sampler":23,
					"target":{
						"node":3,
						"path":"scale"
					}
				},
				{
					"sampler":24,
					"target":{
						"node":2,
						"path":"translation"
					}
				},
				{
					"sampler":25,
					"target":{
						"node":2,
						"path":"rotation"
					}
				},
				{
					"sampler":26,
					"target":{
						"node":2,
						"path":"scale"
					}
				}
			],
			"name":"Idle",
			"samplers":[
				{
					"input":58,
					"interpolation":"STEP",
					"output":8
				},
				{
					"input":58,
					"interpolation":"STEP",
					"output":59
				},
				{
					"input":58,
					"interpolation":"STEP",
					"output":11
				},
				{
					"input":58,
					"interpolation":"STEP",
					"output":12
				},
				{
					"input":60,
					"interpolation":"LINEAR",
					"output":61
				},
				{
					"input":58,
					"interpolation":"STEP",
					"output":14
				},
				{
					"input":58,
					"interpolation":"STEP",
					"output":8
				},
				{
					"input":58,
					"interpolation":"STEP",
					"output":15
				},
				{
					"input":58,
					"interpolation":"STEP",
					"output":16
				},
				{
					"input":58,
					"interpolation":"STEP",
					"output":17
				},
				{
					"input":58,
					"interpolation":"STEP",
					"output":18
				},
				{
					"input":58,
					"interpolation":"STEP",
					"output":19
				},
				{
					"input":58,
					"interpolation":"STEP",
					"output":20
				},
				{
					"input":58,
					"interpolation":"STEP",
					"output":21
				},
				{
					"input":58,
					"interpolation":"STEP",
					"output":22
				},
				{
					"input":58,
					"interpolation":"STEP",
					"output":23
				},
				{
					"input":58,
					"interpolation":"STEP",
					"output":24
				},
				{
					"input":58,
					"interpolation":"STEP",
					"output":25
				},
				{
					"input":58,
					"interpolation":"STEP",
					"output":26
				},
				{
					"input":58,
					"interpolation":"STEP",
					"output":27
				},
				{
					"input":58,
					"interpolation":"STEP",
					"output":11
				},
				{
					"input":58,
					"interpolation":"STEP",
					"output":28
				},
				{
					"input":58,
					"interpolation":"STEP",
					"output":29
				},
				{
					"input":58,
					"interpolation":"STEP",
					"output":30
				},
				{
					"input":58,
					"interpolation":"STEP",
					"output":31
				},
				{
					"input":58,
					"interpolation":"STEP",
					"output":32
				},
				{
					"input":58,
					"interpolation":"STEP",
					"output":33
				}
			]
		},
		{
			"channels":[
				{
					"sampler":0,
					"target":{
						"node":1,
						"path":"translation"
					}
				},
				{
					"sampler":1,
					"target":{
						"node":1,
						"path":"rotation"
					}
				},
				{
					"sampler":2,
					"target":{
						"node":1,
						"path":"scale"
					}
				},
				{
					"sampler":3,
					"target":{
						"node":0,
						"path":"translation"
					}
				},
				{
					"sampler":4,
					"target":{
						"node":0,
						"path":"rotation"
					}
				},
				{
					"sampler":5,
					"target":{
						"node":0,
						"path":"scale"
					}
				},
				{
					"sampler":6,
					"target":{
						"node":8,
						"path":"translation"
					}
				},
				{
					"sampler":7,
					"target":{
						"node":8,
						"path":"rotation"
					}
				},
				{
					"sampler":8,
					"target":{
						"node":8,
						"path":"scale"
					}
				},
				{
					"sampler":9,
					"target":{
						"node":7,
						"path":"translation"
					}
				},
				{
					"sampler":10,
					"target":{
						"node":7,
						"path":"rotation"
					}
				},
				{
					"sampler":11,
					"target":{
						"node":7,
						"path":"scale"
					}
				},
				{
					"sampler":12,
					"target":{
						"node":6,
						"path":"translation"
					}
				},
				{
					"sampler":13,
					"target":{
						"node":6,
						"path":"rotation"
					}
				},
				{
					"sampler":14,
					"target":{
						"node":6,
						"path":"scale"
					}
				},
				{
					"sampler":15,
					"target":{
						"node":5,
						"path":"translation"
					}
				},
				{
					"sampler":16,
					"target":{
						"node":5,
						"path":"rotation"
					}
				},
				{
					"sampler":17,
					"target":{
						"node":5,
						"path":"scale"
					}
				},
				{
					"sampler":18,
					"target":{
						"node":4,
						"path":"translation"
					}
				},
				{
					"sampler":19,
					"target":{
						"node":4,
						"path":"rotation"
					}
				},
				{
					"sampler":20,
					"target":{
						"node":4,
						"path":"scale"
					}
				},
				{
					"sampler":21,
					"target":{
						"node":3,
						"path":"translation"
					}
				},
				{
					"sampler":22,
					"target":{
						"node":3,
						"path":"rotation"
					}
				},
				{
					"sampler":23,
					"target":{
						"node":3,
						"path":"scale"
					}
				},
				{
					"sampler":24,
					"target":{
						"node":2,
						"path":"translation"
					}
				},
				{
					"sampler":25,
					"target":{
						"node":2,
						"path":"rotation"
					}
				},
				{
					"sampler":26,
					"target":{
						"node":2,
						"path":"scale"
					}
				}
			],
			"name":"Walk",
			"samplers":[
				{
					"input":62,
					"interpolation":"STEP",
					"output":63
				},
				{
					"input":64,
					"interpolation":"LINEAR",
					"output":65
				},
				{
					"input":62,
					"interpolation":"STEP",
					"output":66
				},
				{
					"input":62,
					"interpolation":"STEP",
					"output":67
				},
				{
					"input":62,
					"interpolation":"STEP",
					"output":68
				},
				{
					"input":62,
					"interpolation":"STEP",
					"output":14
				},
				{
					"input":62,
					"interpolation":"STEP",
					"output":8
				},
				{
					"input":62,
					"interpolation":"STEP",
					"output":15
				},
				{
					"input":62,
					"interpolation":"STEP",
					"output":16
				},
				{
					"input":62,
					"interpolation":"STEP",
					"output":17
				},
				{
					"input":62,
					"interpolation":"STEP",
					"output":18
				},
				{
					"input":62,
					"interpolation":"STEP",
					"output":19
				},
				{
					"input":62,
					"interpolation":"STEP",
					"output":20
				},
				{
					"input":64,
					"interpolation":"LINEAR",
					"output":69
				},
				{
					"input":62,
					"interpolation":"STEP",
					"output":22
				},
				{
					"input":62,
					"interpolation":"STEP",
					"output":23
				},
				{
					"input":64,
					"interpolation":"LINEAR",
					"output":70
				},
				{
					"input":62,
					"interpolation":"STEP",
					"output":71
				},
				{
					"input":62,
					"interpolation":"STEP",
					"output":72
				},
				{
					"input":62,
					"interpolation":"STEP",
					"output":73
				},
				{
					"input":62,
					"interpolation":"STEP",
					"output":74
				},
				{
					"input":62,
					"interpolation":"STEP",
					"output":75
				},
				{
					"input":62,
					"interpolation":"STEP",
					"output":76
				},
				{
					"input":62,
					"interpolation":"STEP",
					"output":33
				},
				{
					"input":62,
					"interpolation":"STEP",
					"output":77
				},
				{
					"input":62,
					"interpolation":"STEP",
					"output":78
				},
				{
					"input":62,
					"interpolation":"STEP",
					"output":79
				}
			]
		}
	],
	"materials":[
		{
			"name":"tripo_material_6e837e3b-50e6-4f68-8f58-718c8f50a2eb",
			"normalTexture":{
				"index":0
			},
			"pbrMetallicRoughness":{
				"baseColorTexture":{
					"index":1
				},
				"metallicRoughnessTexture":{
					"index":2
				}
			}
		}
	],
	"meshes":[
		{
			"name":"tripo_mesh_6e837e3b-50e6-4f68-8f58-718c8f50a2eb",
			"primitives":[
				{
					"attributes":{
						"POSITION":0,
						"NORMAL":1,
						"TEXCOORD_0":2,
						"JOINTS_0":3,
						"WEIGHTS_0":4
					},
					"indices":5,
					"material":0
				}
			]
		}
	],
	"textures":[
		{
			"sampler":0,
			"source":0
		},
		{
			"sampler":0,
			"source":1
		},
		{
			"sampler":0,
			"source":2
		}
	],
	"images":[
		{
			"mimeType":"image/jpeg",
			"name":"NormalGL_6e837e3b-50e6-4f68-8f58-718c8f50a2eb",
			"uri":"NormalGL_6e837e3b-50e6-4f68-8f58-718c8f50a2eb.jpg"
		},
		{
			"mimeType":"image/jpeg",
			"name":"Color_6e837e3b-50e6-4f68-8f58-718c8f50a2eb",
			"uri":"Color_6e837e3b-50e6-4f68-8f58-718c8f50a2eb.jpg"
		},
		{
			"mimeType":"image/jpeg",
			"name":"ORM_6e837e3b-50e6-4f68-8f58-718c8f50a2eb",
			"uri":"ORM_6e837e3b-50e6-4f68-8f58-718c8f50a2eb.jpg"
		}
	],
	"skins":[
		{
			"inverseBindMatrices":6,
			"joints":[
				1,
				0,
				8,
				7,
				6,
				5,
				4,
				3,
				2
			],
			"name":"Armature"
		}
	],
	"accessors":[
		{
			"bufferView":0,
			"componentType":5126,
			"count":7108,
			"max":[
				0.9891054034233093,
				1.6161799430847168,
				0.3574640154838562
			],
			"min":[
				-2.5375843048095703,
				-1.8516607284545898,
				-0.7870504856109619
			],
			"type":"VEC3"
		},
		{
			"bufferView":1,
			"componentType":5126,
			"count":7108,
			"type":"VEC3"
		},
		{
			"bufferView":2,
			"componentType":5126,
			"count":7108,
			"type":"VEC2"
		},
		{
			"bufferView":3,
			"componentType":5121,
			"count":7108,
			"type":"VEC4"
		},
		{
			"bufferView":4,
			"componentType":5126,
			"count":7108,
			"type":"VEC4"
		},
		{
			"bufferView":5,
			"componentType":5123,
			"count":28422,
			"type":"SCALAR"
		},
		{
			"bufferView":6,
			"componentType":5126,
			"count":9,
			"type":"MAT4"
		},
		{
			"bufferView":7,
			"componentType":5126,
			"count":2,
			"max":[
				0.375
			],
			"min":[
				0
			],
			"type":"SCALAR"
		},
		{
			"bufferView":8,
			"componentType":5126,
			"count":2,
			"type":"VEC3"
		},
		{
			"bufferView":9,
			"componentType":5126,
			"count":10,
			"max":[
				0.375
			],
			"min":[
				0
			],
			"type":"SCALAR"
		},
		{
			"bufferView":10,
			"componentType":5126,
			"count":10,
			"type":"VEC4"
		},
		{
			"bufferView":11,
			"componentType":5126,
			"count":2,
			"type":"VEC3"
		},
		{
			"bufferView":12,
			"componentType":5126,
			"count":2,
			"type":"VEC3"
		},
		{
			"bufferView":13,
			"componentType":5126,
			"count":10,
			"type":"VEC4"
		},
		{
			"bufferView":14,
			"componentType":5126,
			"count":2,
			"type":"VEC3"
		},
		{
			"bufferView":15,
			"componentType":5126,
			"count":2,
			"type":"VEC4"
		},
		{
			"bufferView":16,
			"componentType":5126,
			"count":2,
			"type":"VEC3"
		},
		{
			"bufferView":17,
			"componentType":5126,
			"count":2,
			"type":"VEC3"
		},
		{
			"bufferView":18,
			"componentType":5126,
			"count":2,
			"type":"VEC4"
		},
		{
			"bufferView":19,
			"componentType":5126,
			"count":2,
			"type":"VEC3"
		},
		{
			"bufferView":20,
			"componentType":5126,
			"count":2,
			"type":"VEC3"
		},
		{
			"bufferView":21,
			"componentType":5126,
			"count":2,
			"type":"VEC4"
		},
		{
			"bufferView":22,
			"componentType":5126,
			"count":2,
			"type":"VEC3"
		},
		{
			"bufferView":23,
			"componentType":5126,
			"count":2,
			"type":"VEC3"
		},
		{
			"bufferView":24,
			"componentType":5126,
			"count":2,
			"type":"VEC4"
		},
		{
			"bufferView":25,
			"componentType":5126,
			"count":2,
			"type":"VEC3"
		},
		{
			"bufferView":26,
			"componentType":5126,
			"count":2,
			"type":"VEC3"
		},
		{
			"bufferView":27,
			"componentType":5126,
			"count":2,
			"type":"VEC4"
		},
		{
			"bufferView":28,
			"componentType":5126,
			"count":2,
			"type":"VEC3"
		},
		{
			"bufferView":29,
			"componentType":5126,
			"count":2,
			"type":"VEC4"
		},
		{
			"bufferView":30,
			"componentType":5126,
			"count":2,
			"type":"VEC3"
		},
		{
			"bufferView":31,
			"componentType":5126,
			"count":2,
			"type":"VEC3"
		},
		{
			"bufferView":32,
			"componentType":5126,
			"count":2,
			"type":"VEC4"
		},
		{
			"bufferView":33,
			"componentType":5126,
			"count":2,
			"type":"VEC3"
		},
		{
			"bufferView":34,
			"componentType":5126,
			"count":2,
			"max":[
				0.16666666666666666
			],
			"min":[
				0
			],
			"type":"SCALAR"
		},
		{
			"bufferView":35,
			"componentType":5126,
			"count":2,
			"type":"VEC3"
		},
		{
			"bufferView":36,
			"componentType":5126,
			"count":5,
			"max":[
				0.16666666666666666
			],
			"min":[
				0
			],
			"type":"SCALAR"
		},
		{
			"bufferView":37,
			"componentType":5126,
			"count":5,
			"type":"VEC4"
		},
		{
			"bufferView":38,
			"componentType":5126,
			"count":2,
			"type":"VEC3"
		},
		{
			"bufferView":39,
			"componentType":5126,
			"count":2,
			"type":"VEC3"
		},
		{
			"bufferView":40,
			"componentType":5126,
			"count":5,
			"type":"VEC4"
		},
		{
			"bufferView":41,
			"componentType":5126,
			"count":2,
			"type":"VEC3"
		},
		{
			"bufferView":42,
			"componentType":5126,
			"count":5,
			"type":"VEC4"
		},
		{
			"bufferView":43,
			"componentType":5126,
			"count":2,
			"type":"VEC3"
		},
		{
			"bufferView":44,
			"componentType":5126,
			"count":2,
			"type":"VEC3"
		},
		{
			"bufferView":45,
			"componentType":5126,
			"count":5,
			"type":"VEC4"
		},
		{
			"bufferView":46,
			"componentType":5126,
			"count":2,
			"type":"VEC3"
		},
		{
			"bufferView":47,
			"componentType":5126,
			"count":2,
			"type":"VEC3"
		},
		{
			"bufferView":48,
			"componentType":5126,
			"count":5,
			"type":"VEC4"
		},
		{
			"bufferView":49,
			"componentType":5126,
			"count":2,
			"type":"VEC3"
		},
		{
			"bufferView":50,
			"componentType":5126,
			"count":2,
			"type":"VEC3"
		},
		{
			"bufferView":51,
			"componentType":5126,
			"count":2,
			"type":"VEC4"
		},
		{
			"bufferView":52,
			"componentType":5126,
			"count":2,
			"type":"VEC3"
		},
		{
			"bufferView":53,
			"componentType":5126,
			"count":2,
			"type":"VEC3"
		},
		{
			"bufferView":54,
			"componentType":5126,
			"count":2,
			"type":"VEC4"
		},
		{
			"bufferView":55,
			"componentType":5126,
			"count":2,
			"type":"VEC3"
		},
		{
			"bufferView":56,
			"componentType":5126,
			"count":2,
			"type":"VEC3"
		},
		{
			"bufferView":57,
			"componentType":5126,
			"count":2,
			"type":"VEC3"
		},
		{
			"bufferView":58,
			"componentType":5126,
			"count":2,
			"max":[
				0.4166666666666667
			],
			"min":[
				0
			],
			"type":"SCALAR"
		},
		{
			"bufferView":59,
			"componentType":5126,
			"count":2,
			"type":"VEC4"
		},
		{
			"bufferView":60,
			"componentType":5126,
			"count":11,
			"max":[
				0.4166666666666667
			],
			"min":[
				0
			],
			"type":"SCALAR"
		},
		{
			"bufferView":61,
			"componentType":5126,
			"count":11,
			"type":"VEC4"
		},
		{
			"bufferView":62,
			"componentType":5126,
			"count":2,
			"max":[
				0.4583333333333333
			],
			"min":[
				0
			],
			"type":"SCALAR"
		},
		{
			"bufferView":63,
			"componentType":5126,
			"count":2,
			"type":"VEC3"
		},
		{
			"bufferView":64,
			"componentType":5126,
			"count":12,
			"max":[
				0.4583333333333333
			],
			"min":[
				0
			],
			"type":"SCALAR"
		},
		{
			"bufferView":65,
			"componentType":5126,
			"count":12,
			"type":"VEC4"
		},
		{
			"bufferView":66,
			"componentType":5126,
			"count":2,
			"type":"VEC3"
		},
		{
			"bufferView":67,
			"componentType":5126,
			"count":2,
			"type":"VEC3"
		},
		{
			"bufferView":68,
			"componentType":5126,
			"count":2,
			"type":"VEC4"
		},
		{
			"bufferView":69,
			"componentType":5126,
			"count":12,
			"type":"VEC4"
		},
		{
			"bufferView":70,
			"componentType":5126,
			"count":12,
			"type":"VEC4"
		},
		{
			"bufferView":71,
			"componentType":5126,
			"count":2,
			"type":"VEC3"
		},
		{
			"bufferView":72,
			"componentType":5126,
			"count":2,
			"type":"VEC3"
		},
		{
			"bufferView":73,
			"componentType":5126,
			"count":2,
			"type":"VEC4"
		},
		{
			"bufferView":74,
			"componentType":5126,
			"count":2,
			"type":"VEC3"
		},
		{
			"bufferView":75,
			"componentType":5126,
			"count":2,
			"type":"VEC3"
		},
		{
			"bufferView":76,
			"componentType":5126,
			"count":2,
			"type":"VEC4"
		},
		{
			"bufferView":77,
			"componentType":5126,
			"count":2,
			"type":"VEC3"
		},
		{
			"bufferView":78,
			"componentType":5126,
			"count":2,
			"type":"VEC4"
		},
		{
			"bufferView":79,
			"componentType":5126,
			"count":2,
			"type":"VEC3"
		}
	],
	"bufferViews":[
		{
			"buffer":0,
			"byteLength":85296,
			"byteOffset":0,
			"target":34962
		},
		{
			"buffer":0,
			"byteLength":85296,
			"byteOffset":85296,
			"target":34962
		},
		{
			"buffer":0,
			"byteLength":56864,
			"byteOffset":170592,
			"target":34962
		},
		{
			"buffer":0,
			"byteLength":28432,
			"byteOffset":227456,
			"target":34962
		},
		{
			"buffer":0,
			"byteLength":113728,
			"byteOffset":255888,
			"target":34962
		},
		{
			"buffer":0,
			"byteLength":56844,
			"byteOffset":369616,
			"target":34963
		},
		{
			"buffer":0,
			"byteLength":576,
			"byteOffset":426460
		},
		{
			"buffer":0,
			"byteLength":8,
			"byteOffset":427036
		},
		{
			"buffer":0,
			"byteLength":24,
			"byteOffset":427044
		},
		{
			"buffer":0,
			"byteLength":40,
			"byteOffset":427068
		},
		{
			"buffer":0,
			"byteLength":160,
			"byteOffset":427108
		},
		{
			"buffer":0,
			"byteLength":24,
			"byteOffset":427268
		},
		{
			"buffer":0,
			"byteLength":24,
			"byteOffset":427292
		},
		{
			"buffer":0,
			"byteLength":160,
			"byteOffset":427316
		},
		{
			"buffer":0,
			"byteLength":24,
			"byteOffset":427476
		},
		{
			"buffer":0,
			"byteLength":32,
			"byteOffset":427500
		},
		{
			"buffer":0,
			"byteLength":24,
			"byteOffset":427532
		},
		{
			"buffer":0,
			"byteLength":24,
			"byteOffset":427556
		},
		{
			"buffer":0,
			"byteLength":32,
			"byteOffset":427580
		},
		{
			"buffer":0,
			"byteLength":24,
			"byteOffset":427612
		},
		{
			"buffer":0,
			"byteLength":24,
			"byteOffset":427636
		},
		{
			"buffer":0,
			"byteLength":32,
			"byteOffset":427660
		},
		{
			"buffer":0,
			"byteLength":24,
			"byteOffset":427692
		},
		{
			"buffer":0,
			"byteLength":24,
			"byteOffset":427716
		},
		{
			"buffer":0,
			"byteLength":32,
			"byteOffset":427740
		},
		{
			"buffer":0,
			"byteLength":24,
			"byteOffset":427772
		},
		{
			"buffer":0,
			"byteLength":24,
			"byteOffset":427796
		},
		{
			"buffer":0,
			"byteLength":32,
			"byteOffset":427820
		},
		{
			"buffer":0,
			"byteLength":24,
			"byteOffset":427852
		},
		{
			"buffer":0,
			"byteLength":32,
			"byteOffset":427876
		},
		{
			"buffer":0,
			"byteLength":24,
			"byteOffset":427908
		},
		{
			"buffer":0,
			"byteLength":24,
			"byteOffset":427932
		},
		{
			"buffer":0,
			"byteLength":32,
			"byteOffset":427956
		},
		{
			"buffer":0,
			"byteLength":24,
			"byteOffset":427988
		},
		{
			"buffer":0,
			"byteLength":8,
			"byteOffset":428012
		},
		{
			"buffer":0,
			"byteLength":24,
			"byteOffset":428020
		},
		{
			"buffer":0,
			"byteLength":20,
			"byteOffset":428044
		},
		{
			"buffer":0,
			"byteLength":80,
			"byteOffset":428064
		},
		{
			"buffer":0,
			"byteLength":24,
			"byteOffset":428144
		},
		{
			"buffer":0,
			"byteLength":24,
			"byteOffset":428168
		},
		{
			"buffer":0,
			"byteLength":80,
			"byteOffset":428192
		},
		{
			"buffer":0,
			"byteLength":24,
			"byteOffset":428272
		},
		{
			"buffer":0,
			"byteLength":80,
			"byteOffset":428296
		},
		{
			"buffer":0,
			"byteLength":24,
			"byteOffset":428376
		},
		{
			"buffer":0,
			"byteLength":24,
			"byteOffset":428400
		},
		{
			"buffer":0,
			"byteLength":80,
			"byteOffset":428424
		},
		{
			"buffer":0,
			"byteLength":24,
			"byteOffset":428504
		},
		{
			"buffer":0,
			"byteLength":24,
			"byteOffset":428528
		},
		{
			"buffer":0,
			"byteLength":80,
			"byteOffset":428552
		},
		{
			"buffer":0,
			"byteLength":24,
			"byteOffset":428632
		},
		{
			"buffer":0,
			"byteLength":24,
			"byteOffset":428656
		},
		{
			"buffer":0,
			"byteLength":32,
			"byteOffset":428680
		},
		{
			"buffer":0,
			"byteLength":24,
			"byteOffset":428712
		},
		{
			"buffer":0,
			"byteLength":24,
			"byteOffset":428736
		},
		{
			"buffer":0,
			"byteLength":32,
			"byteOffset":428760
		},
		{
			"buffer":0,
			"byteLength":24,
			"byteOffset":428792
		},
		{
			"buffer":0,
			"byteLength":24,
			"byteOffset":428816
		},
		{
			"buffer":0,
			"byteLength":24,
			"byteOffset":428840
		},
		{
			"buffer":0,
			"byteLength":8,
			"byteOffset":428864
		},
		{
			"buffer":0,
			"byteLength":32,
			"byteOffset":428872
		},
		{
			"buffer":0,
			"byteLength":44,
			"byteOffset":428904
		},
		{
			"buffer":0,
			"byteLength":176,
			"byteOffset":428948
		},
		{
			"buffer":0,
			"byteLength":8,
			"byteOffset":429124
		},
		{
			"buffer":0,
			"byteLength":24,
			"byteOffset":429132
		},
		{
			"buffer":0,
			"byteLength":48,
			"byteOffset":429156
		},
		{
			"buffer":0,
			"byteLength":192,
			"byteOffset":429204
		},
		{
			"buffer":0,
			"byteLength":24,
			"byteOffset":429396
		},
		{
			"buffer":0,
			"byteLength":24,
			"byteOffset":429420
		},
		{
			"buffer":0,
			"byteLength":32,
			"byteOffset":429444
		},
		{
			"buffer":0,
			"byteLength":192,
			"byteOffset":429476
		},
		{
			"buffer":0,
			"byteLength":192,
			"byteOffset":429668
		},
		{
			"buffer":0,
			"byteLength":24,
			"byteOffset":429860
		},
		{
			"buffer":0,
			"byteLength":24,
			"byteOffset":429884
		},
		{
			"buffer":0,
			"byteLength":32,
			"byteOffset":429908
		},
		{
			"buffer":0,
			"byteLength":24,
			"byteOffset":429940
		},
		{
			"buffer":0,
			"byteLength":24,
			"byteOffset":429964
		},
		{
			"buffer":0,
			"byteLength":32,
			"byteOffset":429988
		},
		{
			"buffer":0,
			"byteLength":24,
			"byteOffset":430020
		},
		{
			"buffer":0,
			"byteLength":32,
			"byteOffset":430044
		},
		{
			"buffer":0,
			"byteLength":24,
			"byteOffset":430076
		}
	],
	"samplers":[
		{
			"magFilter":9729,
			"minFilter":9987
		}
	],
	"buffers":[
		{
			"byteLength":430100,
			"uri":"wormboss.bin"
		}
	]
}
