{
	"asset":{
		"generator":"Khronos glTF Blender I/O v5.2.39",
		"version":"2.0"
	},
	"scene":0,
	"scenes":[
		{
			"name":"Scene",
			"nodes":[
				0
			]
		}
	],
	"nodes":[
		{
			"mesh":0,
			"name":"tripo_node_cf5ec07a-ea23-470b-b855-71803a08fb5c",
			"translation":[
				0,
				0.5053133964538574,
				0
			]
		}
	],
	"materials":[
		{
			"name":"tripo_material_cf5ec07a-ea23-470b-b855-71803a08fb5c",
			"normalTexture":{
				"index":0
			},
			"pbrMetallicRoughness":{
				"baseColorTexture":{
					"index":1
				},
				"metallicRoughnessTexture":{
					"index":2
				}
			}
		}
	],
	"meshes":[
		{
			"name":"tripo_mesh_cf5ec07a-ea23-470b-b855-71803a08fb5c",
			"primitives":[
				{
					"attributes":{
						"POSITION":0,
						"NORMAL":1,
						"TEXCOORD_0":2
					},
					"indices":3,
					"material":0
				}
			]
		}
	],
	"textures":[
		{
			"sampler":0,
			"source":0
		},
		{
			"sampler":0,
			"source":1
		},
		{
			"sampler":0,
			"source":2
		}
	],
	"images":[
		{
			"mimeType":"image/jpeg",
			"name":"NormalGL_cf5ec07a-ea23-470b-b855-71803a08fb5c",
			"uri":"NormalGL_cf5ec07a-ea23-470b-b855-71803a08fb5c.jpg"
		},
		{
			"mimeType":"image/jpeg",
			"name":"Color_cf5ec07a-ea23-470b-b855-71803a08fb5c",
			"uri":"Color_cf5ec07a-ea23-470b-b855-71803a08fb5c.jpg"
		},
		{
			"mimeType":"image/jpeg",
			"name":"ORM_cf5ec07a-ea23-470b-b855-71803a08fb5c",
			"uri":"ORM_cf5ec07a-ea23-470b-b855-71803a08fb5c.jpg"
		}
	],
	"accessors":[
		{
			"bufferView":0,
			"componentType":5126,
			"count":7298,
			"max":[
				0.23532404005527496,
				0.5,
				0.3266957402229309
			],
			"min":[
				-0.23532404005527496,
				-0.5,
				-0.3266957402229309
			],
			"type":"VEC3"
		},
		{
			"bufferView":1,
			"componentType":5126,
			"count":7298,
			"type":"VEC3"
		},
		{
			"bufferView":2,
			"componentType":5126,
			"count":7298,
			"type":"VEC2"
		},
		{
			"bufferView":3,
			"componentType":5123,
			"count":28200,
			"type":"SCALAR"
		}
	],
	"bufferViews":[
		{
			"buffer":0,
			"byteLength":87576,
			"byteOffset":0,
			"target":34962
		},
		{
			"buffer":0,
			"byteLength":87576,
			"byteOffset":87576,
			"target":34962
		},
		{
			"buffer":0,
			"byteLength":58384,
			"byteOffset":175152,
			"target":34962
		},
		{
			"buffer":0,
			"byteLength":56400,
			"byteOffset":233536,
			"target":34963
		}
	],
	"samplers":[
		{
			"magFilter":9729,
			"minFilter":9987
		}
	],
	"buffers":[
		{
			"byteLength":289936,
			"uri":"auction.bin"
		}
	]
}
