{
	"asset":{
		"generator":"Khronos glTF Blender I/O v5.2.39",
		"version":"2.0"
	},
	"scene":0,
	"scenes":[
		{
			"name":"Scene",
			"nodes":[
				18
			]
		}
	],
	"nodes":[
		{
			"name":"Bone_003",
			"rotation":[
				2.2351702710921018e-08,
				-4.79595669844457e-08,
				-1.341104507446289e-07,
				1
			],
			"scale":[
				1,
				1,
				1.0000001192092896
			],
			"translation":[
				-3.8861429629832855e-09,
				0.0742444321513176,
				8.591985078965081e-08
			]
		},
		{
			"children":[
				0
			],
			"name":"Bone_004",
			"rotation":[
				-0.42451611161231995,
				-0.6868815422058105,
				-0.5017973780632019,
				0.31012776494026184
			],
			"scale":[
				1,
				1.0000003576278687,
				1.0000001192092896
			],
			"translation":[
				6.5413239269673795e-09,
				0.3276192545890808,
				-2.1812370576412832e-08
			]
		},
		{
			"name":"Bone_005",
			"rotation":[
				-1.825392246246338e-07,
				-1.7508864402770996e-07,
				9.126961941774425e-08,
				1
			],
			"scale":[
				0.9999999403953552,
				1,
				1
			],
			"translation":[
				-4.842877388000488e-08,
				0.016266150400042534,
				1.1920928955078125e-07
			]
		},
		{
			"children":[
				2
			],
			"name":"Bone_006",
			"rotation":[
				-0.5340734124183655,
				-0.3928532898426056,
				-0.28699713945388794,
				0.691422164440155
			],
			"scale":[
				0.9999999403953552,
				1,
				0.9999999403953552
			],
			"translation":[
				0.13945314288139343,
				0.24860823154449463,
				-0.22572605311870575
			]
		},
		{
			"name":"Bone_007",
			"rotation":[
				1.3411047916633834e-07,
				-2.0975313930193806e-08,
				2.0861622829215776e-07,
				1
			],
			"scale":[
				1.0000001192092896,
				1,
				1
			],
			"translation":[
				1.698302121155848e-08,
				0.02817382663488388,
				5.890854026802117e-08
			]
		},
		{
			"children":[
				4
			],
			"name":"Bone_008",
			"rotation":[
				-0.7460121512413025,
				0.30900806188583374,
				0.22574420273303986,
				0.5449949502944946
			],
			"scale":[
				1,
				1.0000001192092896,
				1
			],
			"translation":[
				-0.13945308327674866,
				0.22236108779907227,
				-0.3079673945903778
			]
		},
		{
			"name":"Bone_009",
			"rotation":[
				-2.7008356440205716e-08,
				-2.9802322387695312e-08,
				-1.1920930376163597e-07,
				1
			],
			"scale":[
				0.9999999403953552,
				0.9999998807907104,
				1
			],
			"translation":[
				1.4901161193847656e-08,
				0.042520664632320404,
				9.313225746154785e-08
			]
		},
		{
			"children":[
				6
			],
			"name":"Bone_010",
			"rotation":[
				-0.39492103457450867,
				-0.6451939940452576,
				-0.4713429808616638,
				0.45342904329299927
			],
			"translation":[
				0.2324218600988388,
				0.332060843706131,
				0.14496548473834991
			]
		},
		{
			"name":"Bone_011",
			"rotation":[
				-6.332993507385254e-08,
				5.401671288041143e-08,
				-1.9790606931024968e-09,
				1
			],
			"scale":[
				0.9999999403953552,
				0.9999999403953552,
				1
			],
			"translation":[
				0,
				0.06299842894077301,
				2.60770320892334e-08
			]
		},
		{
			"children":[
				8
			],
			"name":"Bone_012",
			"rotation":[
				-0.6699917316436768,
				0.3896350860595703,
				0.2846456468105316,
				0.5641564726829529
			],
			"scale":[
				1,
				1.0000001192092896,
				1.0000001192092896
			],
			"translation":[
				-0.2257811725139618,
				0.19072967767715454,
				-0.29787227511405945
			]
		},
		{
			"name":"Bone_013",
			"rotation":[
				-5.21540641784668e-07,
				1.2817176298085542e-07,
				-1.2053376417624218e-13,
				1
			],
			"translation":[
				2.2521007281284255e-10,
				0.04199919104576111,
				-1.0388694704488444e-07
			]
		},
		{
			"children":[
				10
			],
			"name":"Bone_014",
			"rotation":[
				0.452938050031662,
				-1.8640530896618657e-08,
				7.69631327557363e-08,
				0.8915420174598694
			],
			"translation":[
				-1.0824301455159002e-07,
				0.18803775310516357,
				0.5673437118530273
			]
		},
		{
			"name":"Bone_015",
			"rotation":[
				-2.514571129097476e-08,
				-6.029275745333962e-09,
				-5.337729736020532e-15,
				1
			],
			"scale":[
				1,
				1,
				0.9999999403953552
			],
			"translation":[
				-1.0435652342266621e-10,
				0.6380529403686523,
				9.334284811757243e-08
			]
		},
		{
			"children":[
				12
			],
			"name":"Bone_016",
			"rotation":[
				-0.17439040541648865,
				-5.726988661081123e-08,
				-2.3135832805110113e-08,
				0.9846765995025635
			],
			"translation":[
				1.220770258214543e-07,
				0.046033501625061035,
				-0.6420472860336304
			]
		},
		{
			"children":[
				1,
				3,
				5,
				7,
				9,
				11,
				13
			],
			"name":"Bone_001",
			"rotation":[
				0.15385182201862335,
				6.908229721602765e-08,
				1.8602735352146738e-08,
				0.988093912601471
			],
			"translation":[
				1.993755993634494e-10,
				0.1460937261581421,
				1.182801412369372e-08
			]
		},
		{
			"children":[
				14
			],
			"name":"Bone_002",
			"rotation":[
				-1.3032986245775646e-08,
				1.3032987133954066e-08,
				-4.948058369625059e-16,
				1
			],
			"translation":[
				3.538523987711706e-11,
				0.2988280951976776,
				9.425090041759177e-09
			]
		},
		{
			"children":[
				15
			],
			"name":"Bone_000",
			"rotation":[
				-6.2331664274495324e-09,
				1.2466332854899065e-08,
				-1.5540943617193176e-16,
				1
			],
			"translation":[
				0.0028264757711440325,
				0.07636719197034836,
				0.09196454286575317
			]
		},
		{
			"mesh":0,
			"name":"Mesh0",
			"skin":0
		},
		{
			"children":[
				17,
				16
			],
			"name":"UniRigArmature",
			"scale":[
				1.861553430557251,
				1.861553430557251,
				1.861553430557251
			]
		}
	],
	"animations":[
		{
			"channels":[
				{
					"sampler":0,
					"target":{
						"node":16,
						"path":"translation"
					}
				},
				{
					"sampler":1,
					"target":{
						"node":16,
						"path":"rotation"
					}
				},
				{
					"sampler":2,
					"target":{
						"node":16,
						"path":"scale"
					}
				},
				{
					"sampler":3,
					"target":{
						"node":15,
						"path":"translation"
					}
				},
				{
					"sampler":4,
					"target":{
						"node":15,
						"path":"rotation"
					}
				},
				{
					"sampler":5,
					"target":{
						"node":15,
						"path":"scale"
					}
				},
				{
					"sampler":6,
					"target":{
						"node":14,
						"path":"translation"
					}
				},
				{
					"sampler":7,
					"target":{
						"node":14,
						"path":"rotation"
					}
				},
				{
					"sampler":8,
					"target":{
						"node":14,
						"path":"scale"
					}
				},
				{
					"sampler":9,
					"target":{
						"node":1,
						"path":"translation"
					}
				},
				{
					"sampler":10,
					"target":{
						"node":1,
						"path":"rotation"
					}
				},
				{
					"sampler":11,
					"target":{
						"node":1,
						"path":"scale"
					}
				},
				{
					"sampler":12,
					"target":{
						"node":0,
						"path":"translation"
					}
				},
				{
					"sampler":13,
					"target":{
						"node":0,
						"path":"rotation"
					}
				},
				{
					"sampler":14,
					"target":{
						"node":0,
						"path":"scale"
					}
				},
				{
					"sampler":15,
					"target":{
						"node":3,
						"path":"translation"
					}
				},
				{
					"sampler":16,
					"target":{
						"node":3,
						"path":"rotation"
					}
				},
				{
					"sampler":17,
					"target":{
						"node":3,
						"path":"scale"
					}
				},
				{
					"sampler":18,
					"target":{
						"node":2,
						"path":"translation"
					}
				},
				{
					"sampler":19,
					"target":{
						"node":2,
						"path":"rotation"
					}
				},
				{
					"sampler":20,
					"target":{
						"node":2,
						"path":"scale"
					}
				},
				{
					"sampler":21,
					"target":{
						"node":5,
						"path":"translation"
					}
				},
				{
					"sampler":22,
					"target":{
						"node":5,
						"path":"rotation"
					}
				},
				{
					"sampler":23,
					"target":{
						"node":5,
						"path":"scale"
					}
				},
				{
					"sampler":24,
					"target":{
						"node":4,
						"path":"translation"
					}
				},
				{
					"sampler":25,
					"target":{
						"node":4,
						"path":"rotation"
					}
				},
				{
					"sampler":26,
					"target":{
						"node":4,
						"path":"scale"
					}
				},
				{
					"sampler":27,
					"target":{
						"node":7,
						"path":"translation"
					}
				},
				{
					"sampler":28,
					"target":{
						"node":7,
						"path":"rotation"
					}
				},
				{
					"sampler":29,
					"target":{
						"node":7,
						"path":"scale"
					}
				},
				{
					"sampler":30,
					"target":{
						"node":6,
						"path":"translation"
					}
				},
				{
					"sampler":31,
					"target":{
						"node":6,
						"path":"rotation"
					}
				},
				{
					"sampler":32,
					"target":{
						"node":6,
						"path":"scale"
					}
				},
				{
					"sampler":33,
					"target":{
						"node":9,
						"path":"translation"
					}
				},
				{
					"sampler":34,
					"target":{
						"node":9,
						"path":"rotation"
					}
				},
				{
					"sampler":35,
					"target":{
						"node":9,
						"path":"scale"
					}
				},
				{
					"sampler":36,
					"target":{
						"node":8,
						"path":"translation"
					}
				},
				{
					"sampler":37,
					"target":{
						"node":8,
						"path":"rotation"
					}
				},
				{
					"sampler":38,
					"target":{
						"node":8,
						"path":"scale"
					}
				},
				{
					"sampler":39,
					"target":{
						"node":11,
						"path":"translation"
					}
				},
				{
					"sampler":40,
					"target":{
						"node":11,
						"path":"rotation"
					}
				},
				{
					"sampler":41,
					"target":{
						"node":11,
						"path":"scale"
					}
				},
				{
					"sampler":42,
					"target":{
						"node":10,
						"path":"translation"
					}
				},
				{
					"sampler":43,
					"target":{
						"node":10,
						"path":"rotation"
					}
				},
				{
					"sampler":44,
					"target":{
						"node":10,
						"path":"scale"
					}
				},
				{
					"sampler":45,
					"target":{
						"node":13,
						"path":"translation"
					}
				},
				{
					"sampler":46,
					"target":{
						"node":13,
						"path":"rotation"
					}
				},
				{
					"sampler":47,
					"target":{
						"node":13,
						"path":"scale"
					}
				},
				{
					"sampler":48,
					"target":{
						"node":12,
						"path":"translation"
					}
				},
				{
					"sampler":49,
					"target":{
						"node":12,
						"path":"rotation"
					}
				},
				{
					"sampler":50,
					"target":{
						"node":12,
						"path":"scale"
					}
				}
			],
			"name":"Close",
			"samplers":[
				{
					"input":7,
					"interpolation":"STEP",
					"output":8
				},
				{
					"input":7,
					"interpolation":"STEP",
					"output":9
				},
				{
					"input":7,
					"interpolation":"STEP",
					"output":10
				},
				{
					"input":7,
					"interpolation":"STEP",
					"output":11
				},
				{
					"input":7,
					"interpolation":"STEP",
					"output":12
				},
				{
					"input":7,
					"interpolation":"STEP",
					"output":10
				},
				{
					"input":7,
					"interpolation":"STEP",
					"output":13
				},
				{
					"input":7,
					"interpolation":"STEP",
					"output":14
				},
				{
					"input":7,
					"interpolation":"STEP",
					"output":15
				},
				{
					"input":7,
					"interpolation":"STEP",
					"output":16
				},
				{
					"input":7,
					"interpolation":"STEP",
					"output":17
				},
				{
					"input":7,
					"interpolation":"STEP",
					"output":18
				},
				{
					"input":7,
					"interpolation":"STEP",
					"output":19
				},
				{
					"input":7,
					"interpolation":"STEP",
					"output":20
				},
				{
					"input":7,
					"interpolation":"STEP",
					"output":21
				},
				{
					"input":7,
					"interpolation":"STEP",
					"output":22
				},
				{
					"input":7,
					"interpolation":"STEP",
					"output":23
				},
				{
					"input":7,
					"interpolation":"STEP",
					"output":24
				},
				{
					"input":7,
					"interpolation":"STEP",
					"output":25
				},
				{
					"input":7,
					"interpolation":"STEP",
					"output":26
				},
				{
					"input":7,
					"interpolation":"STEP",
					"output":27
				},
				{
					"input":7,
					"interpolation":"STEP",
					"output":28
				},
				{
					"input":7,
					"interpolation":"STEP",
					"output":29
				},
				{
					"input":7,
					"interpolation":"STEP",
					"output":30
				},
				{
					"input":7,
					"interpolation":"STEP",
					"output":31
				},
				{
					"input":7,
					"interpolation":"STEP",
					"output":32
				},
				{
					"input":7,
					"interpolation":"STEP",
					"output":21
				},
				{
					"input":7,
					"interpolation":"STEP",
					"output":33
				},
				{
					"input":7,
					"interpolation":"STEP",
					"output":34
				},
				{
					"input":7,
					"interpolation":"STEP",
					"output":35
				},
				{
					"input":7,
					"interpolation":"STEP",
					"output":36
				},
				{
					"input":7,
					"interpolation":"STEP",
					"output":37
				},
				{
					"input":7,
					"interpolation":"STEP",
					"output":38
				},
				{
					"input":7,
					"interpolation":"STEP",
					"output":39
				},
				{
					"input":7,
					"interpolation":"STEP",
					"output":40
				},
				{
					"input":7,
					"interpolation":"STEP",
					"output":41
				},
				{
					"input":7,
					"interpolation":"STEP",
					"output":42
				},
				{
					"input":7,
					"interpolation":"STEP",
					"output":43
				},
				{
					"input":7,
					"interpolation":"STEP",
					"output":44
				},
				{
					"input":7,
					"interpolation":"STEP",
					"output":45
				},
				{
					"input":7,
					"interpolation":"STEP",
					"output":46
				},
				{
					"input":7,
					"interpolation":"STEP",
					"output":47
				},
				{
					"input":7,
					"interpolation":"STEP",
					"output":48
				},
				{
					"input":7,
					"interpolation":"STEP",
					"output":49
				},
				{
					"input":7,
					"interpolation":"STEP",
					"output":10
				},
				{
					"input":7,
					"interpolation":"STEP",
					"output":50
				},
				{
					"input":7,
					"interpolation":"STEP",
					"output":51
				},
				{
					"input":7,
					"interpolation":"STEP",
					"output":52
				},
				{
					"input":7,
					"interpolation":"STEP",
					"output":53
				},
				{
					"input":7,
					"interpolation":"STEP",
					"output":54
				},
				{
					"input":7,
					"interpolation":"STEP",
					"output":10
				}
			]
		},
		{
			"channels":[
				{
					"sampler":0,
					"target":{
						"node":16,
						"path":"translation"
					}
				},
				{
					"sampler":1,
					"target":{
						"node":16,
						"path":"rotation"
					}
				},
				{
					"sampler":2,
					"target":{
						"node":16,
						"path":"scale"
					}
				},
				{
					"sampler":3,
					"target":{
						"node":15,
						"path":"translation"
					}
				},
				{
					"sampler":4,
					"target":{
						"node":15,
						"path":"rotation"
					}
				},
				{
					"sampler":5,
					"target":{
						"node":15,
						"path":"scale"
					}
				},
				{
					"sampler":6,
					"target":{
						"node":14,
						"path":"translation"
					}
				},
				{
					"sampler":7,
					"target":{
						"node":14,
						"path":"rotation"
					}
				},
				{
					"sampler":8,
					"target":{
						"node":14,
						"path":"scale"
					}
				},
				{
					"sampler":9,
					"target":{
						"node":1,
						"path":"translation"
					}
				},
				{
					"sampler":10,
					"target":{
						"node":1,
						"path":"rotation"
					}
				},
				{
					"sampler":11,
					"target":{
						"node":1,
						"path":"scale"
					}
				},
				{
					"sampler":12,
					"target":{
						"node":0,
						"path":"translation"
					}
				},
				{
					"sampler":13,
					"target":{
						"node":0,
						"path":"rotation"
					}
				},
				{
					"sampler":14,
					"target":{
						"node":0,
						"path":"scale"
					}
				},
				{
					"sampler":15,
					"target":{
						"node":3,
						"path":"translation"
					}
				},
				{
					"sampler":16,
					"target":{
						"node":3,
						"path":"rotation"
					}
				},
				{
					"sampler":17,
					"target":{
						"node":3,
						"path":"scale"
					}
				},
				{
					"sampler":18,
					"target":{
						"node":2,
						"path":"translation"
					}
				},
				{
					"sampler":19,
					"target":{
						"node":2,
						"path":"rotation"
					}
				},
				{
					"sampler":20,
					"target":{
						"node":2,
						"path":"scale"
					}
				},
				{
					"sampler":21,
					"target":{
						"node":5,
						"path":"translation"
					}
				},
				{
					"sampler":22,
					"target":{
						"node":5,
						"path":"rotation"
					}
				},
				{
					"sampler":23,
					"target":{
						"node":5,
						"path":"scale"
					}
				},
				{
					"sampler":24,
					"target":{
						"node":4,
						"path":"translation"
					}
				},
				{
					"sampler":25,
					"target":{
						"node":4,
						"path":"rotation"
					}
				},
				{
					"sampler":26,
					"target":{
						"node":4,
						"path":"scale"
					}
				},
				{
					"sampler":27,
					"target":{
						"node":7,
						"path":"translation"
					}
				},
				{
					"sampler":28,
					"target":{
						"node":7,
						"path":"rotation"
					}
				},
				{
					"sampler":29,
					"target":{
						"node":7,
						"path":"scale"
					}
				},
				{
					"sampler":30,
					"target":{
						"node":6,
						"path":"translation"
					}
				},
				{
					"sampler":31,
					"target":{
						"node":6,
						"path":"rotation"
					}
				},
				{
					"sampler":32,
					"target":{
						"node":6,
						"path":"scale"
					}
				},
				{
					"sampler":33,
					"target":{
						"node":9,
						"path":"translation"
					}
				},
				{
					"sampler":34,
					"target":{
						"node":9,
						"path":"rotation"
					}
				},
				{
					"sampler":35,
					"target":{
						"node":9,
						"path":"scale"
					}
				},
				{
					"sampler":36,
					"target":{
						"node":8,
						"path":"translation"
					}
				},
				{
					"sampler":37,
					"target":{
						"node":8,
						"path":"rotation"
					}
				},
				{
					"sampler":38,
					"target":{
						"node":8,
						"path":"scale"
					}
				},
				{
					"sampler":39,
					"target":{
						"node":11,
						"path":"translation"
					}
				},
				{
					"sampler":40,
					"target":{
						"node":11,
						"path":"rotation"
					}
				},
				{
					"sampler":41,
					"target":{
						"node":11,
						"path":"scale"
					}
				},
				{
					"sampler":42,
					"target":{
						"node":10,
						"path":"translation"
					}
				},
				{
					"sampler":43,
					"target":{
						"node":10,
						"path":"rotation"
					}
				},
				{
					"sampler":44,
					"target":{
						"node":10,
						"path":"scale"
					}
				},
				{
					"sampler":45,
					"target":{
						"node":13,
						"path":"translation"
					}
				},
				{
					"sampler":46,
					"target":{
						"node":13,
						"path":"rotation"
					}
				},
				{
					"sampler":47,
					"target":{
						"node":13,
						"path":"scale"
					}
				},
				{
					"sampler":48,
					"target":{
						"node":12,
						"path":"translation"
					}
				},
				{
					"sampler":49,
					"target":{
						"node":12,
						"path":"rotation"
					}
				},
				{
					"sampler":50,
					"target":{
						"node":12,
						"path":"scale"
					}
				}
			],
			"name":"Open",
			"samplers":[
				{
					"input":55,
					"interpolation":"STEP",
					"output":8
				},
				{
					"input":55,
					"interpolation":"STEP",
					"output":9
				},
				{
					"input":55,
					"interpolation":"STEP",
					"output":10
				},
				{
					"input":55,
					"interpolation":"STEP",
					"output":11
				},
				{
					"input":55,
					"interpolation":"STEP",
					"output":12
				},
				{
					"input":55,
					"interpolation":"STEP",
					"output":10
				},
				{
					"input":55,
					"interpolation":"STEP",
					"output":13
				},
				{
					"input":55,
					"interpolation":"STEP",
					"output":14
				},
				{
					"input":55,
					"interpolation":"STEP",
					"output":15
				},
				{
					"input":55,
					"interpolation":"STEP",
					"output":16
				},
				{
					"input":55,
					"interpolation":"STEP",
					"output":17
				},
				{
					"input":55,
					"interpolation":"STEP",
					"output":18
				},
				{
					"input":55,
					"interpolation":"STEP",
					"output":19
				},
				{
					"input":55,
					"interpolation":"STEP",
					"output":20
				},
				{
					"input":55,
					"interpolation":"STEP",
					"output":21
				},
				{
					"input":55,
					"interpolation":"STEP",
					"output":22
				},
				{
					"input":55,
					"interpolation":"STEP",
					"output":23
				},
				{
					"input":55,
					"interpolation":"STEP",
					"output":24
				},
				{
					"input":55,
					"interpolation":"STEP",
					"output":25
				},
				{
					"input":55,
					"interpolation":"STEP",
					"output":26
				},
				{
					"input":55,
					"interpolation":"STEP",
					"output":27
				},
				{
					"input":55,
					"interpolation":"STEP",
					"output":28
				},
				{
					"input":55,
					"interpolation":"STEP",
					"output":29
				},
				{
					"input":55,
					"interpolation":"STEP",
					"output":30
				},
				{
					"input":55,
					"interpolation":"STEP",
					"output":31
				},
				{
					"input":55,
					"interpolation":"STEP",
					"output":32
				},
				{
					"input":55,
					"interpolation":"STEP",
					"output":21
				},
				{
					"input":55,
					"interpolation":"STEP",
					"output":33
				},
				{
					"input":55,
					"interpolation":"STEP",
					"output":34
				},
				{
					"input":55,
					"interpolation":"STEP",
					"output":35
				},
				{
					"input":55,
					"interpolation":"STEP",
					"output":36
				},
				{
					"input":55,
					"interpolation":"STEP",
					"output":37
				},
				{
					"input":55,
					"interpolation":"STEP",
					"output":38
				},
				{
					"input":55,
					"interpolation":"STEP",
					"output":39
				},
				{
					"input":55,
					"interpolation":"STEP",
					"output":40
				},
				{
					"input":55,
					"interpolation":"STEP",
					"output":41
				},
				{
					"input":55,
					"interpolation":"STEP",
					"output":42
				},
				{
					"input":55,
					"interpolation":"STEP",
					"output":43
				},
				{
					"input":55,
					"interpolation":"STEP",
					"output":44
				},
				{
					"input":55,
					"interpolation":"STEP",
					"output":45
				},
				{
					"input":55,
					"interpolation":"STEP",
					"output":46
				},
				{
					"input":55,
					"interpolation":"STEP",
					"output":47
				},
				{
					"input":55,
					"interpolation":"STEP",
					"output":48
				},
				{
					"input":55,
					"interpolation":"STEP",
					"output":49
				},
				{
					"input":55,
					"interpolation":"STEP",
					"output":10
				},
				{
					"input":55,
					"interpolation":"STEP",
					"output":50
				},
				{
					"input":56,
					"interpolation":"LINEAR",
					"output":57
				},
				{
					"input":55,
					"interpolation":"STEP",
					"output":58
				},
				{
					"input":55,
					"interpolation":"LINEAR",
					"output":59
				},
				{
					"input":55,
					"interpolation":"LINEAR",
					"output":60
				},
				{
					"input":55,
					"interpolation":"STEP",
					"output":61
				}
			]
		}
	],
	"materials":[
		{
			"doubleSided":true,
			"name":"material.001",
			"pbrMetallicRoughness":{
				"baseColorTexture":{
					"index":0
				},
				"metallicRoughnessTexture":{
					"index":1
				}
			}
		}
	],
	"meshes":[
		{
			"name":"Mesh0",
			"primitives":[
				{
					"attributes":{
						"POSITION":0,
						"NORMAL":1,
						"TEXCOORD_0":2,
						"JOINTS_0":3,
						"WEIGHTS_0":4
					},
					"indices":5,
					"material":0
				}
			]
		}
	],
	"textures":[
		{
			"sampler":0,
			"source":0
		},
		{
			"sampler":0,
			"source":1
		}
	],
	"images":[
		{
			"mimeType":"image/png",
			"name":"Baked_BaseColor",
			"uri":"Baked_BaseColor.png"
		},
		{
			"mimeType":"image/png",
			"name":"Baked_MetallicRoughness",
			"uri":"Baked_MetallicRoughness.png"
		}
	],
	"skins":[
		{
			"inverseBindMatrices":6,
			"joints":[
				16,
				15,
				14,
				1,
				0,
				3,
				2,
				5,
				4,
				7,
				6,
				9,
				8,
				11,
				10,
				13,
				12
			],
			"name":"UniRigArmature"
		}
	],
	"accessors":[
		{
			"bufferView":0,
			"componentType":5126,
			"count":18775,
			"max":[
				1.3704472780227661,
				3.164639949798584,
				1.4014389514923096
			],
			"min":[
				-1.3722858428955078,
				-1.8846019855800478e-08,
				-1.3928159475326538
			],
			"type":"VEC3"
		},
		{
			"bufferView":1,
			"componentType":5126,
			"count":18775,
			"type":"VEC3"
		},
		{
			"bufferView":2,
			"componentType":5126,
			"count":18775,
			"type":"VEC2"
		},
		{
			"bufferView":3,
			"componentType":5121,
			"count":18775,
			"type":"VEC4"
		},
		{
			"bufferView":4,
			"componentType":5126,
			"count":18775,
			"type":"VEC4"
		},
		{
			"bufferView":5,
			"componentType":5123,
			"count":64491,
			"type":"SCALAR"
		},
		{
			"bufferView":6,
			"componentType":5126,
			"count":17,
			"type":"MAT4"
		},
		{
			"bufferView":7,
			"componentType":5126,
			"count":2,
			"max":[
				0.5
			],
			"min":[
				0.041666666666666664
			],
			"type":"SCALAR"
		},
		{
			"bufferView":8,
			"componentType":5126,
			"count":2,
			"type":"VEC3"
		},
		{
			"bufferView":9,
			"componentType":5126,
			"count":2,
			"type":"VEC4"
		},
		{
			"bufferView":10,
			"componentType":5126,
			"count":2,
			"type":"VEC3"
		},
		{
			"bufferView":11,
			"componentType":5126,
			"count":2,
			"type":"VEC3"
		},
		{
			"bufferView":12,
			"componentType":5126,
			"count":2,
			"type":"VEC4"
		},
		{
			"bufferView":13,
			"componentType":5126,
			"count":2,
			"type":"VEC3"
		},
		{
			"bufferView":14,
			"componentType":5126,
			"count":2,
			"type":"VEC4"
		},
		{
			"bufferView":15,
			"componentType":5126,
			"count":2,
			"type":"VEC3"
		},
		{
			"bufferView":16,
			"componentType":5126,
			"count":2,
			"type":"VEC3"
		},
		{
			"bufferView":17,
			"componentType":5126,
			"count":2,
			"type":"VEC4"
		},
		{
			"bufferView":18,
			"componentType":5126,
			"count":2,
			"type":"VEC3"
		},
		{
			"bufferView":19,
			"componentType":5126,
			"count":2,
			"type":"VEC3"
		},
		{
			"bufferView":20,
			"componentType":5126,
			"count":2,
			"type":"VEC4"
		},
		{
			"bufferView":21,
			"componentType":5126,
			"count":2,
			"type":"VEC3"
		},
		{
			"bufferView":22,
			"componentType":5126,
			"count":2,
			"type":"VEC3"
		},
		{
			"bufferView":23,
			"componentType":5126,
			"count":2,
			"type":"VEC4"
		},
		{
			"bufferView":24,
			"componentType":5126,
			"count":2,
			"type":"VEC3"
		},
		{
			"bufferView":25,
			"componentType":5126,
			"count":2,
			"type":"VEC3"
		},
		{
			"bufferView":26,
			"componentType":5126,
			"count":2,
			"type":"VEC4"
		},
		{
			"bufferView":27,
			"componentType":5126,
			"count":2,
			"type":"VEC3"
		},
		{
			"bufferView":28,
			"componentType":5126,
			"count":2,
			"type":"VEC3"
		},
		{
			"bufferView":29,
			"componentType":5126,
			"count":2,
			"type":"VEC4"
		},
		{
			"bufferView":30,
			"componentType":5126,
			"count":2,
			"type":"VEC3"
		},
		{
			"bufferView":31,
			"componentType":5126,
			"count":2,
			"type":"VEC3"
		},
		{
			"bufferView":32,
			"componentType":5126,
			"count":2,
			"type":"VEC4"
		},
		{
			"bufferView":33,
			"componentType":5126,
			"count":2,
			"type":"VEC3"
		},
		{
			"bufferView":34,
			"componentType":5126,
			"count":2,
			"type":"VEC4"
		},
		{
			"bufferView":35,
			"componentType":5126,
			"count":2,
			"type":"VEC3"
		},
		{
			"bufferView":36,
			"componentType":5126,
			"count":2,
			"type":"VEC3"
		},
		{
			"bufferView":37,
			"componentType":5126,
			"count":2,
			"type":"VEC4"
		},
		{
			"bufferView":38,
			"componentType":5126,
			"count":2,
			"type":"VEC3"
		},
		{
			"bufferView":39,
			"componentType":5126,
			"count":2,
			"type":"VEC3"
		},
		{
			"bufferView":40,
			"componentType":5126,
			"count":2,
			"type":"VEC4"
		},
		{
			"bufferView":41,
			"componentType":5126,
			"count":2,
			"type":"VEC3"
		},
		{
			"bufferView":42,
			"componentType":5126,
			"count":2,
			"type":"VEC3"
		},
		{
			"bufferView":43,
			"componentType":5126,
			"count":2,
			"type":"VEC4"
		},
		{
			"bufferView":44,
			"componentType":5126,
			"count":2,
			"type":"VEC3"
		},
		{
			"bufferView":45,
			"componentType":5126,
			"count":2,
			"type":"VEC3"
		},
		{
			"bufferView":46,
			"componentType":5126,
			"count":2,
			"type":"VEC4"
		},
		{
			"bufferView":47,
			"componentType":5126,
			"count":2,
			"type":"VEC3"
		},
		{
			"bufferView":48,
			"componentType":5126,
			"count":2,
			"type":"VEC3"
		},
		{
			"bufferView":49,
			"componentType":5126,
			"count":2,
			"type":"VEC4"
		},
		{
			"bufferView":50,
			"componentType":5126,
			"count":2,
			"type":"VEC3"
		},
		{
			"bufferView":51,
			"componentType":5126,
			"count":2,
			"type":"VEC4"
		},
		{
			"bufferView":52,
			"componentType":5126,
			"count":2,
			"type":"VEC3"
		},
		{
			"bufferView":53,
			"componentType":5126,
			"count":2,
			"type":"VEC3"
		},
		{
			"bufferView":54,
			"componentType":5126,
			"count":2,
			"type":"VEC4"
		},
		{
			"bufferView":55,
			"componentType":5126,
			"count":2,
			"max":[
				0.5416666666666666
			],
			"min":[
				0.041666666666666664
			],
			"type":"SCALAR"
		},
		{
			"bufferView":56,
			"componentType":5126,
			"count":13,
			"max":[
				0.5416666666666666
			],
			"min":[
				0.041666666666666664
			],
			"type":"SCALAR"
		},
		{
			"bufferView":57,
			"componentType":5126,
			"count":13,
			"type":"VEC4"
		},
		{
			"bufferView":58,
			"componentType":5126,
			"count":2,
			"type":"VEC3"
		},
		{
			"bufferView":59,
			"componentType":5126,
			"count":2,
			"type":"VEC3"
		},
		{
			"bufferView":60,
			"componentType":5126,
			"count":2,
			"type":"VEC4"
		},
		{
			"bufferView":61,
			"componentType":5126,
			"count":2,
			"type":"VEC3"
		}
	],
	"bufferViews":[
		{
			"buffer":0,
			"byteLength":225300,
			"byteOffset":0,
			"target":34962
		},
		{
			"buffer":0,
			"byteLength":225300,
			"byteOffset":225300,
			"target":34962
		},
		{
			"buffer":0,
			"byteLength":150200,
			"byteOffset":450600,
			"target":34962
		},
		{
			"buffer":0,
			"byteLength":75100,
			"byteOffset":600800,
			"target":34962
		},
		{
			"buffer":0,
			"byteLength":300400,
			"byteOffset":675900,
			"target":34962
		},
		{
			"buffer":0,
			"byteLength":128982,
			"byteOffset":976300,
			"target":34963
		},
		{
			"buffer":0,
			"byteLength":1088,
			"byteOffset":1105284
		},
		{
			"buffer":0,
			"byteLength":8,
			"byteOffset":1106372
		},
		{
			"buffer":0,
			"byteLength":24,
			"byteOffset":1106380
		},
		{
			"buffer":0,
			"byteLength":32,
			"byteOffset":1106404
		},
		{
			"buffer":0,
			"byteLength":24,
			"byteOffset":1106436
		},
		{
			"buffer":0,
			"byteLength":24,
			"byteOffset":1106460
		},
		{
			"buffer":0,
			"byteLength":32,
			"byteOffset":1106484
		},
		{
			"buffer":0,
			"byteLength":24,
			"byteOffset":1106516
		},
		{
			"buffer":0,
			"byteLength":32,
			"byteOffset":1106540
		},
		{
			"buffer":0,
			"byteLength":24,
			"byteOffset":1106572
		},
		{
			"buffer":0,
			"byteLength":24,
			"byteOffset":1106596
		},
		{
			"buffer":0,
			"byteLength":32,
			"byteOffset":1106620
		},
		{
			"buffer":0,
			"byteLength":24,
			"byteOffset":1106652
		},
		{
			"buffer":0,
			"byteLength":24,
			"byteOffset":1106676
		},
		{
			"buffer":0,
			"byteLength":32,
			"byteOffset":1106700
		},
		{
			"buffer":0,
			"byteLength":24,
			"byteOffset":1106732
		},
		{
			"buffer":0,
			"byteLength":24,
			"byteOffset":1106756
		},
		{
			"buffer":0,
			"byteLength":32,
			"byteOffset":1106780
		},
		{
			"buffer":0,
			"byteLength":24,
			"byteOffset":1106812
		},
		{
			"buffer":0,
			"byteLength":24,
			"byteOffset":1106836
		},
		{
			"buffer":0,
			"byteLength":32,
			"byteOffset":1106860
		},
		{
			"buffer":0,
			"byteLength":24,
			"byteOffset":1106892
		},
		{
			"buffer":0,
			"byteLength":24,
			"byteOffset":1106916
		},
		{
			"buffer":0,
			"byteLength":32,
			"byteOffset":1106940
		},
		{
			"buffer":0,
			"byteLength":24,
			"byteOffset":1106972
		},
		{
			"buffer":0,
			"byteLength":24,
			"byteOffset":1106996
		},
		{
			"buffer":0,
			"byteLength":32,
			"byteOffset":1107020
		},
		{
			"buffer":0,
			"byteLength":24,
			"byteOffset":1107052
		},
		{
			"buffer":0,
			"byteLength":32,
			"byteOffset":1107076
		},
		{
			"buffer":0,
			"byteLength":24,
			"byteOffset":1107108
		},
		{
			"buffer":0,
			"byteLength":24,
			"byteOffset":1107132
		},
		{
			"buffer":0,
			"byteLength":32,
			"byteOffset":1107156
		},
		{
			"buffer":0,
			"byteLength":24,
			"byteOffset":1107188
		},
		{
			"buffer":0,
			"byteLength":24,
			"byteOffset":1107212
		},
		{
			"buffer":0,
			"byteLength":32,
			"byteOffset":1107236
		},
		{
			"buffer":0,
			"byteLength":24,
			"byteOffset":1107268
		},
		{
			"buffer":0,
			"byteLength":24,
			"byteOffset":1107292
		},
		{
			"buffer":0,
			"byteLength":32,
			"byteOffset":1107316
		},
		{
			"buffer":0,
			"byteLength":24,
			"byteOffset":1107348
		},
		{
			"buffer":0,
			"byteLength":24,
			"byteOffset":1107372
		},
		{
			"buffer":0,
			"byteLength":32,
			"byteOffset":1107396
		},
		{
			"buffer":0,
			"byteLength":24,
			"byteOffset":1107428
		},
		{
			"buffer":0,
			"byteLength":24,
			"byteOffset":1107452
		},
		{
			"buffer":0,
			"byteLength":32,
			"byteOffset":1107476
		},
		{
			"buffer":0,
			"byteLength":24,
			"byteOffset":1107508
		},
		{
			"buffer":0,
			"byteLength":32,
			"byteOffset":1107532
		},
		{
			"buffer":0,
			"byteLength":24,
			"byteOffset":1107564
		},
		{
			"buffer":0,
			"byteLength":24,
			"byteOffset":1107588
		},
		{
			"buffer":0,
			"byteLength":32,
			"byteOffset":1107612
		},
		{
			"buffer":0,
			"byteLength":8,
			"byteOffset":1107644
		},
		{
			"buffer":0,
			"byteLength":52,
			"byteOffset":1107652
		},
		{
			"buffer":0,
			"byteLength":208,
			"byteOffset":1107704
		},
		{
			"buffer":0,
			"byteLength":24,
			"byteOffset":1107912
		},
		{
			"buffer":0,
			"byteLength":24,
			"byteOffset":1107936
		},
		{
			"buffer":0,
			"byteLength":32,
			"byteOffset":1107960
		},
		{
			"buffer":0,
			"byteLength":24,
			"byteOffset":1107992
		}
	],
	"samplers":[
		{
			"magFilter":9729,
			"minFilter":9987
		}
	],
	"buffers":[
		{
			"byteLength":1108016,
			"uri":"chest.bin"
		}
	]
}
