{
	"asset":{
		"generator":"Khronos glTF Blender I/O v5.2.39",
		"version":"2.0"
	},
	"scene":0,
	"scenes":[
		{
			"name":"Scene",
			"nodes":[
				0
			]
		}
	],
	"nodes":[
		{
			"mesh":0,
			"name":"tripo_node_a2fc947d-a9f0-4fb8-8e2c-c1bcf6582704",
			"translation":[
				0,
				0.513583779335022,
				0
			]
		}
	],
	"materials":[
		{
			"name":"tripo_material_a2fc947d-a9f0-4fb8-8e2c-c1bcf6582704",
			"normalTexture":{
				"index":0
			},
			"pbrMetallicRoughness":{
				"baseColorTexture":{
					"index":1
				},
				"metallicRoughnessTexture":{
					"index":2
				}
			}
		}
	],
	"meshes":[
		{
			"name":"tripo_mesh_a2fc947d-a9f0-4fb8-8e2c-c1bcf6582704",
			"primitives":[
				{
					"attributes":{
						"POSITION":0,
						"NORMAL":1,
						"TEXCOORD_0":2
					},
					"indices":3,
					"material":0
				}
			]
		}
	],
	"textures":[
		{
			"sampler":0,
			"source":0
		},
		{
			"sampler":0,
			"source":1
		},
		{
			"sampler":0,
			"source":2
		}
	],
	"images":[
		{
			"mimeType":"image/jpeg",
			"name":"NormalGL_a2fc947d-a9f0-4fb8-8e2c-c1bcf6582704",
			"uri":"NormalGL_a2fc947d-a9f0-4fb8-8e2c-c1bcf6582704.jpg"
		},
		{
			"mimeType":"image/jpeg",
			"name":"Color_a2fc947d-a9f0-4fb8-8e2c-c1bcf6582704",
			"uri":"Color_a2fc947d-a9f0-4fb8-8e2c-c1bcf6582704.jpg"
		},
		{
			"mimeType":"image/jpeg",
			"name":"ORM_a2fc947d-a9f0-4fb8-8e2c-c1bcf6582704",
			"uri":"ORM_a2fc947d-a9f0-4fb8-8e2c-c1bcf6582704.jpg"
		}
	],
	"accessors":[
		{
			"bufferView":0,
			"componentType":5126,
			"count":7250,
			"max":[
				0.2802566885948181,
				0.5,
				0.2637372612953186
			],
			"min":[
				-0.2802566885948181,
				-0.5,
				-0.2637372612953186
			],
			"type":"VEC3"
		},
		{
			"bufferView":1,
			"componentType":5126,
			"count":7250,
			"type":"VEC3"
		},
		{
			"bufferView":2,
			"componentType":5126,
			"count":7250,
			"type":"VEC2"
		},
		{
			"bufferView":3,
			"componentType":5123,
			"count":29103,
			"type":"SCALAR"
		}
	],
	"bufferViews":[
		{
			"buffer":0,
			"byteLength":87000,
			"byteOffset":0,
			"target":34962
		},
		{
			"buffer":0,
			"byteLength":87000,
			"byteOffset":87000,
			"target":34962
		},
		{
			"buffer":0,
			"byteLength":58000,
			"byteOffset":174000,
			"target":34962
		},
		{
			"buffer":0,
			"byteLength":58206,
			"byteOffset":232000,
			"target":34963
		}
	],
	"samplers":[
		{
			"magFilter":9729,
			"minFilter":9987
		}
	],
	"buffers":[
		{
			"byteLength":290208,
			"uri":"teleport.bin"
		}
	]
}
