{
	"asset":{
		"generator":"Khronos glTF Blender I/O v5.2.39",
		"version":"2.0"
	},
	"scene":0,
	"scenes":[
		{
			"name":"Scene",
			"nodes":[
				0,
				1,
				2,
				3,
				4,
				5,
				6,
				7,
				8,
				9
			]
		}
	],
	"nodes":[
		{
			"mesh":0,
			"name":"tripo_node_2abd7978-8911-4f8f-a11e-db88e2ba224b",
			"scale":[
				5.467331886291504,
				5.467331886291504,
				5.467331886291504
			],
			"translation":[
				0,
				1.9445414543151855,
				-1.0654891729354858
			]
		},
		{
			"mesh":1,
			"name":"tripo_node_5cab95d3-4114-4ed1-8082-77395f913314",
			"rotation":[
				0,
				0.32504183053970337,
				0,
				0.9456996321678162
			],
			"scale":[
				2.574608564376831,
				2.574608564376831,
				2.574608564376831
			],
			"translation":[
				10.547941207885742,
				1.096630573272705,
				-6.479479789733887
			]
		},
		{
			"mesh":2,
			"name":"tripo_node_33e4db8c-7ca6-4f71-9150-13383305b9c5",
			"rotation":[
				0,
				0.7961645722389221,
				0,
				0.6050801277160645
			],
			"scale":[
				5.627752780914307,
				5.627752780914307,
				5.627752780914307
			],
			"translation":[
				-5.9235005378723145,
				1.9886621236801147,
				12.846882820129395
			]
		},
		{
			"mesh":3,
			"name":"tripo_node_40d59b7f-447d-4442-a45a-a8d224f5f0c3",
			"scale":[
				49.14727020263672,
				37.11540603637695,
				37.11540603637695
			],
			"translation":[
				-1.7868620157241821,
				1.8758695125579834,
				-0.275214284658432
			]
		},
		{
			"mesh":4,
			"name":"tripo_node_78ab602f-cc4a-4eba-addf-011aa19eb19f",
			"rotation":[
				0.005848912056535482,
				-0.9357168674468994,
				0.007152682635933161,
				0.35263097286224365
			],
			"scale":[
				10.00256061553955,
				10.002559661865234,
				10.002559661865234
			],
			"translation":[
				10.520362854003906,
				5.077536582946777,
				-12.616964340209961
			]
		},
		{
			"mesh":5,
			"name":"tripo_node_70927bca-45de-47bc-8e6a-a4b1797ba33c",
			"rotation":[
				0,
				0.7151556015014648,
				0,
				0.6989652514457703
			],
			"scale":[
				2.799994945526123,
				2.799994707107544,
				2.799994945526123
			],
			"translation":[
				18.15451431274414,
				1.4260151386260986,
				-5.024303913116455
			]
		},
		{
			"mesh":6,
			"name":"tripo_node_70927bca-45de-47bc-8e6a-a4b1797ba33c.001",
			"rotation":[
				0,
				0.7151556015014648,
				0,
				0.6989652514457703
			],
			"scale":[
				2.799994945526123,
				2.799994707107544,
				2.799994945526123
			],
			"translation":[
				18.15451431274414,
				1.4260151386260986,
				2.2663235664367676
			]
		},
		{
			"mesh":7,
			"name":"tripo_node_70927bca-45de-47bc-8e6a-a4b1797ba33c.002",
			"rotation":[
				0,
				0.08007221668958664,
				0,
				0.9967890977859497
			],
			"scale":[
				2.799994707107544,
				2.799994707107544,
				2.799994707107544
			],
			"translation":[
				3.5068390369415283,
				1.4260151386260986,
				14.080907821655273
			]
		},
		{
			"mesh":8,
			"name":"tripo_node_70927bca-45de-47bc-8e6a-a4b1797ba33c.003",
			"rotation":[
				0,
				-0.9987288117408752,
				0,
				0.05040748044848442
			],
			"scale":[
				2.799994945526123,
				2.799994707107544,
				2.799994945526123
			],
			"translation":[
				-1.797668695449829,
				1.4260151386260986,
				-14.189704895019531
			]
		},
		{
			"mesh":9,
			"name":"tripo_node_87697662-4db6-4bb9-a96a-8873df3da56d",
			"rotation":[
				0,
				-0.9999381303787231,
				0,
				0.011131460778415203
			],
			"scale":[
				7.246480941772461,
				7.246480464935303,
				7.246480941772461
			],
			"translation":[
				13.081879615783691,
				3.0064759254455566,
				11.322437286376953
			]
		}
	],
	"materials":[
		{
			"name":"tripo_material_2abd7978-8911-4f8f-a11e-db88e2ba224b",
			"normalTexture":{
				"index":0
			},
			"pbrMetallicRoughness":{
				"baseColorTexture":{
					"index":1
				},
				"metallicRoughnessTexture":{
					"index":2
				}
			}
		},
		{
			"name":"tripo_material_5cab95d3-4114-4ed1-8082-77395f913314",
			"normalTexture":{
				"index":3
			},
			"pbrMetallicRoughness":{
				"baseColorTexture":{
					"index":4
				},
				"metallicRoughnessTexture":{
					"index":5
				}
			}
		},
		{
			"name":"tripo_material_33e4db8c-7ca6-4f71-9150-13383305b9c5",
			"normalTexture":{
				"index":6
			},
			"pbrMetallicRoughness":{
				"baseColorTexture":{
					"index":7
				},
				"metallicRoughnessTexture":{
					"index":8
				}
			}
		},
		{
			"name":"tripo_material_40d59b7f-447d-4442-a45a-a8d224f5f0c3",
			"normalTexture":{
				"index":9
			},
			"pbrMetallicRoughness":{
				"baseColorTexture":{
					"index":10
				},
				"metallicRoughnessTexture":{
					"index":11
				}
			}
		},
		{
			"name":"tripo_material_78ab602f-cc4a-4eba-addf-011aa19eb19f",
			"normalTexture":{
				"index":12
			},
			"pbrMetallicRoughness":{
				"baseColorTexture":{
					"index":13
				},
				"metallicRoughnessTexture":{
					"index":14
				}
			}
		},
		{
			"name":"tripo_material_70927bca-45de-47bc-8e6a-a4b1797ba33c",
			"normalTexture":{
				"index":15
			},
			"pbrMetallicRoughness":{
				"baseColorTexture":{
					"index":16
				},
				"metallicRoughnessTexture":{
					"index":17
				}
			}
		},
		{
			"name":"tripo_material_70927bca-45de-47bc-8e6a-a4b1797ba33c.001",
			"normalTexture":{
				"index":18
			},
			"pbrMetallicRoughness":{
				"baseColorTexture":{
					"index":19
				},
				"metallicRoughnessTexture":{
					"index":20
				}
			}
		},
		{
			"name":"tripo_material_70927bca-45de-47bc-8e6a-a4b1797ba33c.002",
			"normalTexture":{
				"index":21
			},
			"pbrMetallicRoughness":{
				"baseColorTexture":{
					"index":22
				},
				"metallicRoughnessTexture":{
					"index":23
				}
			}
		},
		{
			"name":"tripo_material_70927bca-45de-47bc-8e6a-a4b1797ba33c.003",
			"normalTexture":{
				"index":24
			},
			"pbrMetallicRoughness":{
				"baseColorTexture":{
					"index":25
				},
				"metallicRoughnessTexture":{
					"index":26
				}
			}
		},
		{
			"name":"tripo_material_87697662-4db6-4bb9-a96a-8873df3da56d",
			"normalTexture":{
				"index":27
			},
			"pbrMetallicRoughness":{
				"baseColorTexture":{
					"index":28
				},
				"metallicRoughnessTexture":{
					"index":29
				}
			}
		}
	],
	"meshes":[
		{
			"name":"tripo_mesh_2abd7978-8911-4f8f-a11e-db88e2ba224b",
			"primitives":[
				{
					"attributes":{
						"POSITION":0,
						"NORMAL":1,
						"TEXCOORD_0":2
					},
					"indices":3,
					"material":0
				}
			]
		},
		{
			"name":"tripo_mesh_5cab95d3-4114-4ed1-8082-77395f913314",
			"primitives":[
				{
					"attributes":{
						"POSITION":4,
						"NORMAL":5,
						"TEXCOORD_0":6
					},
					"indices":7,
					"material":1
				}
			]
		},
		{
			"name":"tripo_mesh_33e4db8c-7ca6-4f71-9150-13383305b9c5",
			"primitives":[
				{
					"attributes":{
						"POSITION":8,
						"NORMAL":9,
						"TEXCOORD_0":10
					},
					"indices":11,
					"material":2
				}
			]
		},
		{
			"name":"tripo_mesh_40d59b7f-447d-4442-a45a-a8d224f5f0c3",
			"primitives":[
				{
					"attributes":{
						"POSITION":12,
						"NORMAL":13,
						"TEXCOORD_0":14
					},
					"indices":15,
					"material":3
				}
			]
		},
		{
			"name":"tripo_mesh_78ab602f-cc4a-4eba-addf-011aa19eb19f",
			"primitives":[
				{
					"attributes":{
						"POSITION":16,
						"NORMAL":17,
						"TEXCOORD_0":18
					},
					"indices":19,
					"material":4
				}
			]
		},
		{
			"name":"tripo_mesh_70927bca-45de-47bc-8e6a-a4b1797ba33c",
			"primitives":[
				{
					"attributes":{
						"POSITION":20,
						"NORMAL":21,
						"TEXCOORD_0":22
					},
					"indices":23,
					"material":5
				}
			]
		},
		{
			"name":"tripo_mesh_70927bca-45de-47bc-8e6a-a4b1797ba33c.001",
			"primitives":[
				{
					"attributes":{
						"POSITION":24,
						"NORMAL":25,
						"TEXCOORD_0":26
					},
					"indices":23,
					"material":6
				}
			]
		},
		{
			"name":"tripo_mesh_70927bca-45de-47bc-8e6a-a4b1797ba33c.002",
			"primitives":[
				{
					"attributes":{
						"POSITION":27,
						"NORMAL":28,
						"TEXCOORD_0":29
					},
					"indices":23,
					"material":7
				}
			]
		},
		{
			"name":"tripo_mesh_70927bca-45de-47bc-8e6a-a4b1797ba33c.003",
			"primitives":[
				{
					"attributes":{
						"POSITION":30,
						"NORMAL":31,
						"TEXCOORD_0":32
					},
					"indices":23,
					"material":8
				}
			]
		},
		{
			"name":"tripo_mesh_87697662-4db6-4bb9-a96a-8873df3da56d",
			"primitives":[
				{
					"attributes":{
						"POSITION":33,
						"NORMAL":34,
						"TEXCOORD_0":35
					},
					"indices":36,
					"material":9
				}
			]
		}
	],
	"textures":[
		{
			"sampler":0,
			"source":0
		},
		{
			"sampler":0,
			"source":1
		},
		{
			"sampler":0,
			"source":2
		},
		{
			"sampler":0,
			"source":3
		},
		{
			"sampler":0,
			"source":4
		},
		{
			"sampler":0,
			"source":5
		},
		{
			"sampler":0,
			"source":6
		},
		{
			"sampler":0,
			"source":7
		},
		{
			"sampler":0,
			"source":8
		},
		{
			"sampler":0,
			"source":9
		},
		{
			"sampler":0,
			"source":10
		},
		{
			"sampler":0,
			"source":11
		},
		{
			"sampler":0,
			"source":12
		},
		{
			"sampler":0,
			"source":13
		},
		{
			"sampler":0,
			"source":14
		},
		{
			"sampler":0,
			"source":15
		},
		{
			"sampler":0,
			"source":16
		},
		{
			"sampler":0,
			"source":17
		},
		{
			"sampler":0,
			"source":15
		},
		{
			"sampler":0,
			"source":16
		},
		{
			"sampler":0,
			"source":17
		},
		{
			"sampler":0,
			"source":15
		},
		{
			"sampler":0,
			"source":16
		},
		{
			"sampler":0,
			"source":17
		},
		{
			"sampler":0,
			"source":15
		},
		{
			"sampler":0,
			"source":16
		},
		{
			"sampler":0,
			"source":17
		},
		{
			"sampler":0,
			"source":18
		},
		{
			"sampler":0,
			"source":19
		},
		{
			"sampler":0,
			"source":20
		}
	],
	"images":[
		{
			"mimeType":"image/jpeg",
			"name":"NormalGL_2abd7978-8911-4f8f-a11e-db88e2ba224b",
			"uri":"NormalGL_2abd7978-8911-4f8f-a11e-db88e2ba224b.jpg"
		},
		{
			"mimeType":"image/jpeg",
			"name":"Color_2abd7978-8911-4f8f-a11e-db88e2ba224b",
			"uri":"Color_2abd7978-8911-4f8f-a11e-db88e2ba224b.jpg"
		},
		{
			"mimeType":"image/jpeg",
			"name":"ORM_2abd7978-8911-4f8f-a11e-db88e2ba224b",
			"uri":"ORM_2abd7978-8911-4f8f-a11e-db88e2ba224b.jpg"
		},
		{
			"mimeType":"image/jpeg",
			"name":"NormalGL_5cab95d3-4114-4ed1-8082-77395f913314",
			"uri":"NormalGL_5cab95d3-4114-4ed1-8082-77395f913314.jpg"
		},
		{
			"mimeType":"image/jpeg",
			"name":"Color_5cab95d3-4114-4ed1-8082-77395f913314",
			"uri":"Color_5cab95d3-4114-4ed1-8082-77395f913314.jpg"
		},
		{
			"mimeType":"image/jpeg",
			"name":"ORM_5cab95d3-4114-4ed1-8082-77395f913314",
			"uri":"ORM_5cab95d3-4114-4ed1-8082-77395f913314.jpg"
		},
		{
			"mimeType":"image/jpeg",
			"name":"NormalGL_33e4db8c-7ca6-4f71-9150-13383305b9c5",
			"uri":"NormalGL_33e4db8c-7ca6-4f71-9150-13383305b9c5.jpg"
		},
		{
			"mimeType":"image/jpeg",
			"name":"Color_33e4db8c-7ca6-4f71-9150-13383305b9c5",
			"uri":"Color_33e4db8c-7ca6-4f71-9150-13383305b9c5.jpg"
		},
		{
			"mimeType":"image/jpeg",
			"name":"ORM_33e4db8c-7ca6-4f71-9150-13383305b9c5",
			"uri":"ORM_33e4db8c-7ca6-4f71-9150-13383305b9c5.jpg"
		},
		{
			"mimeType":"image/jpeg",
			"name":"NormalGL_40d59b7f-447d-4442-a45a-a8d224f5f0c3",
			"uri":"NormalGL_40d59b7f-447d-4442-a45a-a8d224f5f0c3.jpg"
		},
		{
			"mimeType":"image/jpeg",
			"name":"Color_40d59b7f-447d-4442-a45a-a8d224f5f0c3",
			"uri":"Color_40d59b7f-447d-4442-a45a-a8d224f5f0c3.jpg"
		},
		{
			"mimeType":"image/jpeg",
			"name":"ORM_40d59b7f-447d-4442-a45a-a8d224f5f0c3",
			"uri":"ORM_40d59b7f-447d-4442-a45a-a8d224f5f0c3.jpg"
		},
		{
			"mimeType":"image/jpeg",
			"name":"NormalGL_78ab602f-cc4a-4eba-addf-011aa19eb19f",
			"uri":"NormalGL_78ab602f-cc4a-4eba-addf-011aa19eb19f.jpg"
		},
		{
			"mimeType":"image/jpeg",
			"name":"Color_78ab602f-cc4a-4eba-addf-011aa19eb19f",
			"uri":"Color_78ab602f-cc4a-4eba-addf-011aa19eb19f.jpg"
		},
		{
			"mimeType":"image/jpeg",
			"name":"ORM_78ab602f-cc4a-4eba-addf-011aa19eb19f",
			"uri":"ORM_78ab602f-cc4a-4eba-addf-011aa19eb19f.jpg"
		},
		{
			"mimeType":"image/jpeg",
			"name":"NormalGL_70927bca-45de-47bc-8e6a-a4b1797ba33c",
			"uri":"NormalGL_70927bca-45de-47bc-8e6a-a4b1797ba33c.jpg"
		},
		{
			"mimeType":"image/jpeg",
			"name":"Color_70927bca-45de-47bc-8e6a-a4b1797ba33c",
			"uri":"Color_70927bca-45de-47bc-8e6a-a4b1797ba33c.jpg"
		},
		{
			"mimeType":"image/jpeg",
			"name":"ORM_70927bca-45de-47bc-8e6a-a4b1797ba33c",
			"uri":"ORM_70927bca-45de-47bc-8e6a-a4b1797ba33c.jpg"
		},
		{
			"mimeType":"image/jpeg",
			"name":"NormalGL_87697662-4db6-4bb9-a96a-8873df3da56d",
			"uri":"NormalGL_87697662-4db6-4bb9-a96a-8873df3da56d.jpg"
		},
		{
			"mimeType":"image/jpeg",
			"name":"Color_87697662-4db6-4bb9-a96a-8873df3da56d",
			"uri":"Color_87697662-4db6-4bb9-a96a-8873df3da56d.jpg"
		},
		{
			"mimeType":"image/jpeg",
			"name":"ORM_87697662-4db6-4bb9-a96a-8873df3da56d",
			"uri":"ORM_87697662-4db6-4bb9-a96a-8873df3da56d.jpg"
		}
	],
	"accessors":[
		{
			"bufferView":0,
			"componentType":5126,
			"count":6000,
			"max":[
				0.490742027759552,
				0.3458769917488098,
				0.5
			],
			"min":[
				-0.490742027759552,
				-0.3458769917488098,
				-0.5
			],
			"type":"VEC3"
		},
		{
			"bufferView":1,
			"componentType":5126,
			"count":6000,
			"type":"VEC3"
		},
		{
			"bufferView":2,
			"componentType":5126,
			"count":6000,
			"type":"VEC2"
		},
		{
			"bufferView":3,
			"componentType":5123,
			"count":26385,
			"type":"SCALAR"
		},
		{
			"bufferView":4,
			"componentType":5126,
			"count":5874,
			"max":[
				0.05491267144680023,
				0.5,
				0.4343884587287903
			],
			"min":[
				-0.05491267144680023,
				-0.5,
				-0.4343884587287903
			],
			"type":"VEC3"
		},
		{
			"bufferView":5,
			"componentType":5126,
			"count":5874,
			"type":"VEC3"
		},
		{
			"bufferView":6,
			"componentType":5126,
			"count":5874,
			"type":"VEC2"
		},
		{
			"bufferView":7,
			"componentType":5123,
			"count":25881,
			"type":"SCALAR"
		},
		{
			"bufferView":8,
			"componentType":5126,
			"count":7637,
			"max":[
				0.5,
				0.353695809841156,
				0.40282636880874634
			],
			"min":[
				-0.5,
				-0.353695809841156,
				-0.40282636880874634
			],
			"type":"VEC3"
		},
		{
			"bufferView":9,
			"componentType":5126,
			"count":7637,
			"type":"VEC3"
		},
		{
			"bufferView":10,
			"componentType":5126,
			"count":7637,
			"type":"VEC2"
		},
		{
			"bufferView":11,
			"componentType":5123,
			"count":26298,
			"type":"SCALAR"
		},
		{
			"bufferView":12,
			"componentType":5126,
			"count":5699,
			"max":[
				0.5,
				0.06719575822353363,
				0.49997997283935547
			],
			"min":[
				-0.5,
				-0.06719575822353363,
				-0.49997997283935547
			],
			"type":"VEC3"
		},
		{
			"bufferView":13,
			"componentType":5126,
			"count":5699,
			"type":"VEC3"
		},
		{
			"bufferView":14,
			"componentType":5126,
			"count":5699,
			"type":"VEC2"
		},
		{
			"bufferView":15,
			"componentType":5123,
			"count":26214,
			"type":"SCALAR"
		},
		{
			"bufferView":16,
			"componentType":5126,
			"count":7940,
			"max":[
				0.4361497759819031,
				0.5,
				0.3447493016719818
			],
			"min":[
				-0.4361497759819031,
				-0.5,
				-0.3447493016719818
			],
			"type":"VEC3"
		},
		{
			"bufferView":17,
			"componentType":5126,
			"count":7940,
			"type":"VEC3"
		},
		{
			"bufferView":18,
			"componentType":5126,
			"count":7940,
			"type":"VEC2"
		},
		{
			"bufferView":19,
			"componentType":5123,
			"count":27687,
			"type":"SCALAR"
		},
		{
			"bufferView":20,
			"componentType":5126,
			"count":7522,
			"max":[
				0.11881810426712036,
				0.5,
				0.2240033596754074
			],
			"min":[
				-0.11881810426712036,
				-0.5,
				-0.2240033596754074
			],
			"type":"VEC3"
		},
		{
			"bufferView":21,
			"componentType":5126,
			"count":7522,
			"type":"VEC3"
		},
		{
			"bufferView":22,
			"componentType":5126,
			"count":7522,
			"type":"VEC2"
		},
		{
			"bufferView":23,
			"componentType":5123,
			"count":28857,
			"type":"SCALAR"
		},
		{
			"bufferView":24,
			"componentType":5126,
			"count":7522,
			"max":[
				0.11881810426712036,
				0.5,
				0.2240033596754074
			],
			"min":[
				-0.11881810426712036,
				-0.5,
				-0.2240033596754074
			],
			"type":"VEC3"
		},
		{
			"bufferView":25,
			"componentType":5126,
			"count":7522,
			"type":"VEC3"
		},
		{
			"bufferView":26,
			"componentType":5126,
			"count":7522,
			"type":"VEC2"
		},
		{
			"bufferView":27,
			"componentType":5126,
			"count":7522,
			"max":[
				0.11881810426712036,
				0.5,
				0.2240033596754074
			],
			"min":[
				-0.11881810426712036,
				-0.5,
				-0.2240033596754074
			],
			"type":"VEC3"
		},
		{
			"bufferView":28,
			"componentType":5126,
			"count":7522,
			"type":"VEC3"
		},
		{
			"bufferView":29,
			"componentType":5126,
			"count":7522,
			"type":"VEC2"
		},
		{
			"bufferView":30,
			"componentType":5126,
			"count":7522,
			"max":[
				0.11881810426712036,
				0.5,
				0.2240033596754074
			],
			"min":[
				-0.11881810426712036,
				-0.5,
				-0.2240033596754074
			],
			"type":"VEC3"
		},
		{
			"bufferView":31,
			"componentType":5126,
			"count":7522,
			"type":"VEC3"
		},
		{
			"bufferView":32,
			"componentType":5126,
			"count":7522,
			"type":"VEC2"
		},
		{
			"bufferView":33,
			"componentType":5126,
			"count":8164,
			"max":[
				0.37892574071884155,
				0.40396013855934143,
				0.5
			],
			"min":[
				-0.37892574071884155,
				-0.40396013855934143,
				-0.5
			],
			"type":"VEC3"
		},
		{
			"bufferView":34,
			"componentType":5126,
			"count":8164,
			"type":"VEC3"
		},
		{
			"bufferView":35,
			"componentType":5126,
			"count":8164,
			"type":"VEC2"
		},
		{
			"bufferView":36,
			"componentType":5123,
			"count":26799,
			"type":"SCALAR"
		}
	],
	"bufferViews":[
		{
			"buffer":0,
			"byteLength":72000,
			"byteOffset":0,
			"target":34962
		},
		{
			"buffer":0,
			"byteLength":72000,
			"byteOffset":72000,
			"target":34962
		},
		{
			"buffer":0,
			"byteLength":48000,
			"byteOffset":144000,
			"target":34962
		},
		{
			"buffer":0,
			"byteLength":52770,
			"byteOffset":192000,
			"target":34963
		},
		{
			"buffer":0,
			"byteLength":70488,
			"byteOffset":244772,
			"target":34962
		},
		{
			"buffer":0,
			"byteLength":70488,
			"byteOffset":315260,
			"target":34962
		},
		{
			"buffer":0,
			"byteLength":46992,
			"byteOffset":385748,
			"target":34962
		},
		{
			"buffer":0,
			"byteLength":51762,
			"byteOffset":432740,
			"target":34963
		},
		{
			"buffer":0,
			"byteLength":91644,
			"byteOffset":484504,
			"target":34962
		},
		{
			"buffer":0,
			"byteLength":91644,
			"byteOffset":576148,
			"target":34962
		},
		{
			"buffer":0,
			"byteLength":61096,
			"byteOffset":667792,
			"target":34962
		},
		{
			"buffer":0,
			"byteLength":52596,
			"byteOffset":728888,
			"target":34963
		},
		{
			"buffer":0,
			"byteLength":68388,
			"byteOffset":781484,
			"target":34962
		},
		{
			"buffer":0,
			"byteLength":68388,
			"byteOffset":849872,
			"target":34962
		},
		{
			"buffer":0,
			"byteLength":45592,
			"byteOffset":918260,
			"target":34962
		},
		{
			"buffer":0,
			"byteLength":52428,
			"byteOffset":963852,
			"target":34963
		},
		{
			"buffer":0,
			"byteLength":95280,
			"byteOffset":1016280,
			"target":34962
		},
		{
			"buffer":0,
			"byteLength":95280,
			"byteOffset":1111560,
			"target":34962
		},
		{
			"buffer":0,
			"byteLength":63520,
			"byteOffset":1206840,
			"target":34962
		},
		{
			"buffer":0,
			"byteLength":55374,
			"byteOffset":1270360,
			"target":34963
		},
		{
			"buffer":0,
			"byteLength":90264,
			"byteOffset":1325736,
			"target":34962
		},
		{
			"buffer":0,
			"byteLength":90264,
			"byteOffset":1416000,
			"target":34962
		},
		{
			"buffer":0,
			"byteLength":60176,
			"byteOffset":1506264,
			"target":34962
		},
		{
			"buffer":0,
			"byteLength":57714,
			"byteOffset":1566440,
			"target":34963
		},
		{
			"buffer":0,
			"byteLength":90264,
			"byteOffset":1624156,
			"target":34962
		},
		{
			"buffer":0,
			"byteLength":90264,
			"byteOffset":1714420,
			"target":34962
		},
		{
			"buffer":0,
			"byteLength":60176,
			"byteOffset":1804684,
			"target":34962
		},
		{
			"buffer":0,
			"byteLength":90264,
			"byteOffset":1864860,
			"target":34962
		},
		{
			"buffer":0,
			"byteLength":90264,
			"byteOffset":1955124,
			"target":34962
		},
		{
			"buffer":0,
			"byteLength":60176,
			"byteOffset":2045388,
			"target":34962
		},
		{
			"buffer":0,
			"byteLength":90264,
			"byteOffset":2105564,
			"target":34962
		},
		{
			"buffer":0,
			"byteLength":90264,
			"byteOffset":2195828,
			"target":34962
		},
		{
			"buffer":0,
			"byteLength":60176,
			"byteOffset":2286092,
			"target":34962
		},
		{
			"buffer":0,
			"byteLength":97968,
			"byteOffset":2346268,
			"target":34962
		},
		{
			"buffer":0,
			"byteLength":97968,
			"byteOffset":2444236,
			"target":34962
		},
		{
			"buffer":0,
			"byteLength":65312,
			"byteOffset":2542204,
			"target":34962
		},
		{
			"buffer":0,
			"byteLength":53598,
			"byteOffset":2607516,
			"target":34963
		}
	],
	"samplers":[
		{
			"magFilter":9729,
			"minFilter":9987
		}
	],
	"buffers":[
		{
			"byteLength":2661116,
			"uri":"city.bin"
		}
	]
}
